<?xml version="1.0" encoding="utf-8"?>
<!-- Generator: Adobe Illustrator 16.0.0, SVG Export Plug-In . SVG Version: 6.00 Build 0)  -->
<!DOCTYPE svg PUBLIC "-//W3C//DTD SVG 1.1 Tiny//EN" "http://www.w3.org/Graphics/SVG/1.1/DTD/svg11-tiny.dtd">
<svg version="1.1" baseProfile="tiny" id="Layer_1" xmlns="http://www.w3.org/2000/svg" xmlns:xlink="http://www.w3.org/1999/xlink"
	 x="0px" y="0px" width="400px" height="83.1px" viewBox="0 0 400 83.1" xml:space="preserve">
<g>
	<g>
		<path fill="#FFFFFF" d="M48.9,22.5C48.9,22.5,48.9,22.5,48.9,22.5c1.4-1.1,3-1.7,4.8-1.9c1.7-0.2,3.4,0.1,4.8,0.7V3.2
			c0-1.4-0.2-2.3-0.5-2.7C57.7,0.2,56.9,0,55.6,0h-9.3c-1.3,0-2.1,0.2-2.4,0.5c-0.3,0.4-0.5,1.3-0.5,2.7v13.4v8.3v3.4
			C45.4,26.3,46.8,24.1,48.9,22.5z"/>
		<path fill="#FFFFFF" d="M43.4,61.3c0,1.4,0.2,2.3,0.5,2.7c0.3,0.4,1.1,0.5,2.4,0.5h9.3c1.3,0,2.1-0.2,2.4-0.5
			c0.3-0.4,0.5-1.2,0.5-2.7V39.8c-3.7,2.8-9,5-15.1,6.1V61.3z"/>
		<path fill="#EAEAEA" d="M53.7,20.6c-1.8,0.2-3.4,0.9-4.8,1.9c0,0,0,0,0,0c-2.1,1.6-3.5,3.8-5.4,5.8v9.6v2.1v5.9
			c6.1-1.1,11.4-3.3,15.1-6.1V21.3C57.1,20.7,55.4,20.4,53.7,20.6z"/>
		<path fill="#FFFFFF" d="M10.7,30.1c2.4,1.3,6,2.8,10.9,3.4v-8.6v-8.3V3.2c0-1.4-0.2-2.3-0.5-2.7C20.8,0.2,20,0,18.8,0H9.4
			C8.2,0,7.4,0.2,7,0.5C6.7,0.9,6.5,1.8,6.5,3.2V27C8,28.5,9.5,29.4,10.7,30.1z"/>
		<path fill="#FFFFFF" d="M6.5,35.8v25.5c0,1.4,0.2,2.3,0.5,2.7c0.3,0.4,1.1,0.5,2.4,0.5h9.3c1.3,0,2.1-0.2,2.4-0.5
			c0.3-0.4,0.5-1.2,0.5-2.7V45.6C16.5,44.2,11.1,41.3,6.5,35.8z"/>
		<path fill="#EAEAEA" d="M21.6,37.9v-4.4c-4.9-0.6-8.5-2-10.9-3.4C9.5,29.4,8,28.5,6.5,27v8.8c4.6,5.4,9.9,8.3,15.1,9.8v-5.6V37.9z
			"/>
		<path fill="#FFFFFF" d="M62.5,31.1c0.9-1.6,1.3-3.5,1.1-5.4c-0.5-5-5-8.6-10-8.1c-1.7,0.2-3.3,0.8-4.6,1.8c0,0,0,0,0,0
			c-4.3,3.3-5.5,9.3-16.1,10.5c-9.8,1-16.5-1.2-20.2-3.2c-1.9-1.1-4.4-2.6-6.2-6v8.5c11.2,16.6,29,13.6,35.1,12.9
			c9.7-1.2,17.6-5.4,20.7-10.6C62.4,31.3,62.5,31.2,62.5,31.1C62.5,31.1,62.5,31.1,62.5,31.1C62.6,31.1,62.6,31.1,62.5,31.1
			C62.6,31.1,62.6,31.1,62.5,31.1C62.5,31.1,62.5,31.1,62.5,31.1z"/>
		<path fill="#EAEAEA" d="M59.5,21.2c0,0,4.5,3.1,2.1,9.5C61.6,30.7,62.1,25.4,59.5,21.2z"/>
	</g>
	<g>
		<path fill="#FFFFFF" d="M97.3,60.3c-2.8,3.6-6.7,5.4-11.6,5.4c-3.2,0-6.2-0.8-9-2.4c-3.2-1.8-5.7-4.2-7.4-7.3
			c-1.7-3-2.6-6.5-2.6-10.4c0-6.4,2.2-11.5,6.7-15.3c3.5-3.1,7.6-4.6,12.2-4.6c2.4,0,4.6,0.4,6.5,1.2c1.9,0.8,3.6,2,5.2,3.7v-0.9
			c0-1.2,0.2-2,0.5-2.3c0.3-0.3,1.1-0.5,2.3-0.5h7.7c1.2,0,2,0.2,2.3,0.5c0.3,0.3,0.5,1.1,0.5,2.3v32.1c0,1.2-0.2,2-0.5,2.3
			c-0.3,0.3-1.1,0.5-2.3,0.5h-7.7c-1.2,0-2-0.2-2.3-0.5c-0.3-0.3-0.5-1.1-0.5-2.3V60.3z M89.1,37.2c-2.4,0-4.4,0.8-6.1,2.5
			c-1.7,1.7-2.5,3.7-2.5,6.1c0,2.3,0.8,4.2,2.5,6c1.6,1.7,3.7,2.5,6.1,2.5c2.4,0,4.4-0.8,6.1-2.5c1.7-1.7,2.5-3.7,2.5-6
			c0-2.4-0.8-4.4-2.5-6C93.5,38,91.5,37.2,89.1,37.2z"/>
		<path fill="#FFFFFF" d="M133,33.1c1.5-2.4,3.2-4.1,5.2-5.1c1.9-1,4.3-1.6,7.1-1.6c1.1,0,1.8,0.2,2.1,0.5c0.3,0.3,0.4,1.1,0.4,2.3
			v6.6c0,1-0.1,1.7-0.3,2.1c-0.2,0.4-0.6,0.6-1.2,0.6c-0.2,0-0.4,0-0.7-0.1c-1.8-0.4-3.1-0.6-3.9-0.6c-2.5,0-4.5,0.9-6.2,2.5
			c-0.9,0.9-1.6,2-1.9,3.2c-0.4,1.2-0.6,2.8-0.6,4.8v13.3c0,1.2-0.2,2-0.5,2.3c-0.3,0.3-1.1,0.5-2.3,0.5h-7.8c-1.2,0-2-0.2-2.3-0.5
			c-0.3-0.3-0.5-1.1-0.5-2.3V29.7c0-1.2,0.2-2,0.5-2.3c0.3-0.3,1.1-0.5,2.3-0.5h7.8c1.2,0,2,0.2,2.3,0.5c0.3,0.3,0.5,1.1,0.5,2.3
			V33.1z"/>
		<path fill="#FFFFFF" d="M167.1,33.1c1.5-2.4,3.2-4.1,5.2-5.1c1.9-1,4.3-1.6,7.1-1.6c1.1,0,1.8,0.2,2.1,0.5
			c0.3,0.3,0.4,1.1,0.4,2.3v6.6c0,1-0.1,1.7-0.3,2.1c-0.2,0.4-0.6,0.6-1.2,0.6c-0.2,0-0.4,0-0.7-0.1c-1.8-0.4-3.1-0.6-3.9-0.6
			c-2.5,0-4.5,0.9-6.2,2.5c-0.9,0.9-1.6,2-1.9,3.2c-0.4,1.2-0.6,2.8-0.6,4.8v13.3c0,1.2-0.2,2-0.5,2.3c-0.3,0.3-1.1,0.5-2.3,0.5
			h-7.8c-1.2,0-2-0.2-2.3-0.5c-0.3-0.3-0.5-1.1-0.5-2.3V29.7c0-1.2,0.2-2,0.5-2.3c0.3-0.3,1.1-0.5,2.3-0.5h7.8c1.2,0,2,0.2,2.3,0.5
			c0.3,0.3,0.5,1.1,0.5,2.3V33.1z"/>
		<path fill="#FFFFFF" d="M203.2,59.4l-16.2-29c-0.5-0.9-0.8-1.5-0.8-1.9c0-0.6,0.2-1,0.6-1.2c0.4-0.2,1.1-0.3,2.1-0.3h9.4
			c1.1,0,1.7,0.1,2,0.2c0.2,0.1,0.6,0.7,1.1,1.6l9.1,17.4l8.8-17.4c0.5-1,0.9-1.5,1.1-1.7c0.2-0.1,0.9-0.2,2-0.2h9.2
			c1,0,1.7,0.1,2.1,0.3c0.4,0.2,0.6,0.6,0.6,1.2c0,0.4-0.2,1-0.7,1.9l-27.4,51.1c-0.5,0.9-0.9,1.5-1.1,1.6c-0.3,0.1-0.9,0.2-2,0.2
			h-9c-1,0-1.6-0.1-1.9-0.2c-0.6-0.3-0.9-0.7-0.9-1.3c0-0.4,0.2-1,0.7-1.9L203.2,59.4z"/>
		<path fill="#FFFFFF" d="M274.9,54.9h-19.8l-3,7.6c-0.4,1-0.7,1.6-1,1.8c-0.3,0.2-1,0.3-2.1,0.3h-9.4c-1,0-1.7-0.1-2.1-0.3
			c-0.4-0.2-0.6-0.6-0.6-1.2c0-0.3,0.2-0.9,0.5-1.7l19.2-49.9c0.1-0.2,0.2-0.4,0.2-0.7c0.2-0.6,0.5-1,0.8-1.2s1-0.2,2-0.2h11.2
			c1.1,0,1.8,0.1,2.1,0.3c0.3,0.2,0.6,0.8,1,1.8l18.8,49.9c0.3,0.8,0.5,1.4,0.5,1.7c0,0.6-0.2,1-0.6,1.2c-0.4,0.2-1.1,0.3-2.1,0.3
			h-9.6c-1.1,0-1.8-0.1-2.1-0.3c-0.3-0.2-0.6-0.8-1-1.8L274.9,54.9z M271.1,43.9l-6-17.6l-6,17.6H271.1z"/>
		<path fill="#FFFFFF" d="M312.2,31.1c2.9-3.6,6.7-5.4,11.6-5.4c3.2,0,6.2,0.8,9,2.4c3.2,1.8,5.7,4.2,7.4,7.3
			c1.7,3,2.6,6.5,2.6,10.4c0,6.4-2.2,11.5-6.7,15.3c-3.5,3-7.6,4.6-12.2,4.6c-2.4,0-4.6-0.4-6.4-1.2c-1.9-0.8-3.6-2-5.3-3.7v19.7
			c0,1.2-0.2,2-0.5,2.3c-0.3,0.3-1.1,0.5-2.3,0.5h-7.8c-1.2,0-2-0.2-2.3-0.5c-0.3-0.3-0.5-1.1-0.5-2.3V29.7c0-1.2,0.2-2,0.5-2.3
			c0.3-0.3,1.1-0.5,2.3-0.5h7.8c1.2,0,2,0.2,2.3,0.5c0.3,0.3,0.5,1.1,0.5,2.3V31.1z M320.4,37.2c-2.4,0-4.4,0.8-6.1,2.5
			c-1.7,1.7-2.5,3.7-2.5,6c0,2.4,0.8,4.4,2.5,6.1c1.7,1.7,3.7,2.5,6.1,2.5c2.4,0,4.4-0.8,6.1-2.5c1.7-1.7,2.5-3.8,2.5-6.2
			c0-2.3-0.8-4.3-2.5-6C324.8,38,322.8,37.2,320.4,37.2z"/>
		<path fill="#FFFFFF" d="M363.7,31.1c2.9-3.6,6.7-5.4,11.6-5.4c3.2,0,6.2,0.8,9,2.4c3.2,1.8,5.7,4.2,7.4,7.3
			c1.7,3,2.6,6.5,2.6,10.4c0,6.4-2.2,11.5-6.7,15.3c-3.5,3-7.6,4.6-12.2,4.6c-2.4,0-4.6-0.4-6.4-1.2c-1.9-0.8-3.6-2-5.3-3.7v19.7
			c0,1.2-0.2,2-0.5,2.3c-0.3,0.3-1.1,0.5-2.3,0.5h-7.8c-1.2,0-2-0.2-2.3-0.5c-0.3-0.3-0.5-1.1-0.5-2.3V29.7c0-1.2,0.2-2,0.5-2.3
			c0.3-0.3,1.1-0.5,2.3-0.5h7.8c1.2,0,2,0.2,2.3,0.5c0.3,0.3,0.5,1.1,0.5,2.3V31.1z M371.9,37.2c-2.4,0-4.4,0.8-6.1,2.5
			c-1.7,1.7-2.5,3.7-2.5,6c0,2.4,0.8,4.4,2.5,6.1c1.7,1.7,3.7,2.5,6.1,2.5c2.4,0,4.4-0.8,6.1-2.5c1.7-1.7,2.5-3.8,2.5-6.2
			c0-2.3-0.8-4.3-2.5-6C376.2,38,374.2,37.2,371.9,37.2z"/>
	</g>
</g>
</svg>
