<?xml version="1.0" encoding="utf-8"?>
<!-- Generator: Adobe Illustrator 16.0.0, SVG Export Plug-In . SVG Version: 6.00 Build 0)  -->
<!DOCTYPE svg PUBLIC "-//W3C//DTD SVG 1.1 Tiny//EN" "http://www.w3.org/Graphics/SVG/1.1/DTD/svg11-tiny.dtd">
<svg version="1.1" baseProfile="tiny" id="Layer_1" xmlns="http://www.w3.org/2000/svg" xmlns:xlink="http://www.w3.org/1999/xlink"
	 x="0px" y="0px" width="528.6px" height="500px" viewBox="0 0 528.6 500" xml:space="preserve">
<polygon fill="#F9B49D" points="1530.9,1100.3 1550.8,1095.8 1570.7,1100.3 1570.7,1129.6 1530.9,1129.6 "/>
<path fill="#F9B49D" d="M1559.3,1100.8c0,2-3.8,3.5-8.5,3.5l0,0c-4.7,0-8.5-1.6-8.5-3.5v-7.5c0-2,3.8-3.5,8.5-3.5l0,0
	c4.7,0,8.5,1.6,8.5,3.5V1100.8z"/>
<g>
	<ellipse fill="#FFDD00" cx="1513.6" cy="1033.6" rx="9.7" ry="9.6"/>
	<ellipse fill="#FFDD00" cx="1513.6" cy="1023.1" rx="9.7" ry="9.6"/>
	<ellipse fill="#FFDD00" cx="1524.7" cy="1010.1" rx="14.3" ry="14.1"/>
	<ellipse fill="#FFDD00" cx="1577.6" cy="1013.5" rx="14.3" ry="14.1"/>
	<ellipse fill="#FFDD00" cx="1565.4" cy="1004.2" rx="14.3" ry="14.1"/>
	<ellipse fill="#FFDD00" cx="1552" cy="997.3" rx="9.2" ry="9.1"/>
	<ellipse fill="#FFDD00" cx="1531.2" cy="999.4" rx="5.6" ry="5.5"/>
	<ellipse fill="#FFDD00" cx="1539" cy="994.8" rx="5.6" ry="5.5"/>
	<path fill="#FFDD00" d="M1595.7,1033.7c0-0.9-0.1-1.8-0.1-2.7c-1,0.7-2,1.4-3.1,2l-6.1-1.5v4.2c-3.6,1.2-7.5,1.9-11.5,1.9
		c-19,0-34.4-14.8-34.4-33c0-4.3,0.9-8.4,2.4-12.2c-20.4,3.7-35.9,20.7-36.2,41.3l0,0v20.5h5.1c7.5,13.6,22.3,22.8,39.4,22.8
		c17.1,0,31.9-9.2,39.4-22.8h5.1L1595.7,1033.7L1595.7,1033.7z"/>
	<circle fill="#E8A893" cx="1507.8" cy="1054.3" r="7"/>
	<circle fill="#E8A893" cx="1594" cy="1054.3" r="7"/>
	<path fill="#F8AA98" d="M1591.9,1056.6c0,20.9-18.2,37.8-40.7,37.8l0,0c-22.5,0-40.7-16.9-40.7-37.8v-16.2
		c0-20.9,18.2-37.8,40.7-37.8l0,0c22.5,0,40.7,16.9,40.7,37.8V1056.6z"/>
	<path fill="#DEA18D" d="M1591.9,1047.6l-6.7,0.2c0,0-1.2,14.3-33.1,14.3s-33.1-14.3-33.1-14.3h-8.4c0,0-3.3,18,9.5,33.1
		s32,13.5,32,13.5s19.2,1.5,32-13.5S1591.9,1047.6,1591.9,1047.6z"/>
	<g>
		<path fill="#FFFFFF" d="M1552,1078c5.4,0,9.7-4.3,9.7-9.7h-19.4C1542.3,1073.6,1546.7,1078,1552,1078z"/>
	</g>
	<path fill="#FFDD00" d="M1551.2,991.6c-2.8,0-5.6,0.3-8.3,0.8c-1.6,3.8-2.4,7.9-2.4,12.2c0,18.2,26,21.4,37.2,15.3
		c-4.5,8.6,6.2,21.2,17.9,11.1C1593.8,1009,1574.6,991.6,1551.2,991.6z"/>
	
		<polyline fill="none" stroke="#414042" stroke-width="1.5" stroke-linecap="round" stroke-linejoin="round" stroke-miterlimit="10" points="
		1546.6,1058.1 1555.8,1058.1 1550.6,1046.6 	"/>
	<g>
		<path fill="none" stroke="#414042" stroke-width="1.5" stroke-linecap="round" stroke-miterlimit="10" d="M1530.1,1045.7
			c0-3.7,3-6.7,6.7-6.7s6.7,3,6.7,6.7"/>
	</g>
	<path fill="none" stroke="#414042" stroke-width="1.5" stroke-linecap="round" stroke-miterlimit="10" d="M1558.8,1046.6
		c0-3.7,3-6.7,6.7-6.7s6.7,3,6.7,6.7"/>
	
		<line fill="none" stroke="#414042" stroke-width="1.5" stroke-linecap="round" stroke-miterlimit="10" x1="1526.7" y1="1034.9" x2="1543.5" y2="1030.5"/>
	
		<line fill="none" stroke="#414042" stroke-width="1.5" stroke-linecap="round" stroke-miterlimit="10" x1="1574.9" y1="1034.9" x2="1558.1" y2="1030.5"/>
	<ellipse fill="#FFDD00" cx="1539" cy="1006.4" rx="5.6" ry="5.5"/>
	<ellipse fill="#FFDD00" cx="1579.7" cy="1020.4" rx="5.6" ry="5.5"/>
	<ellipse fill="#FFDD00" cx="1591.9" cy="1018.2" rx="4.4" ry="4.3"/>
	<ellipse fill="#FFDD00" cx="1595.5" cy="1024.2" rx="4.4" ry="4.3"/>
	<ellipse fill="#FFDD00" cx="1595.7" cy="1029.7" rx="3" ry="2.9"/>
	<ellipse fill="#FFDD00" cx="1513.6" cy="1023.1" rx="4.1" ry="4.1"/>
	<ellipse fill="#FFDD00" cx="1517.7" cy="1017.6" rx="4.1" ry="4.1"/>
	<ellipse fill="#FFDD00" cx="1521.5" cy="1011.9" rx="4.1" ry="4.1"/>
	<ellipse fill="#FFDD00" cx="1524.7" cy="1007.8" rx="4.1" ry="4.1"/>
	<ellipse fill="#FFDD00" cx="1531.2" cy="1009" rx="4.1" ry="4.1"/>
</g>
<line fill="none" stroke="#DEA18D" stroke-linecap="round" stroke-linejoin="round" stroke-miterlimit="10" x1="1550.8" y1="1129" x2="1550.8" y2="1117.5"/>
<path fill="#4B8B9C" d="M1579.2,1102.9l-8.5-2.6c0,11-8.9,27-19.9,27s-19.9-16-19.9-27l-8.5,2.6c-0.2,0-0.5,0-0.7,0v34.3
	c0.2,0,0.5,0,0.7,0h28.4h28.4c0.2,0,0.5,0,0.7,0V1103C1579.7,1102.9,1579.4,1102.9,1579.2,1102.9z"/>
<g>
	
		<line fill="none" stroke="#DEA18D" stroke-linecap="round" stroke-linejoin="round" stroke-miterlimit="10" x1="1534.1" y1="1103.6" x2="1545.2" y2="1105"/>
	
		<line fill="none" stroke="#DEA18D" stroke-linecap="round" stroke-linejoin="round" stroke-miterlimit="10" x1="1567.6" y1="1103.6" x2="1556.5" y2="1105"/>
</g>
<g>
	<path fill="none" stroke="#DEA18D" stroke-linecap="round" stroke-linejoin="round" stroke-miterlimit="10" d="M1549.4,1105.4
		c0.2,0.7,0.9,1.3,1.7,1.3c0.8,0,1.5-0.6,1.7-1.3"/>
</g>
<path fill="none" stroke="#FFF450" stroke-linecap="round" stroke-miterlimit="10" d="M1570.7,1100.3c0,11-8.9,27-19.9,27
	s-19.9-16-19.9-27"/>
<path fill="#F9B49D" d="M1518.7,1102.9c-4,0.4-7.1,3.7-7.1,7.8v18.7c0,4.1,3.1,7.4,7.1,7.8h3v-34.3H1518.7z"/>
<path fill="#F9B49D" d="M1582.9,1102.9c4,0.4,7.1,3.7,7.1,7.8v18.7c0,4.1-3.1,7.4-7.1,7.8h-3v-34.3H1582.9z"/>
<polyline fill="none" stroke="#38160E" stroke-width="0.75" stroke-linecap="round" stroke-linejoin="round" stroke-miterlimit="10" points="
	1534.7,1099.5 1550.8,1127.3 1567.6,1099.5 "/>
<circle fill="#38160E" cx="1550.8" cy="1127.3" r="0.9"/>
<path fill="#1C5B3D" d="M1554,1136.7c0,0.9-0.7,1.6-1.6,1.6h-3.1c-0.9,0-1.6-0.7-1.6-1.6l0.4-7.8c0-0.9,0.7-1.6,1.6-1.6h2.2
	c0.9,0,1.6,0.7,1.6,1.6L1554,1136.7z"/>
<g>
	<g>
		<polygon fill="#F9B49D" points="226.5,335.2 272.3,324.8 318.2,335.2 318.2,402.6 226.5,402.6 		"/>
	</g>
	<g>
		<path fill="#F9B49D" d="M291.9,336.2c0,4.5-8.7,8.1-19.5,8.1l0,0c-10.8,0-19.5-3.6-19.5-8.1V319c0-4.5,8.7-8.1,19.5-8.1l0,0
			c10.8,0,19.5,3.6,19.5,8.1V336.2z"/>
	</g>
	<g>
		<g>
			<path fill="#FFDD00" d="M209.1,181.8c0,12.2-10,22-22.4,22c-12.3,0-22.4-9.9-22.4-22c0-12.2,10-22,22.4-22
				C199.1,159.8,209.1,169.6,209.1,181.8z"/>
		</g>
		<g>
			<path fill="#FFDD00" d="M209.1,157.5c0,12.2-10,22-22.4,22c-12.3,0-22.4-9.9-22.4-22c0-12.2,10-22,22.4-22
				C199.1,135.5,209.1,145.4,209.1,157.5z"/>
		</g>
		<g>
			<path fill="#FFDD00" d="M245.1,127.7c0,17.8-14.7,32.3-32.8,32.3c-18.1,0-32.8-14.5-32.8-32.3c0-17.8,14.7-32.3,32.8-32.3
				C230.5,95.4,245.1,109.9,245.1,127.7z"/>
		</g>
		<g>
			<path fill="#FFDD00" d="M366.8,135.5c0,17.8-14.7,32.3-32.8,32.3c-18.1,0-32.8-14.5-32.8-32.3c0-17.8,14.7-32.3,32.8-32.3
				C352.2,103.2,366.8,117.6,366.8,135.5z"/>
		</g>
		<g>
			<path fill="#FFDD00" d="M338.8,114c0,17.8-14.7,32.3-32.8,32.3c-18.1,0-32.8-14.5-32.8-32.3c0-17.8,14.7-32.3,32.8-32.3
				C324.1,81.7,338.8,96.2,338.8,114z"/>
		</g>
		<g>
			<ellipse fill="#FFDD00" cx="275.1" cy="98.3" rx="21.1" ry="20.8"/>
		</g>
		<g>
			<ellipse fill="#FFDD00" cx="227.2" cy="103.2" rx="12.9" ry="12.7"/>
		</g>
		<g>
			<ellipse fill="#FFDD00" cx="245.1" cy="92.4" rx="12.9" ry="12.7"/>
		</g>
		<g>
			<path fill="#FFDD00" d="M375.5,181.9c0-2.1-0.1-4.2-0.3-6.3c-2.3,1.6-4.6,3.1-7,4.5l-14-3.4v9.7c-8.3,2.8-17.1,4.3-26.4,4.3
				c-43.7,0-79.2-34-79.2-75.9c0-9.9,2-19.3,5.6-28c-46.9,8.5-82.5,47.7-83.2,95l0,0v47h11.8c17.1,31.2,51.3,52.4,90.6,52.4
				c39.3,0,73.4-21.3,90.6-52.4h11.8L375.5,181.9L375.5,181.9z"/>
		</g>
		<g>
			<path fill="#E8A893" d="M189.5,229.4c0,8.9-7.2,16.1-16.1,16.1c-8.9,0-16.1-7.2-16.1-16.1c0-8.9,7.2-16.1,16.1-16.1
				C182.3,213.3,189.5,220.5,189.5,229.4z"/>
		</g>
		<g>
			<path fill="#E8A893" d="M387.7,229.4c0,8.9-7.2,16.1-16.1,16.1c-8.9,0-16.1-7.2-16.1-16.1c0-8.9,7.2-16.1,16.1-16.1
				C380.5,213.3,387.7,220.5,387.7,229.4z"/>
		</g>
		<g>
			<path fill="#F8AA98" d="M366.8,234.7c0,48-41.9,86.9-93.6,86.9l0,0c-51.7,0-93.6-38.9-93.6-86.9v-37.2c0-48,41.9-86.9,93.6-86.9
				l0,0c51.7,0,93.6,38.9,93.6,86.9V234.7z"/>
		</g>
		<g>
			<path fill="#DEA18D" d="M366.8,214l-15.5,0.5c0,0-2.7,32.8-76.2,32.8c-73.5,0-76.2-32.8-76.2-32.8h-19.3c0,0-7.7,41.5,21.9,76
				c29.6,34.6,73.7,31.1,73.7,31.1s44.1,3.5,73.7-31.1C378.4,255.9,366.8,214,366.8,214z"/>
		</g>
		<g>
			<g>
				<path fill="#FFFFFF" d="M275.1,283.7c12.3,0,22.3-10,22.3-22.3h-44.7C252.8,273.7,262.8,283.7,275.1,283.7z"/>
			</g>
		</g>
		<g>
			<path fill="#FFDD00" d="M273.2,85.2c-6.5,0-12.9,0.6-19.1,1.7c-3.6,8.7-5.6,18.1-5.6,28c0,41.9,59.9,49.1,85.5,35.2
				c-10.3,19.9,14.2,48.7,41.1,25.6C371.1,125,327,85.2,273.2,85.2z"/>
		</g>
		<g>
			<path fill="#414042" d="M283.7,239.7h-21.1c-1,0-1.7-0.8-1.7-1.7c0-1,0.8-1.7,1.7-1.7h18.4l-10.8-24.1c-0.4-0.9,0-1.9,0.9-2.3
				c0.9-0.4,1.9,0,2.3,0.9l11.9,26.5c0.2,0.5,0.2,1.2-0.1,1.6C284.9,239.4,284.3,239.7,283.7,239.7z"/>
		</g>
		<g>
			<g>
				<path fill="#414042" d="M255.5,211.4c-1,0-1.7-0.8-1.7-1.7c0-7.5-6.1-13.6-13.6-13.6c-7.5,0-13.6,6.1-13.6,13.6
					c0,1-0.8,1.7-1.7,1.7s-1.7-0.8-1.7-1.7c0-9.4,7.7-17.1,17.1-17.1c9.4,0,17.1,7.7,17.1,17.1C257.2,210.6,256.4,211.4,255.5,211.4
					z"/>
			</g>
		</g>
		<g>
			<path fill="#414042" d="M321.5,213.2c-1,0-1.7-0.8-1.7-1.7c0-7.5-6.1-13.6-13.6-13.6c-7.5,0-13.6,6.1-13.6,13.6
				c0,1-0.8,1.7-1.7,1.7s-1.7-0.8-1.7-1.7c0-9.4,7.7-17.1,17.1-17.1c9.4,0,17.1,7.7,17.1,17.1C323.2,212.5,322.4,213.2,321.5,213.2z
				"/>
		</g>
		<g>
			<path fill="#414042" d="M216.8,186.4c-0.8,0-1.5-0.5-1.7-1.3c-0.2-0.9,0.3-1.9,1.2-2.1l38.6-10.2c0.9-0.2,1.9,0.3,2.1,1.2
				c0.2,0.9-0.3,1.9-1.2,2.1l-38.6,10.2C217.1,186.4,217,186.4,216.8,186.4z"/>
		</g>
		<g>
			<path fill="#414042" d="M327.7,186.4c-0.1,0-0.3,0-0.4-0.1l-38.6-10.2c-0.9-0.2-1.5-1.2-1.2-2.1c0.2-0.9,1.2-1.5,2.1-1.2
				l38.6,10.2c0.9,0.2,1.5,1.2,1.2,2.1C329.2,185.9,328.5,186.4,327.7,186.4z"/>
		</g>
		<g>
			<ellipse fill="#FFDD00" cx="245.1" cy="119.1" rx="12.9" ry="12.7"/>
		</g>
		<g>
			<ellipse fill="#FFDD00" cx="338.8" cy="151.3" rx="12.9" ry="12.7"/>
		</g>
		<g>
			<ellipse fill="#FFDD00" cx="366.8" cy="146.3" rx="10" ry="9.9"/>
		</g>
		<g>
			<ellipse fill="#FFDD00" cx="375.2" cy="160" rx="10" ry="9.9"/>
		</g>
		<g>
			<path fill="#FFDD00" d="M382.4,172.8c0,3.7-3.1,6.8-6.8,6.8s-6.8-3-6.8-6.8c0-3.7,3.1-6.8,6.8-6.8S382.4,169.1,382.4,172.8z"/>
		</g>
		<g>
			<path fill="#FFDD00" d="M196.3,157.5c0,5.2-4.3,9.4-9.5,9.4s-9.5-4.2-9.5-9.4c0-5.2,4.3-9.4,9.5-9.4S196.3,152.4,196.3,157.5z"/>
		</g>
		<g>
			<path fill="#FFDD00" d="M205.8,144.9c0,5.2-4.3,9.4-9.5,9.4c-5.2,0-9.5-4.2-9.5-9.4c0-5.2,4.3-9.4,9.5-9.4
				C201.5,135.5,205.8,139.7,205.8,144.9z"/>
		</g>
		<g>
			<ellipse fill="#FFDD00" cx="204.8" cy="131.9" rx="9.5" ry="9.4"/>
		</g>
		<g>
			<ellipse fill="#FFDD00" cx="212.4" cy="122.5" rx="9.5" ry="9.4"/>
		</g>
		<g>
			<path fill="#FFDD00" d="M236.7,125.2c0,5.2-4.3,9.4-9.5,9.4s-9.5-4.2-9.5-9.4c0-5.2,4.3-9.4,9.5-9.4S236.7,120.1,236.7,125.2z"/>
		</g>
	</g>
	<g>
		<path fill="#DEA18D" d="M272.3,402.1c-0.6,0-1.2-0.5-1.2-1.1v-26.3c0-0.6,0.5-1.2,1.2-1.2s1.1,0.5,1.1,1.2V401
			C273.5,401.6,273,402.1,272.3,402.1z"/>
	</g>
	<g>
		<path fill="#4B8B9C" d="M337.6,341.2l-19.4-6c0,25.3-20.5,62-45.8,62s-45.8-36.7-45.8-62l-19.4,5.9c-0.6,0-1.1,0-1.6,0.1V420
			c0.5,0,1.1,0.1,1.6,0.1h65.3h65.3c0.6,0,1.1,0,1.6-0.1v-78.8C338.7,341.2,338.2,341.2,337.6,341.2z"/>
	</g>
	<g>
		<g>
			<path fill="#DEA18D" d="M259.4,347.1c0,0-0.1,0-0.1,0l-25.4-3.2c-0.6-0.1-1.1-0.7-1-1.3c0.1-0.6,0.7-1.1,1.3-1l25.4,3.2
				c0.6,0.1,1.1,0.7,1,1.3C260.5,346.7,260,347.1,259.4,347.1z"/>
		</g>
		<g>
			<path fill="#DEA18D" d="M285.5,347.1c-0.6,0-1.1-0.4-1.1-1c-0.1-0.6,0.4-1.2,1-1.3l25.4-3.2c0.6-0.1,1.2,0.4,1.3,1
				c0.1,0.6-0.4,1.2-1,1.3l-25.4,3.2C285.6,347.1,285.5,347.1,285.5,347.1z"/>
		</g>
	</g>
	<g>
		<g>
			<path fill="#DEA18D" d="M273,351c-2.3,0-4.4-1.6-4.9-3.9c-0.2-0.6,0.2-1.2,0.8-1.4c0.6-0.2,1.2,0.2,1.4,0.8
				c0.3,1.2,1.4,2.1,2.7,2.1c1.3,0,2.4-0.9,2.7-2.1c0.2-0.6,0.8-1,1.4-0.8c0.6,0.2,1,0.8,0.8,1.4C277.4,349.5,275.3,351,273,351z"/>
		</g>
	</g>
	<g>
		<path fill="#FFF450" d="M272.3,398.3c-26.8,0-47-38.3-47-63.2c0-0.6,0.5-1.2,1.1-1.2s1.1,0.5,1.1,1.2c0,24,20,60.9,44.7,60.9
			s44.7-36.8,44.7-60.9c0-0.6,0.5-1.2,1.2-1.2s1.1,0.5,1.1,1.2C319.3,360,299.1,398.3,272.3,398.3z"/>
	</g>
	<g>
		<path fill="#F9B49D" d="M198.5,341.2c-9.1,0.8-16.3,8.5-16.3,17.9v43.1c0,9.4,7.2,17,16.3,17.9h6.9v-78.8H198.5z"/>
	</g>
	<g>
		<path fill="#F9B49D" d="M346.2,341.2c9.1,0.8,16.3,8.5,16.3,17.9v43.1c0,9.4-7.2,17-16.3,17.9h-6.9v-78.8H346.2z"/>
	</g>
	<g>
		<path fill="#414042" d="M272.3,398C272.3,398,272.3,398,272.3,398c-0.3,0-0.6-0.2-0.7-0.4l-37.1-64c-0.2-0.4-0.1-0.9,0.3-1.2
			c0.4-0.2,0.9-0.1,1.2,0.3l36.4,62.7l37.9-62.7c0.2-0.4,0.8-0.5,1.2-0.3c0.4,0.2,0.5,0.8,0.3,1.2l-38.6,64
			C272.9,397.9,272.6,398,272.3,398z"/>
	</g>
	<g>
		<circle fill="#414042" cx="272.3" cy="397.2" r="2.1"/>
	</g>
	<g>
		<path fill="#1C5B3D" d="M279.6,418.8c0,2.1-1.7,3.8-3.8,3.8h-7.1c-2.1,0-3.8-1.7-3.8-3.8l1-17.8c0-2.1,1.7-3.8,3.8-3.8h5.2
			c2.1,0,3.8,1.7,3.8,3.8L279.6,418.8z"/>
	</g>
</g>
</svg>
