<?xml version="1.0" encoding="utf-8"?>
<!-- Generator: Adobe Illustrator 16.0.0, SVG Export Plug-In . SVG Version: 6.00 Build 0)  -->
<!DOCTYPE svg PUBLIC "-//W3C//DTD SVG 1.1 Tiny//EN" "http://www.w3.org/Graphics/SVG/1.1/DTD/svg11-tiny.dtd">
<svg version="1.1" baseProfile="tiny" id="Layer_1" xmlns="http://www.w3.org/2000/svg" xmlns:xlink="http://www.w3.org/1999/xlink"
	 x="0px" y="0px" width="968px" height="435px" viewBox="0 0 968 435" xml:space="preserve">
<polygon fill="#F9B49D" points="1530.9,1035.3 1550.8,1030.8 1570.7,1035.3 1570.7,1064.6 1530.9,1064.6 "/>
<path fill="#F9B49D" d="M1559.3,1035.8c0,2-3.8,3.5-8.5,3.5l0,0c-4.7,0-8.5-1.6-8.5-3.5v-7.5c0-2,3.8-3.5,8.5-3.5l0,0
	c4.7,0,8.5,1.6,8.5,3.5V1035.8z"/>
<g>
	<ellipse fill="#FFDD00" cx="1513.6" cy="968.6" rx="9.7" ry="9.6"/>
	<ellipse fill="#FFDD00" cx="1513.6" cy="958.1" rx="9.7" ry="9.6"/>
	<ellipse fill="#FFDD00" cx="1524.7" cy="945.1" rx="14.3" ry="14.1"/>
	<ellipse fill="#FFDD00" cx="1577.6" cy="948.5" rx="14.3" ry="14.1"/>
	<ellipse fill="#FFDD00" cx="1565.4" cy="939.2" rx="14.3" ry="14.1"/>
	<ellipse fill="#FFDD00" cx="1552" cy="932.3" rx="9.2" ry="9.1"/>
	<ellipse fill="#FFDD00" cx="1531.2" cy="934.4" rx="5.6" ry="5.5"/>
	<ellipse fill="#FFDD00" cx="1539" cy="929.8" rx="5.6" ry="5.5"/>
	<path fill="#FFDD00" d="M1595.7,968.7c0-0.9-0.1-1.8-0.1-2.7c-1,0.7-2,1.4-3.1,2l-6.1-1.5v4.2c-3.6,1.2-7.5,1.9-11.5,1.9
		c-19,0-34.4-14.8-34.4-33c0-4.3,0.9-8.4,2.4-12.2c-20.4,3.7-35.9,20.7-36.2,41.3l0,0v20.5h5.1c7.5,13.6,22.3,22.8,39.4,22.8
		c17.1,0,31.9-9.2,39.4-22.8h5.1L1595.7,968.7L1595.7,968.7z"/>
	<circle fill="#E8A893" cx="1507.8" cy="989.3" r="7"/>
	<circle fill="#E8A893" cx="1594" cy="989.3" r="7"/>
	<path fill="#F8AA98" d="M1591.9,991.6c0,20.9-18.2,37.8-40.7,37.8l0,0c-22.5,0-40.7-16.9-40.7-37.8v-16.2
		c0-20.9,18.2-37.8,40.7-37.8l0,0c22.5,0,40.7,16.9,40.7,37.8V991.6z"/>
	<path fill="#DEA18D" d="M1591.9,982.6l-6.7,0.2c0,0-1.2,14.3-33.1,14.3s-33.1-14.3-33.1-14.3h-8.4c0,0-3.3,18,9.5,33.1
		s32,13.5,32,13.5s19.2,1.5,32-13.5S1591.9,982.6,1591.9,982.6z"/>
	<g>
		<path fill="#FFFFFF" d="M1552,1013c5.4,0,9.7-4.3,9.7-9.7h-19.4C1542.3,1008.6,1546.7,1013,1552,1013z"/>
	</g>
	<path fill="#FFDD00" d="M1551.2,926.6c-2.8,0-5.6,0.3-8.3,0.8c-1.6,3.8-2.4,7.9-2.4,12.2c0,18.2,26,21.4,37.2,15.3
		c-4.5,8.6,6.2,21.2,17.9,11.1C1593.8,944,1574.6,926.6,1551.2,926.6z"/>
	
		<polyline fill="none" stroke="#414042" stroke-width="1.5" stroke-linecap="round" stroke-linejoin="round" stroke-miterlimit="10" points="
		1546.6,993.1 1555.8,993.1 1550.6,981.6 	"/>
	<g>
		<path fill="none" stroke="#414042" stroke-width="1.5" stroke-linecap="round" stroke-miterlimit="10" d="M1530.1,980.7
			c0-3.7,3-6.7,6.7-6.7s6.7,3,6.7,6.7"/>
	</g>
	<path fill="none" stroke="#414042" stroke-width="1.5" stroke-linecap="round" stroke-miterlimit="10" d="M1558.8,981.6
		c0-3.7,3-6.7,6.7-6.7s6.7,3,6.7,6.7"/>
	
		<line fill="none" stroke="#414042" stroke-width="1.5" stroke-linecap="round" stroke-miterlimit="10" x1="1526.7" y1="969.9" x2="1543.5" y2="965.5"/>
	
		<line fill="none" stroke="#414042" stroke-width="1.5" stroke-linecap="round" stroke-miterlimit="10" x1="1574.9" y1="969.9" x2="1558.1" y2="965.5"/>
	<ellipse fill="#FFDD00" cx="1539" cy="941.4" rx="5.6" ry="5.5"/>
	<ellipse fill="#FFDD00" cx="1579.7" cy="955.4" rx="5.6" ry="5.5"/>
	<ellipse fill="#FFDD00" cx="1591.9" cy="953.2" rx="4.4" ry="4.3"/>
	<ellipse fill="#FFDD00" cx="1595.5" cy="959.2" rx="4.4" ry="4.3"/>
	<ellipse fill="#FFDD00" cx="1595.7" cy="964.7" rx="3" ry="2.9"/>
	<ellipse fill="#FFDD00" cx="1513.6" cy="958.1" rx="4.1" ry="4.1"/>
	<ellipse fill="#FFDD00" cx="1517.7" cy="952.6" rx="4.1" ry="4.1"/>
	<ellipse fill="#FFDD00" cx="1521.5" cy="946.9" rx="4.1" ry="4.1"/>
	<ellipse fill="#FFDD00" cx="1524.7" cy="942.8" rx="4.1" ry="4.1"/>
	<ellipse fill="#FFDD00" cx="1531.2" cy="944" rx="4.1" ry="4.1"/>
</g>
<line fill="none" stroke="#DEA18D" stroke-linecap="round" stroke-linejoin="round" stroke-miterlimit="10" x1="1550.8" y1="1064" x2="1550.8" y2="1052.5"/>
<path fill="#4B8B9C" d="M1579.2,1037.9l-8.5-2.6c0,11-8.9,27-19.9,27s-19.9-16-19.9-27l-8.5,2.6c-0.2,0-0.5,0-0.7,0v34.3
	c0.2,0,0.5,0,0.7,0h28.4h28.4c0.2,0,0.5,0,0.7,0V1038C1579.7,1037.9,1579.4,1037.9,1579.2,1037.9z"/>
<g>
	
		<line fill="none" stroke="#DEA18D" stroke-linecap="round" stroke-linejoin="round" stroke-miterlimit="10" x1="1534.1" y1="1038.6" x2="1545.2" y2="1040"/>
	
		<line fill="none" stroke="#DEA18D" stroke-linecap="round" stroke-linejoin="round" stroke-miterlimit="10" x1="1567.6" y1="1038.6" x2="1556.5" y2="1040"/>
</g>
<g>
	<path fill="none" stroke="#DEA18D" stroke-linecap="round" stroke-linejoin="round" stroke-miterlimit="10" d="M1549.4,1040.4
		c0.2,0.7,0.9,1.3,1.7,1.3c0.8,0,1.5-0.6,1.7-1.3"/>
</g>
<path fill="none" stroke="#FFF450" stroke-linecap="round" stroke-miterlimit="10" d="M1570.7,1035.3c0,11-8.9,27-19.9,27
	s-19.9-16-19.9-27"/>
<path fill="#F9B49D" d="M1518.7,1037.9c-4,0.4-7.1,3.7-7.1,7.8v18.7c0,4.1,3.1,7.4,7.1,7.8h3v-34.3H1518.7z"/>
<path fill="#F9B49D" d="M1582.9,1037.9c4,0.4,7.1,3.7,7.1,7.8v18.7c0,4.1-3.1,7.4-7.1,7.8h-3v-34.3H1582.9z"/>
<polyline fill="none" stroke="#38160E" stroke-width="0.75" stroke-linecap="round" stroke-linejoin="round" stroke-miterlimit="10" points="
	1534.7,1034.5 1550.8,1062.3 1567.6,1034.5 "/>
<circle fill="#38160E" cx="1550.8" cy="1062.3" r="0.9"/>
<path fill="#1C5B3D" d="M1554,1071.7c0,0.9-0.7,1.6-1.6,1.6h-3.1c-0.9,0-1.6-0.7-1.6-1.6l0.4-7.8c0-0.9,0.7-1.6,1.6-1.6h2.2
	c0.9,0,1.6,0.7,1.6,1.6L1554,1071.7z"/>
<path fill="none" stroke="#009CE0" stroke-width="3" stroke-linejoin="round" stroke-miterlimit="10" d="M5,236.6h38.6v-36.5h11.7
	v-3.7h52v3.7h11.7v29.8h11.7v-3.6h1.9v-2.2l24.1-1.9l24.1,1.9v2.2h1.9v3.7h11.7v71l7.2-3l7.5,3.1V198.4h-3.5v-2.2h3.5v-3.9l42.9-4
	v7.9h1.4v2.2H252v107.2H283v-70.4h7v-3.7h8.1v-75.8c0,0-4-11.3-4-20l-1.7-25.1c0,0-4.1,1.4-4.1,0.4c0-1,2.8-1.5,2.8-1.5l-1.7-6.4
	c0,0-4.8-0.7-4.8-2c0-1.2,3.6-1.6,3.6-1.6l-1.4-3.8c0,0-5-0.2-5-2.5c0-2.3,9.9-2.1,9.9-2.1S290,90.7,290,90c0-1.8,7-2,7-2
	s-4-0.5-4-1.6s5.6-1.6,5.6-1.6v-0.7c0,0-5.6-0.4-5.6-1.6c0-1.2,5.6-12.7,5.6-12.7s-4.2-0.4-4.2-1.5c0-1.1,1.6-1.1,1.6-1.1l-1.2-2.7
	c0,0-4.9-0.5-4.9-1.9c0-1.4,8.4-2.2,8.4-2.2l2.4-9.8c0,0-3.3-0.1-3.3-0.8s5.2-0.9,5.2-0.9s0.9-0.5,1.2-5.9
	c0.3-5.5,1.8-35.4,1.8-35.4s1.6,33.1,1.8,35.2s0.1,5.4,1.3,6.2c0,0,4.7,0.4,4.7,0.9s-2.8,0.7-2.8,0.7l2.5,9.8c0,0,8.5,0.8,8.5,2.3
	c0,1.5-5.2,1.9-5.2,1.9l-1.2,2.6c0,0,2,0.4,2,1.1c0,0.7-3.9,1.5-4.5,1.5l5.6,12.7c0,0,0,1.2-5.6,1.6v0.6c0,0,5.6,0.7,5.6,1.6
	c0,0.9-4,1.7-4,1.7s6.4,0.7,6.4,1.9c0,0.6-1.7,1.1-1.7,1.1s9.8,0,9.8,2.1c0,2.2-4.7,2.4-4.7,2.4l-1.4,4c0,0,3.1,0.6,3.1,1.5
	c0,0.9-5,2-5,2l-1.6,6.5c0,0,2.4,0.6,2.3,1.2s-0.7,0.6-3.3,0l-1.6,24.9c0,0-0.3,10.2-3.7,20v75.8H346v3.6h7v29.7h7.5v-5.4
	c0,0-0.3-2.6,2.6-2.6c2.8,0,35.1-0.1,35.1-0.1s2.9-0.6,2.9,2.6c0,3.2,0,5.4,0,5.4h7.6h1.1v-24.7h4.9v-3.6h38.6v-36.5H465v-3.7h52
	v3.7h11.7v29.8h11.7v-3.6h1.9v-2.2l24.1-1.9l24.1,1.9v2.2h1.9v3.7h11.7v71c0,0,1.9-3,7.2-3s7.5,2.8,7.5,2.8V198.4h-3.5v-2.2h3.5
	v-3.9l42.9-4v7.9h1.4v2.2h-1.4v107.2h30.5v-70.4h7.3v-3.7h56v3.6h7v29.7h7.5v-5.4c0,0-0.3-2.6,2.6-2.6c2.9,0,34.2,0,34.2,0
	s3.9-0.5,3.9,3.6v4.4h7.6v-34.4h4.6v-4.7h30.7v4.3h6.3v54h4v-74.7h4.3l4-4.7h26.3v3.8h4.8v27.2H956"/>
<g>
	<g>
		<polygon fill="#F9B49D" points="424.8,322.3 480.3,309.7 535.7,322.3 535.7,403.9 424.8,403.9 		"/>
	</g>
	<g>
		<path fill="#F9B49D" d="M504,323.6c0,5.4-10.6,9.8-23.6,9.8l0,0c-13,0-23.6-4.4-23.6-9.8v-20.9c0-5.4,10.6-9.9,23.6-9.9l0,0
			c13,0,23.6,4.4,23.6,9.9V323.6z"/>
	</g>
	<g>
		<g>
			<path fill="#FFDD00" d="M403.8,136.7c0,14.7-12.1,26.7-27.1,26.7c-14.9,0-27.1-11.9-27.1-26.7c0-14.7,12.1-26.7,27.1-26.7
				C391.7,110,403.8,122,403.8,136.7z"/>
		</g>
		<g>
			<path fill="#FFDD00" d="M403.8,107.3c0,14.7-12.1,26.7-27.1,26.7c-14.9,0-27.1-11.9-27.1-26.7c0-14.7,12.1-26.7,27.1-26.7
				C391.7,80.6,403.8,92.6,403.8,107.3z"/>
		</g>
		<g>
			<path fill="#FFDD00" d="M447.4,71.2c0,21.6-17.8,39.1-39.7,39.1S368,92.8,368,71.2c0-21.6,17.8-39.1,39.7-39.1
				S447.4,49.6,447.4,71.2z"/>
		</g>
		<g>
			<path fill="#FFDD00" d="M594.6,80.6c0,21.6-17.8,39.1-39.7,39.1c-21.9,0-39.7-17.5-39.7-39.1c0-21.6,17.8-39.1,39.7-39.1
				C576.9,41.5,594.6,59,594.6,80.6z"/>
		</g>
		<g>
			<path fill="#FFDD00" d="M560.7,54.7c0,21.6-17.8,39.1-39.7,39.1c-21.9,0-39.7-17.5-39.7-39.1c0-21.6,17.8-39.1,39.7-39.1
				C542.9,15.6,560.7,33.1,560.7,54.7z"/>
		</g>
		<g>
			<path fill="#FFDD00" d="M509.2,35.7c0,13.9-11.4,25.2-25.6,25.2c-14.1,0-25.6-11.3-25.6-25.2c0-13.9,11.4-25.2,25.6-25.2
				C497.8,10.4,509.2,21.7,509.2,35.7z"/>
		</g>
		<g>
			<path fill="#FFDD00" d="M441.3,41.5c0,8.5-7,15.4-15.6,15.4s-15.6-6.9-15.6-15.4c0-8.5,7-15.4,15.6-15.4S441.3,33,441.3,41.5z"/>
		</g>
		<g>
			<path fill="#FFDD00" d="M462.9,28.5c0,8.5-7,15.4-15.6,15.4c-8.6,0-15.6-6.9-15.6-15.4c0-8.5,7-15.4,15.6-15.4
				C456,13.2,462.9,20.1,462.9,28.5z"/>
		</g>
		<g>
			<path fill="#FFDD00" d="M605.1,136.8c0-2.5-0.2-5.1-0.4-7.6c-2.7,2-5.6,3.8-8.5,5.5l-17-4.1v11.7c-10,3.4-20.7,5.3-32,5.3
				c-52.9,0-95.8-41.1-95.8-91.9c0-12,2.4-23.4,6.8-33.9c-56.8,10.3-99.9,57.7-100.7,115l0,0v56.9h14.2
				c20.7,37.7,62,63.5,109.6,63.5c47.6,0,88.9-25.7,109.6-63.5h14.2L605.1,136.8L605.1,136.8z"/>
		</g>
		<g>
			<path fill="#E8A893" d="M380.1,194.3c0,10.8-8.7,19.5-19.5,19.5c-10.8,0-19.5-8.7-19.5-19.5c0-10.8,8.7-19.5,19.5-19.5
				C371.3,174.8,380.1,183.5,380.1,194.3z"/>
		</g>
		<g>
			<path fill="#E8A893" d="M619.9,194.3c0,10.8-8.7,19.5-19.5,19.5c-10.8,0-19.5-8.7-19.5-19.5c0-10.8,8.7-19.5,19.5-19.5
				C611.2,174.8,619.9,183.5,619.9,194.3z"/>
		</g>
		<g>
			<path fill="#F8AA98" d="M594.6,200.7c0,58.1-50.7,105.2-113.3,105.2l0,0c-62.6,0-113.3-47.1-113.3-105.2v-45
				c0-58.1,50.7-105.2,113.3-105.2l0,0c62.6,0,113.3,47.1,113.3,105.2V200.7z"/>
		</g>
		<g>
			<path fill="#DEA18D" d="M594.6,175.6l-18.7,0.6c0,0-3.2,39.7-92.2,39.7c-89,0-92.2-39.7-92.2-39.7H368c0,0-9.3,50.2,26.5,92
				c35.8,41.8,89.2,37.7,89.2,37.7s53.4,4.2,89.2-37.7C608.6,226.4,594.6,175.6,594.6,175.6z"/>
		</g>
		<g>
			<g>
				<path fill="#FFFFFF" d="M483.6,260.1c14.9,0,27-12.1,27-27h-54.1C456.6,248,468.7,260.1,483.6,260.1z"/>
			</g>
		</g>
		<g>
			<path fill="#FFDD00" d="M481.3,19.8c-7.9,0-15.6,0.7-23.1,2.1c-4.3,10.5-6.8,21.9-6.8,33.9c0,50.7,72.5,59.5,103.5,42.5
				c-12.5,24,17.2,58.9,49.8,31C599.8,68,546.5,19.8,481.3,19.8z"/>
		</g>
		<g>
			<path fill="#414042" d="M494.1,206.8h-25.5c-1.2,0-2.1-0.9-2.1-2.1c0-1.2,0.9-2.1,2.1-2.1h22.3l-13.1-29.1c-0.5-1,0-2.3,1-2.8
				c1-0.5,2.3,0,2.8,1l14.4,32.1c0.3,0.6,0.2,1.4-0.2,2C495.5,206.4,494.8,206.8,494.1,206.8z"/>
		</g>
		<g>
			<g>
				<path fill="#414042" d="M459.8,172.5c-1.2,0-2.1-0.9-2.1-2.1c0-9.1-7.4-16.5-16.5-16.5c-9.1,0-16.5,7.4-16.5,16.5
					c0,1.2-0.9,2.1-2.1,2.1s-2.1-0.9-2.1-2.1c0-11.4,9.3-20.7,20.7-20.7c11.4,0,20.7,9.3,20.7,20.7
					C461.9,171.5,461,172.5,459.8,172.5z"/>
			</g>
		</g>
		<g>
			<path fill="#414042" d="M539.7,174.7c-1.2,0-2.1-0.9-2.1-2.1c0-9.1-7.4-16.5-16.5-16.5c-9.1,0-16.5,7.4-16.5,16.5
				c0,1.2-0.9,2.1-2.1,2.1s-2.1-0.9-2.1-2.1c0-11.4,9.3-20.7,20.7-20.7c11.4,0,20.7,9.3,20.7,20.7
				C541.8,173.8,540.9,174.7,539.7,174.7z"/>
		</g>
		<g>
			<path fill="#414042" d="M413.1,142.2c-0.9,0-1.8-0.6-2-1.6c-0.3-1.1,0.4-2.3,1.5-2.5l46.7-12.3c1.1-0.3,2.3,0.4,2.5,1.5
				c0.3,1.1-0.4,2.3-1.5,2.5l-46.7,12.3C413.5,142.2,413.3,142.2,413.1,142.2z"/>
		</g>
		<g>
			<path fill="#414042" d="M547.3,142.2c-0.2,0-0.4,0-0.5-0.1L500,129.9c-1.1-0.3-1.8-1.4-1.5-2.5c0.3-1.1,1.5-1.8,2.5-1.5
				l46.7,12.3c1.1,0.3,1.8,1.4,1.5,2.5C549.1,141.6,548.2,142.2,547.3,142.2z"/>
		</g>
		<g>
			<path fill="#FFDD00" d="M462.9,60.9c0,8.5-7,15.4-15.6,15.4c-8.6,0-15.6-6.9-15.6-15.4c0-8.5,7-15.4,15.6-15.4
				C456,45.5,462.9,52.4,462.9,60.9z"/>
		</g>
		<g>
			<ellipse fill="#FFDD00" cx="560.7" cy="99.8" rx="15.6" ry="15.4"/>
		</g>
		<g>
			<ellipse fill="#FFDD00" cx="594.6" cy="93.8" rx="12.1" ry="11.9"/>
		</g>
		<g>
			<path fill="#FFDD00" d="M616.9,110.4c0,6.6-5.4,11.9-12.1,11.9s-12.1-5.3-12.1-11.9c0-6.6,5.4-11.9,12.1-11.9
				S616.9,103.8,616.9,110.4z"/>
		</g>
		<g>
			<path fill="#FFDD00" d="M613.5,125.8c0,4.5-3.7,8.2-8.3,8.2c-4.6,0-8.3-3.7-8.3-8.2c0-4.5,3.7-8.2,8.3-8.2
				C609.7,117.6,613.5,121.3,613.5,125.8z"/>
		</g>
		<g>
			<path fill="#FFDD00" d="M388.2,107.3c0,6.3-5.1,11.3-11.5,11.3c-6.3,0-11.5-5.1-11.5-11.3c0-6.3,5.2-11.3,11.5-11.3
				C383.1,96,388.2,101.1,388.2,107.3z"/>
		</g>
		<g>
			<path fill="#FFDD00" d="M399.7,92c0,6.3-5.1,11.3-11.5,11.3c-6.3,0-11.5-5.1-11.5-11.3c0-6.3,5.1-11.3,11.5-11.3
				C394.6,80.6,399.7,85.7,399.7,92z"/>
		</g>
		<g>
			<ellipse fill="#FFDD00" cx="398.6" cy="76.2" rx="11.5" ry="11.3"/>
		</g>
		<g>
			<ellipse fill="#FFDD00" cx="407.7" cy="64.9" rx="11.5" ry="11.3"/>
		</g>
		<g>
			<path fill="#FFDD00" d="M437.2,68.2c0,6.3-5.1,11.3-11.5,11.3s-11.5-5.1-11.5-11.3c0-6.3,5.2-11.3,11.5-11.3S437.2,62,437.2,68.2
				z"/>
		</g>
	</g>
	<g>
		<path fill="#DEA18D" d="M480.3,403.4c-0.8,0-1.4-0.6-1.4-1.4v-31.8c0-0.8,0.6-1.4,1.4-1.4c0.8,0,1.4,0.6,1.4,1.4V402
			C481.7,402.7,481,403.4,480.3,403.4z"/>
	</g>
	<g>
		<path fill="#4B8B9C" d="M559.3,329.5l-23.5-7.2c0,30.6-24.8,75.1-55.5,75.1c-30.6,0-55.5-44.4-55.5-75.1l-23.5,7.1
			c-0.7,0-1.3,0-2,0.1V425c0.7,0.1,1.3,0.1,2,0.1h79h79c0.7,0,1.3,0,2-0.1v-95.3C560.6,329.6,559.9,329.5,559.3,329.5z"/>
	</g>
	<g>
		<g>
			<path fill="#DEA18D" d="M464.7,336.8c-0.1,0-0.1,0-0.2,0l-30.8-3.9c-0.8-0.1-1.3-0.8-1.2-1.6c0.1-0.8,0.8-1.3,1.6-1.2l30.8,3.9
				c0.8,0.1,1.3,0.8,1.2,1.6C466,336.2,465.4,336.8,464.7,336.8z"/>
		</g>
		<g>
			<path fill="#DEA18D" d="M496.2,336.8c-0.7,0-1.3-0.5-1.4-1.2c-0.1-0.8,0.4-1.5,1.2-1.6l30.8-3.9c0.7-0.1,1.5,0.4,1.6,1.2
				c0.1,0.8-0.4,1.5-1.2,1.6l-30.8,3.9C496.3,336.8,496.3,336.8,496.2,336.8z"/>
		</g>
	</g>
	<g>
		<g>
			<path fill="#DEA18D" d="M481.1,341.5c-2.8,0-5.3-1.9-6-4.7c-0.2-0.7,0.3-1.5,1-1.7c0.7-0.2,1.5,0.3,1.7,1
				c0.4,1.5,1.7,2.6,3.2,2.6c1.5,0,2.9-1.1,3.2-2.6c0.2-0.7,0.9-1.2,1.7-1c0.8,0.2,1.2,0.9,1,1.7
				C486.4,339.6,483.9,341.5,481.1,341.5z"/>
		</g>
	</g>
	<g>
		<path fill="#FFF450" d="M480.3,398.7c-32.5,0-56.9-46.4-56.9-76.4c0-0.8,0.6-1.4,1.4-1.4s1.4,0.6,1.4,1.4
			c0,29.1,24.2,73.7,54.1,73.7c29.9,0,54.1-44.6,54.1-73.7c0-0.8,0.6-1.4,1.4-1.4s1.4,0.6,1.4,1.4
			C537.1,352.4,512.7,398.7,480.3,398.7z"/>
	</g>
	<g>
		<path fill="#F9B49D" d="M390.9,329.5c-11.1,1-19.7,10.3-19.7,21.6v52.2c0,11.3,8.7,20.6,19.7,21.6h8.3v-95.4H390.9z"/>
	</g>
	<g>
		<path fill="#F9B49D" d="M569.6,329.5c11.1,1,19.7,10.3,19.7,21.6v52.2c0,11.3-8.7,20.6-19.7,21.6h-8.3v-95.4H569.6z"/>
	</g>
	<g>
		<path fill="#414042" d="M480.3,398.4C480.3,398.4,480.3,398.4,480.3,398.4c-0.4,0-0.7-0.2-0.9-0.5l-44.9-77.4
			c-0.3-0.5-0.1-1.1,0.4-1.4c0.5-0.3,1.1-0.1,1.4,0.4l44.1,75.9l45.8-75.9c0.3-0.5,0.9-0.7,1.4-0.4c0.5,0.3,0.7,0.9,0.4,1.4
			l-46.7,77.4C481,398.2,480.6,398.4,480.3,398.4z"/>
	</g>
	<g>
		<path fill="#414042" d="M482.8,397.3c0,1.4-1.1,2.5-2.5,2.5c-1.4,0-2.5-1.1-2.5-2.5c0-1.4,1.1-2.5,2.5-2.5
			C481.7,394.8,482.8,395.9,482.8,397.3z"/>
	</g>
	<g>
		<path fill="#1C5B3D" d="M489.1,423.5c0,2.5-2,4.5-4.5,4.5H476c-2.5,0-4.5-2-4.5-4.5l1.2-21.6c0-2.5,2-4.5,4.5-4.5h6.2
			c2.5,0,4.5,2,4.5,4.5L489.1,423.5z"/>
	</g>
</g>
</svg>
