<?xml version="1.0" encoding="utf-8"?>
<!-- Generator: Adobe Illustrator 16.0.0, SVG Export Plug-In . SVG Version: 6.00 Build 0)  -->
<!DOCTYPE svg PUBLIC "-//W3C//DTD SVG 1.1 Tiny//EN" "http://www.w3.org/Graphics/SVG/1.1/DTD/svg11-tiny.dtd">
<svg version="1.1" baseProfile="tiny" id="Layer_1" xmlns="http://www.w3.org/2000/svg" xmlns:xlink="http://www.w3.org/1999/xlink"
	 x="0px" y="0px" width="528.6px" height="500px" viewBox="0 0 528.6 500" xml:space="preserve">
<polygon fill="#F9B49D" points="1530.9,1100.3 1550.8,1095.8 1570.7,1100.3 1570.7,1129.6 1530.9,1129.6 "/>
<path fill="#F9B49D" d="M1559.3,1100.8c0,2-3.8,3.5-8.5,3.5l0,0c-4.7,0-8.5-1.6-8.5-3.5v-7.5c0-2,3.8-3.5,8.5-3.5l0,0
	c4.7,0,8.5,1.6,8.5,3.5V1100.8z"/>
<g>
	<ellipse fill="#FFDD00" cx="1513.6" cy="1033.6" rx="9.7" ry="9.6"/>
	<ellipse fill="#FFDD00" cx="1513.6" cy="1023.1" rx="9.7" ry="9.6"/>
	<ellipse fill="#FFDD00" cx="1524.7" cy="1010.1" rx="14.3" ry="14.1"/>
	<ellipse fill="#FFDD00" cx="1577.6" cy="1013.5" rx="14.3" ry="14.1"/>
	<ellipse fill="#FFDD00" cx="1565.4" cy="1004.2" rx="14.3" ry="14.1"/>
	<ellipse fill="#FFDD00" cx="1552" cy="997.3" rx="9.2" ry="9.1"/>
	<ellipse fill="#FFDD00" cx="1531.2" cy="999.4" rx="5.6" ry="5.5"/>
	<ellipse fill="#FFDD00" cx="1539" cy="994.8" rx="5.6" ry="5.5"/>
	<path fill="#FFDD00" d="M1595.7,1033.7c0-0.9-0.1-1.8-0.1-2.7c-1,0.7-2,1.4-3.1,2l-6.1-1.5v4.2c-3.6,1.2-7.5,1.9-11.5,1.9
		c-19,0-34.4-14.8-34.4-33c0-4.3,0.9-8.4,2.4-12.2c-20.4,3.7-35.9,20.7-36.2,41.3l0,0v20.5h5.1c7.5,13.6,22.3,22.8,39.4,22.8
		c17.1,0,31.9-9.2,39.4-22.8h5.1L1595.7,1033.7L1595.7,1033.7z"/>
	<circle fill="#E8A893" cx="1507.8" cy="1054.3" r="7"/>
	<circle fill="#E8A893" cx="1594" cy="1054.3" r="7"/>
	<path fill="#F8AA98" d="M1591.9,1056.6c0,20.9-18.2,37.8-40.7,37.8l0,0c-22.5,0-40.7-16.9-40.7-37.8v-16.2
		c0-20.9,18.2-37.8,40.7-37.8l0,0c22.5,0,40.7,16.9,40.7,37.8V1056.6z"/>
	<path fill="#DEA18D" d="M1591.9,1047.6l-6.7,0.2c0,0-1.2,14.3-33.1,14.3s-33.1-14.3-33.1-14.3h-8.4c0,0-3.3,18,9.5,33.1
		s32,13.5,32,13.5s19.2,1.5,32-13.5S1591.9,1047.6,1591.9,1047.6z"/>
	<g>
		<path fill="#FFFFFF" d="M1552,1078c5.4,0,9.7-4.3,9.7-9.7h-19.4C1542.3,1073.6,1546.7,1078,1552,1078z"/>
	</g>
	<path fill="#FFDD00" d="M1551.2,991.6c-2.8,0-5.6,0.3-8.3,0.8c-1.6,3.8-2.4,7.9-2.4,12.2c0,18.2,26,21.4,37.2,15.3
		c-4.5,8.6,6.2,21.2,17.9,11.1C1593.8,1009,1574.6,991.6,1551.2,991.6z"/>
	
		<polyline fill="none" stroke="#414042" stroke-width="1.5" stroke-linecap="round" stroke-linejoin="round" stroke-miterlimit="10" points="
		1546.6,1058.1 1555.8,1058.1 1550.6,1046.6 	"/>
	<g>
		<path fill="none" stroke="#414042" stroke-width="1.5" stroke-linecap="round" stroke-miterlimit="10" d="M1530.1,1045.7
			c0-3.7,3-6.7,6.7-6.7s6.7,3,6.7,6.7"/>
	</g>
	<path fill="none" stroke="#414042" stroke-width="1.5" stroke-linecap="round" stroke-miterlimit="10" d="M1558.8,1046.6
		c0-3.7,3-6.7,6.7-6.7s6.7,3,6.7,6.7"/>
	
		<line fill="none" stroke="#414042" stroke-width="1.5" stroke-linecap="round" stroke-miterlimit="10" x1="1526.7" y1="1034.9" x2="1543.5" y2="1030.5"/>
	
		<line fill="none" stroke="#414042" stroke-width="1.5" stroke-linecap="round" stroke-miterlimit="10" x1="1574.9" y1="1034.9" x2="1558.1" y2="1030.5"/>
	<ellipse fill="#FFDD00" cx="1539" cy="1006.4" rx="5.6" ry="5.5"/>
	<ellipse fill="#FFDD00" cx="1579.7" cy="1020.4" rx="5.6" ry="5.5"/>
	<ellipse fill="#FFDD00" cx="1591.9" cy="1018.2" rx="4.4" ry="4.3"/>
	<ellipse fill="#FFDD00" cx="1595.5" cy="1024.2" rx="4.4" ry="4.3"/>
	<ellipse fill="#FFDD00" cx="1595.7" cy="1029.7" rx="3" ry="2.9"/>
	<ellipse fill="#FFDD00" cx="1513.6" cy="1023.1" rx="4.1" ry="4.1"/>
	<ellipse fill="#FFDD00" cx="1517.7" cy="1017.6" rx="4.1" ry="4.1"/>
	<ellipse fill="#FFDD00" cx="1521.5" cy="1011.9" rx="4.1" ry="4.1"/>
	<ellipse fill="#FFDD00" cx="1524.7" cy="1007.8" rx="4.1" ry="4.1"/>
	<ellipse fill="#FFDD00" cx="1531.2" cy="1009" rx="4.1" ry="4.1"/>
</g>
<line fill="none" stroke="#DEA18D" stroke-linecap="round" stroke-linejoin="round" stroke-miterlimit="10" x1="1550.8" y1="1129" x2="1550.8" y2="1117.5"/>
<path fill="#4B8B9C" d="M1579.2,1102.9l-8.5-2.6c0,11-8.9,27-19.9,27s-19.9-16-19.9-27l-8.5,2.6c-0.2,0-0.5,0-0.7,0v34.3
	c0.2,0,0.5,0,0.7,0h28.4h28.4c0.2,0,0.5,0,0.7,0V1103C1579.7,1102.9,1579.4,1102.9,1579.2,1102.9z"/>
<g>
	
		<line fill="none" stroke="#DEA18D" stroke-linecap="round" stroke-linejoin="round" stroke-miterlimit="10" x1="1534.1" y1="1103.6" x2="1545.2" y2="1105"/>
	
		<line fill="none" stroke="#DEA18D" stroke-linecap="round" stroke-linejoin="round" stroke-miterlimit="10" x1="1567.6" y1="1103.6" x2="1556.5" y2="1105"/>
</g>
<g>
	<path fill="none" stroke="#DEA18D" stroke-linecap="round" stroke-linejoin="round" stroke-miterlimit="10" d="M1549.4,1105.4
		c0.2,0.7,0.9,1.3,1.7,1.3c0.8,0,1.5-0.6,1.7-1.3"/>
</g>
<path fill="none" stroke="#FFF450" stroke-linecap="round" stroke-miterlimit="10" d="M1570.7,1100.3c0,11-8.9,27-19.9,27
	s-19.9-16-19.9-27"/>
<path fill="#F9B49D" d="M1518.7,1102.9c-4,0.4-7.1,3.7-7.1,7.8v18.7c0,4.1,3.1,7.4,7.1,7.8h3v-34.3H1518.7z"/>
<path fill="#F9B49D" d="M1582.9,1102.9c4,0.4,7.1,3.7,7.1,7.8v18.7c0,4.1-3.1,7.4-7.1,7.8h-3v-34.3H1582.9z"/>
<polyline fill="none" stroke="#38160E" stroke-width="0.75" stroke-linecap="round" stroke-linejoin="round" stroke-miterlimit="10" points="
	1534.7,1099.5 1550.8,1127.3 1567.6,1099.5 "/>
<circle fill="#38160E" cx="1550.8" cy="1127.3" r="0.9"/>
<path fill="#1C5B3D" d="M1554,1136.7c0,0.9-0.7,1.6-1.6,1.6h-3.1c-0.9,0-1.6-0.7-1.6-1.6l0.4-7.8c0-0.9,0.7-1.6,1.6-1.6h2.2
	c0.9,0,1.6,0.7,1.6,1.6L1554,1136.7z"/>
<g>
	<path fill="#84AFDD" d="M220.4,176.7c-0.3-0.6-0.8-14.8-1.1-21.9V151c0,0,0,0.7-0.1,2c0-1.2-0.1-2-0.1-2v3.9
		c-0.3,7-0.8,21.2-1.1,21.9c-0.4,0.9-0.9,1.1-0.9,1.1h2h0.1h2C221.3,177.8,220.8,177.6,220.4,176.7z"/>
	<path fill="#4994D0" d="M213.3,222.1c0,0,0.2,2.9,0.5,4.2c0.3,1.3,1.5,5.7,1.6,6.3c0.1,0.6,0-10.5,0-10.5H213.3z"/>
	<path fill="#4994D0" d="M225,222.1c0,0-0.2,2.9-0.5,4.2c-0.3,1.3-1.5,5.7-1.6,6.3c-0.1,0.6,0-10.5,0-10.5H225z"/>
	<path fill="#84AFDD" d="M219.2,222.1L219.2,222.1h-3.9v66.8c0,0,0.6,0.4,3.9,0.4c2.9,0,3.9-0.4,3.9-0.4v-66.8H219.2z"/>
	<polygon fill="#84AFDD" points="221.8,178.2 219.3,177.4 219.3,177.3 219.2,177.3 219.2,177.3 219.2,177.4 216.7,178.2 
		215.4,183.5 219.2,183.5 219.3,183.5 223.1,183.5 	"/>
	<ellipse fill="#4994D0" cx="219.1" cy="177.8" rx="4.1" ry="0.5"/>
	<ellipse fill="#4994D0" cx="219.3" cy="184.5" rx="8.2" ry="1.3"/>
	<ellipse fill="#4994D0" cx="219.3" cy="187.4" rx="5.9" ry="1"/>
	<ellipse fill="#4994D0" cx="219.1" cy="198.6" rx="7.9" ry="1.2"/>
	<ellipse fill="#4994D0" cx="219.2" cy="196.7" rx="6.5" ry="1"/>
	<path fill="#84AFDD" d="M223.6,198.2c-1.3-0.4-3.9-0.4-4.6-0.4c-0.7,0-3.3,0-4.6,0.4c-1.5,0.4-1.1,0.9-1.1,0.9l5.6-0.1l5.6,0.1
		C224.7,199.1,225.1,198.6,223.6,198.2z"/>
	<path fill="#84AFDD" d="M228,199.6h-8.8h-0.1h-8.8l-1,1.2l0.2,0.8l0.9,2.4c0,0,4.3-0.5,8.8-0.5c4.5,0,8.8,0.5,8.8,0.5l0.9-2.4
		l0.2-0.8L228,199.6z"/>
	<path fill="#4994D0" d="M231.2,200.2c-0.4-1.1-9.2-1.2-12-1.2l0,0c0,0-0.1,0-0.1,0c0,0-0.1,0-0.1,0l0,0c-2.7,0-11.6,0.1-12,1.2
		c-0.4,1.1,2.6,1.4,2.6,1.4s-0.3-0.9,0.4-1.3c1.9-0.9,7.7-0.8,9-0.7v0c0,0,0.1,0,0.1,0c0.1,0,0.1,0,0.1,0v0c1.3-0.1,7.1-0.2,9,0.7
		c0.7,0.4,0.4,1.3,0.4,1.3S231.7,201.3,231.2,200.2z"/>
	<polyline fill="#4994D0" points="215.4,274.7 213.2,288.5 215.4,288.6 	"/>
	<polyline fill="#4994D0" points="222.8,274.7 224.9,288.5 222.8,288.6 	"/>
	<path fill="#84AFDD" d="M222.6,187.6c-0.7-0.6-3.1-0.6-3.4-0.6c-0.3,0-2.7,0-3.4,0.6l-3.1,7h6.4h0.2h6.4L222.6,187.6z"/>
	<ellipse fill="#4994D0" cx="219.2" cy="194.7" rx="6.5" ry="1"/>
	<path fill="#84AFDD" d="M219.3,194.1L219.3,194.1C219.3,194.1,219.3,194.1,219.3,194.1c-0.1,0-0.2,0-0.2,0v0
		c-0.7,0-3.3,0.1-3.6,0.3v1.4l3.7-0.2l0-0.1l0,0.1l3.7,0.2v-1.4C222.6,194.2,220,194.1,219.3,194.1z"/>
	<path fill="#84AFDD" d="M225.2,184.7c0,0-0.5-1.2-5.9-1.2l0,0c0,0,0,0-0.1,0c0,0,0,0-0.1,0l0,0c-5.3,0-5.9,1.2-5.9,1.2l1,2.1l5-0.4
		l5,0.4L225.2,184.7z"/>
	<path fill="#84AFDD" d="M219.3,196.2L219.3,196.2C219.3,196.2,219.3,196.2,219.3,196.2c-0.1,0-0.2,0-0.2,0v0c-0.8,0-4,0.1-4.4,0.3
		v1.1h4.4h0.2h4.4v-1.1C223.4,196.2,220.1,196.2,219.3,196.2z"/>
	<path fill="#84AFDD" d="M219.2,208.5c-3.8-0.4-6.7,0.7-6.7,0.7l0.9,13h5.8h0.2h5.8l0.9-13C225.9,209.3,222.9,208.1,219.2,208.5z"/>
	<path fill="#84AFDD" d="M227.9,204l-4.8-0.5h-3.9h-0.4H215l-4.8,0.5l-0.1,0.8l0.8,0.7l0.9,3.4c3-0.8,6-0.8,7.1-0.8v0
		c0,0,0.1,0,0.2,0c0.1,0,0.2,0,0.2,0v0c1,0,4.1,0,7.1,0.8l0.9-3.4l0.8-0.7L227.9,204z"/>
	<path fill="#84AFDD" d="M226.8,294.6l-0.6-5.8h-2.3l-4.6,0.7v0l-4.6-0.7h-2.3l-0.6,5.8c0,0,2.5,0.3,7.5,0.3v0
		C224.2,294.9,226.8,294.6,226.8,294.6z"/>
	<path fill="#84AFDD" d="M219.2,310.9c6,0,7.5-0.2,7.5-0.2l-1.2-16l-6.3,0.2l-6.3-0.2l-1.2,16C211.7,310.7,213.3,310.9,219.2,310.9
		L219.2,310.9C219.2,310.9,219.2,310.9,219.2,310.9C219.2,310.9,219.2,310.9,219.2,310.9L219.2,310.9z"/>
	<path fill="#4994D0" d="M229.3,204c-2.4-1-9-0.9-10.2-0.9c-1.1,0-7.8-0.2-10.2,0.9c-1.8,0.8,2.1,1.5,2.1,1.5s-1.2-0.9,0-1.2
		c1.6-0.4,7-0.4,8.1-0.4c1,0,6.5,0,8.1,0.4c1.2,0.3,0,1.2,0,1.2S231.1,204.8,229.3,204z"/>
	<path fill="#4994D0" d="M227.5,209.4c-2.4-1.6-7.3-1.6-8.6-1.5c-1.3,0-6.2-0.1-8.6,1.5c0,0-0.2,0.4,1,0.1c1.1-0.3,4.5-0.9,7.6-0.9
		c3.1,0,6.5,0.7,7.6,0.9C227.7,209.8,227.5,209.4,227.5,209.4z"/>
	<ellipse fill="#4994D0" cx="219.2" cy="288.8" rx="6.9" ry="0.7"/>
</g>
<g>
	<rect x="61.2" y="276.3" fill="#CBE7F9" width="25.1" height="71.6"/>
	<rect x="63.7" y="280.5" fill="#B7DFF7" width="20.1" height="2.6"/>
	<rect x="63.7" y="285.8" fill="#B7DFF7" width="20.1" height="2.6"/>
	<rect x="63.7" y="291.1" fill="#B7DFF7" width="20.1" height="2.6"/>
	<rect x="63.7" y="296.4" fill="#B7DFF7" width="20.1" height="2.6"/>
	<rect x="63.7" y="301.7" fill="#B7DFF7" width="20.1" height="2.6"/>
	<rect x="63.7" y="307" fill="#B7DFF7" width="20.1" height="2.6"/>
	<rect x="63.7" y="312.3" fill="#B7DFF7" width="20.1" height="2.6"/>
	<rect x="63.7" y="317.6" fill="#B7DFF7" width="20.1" height="2.6"/>
	<rect x="63.7" y="322.9" fill="#B7DFF7" width="20.1" height="2.6"/>
	<rect x="63.7" y="328.2" fill="#B7DFF7" width="20.1" height="2.6"/>
	<rect x="63.7" y="274.5" fill="#B7DFF7" width="20.1" height="1.8"/>
	<path fill="#B7DFF7" d="M268.7,304.9c0,0.6-0.5,1-1,1h-18.9c-0.6,0-1-0.5-1-1V286c0-0.6,0.5-1,1-1h18.9c0.6,0,1,0.5,1,1V304.9z"/>
	<rect x="207.5" y="273.8" fill="#9CD5F4" width="36.3" height="74.2"/>
	<rect x="243.8" y="289.1" fill="#CBE7F9" width="28.8" height="58.8"/>
	<rect x="211.2" y="278.1" fill="#B7DFF7" width="29" height="2.7"/>
	<rect x="211.2" y="283.6" fill="#B7DFF7" width="29" height="2.7"/>
	<rect x="211.2" y="289.1" fill="#B7DFF7" width="29" height="2.7"/>
	<rect x="211.2" y="294.6" fill="#B7DFF7" width="29" height="2.7"/>
	<rect x="211.2" y="300.1" fill="#B7DFF7" width="29" height="2.7"/>
	<rect x="211.2" y="305.6" fill="#B7DFF7" width="29" height="2.7"/>
	<rect x="211.2" y="311.1" fill="#B7DFF7" width="29" height="2.7"/>
	<rect x="211.2" y="316.5" fill="#B7DFF7" width="29" height="2.7"/>
	<rect x="211.2" y="322" fill="#B7DFF7" width="29" height="2.7"/>
	<rect x="211.2" y="327.5" fill="#B7DFF7" width="29" height="2.7"/>
	<rect x="211.2" y="271.9" fill="#B7DFF7" width="29" height="1.9"/>
	<polygon fill="#97D3F4" points="159.2,308.9 165.5,306.3 171.9,308.9 171.9,314.6 159.2,314.6 	"/>
	<polygon fill="#C1E3F8" points="191.6,249.5 169.4,251.6 169.4,347.9 191.6,347.9 	"/>
	<rect x="83.7" y="255.6" fill="#D8EDFA" width="39" height="92.3"/>
	<rect x="122.7" y="271" fill="#CBE7F9" width="39" height="76.9"/>
	<g>
		<rect x="89.7" y="263.1" fill="#C1E3F8" width="3.4" height="75.5"/>
		<rect x="97.6" y="263.1" fill="#C1E3F8" width="3.4" height="75.5"/>
		<rect x="105.4" y="263.1" fill="#C1E3F8" width="3.4" height="75.5"/>
		<rect x="113.3" y="263.1" fill="#C1E3F8" width="3.4" height="75.5"/>
	</g>
	<rect x="89.7" y="253.7" fill="#C1E3F8" width="26.9" height="1.9"/>
	<rect x="128.8" y="269.2" fill="#C1E3F8" width="26.9" height="1.9"/>
	<polygon fill="#B7DFF7" points="142.2,267.1 129.8,268 129.8,269.2 142.2,269.2 154.7,269.2 154.7,268 	"/>
	<g>
		<rect x="125.3" y="275.8" fill="#B7DFF7" width="4.4" height="4.4"/>
		<rect x="131.2" y="275.8" fill="#B7DFF7" width="4.4" height="4.4"/>
		<rect x="137.1" y="275.8" fill="#B7DFF7" width="4.4" height="4.4"/>
		<rect x="143" y="275.8" fill="#B7DFF7" width="4.4" height="4.4"/>
		<rect x="148.8" y="275.8" fill="#B7DFF7" width="4.4" height="4.4"/>
		<rect x="154.7" y="275.8" fill="#B7DFF7" width="4.4" height="4.4"/>
	</g>
	<g>
		<rect x="125.3" y="282.6" fill="#B7DFF7" width="4.4" height="4.4"/>
		<rect x="131.2" y="282.6" fill="#B7DFF7" width="4.4" height="4.4"/>
		<rect x="137.1" y="282.6" fill="#B7DFF7" width="4.4" height="4.4"/>
		<rect x="143" y="282.6" fill="#B7DFF7" width="4.4" height="4.4"/>
		<rect x="148.8" y="282.6" fill="#B7DFF7" width="4.4" height="4.4"/>
		<rect x="154.7" y="282.6" fill="#B7DFF7" width="4.4" height="4.4"/>
	</g>
	<g>
		<rect x="125.3" y="289.5" fill="#B7DFF7" width="4.4" height="4.4"/>
		<rect x="131.2" y="289.5" fill="#B7DFF7" width="4.4" height="4.4"/>
		<rect x="137.1" y="289.5" fill="#B7DFF7" width="4.4" height="4.4"/>
		<rect x="143" y="289.5" fill="#B7DFF7" width="4.4" height="4.4"/>
		<rect x="148.8" y="289.5" fill="#B7DFF7" width="4.4" height="4.4"/>
		<rect x="154.7" y="289.5" fill="#B7DFF7" width="4.4" height="4.4"/>
	</g>
	<g>
		<rect x="125.3" y="296.4" fill="#B7DFF7" width="4.4" height="4.4"/>
		<rect x="131.2" y="296.4" fill="#B7DFF7" width="4.4" height="4.4"/>
		<rect x="137.1" y="296.4" fill="#B7DFF7" width="4.4" height="4.4"/>
		<rect x="143" y="296.4" fill="#B7DFF7" width="4.4" height="4.4"/>
		<rect x="148.8" y="296.4" fill="#B7DFF7" width="4.4" height="4.4"/>
		<rect x="154.7" y="296.4" fill="#B7DFF7" width="4.4" height="4.4"/>
	</g>
	<g>
		<rect x="125.3" y="303.3" fill="#B7DFF7" width="4.4" height="4.4"/>
		<rect x="131.2" y="303.3" fill="#B7DFF7" width="4.4" height="4.4"/>
		<rect x="137.1" y="303.3" fill="#B7DFF7" width="4.4" height="4.4"/>
		<rect x="143" y="303.3" fill="#B7DFF7" width="4.4" height="4.4"/>
		<rect x="148.8" y="303.3" fill="#B7DFF7" width="4.4" height="4.4"/>
		<rect x="154.7" y="303.3" fill="#B7DFF7" width="4.4" height="4.4"/>
	</g>
	<g>
		<rect x="125.3" y="310.2" fill="#B7DFF7" width="4.4" height="4.4"/>
		<rect x="131.2" y="310.2" fill="#B7DFF7" width="4.4" height="4.4"/>
		<rect x="137.1" y="310.2" fill="#B7DFF7" width="4.4" height="4.4"/>
		<rect x="143" y="310.2" fill="#B7DFF7" width="4.4" height="4.4"/>
		<rect x="148.8" y="310.2" fill="#B7DFF7" width="4.4" height="4.4"/>
		<rect x="154.7" y="310.2" fill="#B7DFF7" width="4.4" height="4.4"/>
	</g>
	<g>
		<rect x="125.3" y="317.1" fill="#B7DFF7" width="4.4" height="4.4"/>
		<rect x="131.2" y="317.1" fill="#B7DFF7" width="4.4" height="4.4"/>
		<rect x="137.1" y="317.1" fill="#B7DFF7" width="4.4" height="4.4"/>
		<rect x="143" y="317.1" fill="#B7DFF7" width="4.4" height="4.4"/>
		<rect x="148.8" y="317.1" fill="#B7DFF7" width="4.4" height="4.4"/>
		<rect x="154.7" y="317.1" fill="#B7DFF7" width="4.4" height="4.4"/>
	</g>
	<g>
		<rect x="125.3" y="323.9" fill="#B7DFF7" width="4.4" height="4.4"/>
		<rect x="131.2" y="323.9" fill="#B7DFF7" width="4.4" height="4.4"/>
		<rect x="137.1" y="323.9" fill="#B7DFF7" width="4.4" height="4.4"/>
		<rect x="143" y="323.9" fill="#B7DFF7" width="4.4" height="4.4"/>
		<rect x="148.8" y="323.9" fill="#B7DFF7" width="4.4" height="4.4"/>
		<rect x="154.7" y="323.9" fill="#B7DFF7" width="4.4" height="4.4"/>
	</g>
	<g>
		<rect x="125.3" y="330.8" fill="#B7DFF7" width="4.4" height="4.4"/>
		<rect x="131.2" y="330.8" fill="#B7DFF7" width="4.4" height="4.4"/>
		<rect x="137.1" y="330.8" fill="#B7DFF7" width="4.4" height="4.4"/>
		<rect x="143" y="330.8" fill="#B7DFF7" width="4.4" height="4.4"/>
		<rect x="148.8" y="330.8" fill="#B7DFF7" width="4.4" height="4.4"/>
		<rect x="154.7" y="330.8" fill="#B7DFF7" width="4.4" height="4.4"/>
	</g>
	<g>
		<rect x="125.3" y="337.7" fill="#B7DFF7" width="4.4" height="4.4"/>
		<rect x="131.2" y="337.7" fill="#B7DFF7" width="4.4" height="4.4"/>
		<rect x="137.1" y="337.7" fill="#B7DFF7" width="4.4" height="4.4"/>
		<rect x="143" y="337.7" fill="#B7DFF7" width="4.4" height="4.4"/>
		<rect x="148.8" y="337.7" fill="#B7DFF7" width="4.4" height="4.4"/>
		<rect x="154.7" y="337.7" fill="#B7DFF7" width="4.4" height="4.4"/>
	</g>
	<rect x="156.6" y="313.2" fill="#D8EDFA" width="27.9" height="2.8"/>
	<rect x="157.2" y="316.1" fill="#DEF0FB" width="26.7" height="31.8"/>
	<rect x="160" y="319.3" fill="#D1EAF9" width="21.4" height="2.2"/>
	<rect x="160" y="323.9" fill="#D1EAF9" width="21.4" height="2.2"/>
	<rect x="160" y="328.6" fill="#D1EAF9" width="21.4" height="2.2"/>
	<rect x="160" y="333.3" fill="#D1EAF9" width="21.4" height="2.2"/>
	<g>
		<rect x="172.9" y="257.7" fill="#D8EDFA" width="1.6" height="52.5"/>
		<rect x="177.4" y="257.7" fill="#D8EDFA" width="1.6" height="52.5"/>
		<rect x="181.9" y="257.7" fill="#D8EDFA" width="1.6" height="52.5"/>
		<rect x="186.5" y="257.7" fill="#D8EDFA" width="1.6" height="87.2"/>
	</g>
	<rect x="167.6" y="253.6" fill="#B7DFF7" width="24.7" height="1.1"/>
	<rect x="191.6" y="312.4" fill="#CBE7F9" width="35.5" height="35.5"/>
	<rect x="189.8" y="310.2" fill="#B2DDF6" width="38.3" height="2.2"/>
	<rect x="189.8" y="339.3" fill="#B2DDF6" width="38.3" height="2.2"/>
	<rect x="195.6" y="316.5" fill="#B2DDF6" width="3.9" height="3.9"/>
	<rect x="207.4" y="316.5" fill="#B2DDF6" width="3.9" height="3.9"/>
	<rect x="219.1" y="316.5" fill="#B2DDF6" width="3.9" height="3.9"/>
	<rect x="195.6" y="331.3" fill="#B2DDF6" width="3.9" height="3.9"/>
	<rect x="207.4" y="331.3" fill="#B2DDF6" width="3.9" height="3.9"/>
	<rect x="219.1" y="331.3" fill="#B2DDF6" width="3.9" height="3.9"/>
	<rect x="246.7" y="292.4" fill="#B7DFF7" width="3.8" height="8.2"/>
	<rect x="246" y="300.1" fill="#90D1F3" width="5.3" height="0.6"/>
	<rect x="256.2" y="292.4" fill="#B7DFF7" width="3.8" height="8.2"/>
	<rect x="255.5" y="300.1" fill="#90D1F3" width="5.3" height="0.6"/>
	<rect x="265.7" y="292.4" fill="#B7DFF7" width="3.8" height="8.2"/>
	<rect x="265" y="300.1" fill="#90D1F3" width="5.3" height="0.6"/>
	<rect x="246.7" y="302.8" fill="#B7DFF7" width="3.8" height="8.2"/>
	<rect x="246" y="310.5" fill="#90D1F3" width="5.3" height="0.6"/>
	<rect x="256.2" y="302.8" fill="#B7DFF7" width="3.8" height="8.2"/>
	<rect x="255.5" y="310.5" fill="#90D1F3" width="5.3" height="0.6"/>
	<rect x="265.7" y="302.8" fill="#B7DFF7" width="3.8" height="8.2"/>
	<rect x="265" y="310.5" fill="#90D1F3" width="5.3" height="0.6"/>
	<rect x="246.7" y="313.2" fill="#B7DFF7" width="3.8" height="8.2"/>
	<rect x="246" y="320.9" fill="#90D1F3" width="5.3" height="0.6"/>
	<rect x="256.2" y="313.2" fill="#B7DFF7" width="3.8" height="8.2"/>
	<rect x="255.5" y="320.9" fill="#90D1F3" width="5.3" height="0.6"/>
	<rect x="265.7" y="313.2" fill="#B7DFF7" width="3.8" height="8.2"/>
	<rect x="265" y="320.9" fill="#90D1F3" width="5.3" height="0.6"/>
	<rect x="246.7" y="323.6" fill="#B7DFF7" width="3.8" height="8.2"/>
	<rect x="246" y="331.2" fill="#90D1F3" width="5.3" height="0.6"/>
	<rect x="256.2" y="323.6" fill="#B7DFF7" width="3.8" height="8.2"/>
	<rect x="255.5" y="331.2" fill="#90D1F3" width="5.3" height="0.6"/>
	<rect x="243.4" y="333.6" fill="#90D1F3" width="29.5" height="0.6"/>
	<rect x="265.7" y="323.6" fill="#B7DFF7" width="3.8" height="8.2"/>
	<rect x="265" y="331.2" fill="#90D1F3" width="5.3" height="0.6"/>
</g>
<g>
	<rect x="273.1" y="276.3" fill="#CBE7F9" width="25.1" height="71.6"/>
	<rect x="275.6" y="280.5" fill="#B7DFF7" width="20.1" height="2.6"/>
	<rect x="275.6" y="285.8" fill="#B7DFF7" width="20.1" height="2.6"/>
	<rect x="275.6" y="291.1" fill="#B7DFF7" width="20.1" height="2.6"/>
	<rect x="275.6" y="296.4" fill="#B7DFF7" width="20.1" height="2.6"/>
	<rect x="275.6" y="301.7" fill="#B7DFF7" width="20.1" height="2.6"/>
	<rect x="275.6" y="307" fill="#B7DFF7" width="20.1" height="2.6"/>
	<rect x="275.6" y="312.3" fill="#B7DFF7" width="20.1" height="2.6"/>
	<rect x="275.6" y="317.6" fill="#B7DFF7" width="20.1" height="2.6"/>
	<rect x="275.6" y="322.9" fill="#B7DFF7" width="20.1" height="2.6"/>
	<rect x="275.6" y="328.2" fill="#B7DFF7" width="20.1" height="2.6"/>
	<rect x="275.6" y="274.5" fill="#B7DFF7" width="20.1" height="1.8"/>
	<path fill="#B7DFF7" d="M480.6,304.9c0,0.6-0.5,1-1,1h-18.9c-0.6,0-1-0.5-1-1V286c0-0.6,0.5-1,1-1h18.9c0.6,0,1,0.5,1,1V304.9z"/>
	<rect x="419.4" y="273.8" fill="#9CD5F4" width="36.3" height="74.2"/>
	<rect x="455.7" y="289.1" fill="#CBE7F9" width="28.8" height="58.8"/>
	<rect x="423.1" y="278.1" fill="#B7DFF7" width="29" height="2.7"/>
	<rect x="423.1" y="283.6" fill="#B7DFF7" width="29" height="2.7"/>
	<rect x="423.1" y="289.1" fill="#B7DFF7" width="29" height="2.7"/>
	<rect x="423.1" y="294.6" fill="#B7DFF7" width="29" height="2.7"/>
	<rect x="423.1" y="300.1" fill="#B7DFF7" width="29" height="2.7"/>
	<rect x="423.1" y="305.6" fill="#B7DFF7" width="29" height="2.7"/>
	<rect x="423.1" y="311.1" fill="#B7DFF7" width="29" height="2.7"/>
	<rect x="423.1" y="316.5" fill="#B7DFF7" width="29" height="2.7"/>
	<rect x="423.1" y="322" fill="#B7DFF7" width="29" height="2.7"/>
	<rect x="423.1" y="327.5" fill="#B7DFF7" width="29" height="2.7"/>
	<rect x="423.1" y="271.9" fill="#B7DFF7" width="29" height="1.9"/>
	<polygon fill="#97D3F4" points="371.1,308.9 377.4,306.3 383.8,308.9 383.8,314.6 371.1,314.6 	"/>
	<polygon fill="#C1E3F8" points="403.5,249.5 381.3,251.6 381.3,347.9 403.5,347.9 	"/>
	<rect x="295.6" y="255.6" fill="#D8EDFA" width="39" height="92.3"/>
	<rect x="334.7" y="271" fill="#CBE7F9" width="39" height="76.9"/>
	<g>
		<rect x="301.7" y="263.1" fill="#C1E3F8" width="3.4" height="75.5"/>
		<rect x="309.5" y="263.1" fill="#C1E3F8" width="3.4" height="75.5"/>
		<rect x="317.4" y="263.1" fill="#C1E3F8" width="3.4" height="75.5"/>
		<rect x="325.2" y="263.1" fill="#C1E3F8" width="3.4" height="75.5"/>
	</g>
	<rect x="301.7" y="253.7" fill="#C1E3F8" width="26.9" height="1.9"/>
	<rect x="340.7" y="269.2" fill="#C1E3F8" width="26.9" height="1.9"/>
	<polygon fill="#B7DFF7" points="354.2,267.1 341.7,268 341.7,269.2 354.2,269.2 366.7,269.2 366.7,268 	"/>
	<g>
		<rect x="337.2" y="275.8" fill="#B7DFF7" width="4.4" height="4.4"/>
		<rect x="343.1" y="275.8" fill="#B7DFF7" width="4.4" height="4.4"/>
		<rect x="349" y="275.8" fill="#B7DFF7" width="4.4" height="4.4"/>
		<rect x="354.9" y="275.8" fill="#B7DFF7" width="4.4" height="4.4"/>
		<rect x="360.8" y="275.8" fill="#B7DFF7" width="4.4" height="4.4"/>
		<rect x="366.7" y="275.8" fill="#B7DFF7" width="4.4" height="4.4"/>
	</g>
	<g>
		<rect x="337.2" y="282.6" fill="#B7DFF7" width="4.4" height="4.4"/>
		<rect x="343.1" y="282.6" fill="#B7DFF7" width="4.4" height="4.4"/>
		<rect x="349" y="282.6" fill="#B7DFF7" width="4.4" height="4.4"/>
		<rect x="354.9" y="282.6" fill="#B7DFF7" width="4.4" height="4.4"/>
		<rect x="360.8" y="282.6" fill="#B7DFF7" width="4.4" height="4.4"/>
		<rect x="366.7" y="282.6" fill="#B7DFF7" width="4.4" height="4.4"/>
	</g>
	<g>
		<rect x="337.2" y="289.5" fill="#B7DFF7" width="4.4" height="4.4"/>
		<rect x="343.1" y="289.5" fill="#B7DFF7" width="4.4" height="4.4"/>
		<rect x="349" y="289.5" fill="#B7DFF7" width="4.4" height="4.4"/>
		<rect x="354.9" y="289.5" fill="#B7DFF7" width="4.4" height="4.4"/>
		<rect x="360.8" y="289.5" fill="#B7DFF7" width="4.4" height="4.4"/>
		<rect x="366.7" y="289.5" fill="#B7DFF7" width="4.4" height="4.4"/>
	</g>
	<g>
		<rect x="337.2" y="296.4" fill="#B7DFF7" width="4.4" height="4.4"/>
		<rect x="343.1" y="296.4" fill="#B7DFF7" width="4.4" height="4.4"/>
		<rect x="349" y="296.4" fill="#B7DFF7" width="4.4" height="4.4"/>
		<rect x="354.9" y="296.4" fill="#B7DFF7" width="4.4" height="4.4"/>
		<rect x="360.8" y="296.4" fill="#B7DFF7" width="4.4" height="4.4"/>
		<rect x="366.7" y="296.4" fill="#B7DFF7" width="4.4" height="4.4"/>
	</g>
	<g>
		<rect x="337.2" y="303.3" fill="#B7DFF7" width="4.4" height="4.4"/>
		<rect x="343.1" y="303.3" fill="#B7DFF7" width="4.4" height="4.4"/>
		<rect x="349" y="303.3" fill="#B7DFF7" width="4.4" height="4.4"/>
		<rect x="354.9" y="303.3" fill="#B7DFF7" width="4.4" height="4.4"/>
		<rect x="360.8" y="303.3" fill="#B7DFF7" width="4.4" height="4.4"/>
		<rect x="366.7" y="303.3" fill="#B7DFF7" width="4.4" height="4.4"/>
	</g>
	<g>
		<rect x="337.2" y="310.2" fill="#B7DFF7" width="4.4" height="4.4"/>
		<rect x="343.1" y="310.2" fill="#B7DFF7" width="4.4" height="4.4"/>
		<rect x="349" y="310.2" fill="#B7DFF7" width="4.4" height="4.4"/>
		<rect x="354.9" y="310.2" fill="#B7DFF7" width="4.4" height="4.4"/>
		<rect x="360.8" y="310.2" fill="#B7DFF7" width="4.4" height="4.4"/>
		<rect x="366.7" y="310.2" fill="#B7DFF7" width="4.4" height="4.4"/>
	</g>
	<g>
		<rect x="337.2" y="317.1" fill="#B7DFF7" width="4.4" height="4.4"/>
		<rect x="343.1" y="317.1" fill="#B7DFF7" width="4.4" height="4.4"/>
		<rect x="349" y="317.1" fill="#B7DFF7" width="4.4" height="4.4"/>
		<rect x="354.9" y="317.1" fill="#B7DFF7" width="4.4" height="4.4"/>
		<rect x="360.8" y="317.1" fill="#B7DFF7" width="4.4" height="4.4"/>
		<rect x="366.7" y="317.1" fill="#B7DFF7" width="4.4" height="4.4"/>
	</g>
	<g>
		<rect x="337.2" y="323.9" fill="#B7DFF7" width="4.4" height="4.4"/>
		<rect x="343.1" y="323.9" fill="#B7DFF7" width="4.4" height="4.4"/>
		<rect x="349" y="323.9" fill="#B7DFF7" width="4.4" height="4.4"/>
		<rect x="354.9" y="323.9" fill="#B7DFF7" width="4.4" height="4.4"/>
		<rect x="360.8" y="323.9" fill="#B7DFF7" width="4.4" height="4.4"/>
		<rect x="366.7" y="323.9" fill="#B7DFF7" width="4.4" height="4.4"/>
	</g>
	<g>
		<rect x="337.2" y="330.8" fill="#B7DFF7" width="4.4" height="4.4"/>
		<rect x="343.1" y="330.8" fill="#B7DFF7" width="4.4" height="4.4"/>
		<rect x="349" y="330.8" fill="#B7DFF7" width="4.4" height="4.4"/>
		<rect x="354.9" y="330.8" fill="#B7DFF7" width="4.4" height="4.4"/>
		<rect x="360.8" y="330.8" fill="#B7DFF7" width="4.4" height="4.4"/>
		<rect x="366.7" y="330.8" fill="#B7DFF7" width="4.4" height="4.4"/>
	</g>
	<g>
		<rect x="337.2" y="337.7" fill="#B7DFF7" width="4.4" height="4.4"/>
		<rect x="343.1" y="337.7" fill="#B7DFF7" width="4.4" height="4.4"/>
		<rect x="349" y="337.7" fill="#B7DFF7" width="4.4" height="4.4"/>
		<rect x="354.9" y="337.7" fill="#B7DFF7" width="4.4" height="4.4"/>
		<rect x="360.8" y="337.7" fill="#B7DFF7" width="4.4" height="4.4"/>
		<rect x="366.7" y="337.7" fill="#B7DFF7" width="4.4" height="4.4"/>
	</g>
	<rect x="368.5" y="313.2" fill="#D8EDFA" width="27.9" height="2.8"/>
	<rect x="369.1" y="316.1" fill="#DEF0FB" width="26.7" height="31.8"/>
	<rect x="371.9" y="319.3" fill="#D1EAF9" width="21.4" height="2.2"/>
	<rect x="371.9" y="323.9" fill="#D1EAF9" width="21.4" height="2.2"/>
	<rect x="371.9" y="328.6" fill="#D1EAF9" width="21.4" height="2.2"/>
	<rect x="371.9" y="333.3" fill="#D1EAF9" width="21.4" height="2.2"/>
	<g>
		<rect x="384.8" y="257.7" fill="#D8EDFA" width="1.6" height="52.5"/>
		<rect x="389.3" y="257.7" fill="#D8EDFA" width="1.6" height="52.5"/>
		<rect x="393.9" y="257.7" fill="#D8EDFA" width="1.6" height="52.5"/>
		<rect x="398.4" y="257.7" fill="#D8EDFA" width="1.6" height="87.2"/>
	</g>
	<rect x="379.5" y="253.6" fill="#B7DFF7" width="24.7" height="1.1"/>
	<rect x="403.5" y="312.4" fill="#CBE7F9" width="35.5" height="35.5"/>
	<rect x="401.7" y="310.2" fill="#B2DDF6" width="38.3" height="2.2"/>
	<rect x="401.7" y="339.3" fill="#B2DDF6" width="38.3" height="2.2"/>
	<rect x="407.6" y="316.5" fill="#B2DDF6" width="3.9" height="3.9"/>
	<rect x="419.3" y="316.5" fill="#B2DDF6" width="3.9" height="3.9"/>
	<rect x="431" y="316.5" fill="#B2DDF6" width="3.9" height="3.9"/>
	<rect x="407.6" y="331.3" fill="#B2DDF6" width="3.9" height="3.9"/>
	<rect x="419.3" y="331.3" fill="#B2DDF6" width="3.9" height="3.9"/>
	<rect x="431" y="331.3" fill="#B2DDF6" width="3.9" height="3.9"/>
	<rect x="458.6" y="292.4" fill="#B7DFF7" width="3.8" height="8.2"/>
	<rect x="457.9" y="300.1" fill="#90D1F3" width="5.3" height="0.6"/>
	<rect x="468.1" y="292.4" fill="#B7DFF7" width="3.8" height="8.2"/>
	<rect x="467.4" y="300.1" fill="#90D1F3" width="5.3" height="0.6"/>
	<rect x="477.7" y="292.4" fill="#B7DFF7" width="3.8" height="8.2"/>
	<rect x="477" y="300.1" fill="#90D1F3" width="5.3" height="0.6"/>
	<rect x="458.6" y="302.8" fill="#B7DFF7" width="3.8" height="8.2"/>
	<rect x="457.9" y="310.5" fill="#90D1F3" width="5.3" height="0.6"/>
	<rect x="468.1" y="302.8" fill="#B7DFF7" width="3.8" height="8.2"/>
	<rect x="467.4" y="310.5" fill="#90D1F3" width="5.3" height="0.6"/>
	<rect x="477.7" y="302.8" fill="#B7DFF7" width="3.8" height="8.2"/>
	<rect x="477" y="310.5" fill="#90D1F3" width="5.3" height="0.6"/>
	<rect x="458.6" y="313.2" fill="#B7DFF7" width="3.8" height="8.2"/>
	<rect x="457.9" y="320.9" fill="#90D1F3" width="5.3" height="0.6"/>
	<rect x="468.1" y="313.2" fill="#B7DFF7" width="3.8" height="8.2"/>
	<rect x="467.4" y="320.9" fill="#90D1F3" width="5.3" height="0.6"/>
	<rect x="477.7" y="313.2" fill="#B7DFF7" width="3.8" height="8.2"/>
	<rect x="477" y="320.9" fill="#90D1F3" width="5.3" height="0.6"/>
	<rect x="458.6" y="323.6" fill="#B7DFF7" width="3.8" height="8.2"/>
	<rect x="457.9" y="331.2" fill="#90D1F3" width="5.3" height="0.6"/>
	<rect x="468.1" y="323.6" fill="#B7DFF7" width="3.8" height="8.2"/>
	<rect x="467.4" y="331.2" fill="#90D1F3" width="5.3" height="0.6"/>
	<rect x="455.4" y="333.6" fill="#90D1F3" width="29.5" height="0.6"/>
	<rect x="477.7" y="323.6" fill="#B7DFF7" width="3.8" height="8.2"/>
	<rect x="477" y="331.2" fill="#90D1F3" width="5.3" height="0.6"/>
</g>
</svg>
