<svg xmlns="http://www.w3.org/2000/svg" width="600" height="600" viewBox="0 0 600 600"><path fill="#00AEEF" d="M514.434 286.863c0-117.372-95.15-212.52-212.522-212.52S89.39 169.49 89.39 286.862c0 106.07 77.71 193.984 179.305 209.933l81.346 58.025a6.197 6.197 0 0 0 8.644-1.446l66.73-93.547c53.89-38.548 89.02-101.65 89.02-172.964z"/><circle fill="#E6E7E8" cx="301.912" cy="286.863" r="186.897"/><path fill="#FAB49B" d="M459.5 382.548c-1.22-6.384-15.28-60.437-15.395-60.812-3.15-10.25-7.374-23.51-11.675-38.375 6.39-4.108 9.766-15.405 7.743-27.867-2.4-14.796-11.5-25.63-20.325-24.198-.116.018-.23.048-.345.07-1.75-8.868-3.22-17.764-4.25-26.48-.357-3.006-.903-7.658-1.384-10.55-18.554 5.895-40.96 12.918-68.26 17.346-99.687 16.172-158.603 6.93-193.044-7.364-4.8 21.555-5.278 45.542-.755 71.274a12.403 12.403 0 0 0-4.417-.098c-10.89 1.767-17.316 18-14.354 36.256 2.96 18.258 14.19 31.626 25.078 29.858 2.398-.39 4.578-1.48 6.49-3.137 1.898 10.118 13.54 61.113 17.072 79.605 12.02 62.93 114.763 94.123 167.44 85.618 45.022-12.073 121.363-63.64 110.38-121.145z"/><path fill="#006A93" d="M360.127 121.203c.952 1.026 41.126 57.104 41.126 57.104l6.98-1.132 3.554-45.47-51.66-10.502z"/><path fill="#F0AE96" d="M364.717 113.69L174.61 151.995c-11.09 15.13-19.098 32.823-23.492 52.556 34.44 14.296 93.358 23.536 193.042 7.367 27.298-4.43 49.827-9.743 68.38-15.637-6.272-37.68-23.083-65.61-47.823-82.59z"/><path fill="#886255" d="M144.04 225.882l-.034 28.72-2.643 6.92 2.152 5.16-1.246 6.496 2.955 4.043 10.502 20.72 17.5 12.06s-5.355-20.914-3.972-24.482c1.383-3.567-4.992-14.973-5.356-18.43-.364-3.457-3.152-23.068-3.37-24.408-.216-1.342 5.937-24.65 21.15-31.797l-37.64 15z"/><path fill="#00AEEF" d="M204.68 63.812s14.396-6.286 34.315-10.807C331.115 32.09 370.59 71.712 378.71 121.77l-166.286 37.058-30.743 52.054-40.02-39.667 20.22-64.496 29.264-34.428 13.537-8.48z"/><ellipse transform="rotate(-10.704 256.416 272.31)" fill="#715045" cx="256.495" cy="272.363" rx="13.591" ry="28.345"/><ellipse transform="rotate(-4.997 349.097 256.458)" fill="#715045" cx="349.122" cy="256.582" rx="12.917" ry="26.944"/><path fill="#FFF" d="M290.14 84.123l.026-.03c.97-1.024 2.257-1.814 3.794-2.236a9.46 9.46 0 0 1 4.363-.132l-3.675-14.336c-.288-1.133-.613-1.827-.97-2.08-.357-.253-1.093-.307-2.206-.162l-8.134 1.1c-1.113.156-1.776.402-1.987.74-.21.34-.17 1.095.117 2.26l2.72 10.957 1.68 6.7.695 2.753c1.303-1.95 2.075-3.932 3.577-5.535zM293.25 115.697c.29 1.102.61 1.754.968 1.962.358.205 1.094.165 2.208-.12l8.133-2.05c1.112-.277 1.774-.586 1.985-.928.21-.34.173-1.045-.114-2.113l-4.353-16.345c-2.683 2.846-6.84 5.534-11.944 7.56l3.117 12.032z"/><path fill="#DEDFE0" d="M293.96 81.857c-1.537.422-2.825 1.212-3.794 2.236l-.027.03c-1.503 1.603-2.275 3.584-3.578 5.535l1.95 7.687.43 1.677 1.19 4.646c5.106-2.027 9.263-4.715 11.945-7.56l-3.754-14.382a9.447 9.447 0 0 0-4.363.13z"/><path fill="#FFF" d="M258.375 97.146c2.36.677 5.833 1.146 10.226.698l-1.742-7.193-1.68-6.993-2.72-11.432c-.29-1.216-.61-1.958-.97-2.226-.358-.266-1.094-.31-2.207-.13l-8.13 1.35c-1.112.192-1.778.472-1.984.84-.213.372-.177 1.186.11 2.438l4.832 20.8c1.536.993 3.035 1.492 4.267 1.848zM255.896 102.88l5.164 21.54c.288 1.187.612 1.887.973 2.105.354.22 1.093.163 2.206-.163l8.13-2.337c1.113-.314 1.775-.657 1.986-1.03.212-.374.174-1.134-.115-2.285l-3.176-12.807c-4.814-.108-10.066-1.386-15.168-5.023z"/><path fill="#DEDFE0" d="M269.503 101.546l-.903-3.703c-4.393.45-7.866-.02-10.226-.698-1.23-.355-2.73-.854-4.268-1.85l1.79 7.584c5.102 3.636 10.353 4.914 15.166 5.022l-1.13-4.607-.43-1.75z"/><path fill="#FFF" d="M303.81 88.715a6.33 6.33 0 0 0-.124-4.37c-1.48-3.807-6.14-6.015-10.408-4.883-1.46.394-2.686 1.137-3.606 2.107a.727.727 0 0 0-.027.027c-3.12 3.327-2.916 8.372-11.942 11.132-8.312 2.652-14.645 2.08-18.248 1.024-1.856-.55-4.353-1.445-6.62-4.033l1.728 7.374c13.148 11.685 28.116 5.57 33.244 3.78 8.247-2.79 14.263-7.43 15.912-11.906.027-.072.053-.145.077-.218l.02-.053a.225.225 0 0 0 .008-.024l-.008.024a.042.042 0 0 0-.008.018z"/><path fill="#DEDFE0" d="M299.15 81.493s4.507 1.733 3.747 7.037c0 0-.645-4.142-3.746-7.037z"/><path fill="#009FE3" d="M144.006 254.603s13.168-30.792 37.675-43.72c-11.886-40.712-18.374-113.275 23-147.07 0 0-106.568 32.628-60.674 190.79z"/><path fill="#0092C8" d="M181.68 210.882s41.768-60.482 152.343-73.414c43.913-5.135 73.8-8.803 74.21 39.707 0 0 21.338-52.89 11.156-76.207-11.19-25.622-75.745-20.165-140.014 5.012-61.75 24.19-94.77 65.65-97.695 104.902z"/><ellipse transform="rotate(-14.406 223.525 56.056)" fill="#0092C8" cx="223.509" cy="56.055" rx="6.698" ry="2.912"/><path fill="none" d="M405.788 179.586s.146.1.375.253c-.234-.17-.375-.254-.375-.254z"/><path fill="#7D594D" d="M416.362 192.032c-.14-.862-.926-7.52.326-8.905 1.25-1.382-8.632-7.745-8.632-7.745s-8.347-27.426-18.483-37.353l-6.73-2.097s21.018 35.408 22.945 43.652c0 0 .14.085.375.253l-.375-.253-.77 4.944-3.015 3.242 2.923 3.064s.44 2.29.53 3.258c.04.433.318 1.533.678 2.677a346.195 346.195 0 0 0 10.705-3.424c-.26-.623-.444-1.105-.478-1.314z"/><path fill="#886255" d="M406.133 196.772c.446 1.418 1.014 2.908 1.402 3.28.698.673 1.538 5.848 1.538 5.848s.52 5.62.612 6.194c.093.575 1.404 7.444 1.404 7.444l2.142 5.945 3.167-2.78.884-7.22.08-11.814s2.234-2.606 2.014-3.956c-.166-1.024-1.73-4.41-2.54-6.367a342.654 342.654 0 0 1-10.705 3.425z"/><path fill="#EAA992" d="M293.64 291.132s-6.726 54.618 44.027 60.202c23.346 2.568 33.942-19.33 22.074-26.813 0 0-38.59-1.103-49.888-9.735-11.3-8.633-15.524-15.948-16.212-23.653z"/><path fill="#F69B90" d="M291.994 277.546s-5.438 57.102 49.252 60.748c54.69 3.647 40.864-62.013 0-48.154-40.863 13.86-49.252-12.594-49.252-12.594z"/><path fill="#DA9E89" d="M264.452 388.995s71.75 8.266 132.52-21.015c0 0-50.675 59.005-132.52 21.015zM350.413 422.41s-13.906-1.533-25.647 4.198c0 0 9.757-11.478 25.647-4.198z"/><path fill="#EAA992" d="M437.25 262.5s1.25 12.875-8.375 19l5.625 16.625-11.125-17.812s11.5-4.563 13.875-17.813z"/><g><path fill="#0092C8" d="M145.304 247.994l-.928-.373s.27-.668.827-1.85l.904.43c-.538 1.137-.8 1.786-.803 1.794zM147.76 242.94l-.878-.474a84.5 84.5 0 0 1 1.83-3.222l.86.513a85.316 85.316 0 0 0-1.81 3.184zm3.754-6.287l-.836-.548a91.547 91.547 0 0 1 2.09-3.057l.815.582a88.554 88.554 0 0 0-2.07 3.023zm4.257-5.96l-.788-.615a90.05 90.05 0 0 1 2.335-2.875l.763.646a91.737 91.737 0 0 0-2.31 2.842zm4.735-5.586l-.734-.68a85.383 85.383 0 0 1 2.573-2.665l.705.71c-.86.853-1.714 1.74-2.543 2.635zm5.2-5.15l-.67-.742c.918-.83 1.86-1.646 2.806-2.42l.636.77a77.307 77.307 0 0 0-2.77 2.392zm5.65-4.646l-.598-.8a74.32 74.32 0 0 1 3.028-2.14l.556.83a75.743 75.743 0 0 0-2.986 2.11zM177.438 211.244l-.512-.86a73.526 73.526 0 0 1 1.744-1.007l.488.874c-.582.326-1.155.656-1.72.994z"/></g><g><g fill="none" stroke="#0092C8" stroke-miterlimit="10"><path d="M207.75 63.812s-.583.383-1.592 1.203"/><path stroke-dasharray="3.9741,3.9741" d="M203.194 67.657c-11.6 11.207-40.082 48.596-21.772 133.855"/><path d="M181.845 203.452c.144.648.29 1.298.438 1.952"/></g></g><path fill="#F7A9A8" d="M367 297.333s10.667 7.333 5.5 25.333c0 0 1.263-17.458-5.5-25.333z"/></svg>