<svg baseProfile="tiny" xmlns="http://www.w3.org/2000/svg" width="400" height="83.1" viewBox="0 0 400 83.1"><path fill="#FFF" d="M48.9 22.5c1.4-1.1 3-1.7 4.8-1.9 1.7-.2 3.4.1 4.8.7V3.2c0-1.4-.2-2.3-.5-2.7-.3-.3-1.1-.5-2.4-.5h-9.3c-1.3 0-2.1.2-2.4.5-.3.4-.5 1.3-.5 2.7v25.1c2-2 3.4-4.2 5.5-5.8zM43.4 61.3c0 1.4.2 2.3.5 2.7.3.4 1.1.5 2.4.5h9.3c1.3 0 2.1-.2 2.4-.5.3-.4.5-1.2.5-2.7V39.8c-3.7 2.8-9 5-15.1 6.1v15.4z"/><path fill="#EAEAEA" d="M53.7 20.6c-1.8.2-3.4.9-4.8 1.9-2.1 1.6-3.5 3.8-5.4 5.8v17.6c6.1-1.1 11.4-3.3 15.1-6.1V21.3c-1.5-.6-3.2-.9-4.9-.7z"/><path fill="#FFF" d="M10.7 30.1c2.4 1.3 6 2.8 10.9 3.4V3.2c0-1.4-.2-2.3-.5-2.7C20.8.2 20 0 18.8 0H9.4C8.2 0 7.4.2 7 .5c-.3.4-.5 1.3-.5 2.7V27c1.5 1.5 3 2.4 4.2 3.1zM6.5 35.8v25.5c0 1.4.2 2.3.5 2.7.3.4 1.1.5 2.4.5h9.3c1.3 0 2.1-.2 2.4-.5.3-.4.5-1.2.5-2.7V45.6c-5.1-1.4-10.5-4.3-15.1-9.8z"/><path fill="#EAEAEA" d="M21.6 37.9v-4.4c-4.9-.6-8.5-2-10.9-3.4-1.2-.7-2.7-1.6-4.2-3.1v8.8c4.6 5.4 9.9 8.3 15.1 9.8V37.9z"/><path fill="#FFF" d="M62.5 31.1c.9-1.6 1.3-3.5 1.1-5.4-.5-5-5-8.6-10-8.1-1.7.2-3.3.8-4.6 1.8-4.3 3.3-5.5 9.3-16.1 10.5-9.8 1-16.5-1.2-20.2-3.2-1.9-1.1-4.4-2.6-6.2-6v8.5c11.2 16.6 29 13.6 35.1 12.9 9.7-1.2 17.6-5.4 20.7-10.6.1-.2.2-.3.2-.4.1 0 .1 0 0 0 .1 0 .1 0 0 0z"/><path fill="#EAEAEA" d="M59.5 21.2s4.5 3.1 2.1 9.5c0 0 .5-5.3-2.1-9.5z"/><g fill="#FFF"><path d="M97.3 60.3c-2.8 3.6-6.7 5.4-11.6 5.4-3.2 0-6.2-.8-9-2.4-3.2-1.8-5.7-4.2-7.4-7.3-1.7-3-2.6-6.5-2.6-10.4 0-6.4 2.2-11.5 6.7-15.3 3.5-3.1 7.6-4.6 12.2-4.6 2.4 0 4.6.4 6.5 1.2 1.9.8 3.6 2 5.2 3.7v-.9c0-1.2.2-2 .5-2.3.3-.3 1.1-.5 2.3-.5h7.7c1.2 0 2 .2 2.3.5.3.3.5 1.1.5 2.3v32.1c0 1.2-.2 2-.5 2.3-.3.3-1.1.5-2.3.5h-7.7c-1.2 0-2-.2-2.3-.5-.3-.3-.5-1.1-.5-2.3v-1.5zm-8.2-23.1c-2.4 0-4.4.8-6.1 2.5-1.7 1.7-2.5 3.7-2.5 6.1 0 2.3.8 4.2 2.5 6 1.6 1.7 3.7 2.5 6.1 2.5 2.4 0 4.4-.8 6.1-2.5 1.7-1.7 2.5-3.7 2.5-6 0-2.4-.8-4.4-2.5-6-1.7-1.8-3.7-2.6-6.1-2.6zM133 33.1c1.5-2.4 3.2-4.1 5.2-5.1 1.9-1 4.3-1.6 7.1-1.6 1.1 0 1.8.2 2.1.5.3.3.4 1.1.4 2.3v6.6c0 1-.1 1.7-.3 2.1-.2.4-.6.6-1.2.6-.2 0-.4 0-.7-.1-1.8-.4-3.1-.6-3.9-.6-2.5 0-4.5.9-6.2 2.5-.9.9-1.6 2-1.9 3.2-.4 1.2-.6 2.8-.6 4.8v13.3c0 1.2-.2 2-.5 2.3-.3.3-1.1.5-2.3.5h-7.8c-1.2 0-2-.2-2.3-.5-.3-.3-.5-1.1-.5-2.3V29.7c0-1.2.2-2 .5-2.3.3-.3 1.1-.5 2.3-.5h7.8c1.2 0 2 .2 2.3.5.3.3.5 1.1.5 2.3v3.4zM167.1 33.1c1.5-2.4 3.2-4.1 5.2-5.1 1.9-1 4.3-1.6 7.1-1.6 1.1 0 1.8.2 2.1.5.3.3.4 1.1.4 2.3v6.6c0 1-.1 1.7-.3 2.1-.2.4-.6.6-1.2.6-.2 0-.4 0-.7-.1-1.8-.4-3.1-.6-3.9-.6-2.5 0-4.5.9-6.2 2.5-.9.9-1.6 2-1.9 3.2-.4 1.2-.6 2.8-.6 4.8v13.3c0 1.2-.2 2-.5 2.3-.3.3-1.1.5-2.3.5h-7.8c-1.2 0-2-.2-2.3-.5-.3-.3-.5-1.1-.5-2.3V29.7c0-1.2.2-2 .5-2.3.3-.3 1.1-.5 2.3-.5h7.8c1.2 0 2 .2 2.3.5.3.3.5 1.1.5 2.3v3.4zM203.2 59.4l-16.2-29c-.5-.9-.8-1.5-.8-1.9 0-.6.2-1 .6-1.2.4-.2 1.1-.3 2.1-.3h9.4c1.1 0 1.7.1 2 .2.2.1.6.7 1.1 1.6l9.1 17.4 8.8-17.4c.5-1 .9-1.5 1.1-1.7.2-.1.9-.2 2-.2h9.2c1 0 1.7.1 2.1.3.4.2.6.6.6 1.2 0 .4-.2 1-.7 1.9l-27.4 51.1c-.5.9-.9 1.5-1.1 1.6-.3.1-.9.2-2 .2h-9c-1 0-1.6-.1-1.9-.2-.6-.3-.9-.7-.9-1.3 0-.4.2-1 .7-1.9l11.2-20.4zM274.9 54.9h-19.8l-3 7.6c-.4 1-.7 1.6-1 1.8-.3.2-1 .3-2.1.3h-9.4c-1 0-1.7-.1-2.1-.3-.4-.2-.6-.6-.6-1.2 0-.3.2-.9.5-1.7l19.2-49.9c.1-.2.2-.4.2-.7.2-.6.5-1 .8-1.2s1-.2 2-.2h11.2c1.1 0 1.8.1 2.1.3.3.2.6.8 1 1.8l18.8 49.9c.3.8.5 1.4.5 1.7 0 .6-.2 1-.6 1.2-.4.2-1.1.3-2.1.3h-9.6c-1.1 0-1.8-.1-2.1-.3-.3-.2-.6-.8-1-1.8l-2.9-7.6zm-3.8-11l-6-17.6-6 17.6h12zM312.2 31.1c2.9-3.6 6.7-5.4 11.6-5.4 3.2 0 6.2.8 9 2.4 3.2 1.8 5.7 4.2 7.4 7.3 1.7 3 2.6 6.5 2.6 10.4 0 6.4-2.2 11.5-6.7 15.3-3.5 3-7.6 4.6-12.2 4.6-2.4 0-4.6-.4-6.4-1.2-1.9-.8-3.6-2-5.3-3.7v19.7c0 1.2-.2 2-.5 2.3-.3.3-1.1.5-2.3.5h-7.8c-1.2 0-2-.2-2.3-.5-.3-.3-.5-1.1-.5-2.3V29.7c0-1.2.2-2 .5-2.3.3-.3 1.1-.5 2.3-.5h7.8c1.2 0 2 .2 2.3.5.3.3.5 1.1.5 2.3v1.4zm8.2 6.1c-2.4 0-4.4.8-6.1 2.5-1.7 1.7-2.5 3.7-2.5 6 0 2.4.8 4.4 2.5 6.1 1.7 1.7 3.7 2.5 6.1 2.5 2.4 0 4.4-.8 6.1-2.5 1.7-1.7 2.5-3.8 2.5-6.2 0-2.3-.8-4.3-2.5-6-1.7-1.6-3.7-2.4-6.1-2.4zM363.7 31.1c2.9-3.6 6.7-5.4 11.6-5.4 3.2 0 6.2.8 9 2.4 3.2 1.8 5.7 4.2 7.4 7.3 1.7 3 2.6 6.5 2.6 10.4 0 6.4-2.2 11.5-6.7 15.3-3.5 3-7.6 4.6-12.2 4.6-2.4 0-4.6-.4-6.4-1.2-1.9-.8-3.6-2-5.3-3.7v19.7c0 1.2-.2 2-.5 2.3-.3.3-1.1.5-2.3.5h-7.8c-1.2 0-2-.2-2.3-.5-.3-.3-.5-1.1-.5-2.3V29.7c0-1.2.2-2 .5-2.3.3-.3 1.1-.5 2.3-.5h7.8c1.2 0 2 .2 2.3.5.3.3.5 1.1.5 2.3v1.4zm8.2 6.1c-2.4 0-4.4.8-6.1 2.5-1.7 1.7-2.5 3.7-2.5 6 0 2.4.8 4.4 2.5 6.1 1.7 1.7 3.7 2.5 6.1 2.5 2.4 0 4.4-.8 6.1-2.5 1.7-1.7 2.5-3.8 2.5-6.2 0-2.3-.8-4.3-2.5-6-1.8-1.6-3.8-2.4-6.1-2.4z"/></g></svg>