<svg xmlns="http://www.w3.org/2000/svg" width="600" height="600" viewBox="0 0 600 600"><path fill="#00AEEF" d="M514.434 286.863c0-117.372-95.15-212.521-212.522-212.521S89.39 169.491 89.39 286.863c0 106.07 77.711 193.984 179.305 209.933l81.346 58.025a6.197 6.197 0 0 0 8.643-1.447l66.729-93.547c53.892-38.548 89.021-101.65 89.021-172.964z"/><circle fill="#E6E7E8" cx="301.912" cy="286.863" r="186.897"/><path fill="#FAB49B" d="M459.501 382.548c-1.22-6.384-15.28-60.437-15.396-60.812-3.149-10.249-7.374-23.511-11.675-38.375 6.389-4.109 9.766-15.406 7.743-27.868-2.4-14.796-11.5-25.629-20.325-24.198-.116.018-.229.048-.345.07-1.749-8.868-3.219-17.764-4.251-26.479-.356-3.007-.902-7.659-1.383-10.551-18.553 5.895-40.96 12.918-68.26 17.346-99.686 16.171-158.602 6.93-193.043-7.365-4.799 21.555-5.278 45.542-.755 71.274a12.403 12.403 0 0 0-4.418-.098c-10.889 1.767-17.316 17.999-14.354 36.256 2.962 18.258 14.19 31.626 25.079 29.858 2.398-.389 4.578-1.479 6.491-3.137 1.897 10.119 13.54 61.114 17.071 79.606 12.019 62.929 114.763 94.123 167.441 85.618 45.021-12.073 121.362-63.641 110.38-121.145z"/><path fill="#006A93" d="M360.127 121.203c.952 1.026 41.126 57.104 41.126 57.104l6.979-1.132 3.555-45.471-51.66-10.501z"/><path fill="#F0AE96" d="M364.717 113.69l-190.108 38.305c-11.089 15.131-19.097 32.823-23.491 52.556 34.441 14.295 93.358 23.535 193.042 7.366 27.298-4.43 49.827-9.743 68.379-15.637-6.271-37.681-23.082-65.611-47.822-82.59z"/><path fill="#886255" d="M144.039 225.882l-.033 28.721-2.643 6.92 2.152 5.158-1.246 6.497 2.956 4.043 10.502 20.72 17.5 12.06s-5.355-20.915-3.972-24.483c1.383-3.567-4.992-14.973-5.356-18.43-.363-3.457-3.151-23.068-3.369-24.408-.216-1.342 5.937-24.651 21.15-31.797l-37.641 14.999z"/><path fill="#00AEEF" d="M204.681 63.812s14.395-6.286 34.314-10.807c92.121-20.915 131.594 18.707 139.714 68.764l-166.285 37.059-30.743 52.054-40.021-39.667 20.221-64.496 29.263-34.427 13.537-8.48z"/><ellipse transform="rotate(-10.704 256.416 272.31)" fill="#715045" cx="256.495" cy="272.363" rx="13.591" ry="28.345"/><ellipse transform="rotate(-4.997 349.097 256.458)" fill="#715045" cx="349.122" cy="256.582" rx="12.917" ry="26.944"/><path fill="#FFF" d="M290.139 84.123l.027-.03c.969-1.024 2.257-1.814 3.794-2.236a9.46 9.46 0 0 1 4.363-.132l-3.675-14.336c-.288-1.132-.613-1.826-.969-2.079-.358-.253-1.094-.307-2.207-.162l-8.134 1.1c-1.113.156-1.776.402-1.987.741-.211.339-.172 1.094.116 2.259l2.719 10.957 1.682 6.701.694 2.752c1.303-1.95 2.075-3.932 3.577-5.535zM293.25 115.697c.289 1.102.61 1.754.968 1.962.358.206 1.094.166 2.208-.12l8.133-2.05c1.113-.276 1.775-.585 1.986-.927.209-.341.173-1.045-.114-2.113l-4.354-16.344c-2.683 2.846-6.839 5.534-11.944 7.561l3.117 12.031z"/><path fill="#DEDFE0" d="M293.96 81.857c-1.537.422-2.825 1.212-3.794 2.236l-.027.03c-1.502 1.603-2.274 3.584-3.577 5.535l1.951 7.687.429 1.677 1.191 4.646c5.105-2.027 9.262-4.715 11.944-7.561l-3.754-14.381a9.447 9.447 0 0 0-4.363.131z"/><path fill="#FFF" d="M258.375 97.146c2.359.677 5.833 1.146 10.226.698l-1.743-7.193-1.681-6.994-2.72-11.432c-.288-1.216-.61-1.958-.97-2.226-.357-.265-1.093-.309-2.206-.129l-8.13 1.351c-1.113.191-1.779.471-1.985.84-.213.371-.177 1.185.111 2.437l4.831 20.799c1.536.994 3.035 1.493 4.267 1.849zM255.896 102.88l5.164 21.541c.288 1.186.612 1.886.973 2.104.354.219 1.093.163 2.206-.163l8.132-2.337c1.112-.314 1.774-.657 1.985-1.03.212-.374.174-1.134-.115-2.285l-3.177-12.807c-4.814-.108-10.066-1.386-15.168-5.023z"/><path fill="#DEDFE0" d="M269.503 101.546l-.903-3.703c-4.393.449-7.866-.021-10.226-.698-1.231-.355-2.73-.854-4.268-1.85l1.789 7.584c5.103 3.637 10.354 4.915 15.167 5.023l-1.131-4.607-.428-1.749z"/><path fill="#FFF" d="M303.809 88.715a6.329 6.329 0 0 0-.123-4.369c-1.48-3.808-6.14-6.016-10.408-4.884-1.461.394-2.686 1.137-3.606 2.107a.727.727 0 0 0-.027.028c-3.121 3.327-2.916 8.372-11.942 11.132-8.312 2.653-14.645 2.081-18.248 1.025-1.856-.551-4.353-1.445-6.62-4.033l1.728 7.373c13.148 11.685 28.116 5.571 33.244 3.781 8.247-2.792 14.263-7.431 15.912-11.907.028-.072.054-.145.078-.218l.02-.053a.225.225 0 0 0 .008-.024l-.008.024a.042.042 0 0 0-.008.018z"/><path fill="#DEDFE0" d="M299.151 81.493s4.506 1.733 3.746 7.037c0 0-.645-4.142-3.746-7.037z"/><path fill="#009FE3" d="M144.006 254.603s13.168-30.792 37.675-43.721c-11.887-40.711-18.375-113.274 23-147.069 0-.001-106.569 32.628-60.675 190.79z"/><path fill="#0092C8" d="M181.681 210.882s41.767-60.482 152.342-73.414c43.913-5.135 73.801-8.803 74.209 39.707 0 0 21.339-52.89 11.157-76.207-11.188-25.622-75.744-20.165-140.013 5.012-61.749 24.189-94.771 65.651-97.695 104.902z"/><ellipse transform="rotate(-14.406 223.525 56.056)" fill="#0092C8" cx="223.509" cy="56.055" rx="6.698" ry="2.912"/><path fill="none" d="M405.788 179.586l.375.253c-.234-.168-.375-.253-.375-.253z"/><path fill="#7D594D" d="M416.362 192.032c-.141-.862-.926-7.521.326-8.905 1.251-1.382-8.632-7.745-8.632-7.745s-8.347-27.426-18.483-37.353l-6.731-2.096s21.019 35.408 22.946 43.652c0 0 .141.085.375.253l-.375-.253-.771 4.944-3.014 3.243 2.923 3.064s.439 2.289.53 3.258c.039.433.318 1.533.678 2.677a346.195 346.195 0 0 0 10.705-3.425c-.26-.623-.443-1.105-.477-1.314z"/><path fill="#886255" d="M406.133 196.772c.446 1.418 1.014 2.908 1.402 3.28.698.673 1.538 5.848 1.538 5.848s.519 5.62.612 6.194c.093.575 1.404 7.444 1.404 7.444l2.143 5.945 3.167-2.779.885-7.22.081-11.815s2.233-2.605 2.013-3.955c-.166-1.024-1.731-4.41-2.54-6.367a342.654 342.654 0 0 1-10.705 3.425z"/><path fill="#EAA992" d="M293.64 291.132s-6.726 54.618 44.027 60.202c23.346 2.568 33.942-19.33 22.074-26.813 0 0-38.59-1.104-49.889-9.736-11.299-8.633-15.524-15.948-16.212-23.653z"/><path fill="#F69B90" d="M291.994 277.546s-5.438 57.102 49.252 60.748c54.689 3.647 40.864-62.013 0-48.154-40.863 13.859-49.252-12.594-49.252-12.594z"/><path fill="#DA9E89" d="M264.452 388.995s71.751 8.266 132.521-21.015c-.001 0-50.676 59.005-132.521 21.015zM350.413 422.41s-13.906-1.533-25.647 4.198c0 0 9.757-11.478 25.647-4.198z"/><path fill="#EAA992" d="M437.25 262.5s1.25 12.875-8.375 19l5.625 16.625-11.125-17.812c0-.001 11.5-4.563 13.875-17.813z"/><g><path fill="#0092C8" d="M145.304 247.994l-.928-.373s.269-.669.827-1.85l.904.429c-.538 1.137-.799 1.786-.803 1.794zM147.761 242.941l-.879-.475a84.5 84.5 0 0 1 1.831-3.222l.859.513a85.316 85.316 0 0 0-1.811 3.184zm3.753-6.288l-.836-.548a91.547 91.547 0 0 1 2.091-3.057l.814.582a88.554 88.554 0 0 0-2.069 3.023zm4.257-5.961l-.789-.614a90.051 90.051 0 0 1 2.335-2.875l.763.646a91.737 91.737 0 0 0-2.309 2.843zm4.734-5.585l-.734-.679a85.383 85.383 0 0 1 2.572-2.666l.705.71a86.895 86.895 0 0 0-2.543 2.635zm5.2-5.15l-.67-.742a76.268 76.268 0 0 1 2.806-2.421l.635.772a77.307 77.307 0 0 0-2.771 2.391zm5.649-4.646l-.597-.802a74.319 74.319 0 0 1 3.028-2.139l.556.831a75.743 75.743 0 0 0-2.987 2.11zM177.438 211.244l-.512-.859a73.526 73.526 0 0 1 1.744-1.008l.488.874c-.582.325-1.155.655-1.72.993z"/></g><g><g fill="none" stroke="#0092C8" stroke-miterlimit="10"><path d="M207.75 63.812s-.583.383-1.592 1.203"/><path stroke-dasharray="3.9741,3.9741" d="M203.194 67.657c-11.6 11.207-40.082 48.596-21.772 133.855"/><path d="M181.845 203.452c.144.648.289 1.298.438 1.952"/></g></g><path fill="#F7A9A8" d="M367 297.333s10.667 7.333 5.5 25.333c0 .001 1.263-17.458-5.5-25.333z"/></svg>