<?xml version="1.0" standalone="no"?>
<!DOCTYPE svg PUBLIC "-//W3C//DTD SVG 1.1//EN" "http://www.w3.org/Graphics/SVG/1.1/DTD/svg11.dtd" >
<svg>
<metadata>
Created by FontForge 20090622 at Sun Feb  7 03:15:37 2016
 By deploy user
Copyright (c) 2013 by Hans Samuelson / Samuelstype. All rights reserved.
</metadata>
<defs>
<font id="BrooklynSamuelsFive-Bold" horiz-adv-x="561" >
  <font-face 
    font-family="Brooklyn Samuels Five"
    font-weight="700"
    font-stretch="normal"
    units-per-em="1000"
    panose-1="2 0 5 3 4 0 0 2 0 4"
    ascent="800"
    descent="-200"
    x-height="495"
    cap-height="706"
    bbox="-127.846 -410 1286 928"
    underline-thickness="50"
    underline-position="-50"
    unicode-range="U+0020-U+FB04"
  />
<missing-glyph horiz-adv-x="180" 
 />
    <glyph glyph-name="f_f" unicode="ff" horiz-adv-x="684" 
d="M84 507v64q0 144 168 144q72 0 121 -25q16 -8 9 -23l-39 -79q-2 -5 -8.5 -8t-12.5 -1q-17 7 -37 7q-41 0 -41 -32v-47q0 -12 11 -12h123q12 0 12 12v64q0 144 168 144q68 0 133 -30q15 -8 8 -24l-43 -77q-8 -16 -22 -8q-23 10 -43 10q-41 0 -41 -32v-47q0 -12 11 -12h104
q7 0 12 -5t5 -12v-64q0 -7 -5 -12.5t-12 -5.5h-104q-11 0 -11 -11v-368q0 -7 -5.5 -12t-12.5 -5h-125q-7 0 -12 5t-5 12v368q0 11 -12 11h-123q-11 0 -11 -11v-368q0 -7 -5.5 -12t-12.5 -5h-125q-7 0 -12 5t-5 12v368q0 11 -12 11h-46q-18 0 -18 18v64q0 17 18 17h46
q12 0 12 12z" />
    <glyph glyph-name="fi" unicode="fi" horiz-adv-x="569" 
d="M84 507v24q0 79 54 131q56 53 165 53q93 0 174 -48q15 -8 8 -24l-43 -77q-8 -16 -22 -8q-57 28 -105 28q-71 0 -71 -62v-17q0 -12 11 -12h248q18 0 18 -17v-461q0 -7 -5.5 -12t-12.5 -5h-125q-7 0 -12 5t-5 12v368q0 11 -12 11h-94q-11 0 -11 -11v-368q0 -7 -5.5 -12
t-12.5 -5h-125q-7 0 -12 5t-5 12v368q0 11 -12 11h-46q-18 0 -18 18v64q0 17 18 17h46q12 0 12 12z" />
    <glyph glyph-name="fl" unicode="fl" horiz-adv-x="581" 
d="M84 507v43q0 144 165 144q55 0 109 -27q5 -2 10 0.5t5 8.5v13q0 17 18 17h125q7 0 12 -5t5 -12v-672q0 -7 -5 -12t-12 -5h-125q-7 0 -12.5 5t-5.5 12v527q0 10 -9 15q-21 12 -58 12q-27 0 -44.5 -11t-17.5 -29v-24q0 -12 11 -12h65q7 0 12 -5t5 -12v-64q0 -7 -5 -12.5
t-12 -5.5h-65q-11 0 -11 -11v-368q0 -7 -5.5 -12t-12.5 -5h-125q-7 0 -12 5t-5 12v368q0 11 -12 11h-46q-18 0 -18 18v64q0 17 18 17h46q12 0 12 12z" />
    <glyph glyph-name="f_f_i" unicode="ffi" horiz-adv-x="875" 
d="M84 507v64q0 144 168 144q72 0 121 -25q16 -8 9 -23l-39 -79q-2 -5 -8.5 -8t-12.5 -1q-17 7 -37 7q-41 0 -41 -32v-47q0 -12 11 -12h123q12 0 12 12v24q0 79 54 131q56 53 165 53q93 0 174 -48q15 -8 8 -24l-43 -77q-8 -16 -22 -8q-57 28 -105 28q-71 0 -71 -62v-17
q0 -12 11 -12h248q18 0 18 -17v-461q0 -7 -5.5 -12t-12.5 -5h-125q-7 0 -12 5t-5 12v368q0 11 -12 11h-94q-11 0 -11 -11v-368q0 -7 -5.5 -12t-12.5 -5h-125q-7 0 -12 5t-5 12v368q0 11 -12 11h-123q-11 0 -11 -11v-368q0 -7 -5.5 -12t-12.5 -5h-125q-7 0 -12 5t-5 12v368
q0 11 -12 11h-46q-18 0 -18 18v64q0 17 18 17h46q12 0 12 12z" />
    <glyph glyph-name="f_f_l" unicode="ffl" horiz-adv-x="887" 
d="M84 507v64q0 144 168 144q72 0 121 -25q16 -8 9 -23l-39 -79q-2 -5 -8.5 -8t-12.5 -1q-17 7 -37 7q-41 0 -41 -32v-47q0 -12 11 -12h123q12 0 12 12v43q0 144 165 144q55 0 109 -27q5 -2 10 0.5t5 8.5v13q0 17 18 17h125q7 0 12 -5t5 -12v-672q0 -7 -5 -12t-12 -5h-125
q-7 0 -12.5 5t-5.5 12v527q0 10 -9 15q-21 12 -58 12q-27 0 -44.5 -11t-17.5 -29v-24q0 -12 11 -12h65q7 0 12 -5t5 -12v-64q0 -7 -5 -12.5t-12 -5.5h-65q-11 0 -11 -11v-368q0 -7 -5.5 -12t-12.5 -5h-125q-7 0 -12 5t-5 12v368q0 11 -12 11h-123q-11 0 -11 -11v-368
q0 -7 -5.5 -12t-12.5 -5h-125q-7 0 -12 5t-5 12v368q0 11 -12 11h-46q-18 0 -18 18v64q0 17 18 17h46q12 0 12 12z" />
    <glyph glyph-name="f_b" unicode="fb" horiz-adv-x="886" 
d="M84 507v43q0 144 165 144q55 0 109 -27q5 -2 10 0.5t5 8.5v13q0 17 18 17h125q7 0 12 -5t5 -12v-216q0 -5 4 -7t8 1q49 36 107 36q79 0 141 -65q63 -64 63 -166v-51q0 -109 -60 -169q-58 -60 -142 -60q-67 0 -119 48q-7 8 -12 -3l-12 -27q-4 -10 -16 -10h-104
q-7 0 -12.5 5t-5.5 12v527q0 10 -9 15q-21 12 -58 12q-27 0 -44.5 -11t-17.5 -29v-24q0 -12 11 -12h65q7 0 12 -5t5 -12v-64q0 -7 -5 -12.5t-12 -5.5h-65q-11 0 -11 -11v-368q0 -7 -5.5 -12t-12.5 -5h-125q-7 0 -12 5t-5 12v368q0 11 -12 11h-46q-18 0 -18 18v64q0 17 18 17
h46q12 0 12 12zM610 369q-35 0 -62 -18q-15 -11 -15 -29v-151q0 -19 15 -28q25 -19 62 -19q43 0 67 27t24 75v42q0 48 -24 74.5t-67 26.5z" />
    <glyph glyph-name="f_h" unicode="fh" horiz-adv-x="874" 
d="M84 507v43q0 144 165 144q55 0 109 -27q5 -2 10 0.5t5 8.5v13q0 17 18 17h125q17 0 17 -17v-219q0 -5 4.5 -7t8.5 2q47 38 111 38q80 0 126.5 -51.5t46.5 -142.5v-292q0 -7 -5 -12t-12 -5h-125q-7 0 -12.5 5t-5.5 12v284q0 63 -66 63q-31 0 -55 -15q-16 -10 -16 -29v-303
q0 -7 -5 -12t-12 -5h-125q-7 0 -12.5 5t-5.5 12v527q0 10 -9 15q-21 12 -58 12q-27 0 -44.5 -11t-17.5 -29v-24q0 -12 11 -12h65q7 0 12 -5t5 -12v-64q0 -7 -5 -12.5t-12 -5.5h-65q-11 0 -11 -11v-368q0 -7 -5.5 -12t-12.5 -5h-125q-7 0 -12 5t-5 12v368q0 11 -12 11h-46
q-18 0 -18 18v64q0 17 18 17h46q12 0 12 12z" />
    <glyph glyph-name="f_k" unicode="fk" horiz-adv-x="858" 
d="M84 507v43q0 144 165 144q55 0 109 -27q5 -2 10 0.5t5 8.5v13q0 17 17 17h125q18 0 18 -17v-370q0 -6 4 -9.5t10 -1.5q48 14 76 55t31 99l1 17q1 16 17 16h130q19 0 17 -18l-3 -23q-16 -123 -105 -198q-8 -6 -2 -14l137 -215q6 -9 1 -18t-16 -9h-140q-12 0 -16 10
l-95 173q-4 9 -15 7l-22 -3q-10 0 -10 -11v-159q0 -7 -5.5 -12t-12.5 -5h-125q-7 0 -12 5t-5 12v527q0 10 -9 15q-21 12 -58 12q-27 0 -44.5 -11t-17.5 -29v-24q0 -12 11 -12h65q7 0 12 -5t5 -12v-64q0 -7 -5 -12.5t-12 -5.5h-65q-11 0 -11 -11v-368q0 -7 -5.5 -12t-12.5 -5
h-125q-7 0 -12 5t-5 12v368q0 11 -12 11h-46q-18 0 -18 18v64q0 17 18 17h46q12 0 12 12z" />
    <glyph glyph-name="f_t" unicode="ft" horiz-adv-x="703" 
d="M84 507v64q0 144 168 144q68 0 133 -30q15 -8 8 -24l-43 -77q-8 -16 -22 -8q-23 10 -43 10q-41 0 -41 -32v-47q0 -12 11 -12h124q11 0 11 12v91q0 7 5 12.5t12 5.5h126q7 0 12 -5.5t5 -12.5v-91q0 -12 12 -12h103q17 0 17 -17v-64q0 -18 -17 -18h-103q-12 0 -12 -11v-229
q0 -14 11.5 -23t27.5 -9q22 0 40 9q18 6 24 -7l47 -79q4 -7 1.5 -14.5t-9.5 -10.5q-67 -30 -134 -30q-168 0 -168 143v250q0 11 -11 11h-124q-11 0 -11 -11v-368q0 -7 -5.5 -12t-12.5 -5h-125q-7 0 -12 5t-5 12v368q0 11 -12 11h-46q-18 0 -18 18v64q0 17 18 17h46
q12 0 12 12z" />
    <glyph glyph-name="f_j" unicode="fj" horiz-adv-x="579" 
d="M84 507v24q0 79 54 131q56 53 165 53q93 0 174 -48q15 -8 8 -24l-43 -77q-8 -16 -22 -8q-57 28 -105 28q-71 0 -71 -62v-17q0 -12 11 -12h258q18 0 18 -17v-533q0 -78 -49 -131q-48 -54 -132 -54q-68 0 -127 24q-18 7 -9 25l45 80q8 12 20 8q22 -5 40 -5q24 0 38 14.5
t14 36.5v442q0 11 -12 11h-104q-11 0 -11 -11v-368q0 -7 -5.5 -12t-12.5 -5h-125q-7 0 -12 5t-5 12v368q0 11 -12 11h-46q-18 0 -18 18v64q0 17 18 17h46q12 0 12 12z" />
    <glyph glyph-name="f_f_b" unicode="ffb" horiz-adv-x="1192" 
d="M84 507v64q0 144 168 144q72 0 121 -25q16 -8 9 -23l-39 -79q-2 -5 -8.5 -8t-12.5 -1q-17 7 -37 7q-41 0 -41 -32v-47q0 -12 11 -12h123q12 0 12 12v43q0 144 165 144q55 0 109 -27q5 -2 10 0.5t5 8.5v13q0 17 18 17h125q7 0 12 -5t5 -12v-216q0 -5 4 -7t8 1
q49 36 107 36q79 0 141 -65q63 -64 63 -166v-51q0 -109 -60 -169q-58 -60 -142 -60q-66 0 -119 48q-7 8 -12 -3l-12 -27q-4 -10 -16 -10h-104q-7 0 -12.5 5t-5.5 12v527q0 10 -9 15q-21 12 -58 12q-27 0 -44.5 -11t-17.5 -29v-24q0 -12 11 -12h65q7 0 12 -5t5 -12v-64
q0 -7 -5 -12.5t-12 -5.5h-65q-11 0 -11 -11v-368q0 -7 -5.5 -12t-12.5 -5h-125q-7 0 -12 5t-5 12v368q0 11 -12 11h-123q-11 0 -11 -11v-368q0 -7 -5.5 -12t-12.5 -5h-125q-7 0 -12 5t-5 12v368q0 11 -12 11h-46q-18 0 -18 18v64q0 17 18 17h46q12 0 12 12zM916 369
q-35 0 -62 -18q-15 -11 -15 -29v-151q0 -19 15 -28q25 -19 62 -19q43 0 67 27t24 75v42q0 48 -24 74.5t-67 26.5z" />
    <glyph glyph-name="f_f_h" unicode="ffh" horiz-adv-x="1180" 
d="M84 507v64q0 144 168 144q72 0 121 -25q16 -8 9 -23l-39 -79q-2 -5 -8.5 -8t-12.5 -1q-17 7 -37 7q-41 0 -41 -32v-47q0 -12 11 -12h123q12 0 12 12v43q0 144 165 144q55 0 109 -27q5 -2 10 0.5t5 8.5v13q0 17 18 17h125q17 0 17 -17v-219q0 -5 4.5 -7t8.5 2
q47 38 111 38q80 0 126.5 -51.5t46.5 -142.5v-292q0 -7 -5 -12t-12 -5h-125q-7 0 -12.5 5t-5.5 12v284q0 63 -66 63q-31 0 -55 -15q-16 -10 -16 -29v-303q0 -7 -5 -12t-12 -5h-125q-7 0 -12.5 5t-5.5 12v527q0 10 -9 15q-21 12 -58 12q-27 0 -44.5 -11t-17.5 -29v-24
q0 -12 11 -12h65q7 0 12 -5t5 -12v-64q0 -7 -5 -12.5t-12 -5.5h-65q-11 0 -11 -11v-368q0 -7 -5.5 -12t-12.5 -5h-125q-7 0 -12 5t-5 12v368q0 11 -12 11h-123q-11 0 -11 -11v-368q0 -7 -5.5 -12t-12.5 -5h-125q-7 0 -12 5t-5 12v368q0 11 -12 11h-46q-18 0 -18 18v64
q0 17 18 17h46q12 0 12 12z" />
    <glyph glyph-name="f_f_k" unicode="ffk" horiz-adv-x="1164" 
d="M84 507v64q0 144 168 144q72 0 121 -25q16 -8 9 -23l-39 -79q-2 -5 -8.5 -8t-12.5 -1q-17 7 -37 7q-41 0 -41 -32v-47q0 -12 11 -12h123q12 0 12 12v43q0 144 165 144q55 0 109 -27q5 -2 10 0.5t5 8.5v13q0 17 17 17h125q18 0 18 -17v-370q0 -6 4 -9.5t10 -1.5
q48 14 76 55t31 99l1 17q1 16 17 16h130q19 0 17 -18l-3 -23q-16 -123 -105 -198q-8 -6 -2 -14l137 -215q6 -9 1 -18t-16 -9h-140q-12 0 -16 10l-95 173q-4 9 -15 7l-22 -3q-10 0 -10 -11v-159q0 -7 -5.5 -12t-12.5 -5h-125q-7 0 -12 5t-5 12v527q0 10 -9 15q-21 12 -58 12
q-27 0 -44.5 -11t-17.5 -29v-24q0 -12 11 -12h65q7 0 12 -5t5 -12v-64q0 -7 -5 -12.5t-12 -5.5h-65q-11 0 -11 -11v-368q0 -7 -5.5 -12t-12.5 -5h-125q-7 0 -12 5t-5 12v368q0 11 -12 11h-123q-11 0 -11 -11v-368q0 -7 -5.5 -12t-12.5 -5h-125q-7 0 -12 5t-5 12v368
q0 11 -12 11h-46q-18 0 -18 18v64q0 17 18 17h46q12 0 12 12z" />
    <glyph glyph-name="f_f_t" unicode="fft" horiz-adv-x="1009" 
d="M84 507v64q0 144 168 144q72 0 121 -25q16 -8 9 -23l-39 -79q-2 -5 -8.5 -8t-12.5 -1q-17 7 -37 7q-41 0 -41 -32v-47q0 -12 11 -12h123q12 0 12 12v64q0 144 168 144q68 0 133 -30q15 -8 8 -24l-43 -77q-8 -16 -22 -8q-23 10 -43 10q-41 0 -41 -32v-47q0 -12 11 -12h124
q11 0 11 12v91q0 7 5 12.5t12 5.5h126q7 0 12 -5.5t5 -12.5v-91q0 -12 12 -12h103q17 0 17 -17v-64q0 -18 -17 -18h-103q-12 0 -12 -11v-229q0 -14 11.5 -23t27.5 -9q22 0 40 9q18 6 24 -7l47 -79q4 -7 1.5 -14.5t-9.5 -10.5q-67 -30 -134 -30q-168 0 -168 143v250
q0 11 -11 11h-124q-11 0 -11 -11v-368q0 -7 -5.5 -12t-12.5 -5h-125q-7 0 -12 5t-5 12v368q0 11 -12 11h-123q-11 0 -11 -11v-368q0 -7 -5.5 -12t-12.5 -5h-125q-7 0 -12 5t-5 12v368q0 11 -12 11h-46q-18 0 -18 18v64q0 17 18 17h46q12 0 12 12z" />
    <glyph glyph-name="f_f_j" unicode="ffj" horiz-adv-x="885" 
d="M84 507v64q0 144 168 144q72 0 121 -25q16 -8 9 -23l-39 -79q-2 -5 -8.5 -8t-12.5 -1q-17 7 -37 7q-41 0 -41 -32v-47q0 -12 11 -12h123q12 0 12 12v24q0 79 54 131q56 53 165 53q93 0 174 -48q15 -8 8 -24l-43 -77q-8 -16 -22 -8q-57 28 -105 28q-71 0 -71 -62v-17
q0 -12 11 -12h258q18 0 18 -17v-533q0 -78 -49 -131q-48 -54 -132 -54q-68 0 -127 24q-18 7 -9 25l45 80q8 12 20 8q22 -5 40 -5q24 0 38 14.5t14 36.5v442q0 11 -12 11h-104q-11 0 -11 -11v-368q0 -7 -5.5 -12t-12.5 -5h-125q-7 0 -12 5t-5 12v368q0 11 -12 11h-123
q-11 0 -11 -11v-368q0 -7 -5.5 -12t-12.5 -5h-125q-7 0 -12 5t-5 12v368q0 11 -12 11h-46q-18 0 -18 18v64q0 17 18 17h46q12 0 12 12z" />
    <glyph glyph-name="g_j" unicode="gj" horiz-adv-x="819" 
d="M611 -47v525q0 7 5 12t12 5h126q7 0 12 -5t5 -12v-523q0 -78 -49 -131q-48 -54 -132 -54q-48 0 -91 15q-19 7 -12 25l32 85q5 15 19 10q10 -3 21 -3q24 0 38 14.5t14 36.5zM634 571q-23 23 -23 56t23 56q24 23 57 23t56 -23q24 -23 24 -56t-24 -56q-23 -23 -56 -23
t-57 23zM30 221v51q0 106 58 168q58 63 139 63q67 0 125 -48q7 -7 11 2l12 26q6 12 19 12h102q7 0 12 -5t5 -12v-492q0 -103 -73 -164q-73 -62 -188 -62q-83 0 -144 37q-14 7 -6 24l45 75q9 15 24 6q25 -13 70 -13q53 0 82.5 26.5t29.5 74.5v49q0 11 -12 4q-59 -51 -117 -51
q-86 0 -140 64t-54 165zM185 268v-42q0 -48 24 -75t67 -27q33 0 62 19q15 9 15 28v151q0 18 -15 29q-27 18 -62 18q-43 0 -67 -26.5t-24 -74.5z" />
    <glyph glyph-name="c_o" unicode="c&#x2f;o" horiz-adv-x="991" 
d="M548 183v35q0 80 58 132q58 54 144 54q84 0 143 -54q58 -52 58 -132v-35q0 -79 -58 -133q-59 -53 -143 -53q-85 0 -144 53q-58 54 -58 133zM673 218v-35q0 -36 21 -58t56 -22q34 0 55 22t21 58v35q0 36 -21 58.5t-55 22.5t-55.5 -22.5t-21.5 -58.5zM40 490v38
q0 74 54 130q55 55 139 55q34 0 56.5 -7t57.5 -27q13 -7 6 -24l-34 -57q-8 -14 -22 -6q-33 16 -55 16q-34 0 -55.5 -22t-21.5 -59v-35q0 -37 21.5 -58.5t55.5 -21.5q12 0 28 4l25 13q16 6 23 -7l32 -59q4 -6 2 -13.5t-8 -10.5q-56 -33 -116 -33q-66 0 -127 49t-61 135z
M263 23l300 666q6 17 25 17h68q10 0 15 -7t2 -16l-300 -666q-6 -17 -25 -17h-68q-10 0 -15.5 7t-1.5 16z" />
    <glyph glyph-name=".notdef" horiz-adv-x="180" 
 />
    <glyph glyph-name=".null" horiz-adv-x="0" 
 />
    <glyph glyph-name="nonmarkingreturn" horiz-adv-x="333" 
 />
    <glyph glyph-name="space" unicode=" " horiz-adv-x="200" 
 />
    <glyph glyph-name="exclam" unicode="!" horiz-adv-x="306" 
d="M74 244l-1 445q0 7 5 12t12 5h125q7 0 12 -5t5 -12l-1 -445q0 -7 -5.5 -12t-12.5 -5h-121q-7 0 -12.5 5t-5.5 12zM92 19q-25 25 -25 61t25 60q25 25 61 25t61 -25q25 -24 25 -60t-25 -61q-25 -24 -61 -24t-61 24z" />
    <glyph glyph-name="quotedbl" unicode="&#x22;" horiz-adv-x="393" 
d="M107 456h-7q-11 0 -17 13l-41 123q-12 34 -12 47q0 32 21.5 52t52.5 20t52 -20t21 -52q0 -11 -11 -47l-42 -123q-4 -13 -17 -13zM294 456h-7q-13 0 -17 13l-42 123q-11 33 -11 47q0 32 21 52t52 20t52 -20t21 -52q0 -11 -11 -47l-41 -123q-6 -13 -17 -13z" />
    <glyph glyph-name="numbersign" unicode="#" horiz-adv-x="623" 
d="M141 283v141q0 9 -12 9h-61q-7 0 -12.5 5.5t-5.5 12.5v77q0 7 5.5 12t12.5 5h61q12 0 12 11v102q0 7 5 12.5t12 5.5h78q7 0 12 -5.5t5 -12.5v-102q0 -11 10 -11h98q10 0 10 11v102q0 7 5 12.5t12 5.5h78q7 0 12 -5.5t5 -12.5v-102q0 -11 12 -11h61q7 0 12 -5t5 -12v-78
q0 -7 -5 -12t-12 -5h-61q-12 0 -12 -9v-141q0 -11 12 -11h61q7 0 12 -5t5 -12v-78q0 -7 -5 -12t-12 -5h-61q-12 0 -12 -11v-101q0 -7 -5 -12t-12 -5h-78q-7 0 -12 5t-5 12v101q0 4 -3 7.5t-7 3.5h-98q-4 0 -7 -3.5t-3 -7.5v-101q0 -7 -5 -12t-12 -5h-78q-7 0 -12 5t-5 12
v101q0 11 -12 11h-61q-7 0 -12.5 5.5t-5.5 12.5v77q0 7 5.5 12t12.5 5h61q12 0 12 11zM253 422v-139q0 -11 10 -11h98q10 0 10 11v139q0 4 -3 7.5t-7 3.5h-98q-4 0 -7 -3.5t-3 -7.5z" />
    <glyph glyph-name="dollar" unicode="$" horiz-adv-x="593" 
d="M265 713v132q0 7 5 12t12 5h38q7 0 12.5 -5t5.5 -12v-131q85 -9 164 -68q14 -10 3 -24l-74 -97q-14 -15 -26 -3q-45 39 -98 39q-85 0 -85 -59v-3q0 -30 29.5 -46.5t108.5 -31.5q199 -37 199 -200v-4q0 -90 -59.5 -150t-161.5 -73v-132q0 -8 -5.5 -13t-12.5 -5h-38
q-17 0 -17 18v129q-122 6 -220 81q-6 4 -7 12t4 13l75 99q10 13 24 2q28 -24 67 -39.5t75 -15.5q110 0 110 67v4q5 30 -35 53q-9 5 -29 11l-34 9l-44 10q-1 0 -2.5 0.5l-3 1t-3.5 0.5l-48 11q-15 4 -47 20q-31 16 -46 34q-42 50 -42 133v4q0 87 56 144t150 68z" />
    <glyph glyph-name="percent" unicode="%" horiz-adv-x="916" 
d="M414 535v-3q0 -77 -54 -128q-53 -50 -133 -50q-79 0 -134 50q-53 51 -53 128v3q0 77 54 126q54 51 133 51t133 -51q54 -49 54 -126zM305 532v3q0 37 -21 57.5t-57 20.5q-37 0 -57.5 -20.5t-20.5 -57.5v-3q0 -38 20.5 -58.5t57.5 -20.5t57.5 20.5t20.5 58.5zM162 29
l440 657q14 20 39 20h98q12 0 17 -10t-1 -19l-440 -657q-14 -20 -39 -20h-98q-12 0 -17 10t1 19zM876 175v-3q0 -77 -54 -128q-53 -50 -133 -50q-79 0 -134 50q-53 51 -53 128v3q0 77 54 126q54 51 133 51t133 -51q54 -49 54 -126zM767 172v3q0 37 -21 57.5t-57 20.5
q-37 0 -57.5 -20.5t-20.5 -57.5v-3q0 -38 20.5 -58.5t57.5 -20.5t57.5 20.5t20.5 58.5z" />
    <glyph glyph-name="ampersand" unicode="&#x26;" horiz-adv-x="708" 
d="M136 507v9q0 86 63 143t163 57h9q100 0 163 -57t63 -143v-9q0 -79 -58 -131q-57 -51 -132 -57l-62 -7q-39 -4 -64.5 -28t-25.5 -55v-12q0 -35 30.5 -57t76.5 -22h17q62 0 100 35q4 3 4 9t-6 10l-42 25q-7 4 -8 13t4 14l57 64q9 11 22 4l239 -138q7 -4 8.5 -12t-4.5 -14
l-58 -65q-9 -9 -23 -2l-50 28q-15 9 -24 -6q-37 -51 -99 -82t-134 -31h-17q-111 0 -184 60q-74 60 -74 148v19q0 99 87 154q14 11 1 23q-42 47 -42 113zM290 502v-8q0 -29 21 -49.5t52 -20.5h7q31 0 52 20.5t21 49.5v8q0 33 -20.5 53t-52.5 20h-7q-32 0 -52.5 -20t-20.5 -53
z" />
    <glyph glyph-name="quotesingle" unicode="'" horiz-adv-x="206" 
d="M107 456h-7q-13 0 -17 13l-42 123q-11 33 -11 47q0 32 21 52t52 20t52 -20t21 -52q0 -11 -11 -47l-41 -123q-6 -13 -17 -13z" />
    <glyph glyph-name="parenleft" unicode="(" horiz-adv-x="369" 
d="M70 353q0 150 34 270t111 242q7 12 21 7l91 -34q18 -6 9 -24q-59 -114 -85 -213q-25 -96 -25 -248q0 -153 25 -249q24 -94 86 -212q7 -19 -9 -25l-90 -34q-13 -6 -22 7q-78 124 -112 243q-34 120 -34 270z" />
    <glyph glyph-name="parenright" unicode=")" horiz-adv-x="369" 
d="M41 814q-9 18 9 24l91 34q14 5 21 -7q77 -122 111 -242t34 -270q0 -147 -35 -270q-34 -121 -111 -243q-9 -13 -22 -7l-90 34q-16 6 -9 25q60 115 85 212q26 99 26 249q0 152 -25 248q-26 99 -85 213z" />
    <glyph glyph-name="asterisk" unicode="*" horiz-adv-x="455" 
d="M288 664l78 52q5 4 13 2t12 -8l32 -55q9 -16 -7 -25l-83 -44q-5 -2 -5 -7t4 -7l85 -43q13 -7 5 -24l-32 -56q-9 -16 -24 -7l-79 51q-4 3 -8.5 1t-4.5 -8l5 -93q1 -7 -4.5 -12.5t-12.5 -5.5h-64q-7 0 -12.5 5.5t-5.5 12.5l5 93q0 6 -5 8t-10 -1l-77 -50q-5 -3 -13 -1.5
t-12 7.5l-32 56q-4 5 -2.5 13t8.5 11l84 44q5 2 5 7t-5 7l-84 43q-5 3 -7.5 10.5t1.5 13.5l33 56q3 6 10.5 8.5t13.5 -1.5l79 -53q5 -3 9 -0.5t4 7.5l-5 96q0 7 5.5 12t12.5 5h64q7 0 12 -5t5 -12l-4 -96q0 -5 4 -7.5t9 0.5z" />
    <glyph glyph-name="plus" unicode="+" horiz-adv-x="573" 
d="M343 286v-152q0 -7 -5 -12t-12 -5h-78q-7 0 -12 5t-5 12v152q0 11 -12 11h-151q-7 0 -12.5 5.5t-5.5 12.5v77q0 7 5.5 12t12.5 5h151q12 0 12 11v152q0 7 5 12.5t12 5.5h78q7 0 12 -5.5t5 -12.5v-152q0 -11 12 -11h151q7 0 12 -5t5 -12v-78q0 -7 -5 -12t-12 -5h-151
q-12 0 -12 -11z" />
    <glyph glyph-name="comma" unicode="," horiz-adv-x="262" 
d="M47 86q0 36 24.5 60.5t61.5 24.5t61.5 -24.5t24.5 -60.5q0 -54 -35 -110t-84 -95q-17 -14 -33 -7l-13 5q-7 2 -9 10.5t4 16.5q35 47 35 74q0 30 -18 52q-19 25 -19 54z" />
    <glyph glyph-name="hyphen" unicode="-" horiz-adv-x="372" 
d="M57 307h257q7 0 12.5 -5t5.5 -12v-84q0 -7 -5.5 -12t-12.5 -5h-257q-7 0 -12 5t-5 12v84q0 7 5 12t12 5z" />
    <glyph glyph-name="period" unicode="." horiz-adv-x="262" 
d="M70 19q-25 25 -25 61t25 60q25 25 61 25t61 -25q25 -24 25 -60t-25 -61q-25 -24 -61 -24t-61 24z" />
    <glyph glyph-name="slash" unicode="/" horiz-adv-x="483" 
d="M-5 -133l352 978q6 17 25 17h105q10 0 15 -7t2 -16l-352 -978q-6 -17 -25 -17h-105q-10 0 -15 7t-2 16z" />
    <glyph glyph-name="zero" unicode="0" horiz-adv-x="554" 
d="M45 227v252q0 110 64 173q64 64 168 64t168 -64q64 -63 64 -173v-252q0 -109 -64 -173t-168 -64t-168 64t-64 173zM205 477v-246q0 -55 16 -81t56 -26t56 26t16 81v246q0 42 -11 70q-12 35 -61 35q-32 0 -49 -18q-16 -16 -19.5 -33t-3.5 -54z" />
    <glyph glyph-name="one" unicode="1" horiz-adv-x="311" 
d="M86 17v538q0 12 -11 12h-26q-9 0 -14.5 8.5t-0.5 17.5l63 105q5 8 15 8h117q17 0 17 -17v-672q0 -7 -5 -12t-12 -5h-126q-7 0 -12 5t-5 12z" />
    <glyph glyph-name="two" unicode="2" horiz-adv-x="497" 
d="M213 716q115 0 181.5 -59t66.5 -160v-17q0 -76 -101 -195l-115 -133q-3 -3 -1 -8t7 -5h178q7 0 12 -5t5 -12v-105q0 -7 -5 -12t-12 -5h-382q-7 0 -12 5t-5 12v74q0 13 8 24l202 244q60 73 60 114v12q0 41 -28.5 66.5t-74.5 25.5q-52 0 -91 -18q-18 -7 -24 9l-34 86
q-7 15 8 23q74 39 157 39z" />
    <glyph glyph-name="three" unicode="3" horiz-adv-x="477" 
d="M319 439q64 -19 99 -71t35 -126v-17q0 -101 -75 -168q-74 -67 -187 -67q-75 0 -145 36q-14 8 -8 22l35 89q6 15 26 8q33 -16 80 -16q49 0 81 28.5t32 71.5v9q0 45 -32 74t-81 29q-35 0 -59 -7q-13 -3 -20 7l-12 20q-6 11 1 20l129 167q4 5 1.5 12t-9.5 7h-133
q-7 0 -12.5 5t-5.5 12v105q0 17 18 17h341q7 0 12 -5t5 -12v-73q0 -14 -12 -27l-110 -132q-4 -4 -2 -10.5t8 -7.5z" />
    <glyph glyph-name="four" unicode="4" horiz-adv-x="531" 
d="M25 270l256 424q7 12 23 12h120q17 0 17 -17v-405q0 -11 12 -11h37q8 0 13 -5.5t5 -12.5v-83q0 -18 -18 -18h-37q-12 0 -12 -11v-126q0 -7 -5 -12t-12 -5h-126q-7 0 -12 5t-5 12v126q0 11 -12 11h-232q-17 0 -17 18v79q0 11 5 19zM267 429l-84 -145q-2 -4 0 -7.5t7 -3.5
h79q12 0 12 11v142q0 5 -5.5 6.5t-8.5 -3.5z" />
    <glyph glyph-name="five" unicode="5" horiz-adv-x="492" 
d="M69 331v358q0 17 18 17h330q18 0 18 -17v-105q0 -7 -5.5 -12t-12.5 -5h-184q-12 0 -12 -12v-83q0 -12 13 -12h15q98 0 156 -58t58 -158v-18q0 -99 -76 -168q-77 -68 -186 -68q-74 0 -145 36q-14 8 -8 22l35 89q2 7 9.5 10t14.5 -1q39 -17 82 -17q49 0 81 29t32 73v9
q0 45 -31 73t-82 28q-54 0 -94 -25q-8 -5 -17 0t-9 15z" />
    <glyph glyph-name="six" unicode="6" horiz-adv-x="544" 
d="M315 442q92 0 145.5 -57.5t53.5 -154.5v-17q0 -95 -69 -159q-67 -64 -171 -64q-102 0 -166 62q-63 62 -63 161v268q0 102 73 168q73 67 185 67q72 0 145 -35q15 -7 9 -22l-35 -88q-2 -6 -9 -9.5t-14 -0.5q-39 16 -84 16q-48 0 -79 -28.5t-31 -71.5v-54q0 -6 4.5 -7.5
t8.5 1.5q40 25 97 25zM279 319q-37 0 -58 -25t-21 -68v-9q0 -43 19.5 -68t54.5 -25q36 0 57 25.5t21 67.5v9q0 43 -19 68t-54 25z" />
    <glyph glyph-name="seven" unicode="7" horiz-adv-x="441" 
d="M38 706h381q7 0 12 -5t5 -12v-67q0 -23 -7 -38l-205 -569q-4 -15 -21 -15h-144q-7 0 -11 6t-1 13l208 532q2 6 -1 11t-10 5h-206q-7 0 -12.5 5t-5.5 12v105q0 17 18 17z" />
    <glyph glyph-name="eight" unicode="8" horiz-adv-x="556" 
d="M499 514v-9q0 -77 -55 -129q-8 -8 0 -14q72 -59 72 -146v-18q0 -86 -66 -148q-67 -62 -172 -62t-172 62q-66 62 -66 148v18q0 88 73 146q8 6 0 14q-56 53 -56 129v9q0 85 61 143q62 59 160 59t160 -59q61 -58 61 -143zM211 502v-8q0 -31 18.5 -52.5t48.5 -21.5
q29 0 47.5 21.5t18.5 52.5v8q0 37 -17.5 58.5t-48.5 21.5t-49 -21.5t-18 -58.5zM205 230v-22q0 -39 20 -62.5t53 -23.5t52.5 23.5t19.5 62.5v22q0 35 -20 58t-52 23t-52.5 -23.5t-20.5 -57.5z" />
    <glyph glyph-name="nine" unicode="9" horiz-adv-x="544" 
d="M229 264q-92 0 -145.5 57.5t-53.5 154.5v17q0 94 68 159q68 64 172 64q102 0 166 -62q63 -62 63 -161v-268q0 -102 -73 -169q-74 -66 -185 -66q-72 0 -145 35q-15 7 -9 22l35 88q2 6 9 9.5t14 0.5q39 -16 84 -16q48 0 79 28.5t31 71.5v54q0 6 -4.5 7.5t-8.5 -1.5
q-40 -25 -97 -25zM265 387q37 0 58 25t21 68v9q0 43 -19.5 68t-54.5 25q-36 0 -57 -25.5t-21 -67.5v-9q0 -43 19 -68t54 -25z" />
    <glyph glyph-name="colon" unicode=":" horiz-adv-x="262" 
d="M70 51q-25 25 -25 61t25 60q25 25 61 25t61 -25q25 -24 25 -60t-25 -61q-25 -24 -61 -24t-61 24zM70 323q-25 25 -25 61t25 60q25 25 61 25t61 -25q25 -24 25 -60t-25 -61q-25 -24 -61 -24t-61 24z" />
    <glyph glyph-name="semicolon" unicode=";" horiz-adv-x="262" 
d="M72 323q-25 25 -25 61t25 60q25 25 61 25t61 -25q25 -24 25 -60t-25 -61q-25 -24 -61 -24t-61 24zM47 112q0 36 24.5 60.5t61.5 24.5t61.5 -24.5t24.5 -60.5q0 -54 -35 -110q-34 -55 -85 -95q-17 -14 -33 -7l-13 5q-7 2 -9 10.5t4 16.5q36 47 36 74q0 30 -18 52
q-19 25 -19 54z" />
    <glyph glyph-name="less" unicode="&#x3c;" horiz-adv-x="595" 
d="M65 396l459 176q7 3 14 -2t7 -13v-74q0 -19 -16 -23l-274 -100q-6 -2 -6 -7t6 -7l274 -100q16 -3 16 -22v-74q0 -8 -6.5 -13t-14.5 -3l-459 176q-15 4 -15 21v44q0 17 15 21z" />
    <glyph glyph-name="equal" unicode="=" horiz-adv-x="573" 
d="M506 384h-438q-7 0 -12.5 5.5t-5.5 12.5v77q0 7 5.5 12t12.5 5h438q7 0 12 -5t5 -12v-78q0 -7 -5 -12t-12 -5zM506 210h-438q-7 0 -12.5 5.5t-5.5 12.5v77q0 7 5.5 12t12.5 5h438q7 0 12 -5t5 -12v-78q0 -7 -5 -12t-12 -5z" />
    <glyph glyph-name="greater" unicode="&#x3e;" horiz-adv-x="595" 
d="M71 572l459 -176q15 -4 15 -21v-44q0 -17 -15 -21l-459 -176q-8 -2 -14.5 3t-6.5 13v74q0 19 16 22l274 100q6 2 6 7t-6 7l-274 100q-16 4 -16 23v74q0 8 7 13t14 2z" />
    <glyph glyph-name="question" unicode="?" horiz-adv-x="497" 
d="M235 718q109 0 176 -58t67 -152v-4q0 -67 -26 -105q-25 -37 -84 -70q-69 -37 -69 -83v-3q0 -7 -5.5 -11.5t-12.5 -4.5h-115q-17 0 -17 18v3q0 68 29 101q24 28 69 58q41 25 55 41.5t14 44.5v4q0 31 -21.5 48.5t-59.5 17.5q-60 0 -103 -37q-15 -11 -26 3l-71 92
q-10 14 3 24q91 73 197 73zM164 19q-25 25 -25 61t25 60q25 25 61 25t61 -25q25 -24 25 -60t-25 -61q-25 -24 -61 -24t-61 24z" />
    <glyph glyph-name="at" unicode="@" horiz-adv-x="1162" 
d="M474 268v-42q0 -48 24 -75t67 -27q37 0 62 19q15 10 15 28v151q0 18 -15 29q-27 18 -62 18q-43 0 -67 -26.5t-24 -74.5zM319 221v51q0 106 58 168q59 63 139 63q66 0 125 -48q7 -7 11 2l12 26q6 12 19 12h102q7 0 12 -5t5 -12v-360q0 -21 14.5 -30t33.5 -3q77 22 127 98
q50 77 50 169q0 127 -92 201t-244 74q-144 0 -271 -64t-205 -178q-78 -113 -78 -246q0 -126 95 -200q97 -74 239 -74q121 0 223 49q18 8 24 -9l12 -31q7 -15 -8 -23q-45 -23 -115 -39q-73 -17 -135 -17q-86 0 -160.5 21t-132.5 61.5t-91.5 105.5t-33.5 147q0 146 90 276
q93 132 238 208q147 78 307 78q184 0 302 -88q119 -87 119 -249q0 -71 -33 -139.5t-87 -118.5q-51 -48 -114 -76t-119 -28q-72 0 -101 50q-5 11 -16 2q-56 -53 -127 -53q-86 0 -140 64t-54 165z" />
    <glyph glyph-name="A" unicode="A" horiz-adv-x="648" 
d="M9 21l285 671q6 14 21 14h24q15 0 21 -14l285 -671q3 -8 -2 -14.5t-13 -6.5h-130q-16 0 -22 14l-23 57q-7 15 -21 15h-214q-14 0 -21 -15l-23 -57q-6 -14 -22 -14h-130q-8 0 -13 6.5t-2 14.5zM320 371l-64 -156q-5 -11 7 -11h128q12 0 7 11l-64 156q-2 5 -7 5t-7 -5z" />
    <glyph glyph-name="B" unicode="B" horiz-adv-x="627" 
d="M65 17v672q0 17 17 17h254q86 0 142 -56q55 -55 55 -131v-8q0 -51 -36 -95q-12 -15 4 -24q45 -25 71.5 -69.5t26.5 -95.5v-7q0 -91 -60 -154q-59 -63 -147 -66h-310q-7 0 -12 5t-5 12zM348 298h-112q-11 0 -11 -12v-131q0 -11 11 -11h108q40 0 62 19.5t22 54.5v8
q0 72 -80 72zM302 562h-66q-10 0 -11 -10v-124q0 -12 11 -12h72q28 1 46 21t18 50v7q0 31 -19 49.5t-51 18.5z" />
    <glyph glyph-name="C" unicode="C" horiz-adv-x="619" 
d="M40 323v58q0 148 94 241q94 94 240 94q116 0 203 -66q13 -10 3 -25l-71 -93q-13 -15 -26 -2q-44 38 -109 38q-81 0 -126.5 -50t-45.5 -137v-58q0 -85 46 -135t126 -50q62 0 108 37q14 13 25 -1l73 -95q5 -5 4 -13t-7 -12q-83 -64 -203 -64q-147 0 -241 92q-93 93 -93 241
z" />
    <glyph glyph-name="D" unicode="D" horiz-adv-x="692" 
d="M82 706h236q151 0 242 -90q92 -89 92 -235v-58q0 -162 -105 -246q-97 -77 -229 -77h-236q-7 0 -12 5t-5 12v672q0 7 5 12t12 5zM318 562h-82q-11 0 -11 -11v-396q0 -11 11 -11h82q79 0 125.5 48t46.5 131v58q0 84 -46 132.5t-126 48.5z" />
    <glyph glyph-name="E" unicode="E" horiz-adv-x="592" 
d="M65 17v672q0 7 5 12t12 5h452q7 0 12.5 -5t5.5 -12v-110q0 -7 -5.5 -12t-12.5 -5h-298q-11 0 -11 -11v-124q0 -11 11 -11h216q18 0 18 -18v-96q0 -7 -5.5 -12t-12.5 -5h-216q-11 0 -11 -12v-118q0 -11 11 -11h298q7 0 12.5 -5t5.5 -12v-110q0 -7 -5.5 -12t-12.5 -5h-452
q-7 0 -12 5t-5 12z" />
    <glyph glyph-name="F" unicode="F" horiz-adv-x="577" 
d="M65 17v672q0 7 5 12t12 5h453q7 0 12 -5t5 -12v-110q0 -7 -5 -12t-12 -5h-299q-11 0 -11 -11v-163q0 -12 11 -12h216q7 0 12.5 -5t5.5 -12v-96q0 -7 -5 -12.5t-13 -5.5h-216q-11 0 -11 -11v-217q0 -7 -5.5 -12t-12.5 -5h-125q-7 0 -12 5t-5 12z" />
    <glyph glyph-name="G" unicode="G" horiz-adv-x="707" 
d="M40 323v58q0 148 94 241q94 94 241 94q117 0 202 -66q16 -10 4 -24l-72 -94q-11 -14 -25 -2q-47 38 -109 38q-78 0 -125.5 -51.5t-47.5 -135.5v-58q0 -85 45.5 -135t123.5 -50q58 0 104 31q12 7 12 23v48q0 11 -11 11h-90q-7 0 -12.5 5t-5.5 12v84q0 17 18 17h244
q17 0 17 -17v-335q0 -7 -5 -12t-12 -5h-17q-12 0 -21 9l-44 45q-8 8 -17 0q-73 -64 -184 -64q-135 0 -221 92q-86 94 -86 241z" />
    <glyph glyph-name="H" unicode="H" horiz-adv-x="732" 
d="M65 17v672q0 7 5.5 12t12.5 5h125q7 0 12 -5t5 -12v-262q0 -11 12 -11h259q11 0 11 11v262q0 7 5.5 12t12.5 5h125q7 0 12 -5t5 -12v-672q0 -7 -5 -12t-12 -5h-125q-7 0 -12.5 5t-5.5 12v256q0 12 -11 12h-259q-12 0 -12 -12v-256q0 -7 -5 -12t-12 -5h-125q-7 0 -12.5 5
t-5.5 12z" />
    <glyph glyph-name="I" unicode="I" horiz-adv-x="290" 
d="M65 17v672q0 7 5 12t12 5h126q7 0 12 -5t5 -12v-672q0 -7 -5 -12t-12 -5h-126q-7 0 -12 5t-5 12z" />
    <glyph glyph-name="J" unicode="J" horiz-adv-x="389" 
d="M184 185v504q0 7 5 12t12 5h126q7 0 12 -5t5 -12v-509q0 -75 -49 -130q-48 -55 -132 -55q-68 0 -128 25q-18 8 -7 25l49 86q7 12 20 8q17 -5 35 -5q23 0 37.5 15t14.5 36z" />
    <glyph glyph-name="K" unicode="K" horiz-adv-x="662" 
d="M65 17v672q0 7 5 12t12 5h125q7 0 12 -5t5 -12v-267q0 -11 11 -11h4q91 0 148 79q56 79 64 183l1 16q0 17 18 17h130q8 0 13 -5.5t4 -12.5l-1 -21q-7 -98 -49 -179t-111 -133q-9 -7 -4 -17l189 -312q5 -8 0 -17t-15 -9h-145q-11 0 -15 9l-153 271q-5 10 -18 8
q-21 -4 -56 -4h-4q-11 0 -11 -12v-255q0 -7 -5 -12t-12 -5h-125q-7 0 -12 5t-5 12z" />
    <glyph glyph-name="L" unicode="L" horiz-adv-x="538" 
d="M65 17v672q0 7 5.5 12t12.5 5h125q7 0 12 -5t5 -12v-534q0 -11 12 -11h259q7 0 12 -5t5 -12v-110q0 -7 -5 -12t-12 -5h-413q-7 0 -12.5 5t-5.5 12z" />
    <glyph glyph-name="M" unicode="M" horiz-adv-x="794" 
d="M37 19l86 672q1 15 17 15h11q10 0 16 -8l225 -324q1 -3 6 -3t6 3l225 324q6 8 16 8h11q16 0 17 -15l86 -672q1 -7 -4.5 -13t-13.5 -6h-122q-15 0 -17 15l-36 324q-1 6 -5.5 7.5t-8.5 -3.5l-140 -192q-14 -19 -28 0l-140 192q-4 5 -8.5 3.5t-5.5 -7.5l-36 -324
q-2 -15 -17 -15h-122q-8 0 -13.5 6t-4.5 13z" />
    <glyph glyph-name="N" unicode="N" horiz-adv-x="719" 
d="M65 17v672q0 7 5.5 12t12.5 5h15q10 0 16 -6l367 -366q3 -3 8 -2t5 7v350q0 7 5 12t12 5h125q7 0 12.5 -5t5.5 -12v-672q0 -7 -5.5 -12t-12.5 -5h-17q-11 0 -19 8l-361 364q-4 4 -9 2.5t-5 -7.5v-350q0 -7 -5 -12t-12 -5h-125q-7 0 -12.5 5t-5.5 12z" />
    <glyph glyph-name="O" unicode="O" horiz-adv-x="748" 
d="M40 324v58q0 148 93 241t241 93t241 -93t93 -241v-58q0 -149 -93 -242q-94 -92 -241 -92t-241 92q-93 93 -93 242zM202 382v-58q0 -88 46 -137t126 -49t126 49t46 137v58q0 88 -46 137t-126 49t-126 -49t-46 -137z" />
    <glyph glyph-name="P" unicode="P" horiz-adv-x="629" 
d="M65 17v672q0 7 5 12t12 5h314q85 0 146 -67q62 -67 62 -157v-7q0 -97 -62 -164q-62 -66 -156 -66h-150q-12 0 -12 -11v-217q0 -17 -17 -17h-125q-17 0 -17 17zM336 562h-100q-12 0 -12 -12v-163q0 -12 12 -12h101q40 0 63.5 24.5t23.5 65.5v7q0 42 -23.5 66t-64.5 24z
" />
    <glyph glyph-name="Q" unicode="Q" horiz-adv-x="748" 
d="M40 324v58q0 148 93 241t241 93t241 -93t93 -241v-58q0 -116 -59 -201q-59 -84 -160 -116q-13 -4 -8 -18q35 -86 135 -95q16 -1 16 -18v-109q0 -7 -5 -12.5t-12 -5.5q-105 0 -184 62q-77 61 -106 166q-5 17 -23 20q-120 21 -191 109q-71 89 -71 218zM202 382v-58
q0 -88 46 -137t126 -49t126 49t46 137v58q0 88 -46 137t-126 49t-126 -49t-46 -137z" />
    <glyph glyph-name="R" unicode="R" horiz-adv-x="651" 
d="M65 17v672q0 7 5.5 12t12.5 5h310q85 0 146 -67q62 -67 62 -157v-7q0 -69 -35.5 -123.5t-94.5 -81.5q-11 -5 -8 -16q14 -51 52.5 -83.5t89.5 -36.5q16 -1 16 -18v-106q0 -7 -5 -12.5t-12 -5.5q-114 0 -194 67t-102 180q-2 12 -14 12h-57q-12 0 -12 -12v-222q0 -7 -5 -12
t-12 -5h-125q-18 0 -18 17zM225 550v-165q0 -12 12 -12h103q40 0 63.5 25t23.5 67v7q0 42 -23 66t-64 24h-103q-12 0 -12 -12z" />
    <glyph glyph-name="S" unicode="S" horiz-adv-x="593" 
d="M307 716q106 0 195 -70q14 -10 3 -24l-74 -97q-14 -15 -26 -3q-45 39 -98 39q-85 0 -85 -59v-3q0 -30 29.5 -46.5t108.5 -31.5q199 -37 199 -200v-4q0 -105 -76 -166t-200 -61q-61 0 -125 22.5t-113 59.5q-6 4 -7 12t4 13l75 99q10 13 24 2q28 -24 67 -39.5t75 -15.5
q110 0 110 67v4q5 30 -35 53q-9 5 -29 11l-34 9l-44 10q-1 0 -2.5 0.5l-3 1t-3.5 0.5l-48 11q-15 4 -47 20q-31 16 -46 34q-42 50 -42 133v4q0 97 68 156q70 59 180 59z" />
    <glyph glyph-name="T" unicode="T" horiz-adv-x="566" 
d="M15 579v110q0 7 5 12t12 5h502q7 0 12 -5t5 -12v-110q0 -7 -5 -12t-12 -5h-160q-11 0 -11 -12v-533q0 -17 -18 -17h-125q-17 0 -17 17v533q0 12 -12 12h-159q-7 0 -12 5t-5 12z" />
    <glyph glyph-name="U" unicode="U" horiz-adv-x="707" 
d="M60 279v410q0 7 5.5 12t12.5 5h125q7 0 12 -5t5 -12v-410q0 -66 35 -103.5t98 -37.5q64 0 99 37.5t35 103.5v410q0 7 5 12t12 5h126q7 0 12 -5t5 -12v-410q0 -130 -82 -209q-83 -80 -212 -80t-212 80q-81 80 -81 209z" />
    <glyph glyph-name="V" unicode="V" horiz-adv-x="651" 
d="M268 14l-258 671q-3 7 1.5 14t12.5 7h132q14 0 22 -15l144 -415q2 -5 7 -5t7 5l144 415q4 15 21 15h132q8 0 12.5 -7t1.5 -14l-258 -671q-5 -14 -21 -14h-79q-16 0 -21 14z" />
    <glyph glyph-name="W" unicode="W" horiz-adv-x="989" 
d="M231 16l-221 670q-3 7 1.5 13.5t12.5 6.5h132q17 0 22 -17l123 -406q2 -5 6.5 -5.5t8.5 4.5l167 376q4 10 14 10h3q10 0 14 -10l166 -376q9 -11 15 1l123 406q5 17 22 17h131q8 0 13 -6.5t2 -13.5l-221 -670q-4 -16 -22 -16h-67q-17 0 -21 13l-150 334q-1 4 -7 4t-7 -4
l-150 -334q-6 -13 -21 -13h-67q-18 0 -22 16z" />
    <glyph glyph-name="X" unicode="X" horiz-adv-x="723" 
d="M263 390l-206 292q-5 8 -1 16t14 8h152q12 0 19 -10l115 -171q4 -6 10 -6t10 6l115 171q7 10 19 10h152q10 0 14 -8t-1 -16l-206 -292q-12 -16 0 -33l235 -333q5 -8 1 -16t-13 -8h-155q-12 0 -19 10l-143 213q-3 5 -9 5t-9 -5l-143 -213q-7 -10 -19 -10h-155
q-9 0 -13.5 8t1.5 16l235 333q12 17 0 33z" />
    <glyph glyph-name="Y" unicode="Y" horiz-adv-x="688" 
d="M268 23v187q0 10 -5 20l-251 453q-5 7 -0.5 15t14.5 8h140q12 0 20 -12l155 -297q3 -4 7 -4h1q3 0 6 4l155 297q8 12 20 12h140q10 0 14.5 -8t-0.5 -15l-251 -453q-5 -10 -5 -20v-187q0 -10 -6.5 -16.5t-16.5 -6.5h-114q-10 0 -16.5 6.5t-6.5 16.5z" />
    <glyph glyph-name="Z" unicode="Z" horiz-adv-x="599" 
d="M60 579v110q0 7 5 12t12 5h469q7 0 12.5 -5t5.5 -12v-7q0 -8 -4 -15l-287 -506q-2 -6 1 -11.5t9 -5.5h263q18 0 18 -18v-109q0 -17 -18 -17h-504q-7 0 -12 5t-5 12v12q0 11 5 19l281 497q3 5 0 11t-10 6h-224q-7 0 -12 5t-5 12z" />
    <glyph glyph-name="bracketleft" unicode="[" horiz-adv-x="364" 
d="M80 -138v983q0 7 5.5 12t12.5 5h208q7 0 12.5 -5t5.5 -12v-104q0 -7 -5 -12.5t-13 -5.5h-61q-12 0 -12 -11v-718q0 -11 12 -11h61q7 0 12.5 -5t5.5 -12v-104q0 -18 -18 -18h-208q-7 0 -12.5 5t-5.5 13z" />
    <glyph glyph-name="backslash" unicode="\" horiz-adv-x="529" 
d="M35 862h105q19 0 25 -17l352 -978q3 -9 -2 -16t-15 -7h-105q-19 0 -25 17l-352 978q-3 9 2 16t15 7z" />
    <glyph glyph-name="bracketright" unicode="]" horiz-adv-x="364" 
d="M40 741v104q0 7 5.5 12t12.5 5h208q7 0 12.5 -5t5.5 -12v-983q0 -8 -5.5 -13t-12.5 -5h-208q-18 0 -18 18v104q0 7 5.5 12t12.5 5h61q12 0 12 11v718q0 11 -12 11h-61q-8 0 -13 5.5t-5 12.5z" />
    <glyph glyph-name="asciicircum" unicode="^" horiz-adv-x="542" 
d="M36 56l196 409q8 15 21 15h44q13 0 21 -15l196 -409q3 -7 -2 -14t-13 -7h-74q-16 0 -23 16l-119 258q-2 6 -8 6t-8 -6l-119 -258q-7 -16 -22 -16h-74q-9 0 -14.5 7t-1.5 14z" />
    <glyph glyph-name="underscore" unicode="_" horiz-adv-x="600" 
d="M0 -94h600q8 0 13.5 -5t5.5 -12v-84q0 -7 -5.5 -12t-13.5 -5h-600q-7 0 -12 5t-5 12v84q0 7 5 12t12 5z" />
    <glyph glyph-name="grave" unicode="`" horiz-adv-x="200" 
d="M-14 667l76 42q16 9 30 -2l126 -106q7 -5 6 -14.5t-8 -13.5l-52 -29q-16 -8 -29 1l-150 92q-8 5 -8 15t9 15z" />
    <glyph glyph-name="a" unicode="a" 
d="M30 221v51q0 106 58 168q58 63 139 63q67 0 125 -48q7 -7 11 2l12 26q6 12 19 12h102q7 0 12 -5t5 -12v-461q0 -7 -5 -12t-12 -5h-125q-7 0 -12.5 5t-5.5 12v15q0 11 -12 4q-58 -44 -117 -44q-86 0 -140 64t-54 165zM185 268v-42q0 -48 24 -75t67 -27q33 0 62 19
q15 9 15 28v151q0 18 -15 29q-27 18 -62 18q-43 0 -67 -26.5t-24 -74.5z" />
    <glyph glyph-name="b" unicode="b" 
d="M48 17v672q0 17 18 17h125q7 0 12 -5t5 -12v-216q0 -5 4 -7t8 1q46 36 107 36q79 0 141 -65q63 -64 63 -166v-51q0 -109 -60 -169q-58 -60 -142 -60q-67 0 -119 48q-8 8 -12 -3l-12 -27q-4 -10 -16 -10h-104q-7 0 -12.5 5t-5.5 12zM285 369q-35 0 -62 -18
q-15 -11 -15 -29v-151q0 -19 15 -28q25 -19 62 -19q43 0 67 27t24 75v42q0 48 -24 74.5t-67 26.5z" />
    <glyph glyph-name="c" unicode="c" horiz-adv-x="444" 
d="M30 220v55q0 94 74 163t179 69q75 0 137 -37q14 -8 6 -24l-50 -83q-8 -14 -22 -6q-33 16 -71 16q-41 0 -68.5 -29t-27.5 -70v-52q0 -41 27.5 -70.5t68.5 -29.5q32 0 69 17q16 6 23 -7l48 -84q4 -6 2 -13.5t-8 -10.5q-60 -36 -134 -36q-105 0 -179 69t-74 163z" />
    <glyph glyph-name="d" unicode="d" 
d="M30 221v51q0 106 58 168q58 63 139 63q63 0 113 -39q4 -3 8.5 -1t4.5 7v219q0 7 5 12t12 5h126q7 0 12 -5t5 -12v-672q0 -7 -5 -12t-12 -5h-105q-12 0 -16 10l-13 28q-4 10 -12 2q-52 -48 -125 -48q-86 0 -141 64q-54 64 -54 165zM185 268v-42q0 -48 24 -75t67 -27
q33 0 62 19q15 9 15 28v151q0 18 -15 29q-27 18 -62 18q-43 0 -67 -26.5t-24 -74.5z" />
    <glyph glyph-name="e" unicode="e" horiz-adv-x="537" 
d="M30 221v53q0 103 67 167q67 66 172 66q103 0 171 -65q67 -64 67 -168v-58q0 -8 -5.5 -13t-12.5 -5h-289q-12 0 -10 -11q21 -68 101 -68q38 0 71 30q12 11 22 1l89 -65q16 -13 2 -27q-73 -70 -184 -70q-110 0 -186 67q-75 67 -75 166zM271 376q-69 0 -82 -66
q-2 -12 11 -12h138q12 0 10 12q-14 66 -77 66z" />
    <glyph glyph-name="f" unicode="f" horiz-adv-x="378" 
d="M84 507v64q0 144 168 144q68 0 133 -30q15 -8 8 -24l-43 -77q-8 -16 -22 -8q-23 10 -43 10q-41 0 -41 -32v-47q0 -12 11 -12h104q7 0 12 -5t5 -12v-64q0 -7 -5 -12.5t-12 -5.5h-104q-11 0 -11 -11v-368q0 -7 -5.5 -12t-12.5 -5h-125q-7 0 -12 5t-5 12v368q0 11 -12 11
h-46q-18 0 -18 18v64q0 17 18 17h46q12 0 12 12z" />
    <glyph glyph-name="g" unicode="g" 
d="M30 221v51q0 106 58 168q58 63 139 63q67 0 125 -48q7 -7 11 2l12 26q6 12 19 12h102q7 0 12 -5t5 -12v-492q0 -103 -73 -164q-73 -62 -188 -62q-83 0 -144 37q-14 7 -6 24l45 75q9 15 24 6q25 -13 70 -13q53 0 82.5 26.5t29.5 74.5v49q0 11 -12 4q-59 -51 -117 -51
q-86 0 -140 64t-54 165zM185 268v-42q0 -48 24 -75t67 -27q33 0 62 19q15 9 15 28v151q0 18 -15 29q-27 18 -62 18q-43 0 -67 -26.5t-24 -74.5z" />
    <glyph glyph-name="h" unicode="h" horiz-adv-x="549" 
d="M48 17v672q0 17 18 17h125q17 0 17 -17v-219q0 -5 4.5 -7t8.5 2q43 38 111 38q80 0 126.5 -51.5t46.5 -142.5v-292q0 -7 -5 -12t-12 -5h-125q-7 0 -12.5 5t-5.5 12v284q0 63 -66 63q-31 0 -55 -15q-16 -10 -16 -29v-303q0 -7 -5 -12t-12 -5h-125q-7 0 -12.5 5t-5.5 12z
" />
    <glyph glyph-name="i" unicode="i" horiz-adv-x="256" 
d="M48 17v461q0 7 5 12t12 5h125q18 0 18 -17v-461q0 -7 -5.5 -12t-12.5 -5h-125q-7 0 -12 5t-5 12zM71 571q-23 23 -23 56t23 56q24 23 57 23t56 -23q24 -23 24 -56t-24 -56q-23 -23 -56 -23t-57 23z" />
    <glyph glyph-name="j" unicode="j" horiz-adv-x="256" 
d="M57 -47v525q0 7 5 12t12 5h126q7 0 12 -5t5 -12v-523q0 -78 -49 -131q-48 -54 -132 -54q-68 0 -127 24q-18 7 -9 25l45 80q8 12 20 8q22 -5 40 -5q24 0 38 14.5t14 36.5zM80 571q-23 23 -23 56t23 56q24 23 57 23t56 -23q24 -23 24 -56t-24 -56q-23 -23 -56 -23t-57 23z
" />
    <glyph glyph-name="k" unicode="k" horiz-adv-x="533" 
d="M48 17v672q0 17 17 17h125q18 0 18 -17v-370q0 -6 4 -9.5t10 -1.5q48 14 76 55t31 99l1 17q1 16 17 16h130q19 0 17 -18l-3 -23q-17 -123 -105 -198q-8 -6 -2 -14l137 -215q6 -9 1 -18t-16 -9h-140q-12 0 -16 10l-95 173q-4 9 -15 7l-22 -3q-10 0 -10 -11v-159
q0 -7 -5.5 -12t-12.5 -5h-125q-7 0 -12 5t-5 12z" />
    <glyph glyph-name="l" unicode="l" horiz-adv-x="256" 
d="M48 17v672q0 17 18 17h125q7 0 12 -5t5 -12v-672q0 -7 -5 -12t-12 -5h-125q-7 0 -12.5 5t-5.5 12z" />
    <glyph glyph-name="m" unicode="m" horiz-adv-x="845" 
d="M48 17v461q0 7 5 12t12 5h105q12 0 16 -10l12 -27q1 -4 5.5 -4.5t7.5 2.5q50 47 120 47q97 0 142 -71q6 -10 12 0q53 71 143 71q80 0 126.5 -52t46.5 -143v-291q0 -7 -5 -12t-12 -5h-126q-7 0 -12 5t-5 12v284q0 63 -66 63q-30 0 -54 -15q-17 -12 -17 -31v-301
q0 -7 -5 -12t-12 -5h-125q-7 0 -12 5t-5 12v284q0 63 -66 63q-31 0 -55 -15q-16 -10 -16 -29v-303q0 -7 -5.5 -12t-12.5 -5h-125q-7 0 -12 5t-5 12z" />
    <glyph glyph-name="n" unicode="n" horiz-adv-x="549" 
d="M48 17v461q0 17 18 17h104q12 0 16 -10l12 -27q5 -9 13 -2q52 47 123 47q80 0 125.5 -51.5t45.5 -142.5v-292q0 -7 -5.5 -12t-12.5 -5h-125q-7 0 -12 5t-5 12v284q0 63 -66 63q-31 0 -55 -15q-16 -10 -16 -29v-303q0 -7 -5 -12t-12 -5h-125q-7 0 -12.5 5t-5.5 12z" />
    <glyph glyph-name="o" unicode="o" horiz-adv-x="564" 
d="M30 220v55q0 99 72 165q73 67 180 67q108 0 179 -67q73 -66 73 -165v-55q0 -99 -73 -166q-72 -66 -179 -66q-106 0 -180 66q-72 68 -72 166zM186 275v-55q0 -45 26.5 -73t69.5 -28t69.5 28t26.5 73v55q0 45 -26.5 73t-69.5 28t-69.5 -28t-26.5 -73z" />
    <glyph glyph-name="p" unicode="p" 
d="M48 -195v673q0 7 5 12t12 5h105q11 0 15 -10l11 -23q4 -10 14 -3q55 44 117 44q79 0 141 -65q63 -64 63 -166v-51q0 -109 -60 -169q-58 -60 -142 -60q-59 0 -109 36q-4 2 -8 0t-4 -6v-217q0 -7 -5.5 -12t-12.5 -5h-125q-7 0 -12 5t-5 12zM285 369q-35 0 -62 -18
q-15 -11 -15 -29v-151q0 -19 15 -28q25 -19 62 -19q43 0 67 27t24 75v42q0 48 -24 74.5t-67 26.5z" />
    <glyph glyph-name="q" unicode="q" 
d="M30 221v51q0 106 58 168q58 63 139 63q73 0 125 -48q7 -7 11 2l12 26q6 12 19 12h101q18 0 18 -17v-673q0 -7 -5.5 -12t-12.5 -5h-125q-7 0 -12 5t-5 12v227q0 11 -12 4q-53 -44 -117 -44q-86 0 -140 64t-54 165zM185 268v-42q0 -48 24 -75t67 -27q33 0 62 19q15 9 15 28
v151q0 18 -15 29q-27 18 -62 18q-43 0 -67 -26.5t-24 -74.5z" />
    <glyph glyph-name="r" unicode="r" horiz-adv-x="413" 
d="M48 17v461q0 17 18 17h104q12 0 16 -10l11 -24q6 -9 13 -2q43 43 109 43q53 0 91 -28q12 -10 5 -23l-55 -89q-7 -13 -25 -5q-18 9 -41 9q-41 0 -71 -21q-15 -12 -15 -29v-299q0 -7 -5 -12t-12 -5h-125q-7 0 -12.5 5t-5.5 12z" />
    <glyph glyph-name="s" unicode="s" horiz-adv-x="431" 
d="M232 506q81 0 148 -55q14 -11 3 -24l-59 -77q-11 -14 -26 -2q-33 24 -59 24q-17 0 -27 -8t-10 -20v-4q0 -17 15.5 -24.5t57.5 -14.5q62 -10 102 -35q50 -31 50 -107v-4q0 -74 -55 -120q-55 -47 -143 -47q-103 0 -183 63q-12 11 -2 24l60 79q10 14 24 3q46 -37 93 -37
q24 0 37 8.5t13 21.5v3q0 15 -14 23t-52 15q-64 10 -108 38q-52 33 -52 112v4q0 70 53 115q53 46 134 46z" />
    <glyph glyph-name="t" unicode="t" horiz-adv-x="388" 
d="M75 507v111q0 7 5 12.5t12 5.5h126q7 0 12 -5.5t5 -12.5v-111q0 -12 12 -12h103q17 0 17 -17v-64q0 -18 -17 -18h-103q-12 0 -12 -11v-229q0 -14 11.5 -23t27.5 -9q22 0 40 9q18 6 24 -7l47 -79q4 -7 1.5 -14.5t-9.5 -10.5q-67 -30 -134 -30q-168 0 -168 143v250
q0 11 -11 11h-47q-17 0 -17 18v64q0 17 17 17h47q11 0 11 12z" />
    <glyph glyph-name="u" unicode="u" horiz-adv-x="545" 
d="M44 189v289q0 7 5 12t12 5h126q17 0 17 -17v-285q0 -63 65 -63q29 0 52 15q16 10 16 29v304q0 7 5 12t12 5h125q18 0 18 -17v-461q0 -7 -5.5 -12t-12.5 -5h-104q-12 0 -16 10l-13 27q-4 7 -11 1q-50 -47 -121 -47q-80 0 -125 52.5t-45 145.5z" />
    <glyph glyph-name="v" unicode="v" horiz-adv-x="550" 
d="M195 15l-180 459q-3 7 2 14t13 7h120q19 0 23 -16l98 -290q2 -6 7 -6t7 6l98 290q4 16 23 16h120q8 0 13 -7t2 -14l-180 -459q-5 -15 -21 -15h-124q-16 0 -21 15z" />
    <glyph glyph-name="w" unicode="w" horiz-adv-x="760" 
d="M147 17l-124 459q-2 8 3 13.5t12 5.5h123q19 0 23 -18l62 -285q2 -5 7 -5.5t7 4.5l97 247q5 14 22 14h6q17 0 22 -14l97 -247q2 -5 7 -4.5t7 5.5l62 285q4 18 23 18h123q7 0 12 -5.5t3 -13.5l-124 -459q-3 -17 -22 -17h-128q-15 0 -22 15l-55 140q-2 5 -8 5t-8 -5
l-55 -140q-7 -15 -22 -15h-128q-19 0 -22 17z" />
    <glyph glyph-name="x" unicode="x" horiz-adv-x="550" 
d="M190 267l-161 206q-5 7 -2 14.5t12 7.5h134q13 0 21 -11l76 -102q8 -10 16 0l76 102q8 11 21 11h134q9 0 12 -7.5t-2 -14.5l-161 -206q-4 -7 0 -14l175 -231q5 -7 2 -14.5t-12 -7.5h-135q-14 0 -22 11l-88 122q-8 10 -16 0l-88 -122q-8 -11 -22 -11h-135q-9 0 -12 7.5
t2 14.5l175 231q4 7 0 14z" />
    <glyph glyph-name="y" unicode="y" horiz-adv-x="559" 
d="M209 43l-194 430q-3 7 1 14.5t13 7.5h122q15 0 21 -14l108 -264q2 -5 7 -5t7 5l104 264q6 14 21 14h117q8 0 12.5 -6.5t1.5 -14.5l-284 -672q-6 -14 -22 -14h-109q-8 0 -13 7t-2 15l89 214q4 10 0 19z" />
    <glyph glyph-name="z" unicode="z" horiz-adv-x="471" 
d="M45 398v80q0 7 5 12t12 5h376q7 0 12 -5t5 -12v-4q0 -9 -5 -17l-205 -325q-4 -5 -0.5 -11.5t10.5 -6.5h176q17 0 17 -17v-80q0 -7 -5 -12t-12 -5h-400q-7 0 -12 5t-5 12v4q0 9 5 17l207 325q4 6 1 12t-11 6h-154q-7 0 -12 5t-5 12z" />
    <glyph glyph-name="braceleft" unicode="{" horiz-adv-x="357" 
d="M132 479v258q0 95 79 138q7 4 14 1l87 -35q8 -3 10.5 -11t-3.5 -16q-33 -39 -33 -104v-231q0 -69 -55 -117q-3 -3 -3 -8.5t4 -8.5q54 -49 54 -118v-230q0 -66 33 -105q6 -6 3.5 -15t-10.5 -12l-82 -34q-9 -5 -19 1q-79 45 -79 138v257q0 60 -54 114q-12 13 0 25
q54 51 54 113z" />
    <glyph glyph-name="bar" unicode="|" horiz-adv-x="336" 
d="M133 -138v983q0 7 5 12t12 5h38q7 0 12.5 -5t5.5 -12v-983q0 -18 -18 -18h-38q-17 0 -17 18z" />
    <glyph glyph-name="braceright" unicode="}" horiz-adv-x="357" 
d="M85 479v230q0 66 -33 105q-6 6 -3.5 15t10.5 12l82 34q9 5 19 -1q79 -45 79 -138v-257q0 -60 54 -114q13 -13 0 -25q-54 -51 -54 -113v-258q0 -95 -79 -138q-7 -4 -14 -1l-87 35q-8 3 -10.5 11t3.5 16q33 39 33 104v231q0 69 55 117q3 3 3 8.5t-4 8.5q-54 50 -54 118z
" />
    <glyph glyph-name="asciitilde" unicode="~" horiz-adv-x="553" 
d="M193 336q39 0 69 -13l16 -7q22 -13 30 -16q40 -24 77 -24q45 0 86 40q7 7 19.5 5.5t17.5 -11.5l21 -32q11 -18 -3 -33q-73 -73 -153 -73q-34 0 -58 9q-4 1 -7.5 2.5t-7.5 3t-5 2.5l-20 10.5t-18 9.5q-44 24 -76 24q-42 0 -80 -35q-7 -6 -19 -4t-17 11l-21 31q-10 19 3 32
q63 68 146 68z" />
    <glyph glyph-name="exclamdown" unicode="&#xa1;" horiz-adv-x="306" 
d="M233 250v-445q0 -7 -5 -12t-12 -5h-125q-7 0 -12 5t-5 12v445q0 7 5.5 12t12.5 5h123q7 0 12.5 -5t5.5 -12zM214 476q25 -24 25 -60t-25 -61q-25 -24 -61 -24t-61 24q-25 25 -25 61t25 60q25 25 61 25t61 -25z" />
    <glyph glyph-name="cent" unicode="&#xa2;" horiz-adv-x="449" 
d="M30 220v55q0 85 63 152q65 68 158 78v73q0 7 5 12t12 5h38q7 0 12.5 -5t5.5 -12v-74q51 -8 96 -34q14 -8 6 -24l-50 -83q-8 -14 -22 -6q-33 16 -71 16q-41 0 -68.5 -29t-27.5 -70v-52q0 -41 27.5 -70.5t68.5 -29.5q32 0 69 17q16 6 23 -7l48 -84q4 -6 2 -13.5t-8 -10.5
q-43 -26 -93 -33v-82q0 -7 -5 -12.5t-13 -5.5h-38q-17 0 -17 18v81q-95 11 -158 77q-63 67 -63 153z" />
    <glyph glyph-name="sterling" unicode="&#xa3;" horiz-adv-x="538" 
d="M317 715q80 0 149 -34q14 -8 8 -22l-35 -88q-2 -7 -9 -10t-14 0q-33 16 -75 16q-46 0 -73 -27.5t-24 -72.5l5 -63q2 -11 12 -11h72q18 0 18 -17v-71q0 -17 -18 -17h-61q-13 0 -12 -13l2 -23q6 -57 -21 -101q-3 -5 0 -11t10 -6h244q17 0 17 -18v-109q0 -17 -17 -17h-423
q-7 0 -12 5t-5 12v78q0 12 9 21q48 48 40 129l-4 42q0 11 -11 11h-41q-18 0 -18 17v71q0 17 18 17h30q12 0 11 13l-6 65q-7 102 57 168t177 66z" />
    <glyph glyph-name="yen" unicode="&#xa5;" horiz-adv-x="688" 
d="M268 23v81h-109q-7 0 -12.5 5.5t-5.5 12.5v37q0 7 5.5 12t12.5 5h109v34q0 10 -5 20l-10 18h-94q-7 0 -12.5 5.5t-5.5 12.5v37q0 7 5.5 12t12.5 5h54l-201 363q-5 7 -0.5 15t14.5 8h140q12 0 20 -12l155 -297q3 -4 7 -4h1q3 0 6 4l155 297q8 12 20 12h140q10 0 14.5 -8
t-0.5 -15l-201 -363h54q7 0 12 -5t5 -12v-38q0 -7 -5 -12t-12 -5h-94l-10 -18q-5 -10 -5 -20v-34h109q7 0 12 -5t5 -12v-38q0 -7 -5 -12t-12 -5h-109v-81q0 -10 -6.5 -16.5t-16.5 -6.5h-114q-10 0 -16.5 6.5t-6.5 16.5z" />
    <glyph glyph-name="brokenbar" unicode="&#xa6;" horiz-adv-x="336" 
d="M150 862h38q7 0 12.5 -5t5.5 -12v-423q0 -18 -18 -18h-38q-17 0 -17 18v423q0 7 5 12t12 5zM150 302h38q7 0 12.5 -5t5.5 -12v-423q0 -18 -18 -18h-38q-17 0 -17 18v423q0 7 5 12t12 5z" />
    <glyph glyph-name="section" unicode="&#xa7;" horiz-adv-x="610" 
d="M324 718q98 0 184 -66q12 -11 2 -22l-69 -91q-12 -16 -25 -3q-42 36 -92 36q-80 0 -80 -57v-3q0 -28 27 -42q31 -15 103 -31q96 -22 139 -57t43 -102v-4q0 -73 -58 -113q-8 -6 0 -12q61 -42 61 -120v-4q0 -99 -72 -157q-71 -60 -187 -60q-57 0 -117.5 21.5t-106.5 55.5
q-12 11 -3 24l71 93q7 12 22 1q62 -49 134 -49q51 0 77 17.5t26 46.5v4q0 27 -28 41q-14 8 -48 14l-67 14q-99 22 -140 56q-40 33 -40 109v4q0 78 58 118q8 5 0 11q-47 42 -47 119v4q0 92 64 147q65 57 169 57zM328 318l-70 17q-14 3 -18 -9q-7 -18 -7 -34v-3q0 -35 17 -51
t67 -28l60 -13q12 -3 17 8q9 23 9 39v2q0 32 -14.5 46t-60.5 26z" />
    <glyph glyph-name="dieresis" unicode="&#xa8;" horiz-adv-x="200" 
d="M-44 580q-19 19 -19 46t19 46t46 19t46 -19t19 -46t-19 -46t-46 -19t-46 19zM151 580q-19 19 -19 46t19 46t46 19t46 -19t19 -46t-19 -46t-46 -19t-46 19z" />
    <glyph glyph-name="copyright" unicode="&#xa9;" horiz-adv-x="756" 
d="M379 673q137 0 227 -90t90 -229t-90 -229q-91 -89 -227 -89q-137 0 -229 89q-90 90 -90 229q0 140 90 229q92 90 229 90zM379 641q-123 0 -206 -81q-81 -80 -81 -206t81 -206q82 -80 206 -80q122 0 204 80q81 80 81 206t-81 206q-81 81 -204 81zM164 336v37q0 96 63 156
q64 61 163 61q78 0 136 -43q8 -6 2 -16l-47 -60q-10 -10 -19 -1q-28 24 -72 24q-54 0 -85.5 -33t-31.5 -88v-37q0 -55 31.5 -87.5t85.5 -32.5q41 0 71 24q11 7 18 -1l49 -62q8 -9 -2 -16q-58 -41 -136 -41q-100 0 -164 59q-62 60 -62 157z" />
    <glyph glyph-name="ordfeminine" unicode="&#xaa;" horiz-adv-x="470" 
d="M40 487v41q0 85 46 134q46 51 111 51q53 0 100 -39q8 -5 9 2l10 21q4 9 15 9h82q13 0 13 -13v-369q0 -5 -4 -9.5t-9 -4.5h-100q-6 0 -10.5 4.5t-4.5 9.5v12q0 3 -3 4.5t-6 -1.5q-47 -35 -94 -35q-69 0 -112 51t-43 132zM164 525v-34q0 -38 19.5 -59.5t53.5 -21.5
q29 0 49 15q12 7 12 22v121q0 16 -12 23q-21 15 -49 15q-34 0 -53.5 -21.5t-19.5 -59.5z" />
    <glyph glyph-name="guillemotleft" unicode="&#xab;" horiz-adv-x="461" 
d="M40 250q0 6 3 10l111 155q5 8 14 8h61q6 0 8 -4.5t-1 -8.5l-89 -153q-5 -7 0 -14l89 -153q3 -4 1 -8.5t-8 -4.5h-61q-9 0 -14 8l-111 155q-3 4 -3 10zM223 250q0 6 3 10l111 155q5 8 14 8h61q6 0 8 -4.5t-1 -8.5l-89 -153q-5 -7 0 -14l89 -153q3 -4 1 -8.5t-8 -4.5h-61
q-9 0 -14 8l-111 155q-3 4 -3 10z" />
    <glyph glyph-name="logicalnot" unicode="&#xac;" horiz-adv-x="573" 
d="M50 401v78q0 7 5.5 12t12.5 5h437q7 0 12.5 -5t5.5 -12v-252q0 -7 -5.5 -12t-12.5 -5h-85q-7 0 -12 5t-5 12v146q0 11 -12 11h-323q-7 0 -12.5 5t-5.5 12z" />
    <glyph glyph-name="registered" unicode="&#xae;" horiz-adv-x="509" 
d="M255 723q92 0 153 -61q61 -60 61 -154t-61 -155q-62 -60 -153 -60q-93 0 -154 60q-61 61 -61 155t61 154q61 61 154 61zM255 693q-81 0 -133 -52t-52 -133t52 -133t133 -52q79 0 131 52q53 53 53 133t-53 133q-52 52 -131 52zM159 383v257q0 6 7 6h118q32 0 56 -25.5
t24 -59.5v-3q0 -51 -46 -76q-4 -3 -3 -7q12 -44 55 -47q5 -2 5 -7v-41q0 -6 -6 -6q-43 0 -74 26t-39 68q-2 5 -5 5h-26q-4 0 -4 -5v-85q0 -6 -7 -6h-48q-7 0 -7 6zM221 587v-64q0 -3 4 -3h39q15 0 24.5 9t9.5 25v3q0 16 -9 25.5t-25 9.5h-39q-4 0 -4 -5z" />
    <glyph glyph-name="overscore" unicode="&#xaf;" horiz-adv-x="400" 
d="M64 669h274q7 0 12 -5.5t5 -12.5v-64q0 -7 -5 -12t-12 -5h-274q-7 0 -12.5 5t-5.5 12v64q0 7 5 12.5t13 5.5z" />
    <glyph glyph-name="degree" unicode="&#xb0;" horiz-adv-x="258" 
d="M47 686q32 31 82 31t81 -31q33 -30 33 -78t-33 -79q-32 -30 -81 -30t-82 30q-32 32 -32 79q0 48 32 78zM93 572q13 -13 36 -13t35 13q13 13 13 36t-13 36q-12 13 -35 13t-36 -13q-12 -13 -12 -36t12 -36z" />
    <glyph glyph-name="plusminus" unicode="&#xb1;" horiz-adv-x="573" 
d="M231 516v117q0 7 5 12.5t12 5.5h78q7 0 12 -5.5t5 -12.5v-117q0 -11 12 -11h151q7 0 12 -5t5 -12v-78q0 -7 -5 -12t-12 -5h-151q-12 0 -12 -11v-117q0 -7 -5 -12t-12 -5h-78q-7 0 -12 5t-5 12v117q0 11 -12 11h-151q-7 0 -12.5 5.5t-5.5 12.5v77q0 7 5.5 12t12.5 5h151
q12 0 12 11zM50 114v78q0 7 5 12t12 5h438q7 0 12.5 -5t5.5 -12v-77q0 -7 -5.5 -12.5t-12.5 -5.5h-438q-7 0 -12 5t-5 12z" />
    <glyph glyph-name="twosuperior" unicode="&#xb2;" horiz-adv-x="364" 
d="M161 862q78 0 123 -40t45 -109v-11q0 -48 -68 -128l-57 -67q-5 -5 -2.5 -12t10.5 -7h90q17 0 17 -18v-69q0 -18 -17 -18h-249q-7 0 -12.5 5.5t-5.5 12.5v49q0 9 8 20l130 158q38 46 38 69v9q0 24 -16 38.5t-44 14.5q-30 0 -57 -12q-18 -7 -24 9l-23 58q-5 14 8 21
q52 27 106 27z" />
    <glyph glyph-name="threesuperior" unicode="&#xb3;" horiz-adv-x="355" 
d="M148 377q-51 0 -98 25q-13 7 -8 21l23 59q7 15 24 9q24 -10 52 -10t47 16.5t19 41.5v6q0 26 -18.5 43t-47.5 17q-13 0 -38 -5q-11 -3 -19 8l-9 14q-7 10 2 20l76 91q5 5 1.5 12t-10.5 7h-71q-7 0 -12 5t-5 12v70q0 7 5 12t12 5h223q7 0 12.5 -5t5.5 -12v-54q0 -10 -7 -17
l-79 -85q43 -12 70 -49t27 -87v-11q0 -68 -51 -114q-50 -45 -126 -45z" />
    <glyph glyph-name="acute" unicode="&#xb4;" horiz-adv-x="400" 
d="M84 601l126 106q14 11 30 2l76 -42q9 -5 9 -15t-8 -15l-150 -92q-13 -9 -29 -1l-52 29q-7 4 -8 13.5t6 14.5z" />
    <glyph glyph-name="mu" unicode="&#xb5;" horiz-adv-x="545" 
d="M48 -195v673q0 7 5 12t12 5h126q17 0 17 -17v-307q0 -16 15 -28q17 -13 48 -13q27 0 50 15q16 10 16 29v304q0 7 5 12t12 5h125q18 0 18 -17v-461q0 -7 -5.5 -12t-12.5 -5h-104q-12 0 -16 10l-13 27q-4 7 -11 1q-34 -34 -80 -34q-10 0 -22.5 1.5t-13.5 1.5q-11 0 -11 -10
v-192q0 -7 -5.5 -12t-12.5 -5h-125q-7 0 -12 5t-5 12z" />
    <glyph glyph-name="paragraph" unicode="&#xb6;" horiz-adv-x="800" 
d="M15 460v13q0 99 73 166t180 67h477q7 0 12 -5t5 -12v-110q0 -7 -5 -12t-12 -5h-40q-11 0 -11 -12v-533q0 -17 -18 -17h-125q-17 0 -17 17v533q0 12 -12 12h-84q-11 0 -11 -12v-533q0 -17 -18 -17h-125q-17 0 -17 17v208q0 12 -12 12q-103 4 -172 66q-68 62 -68 157z
M171 473v-13q0 -43 22.5 -66t61.5 -23q12 0 12 12v167q0 12 -12 12q-39 0 -61.5 -23t-22.5 -66z" />
    <glyph glyph-name="middot" unicode="&#xb7;" horiz-adv-x="262" 
d="M70 295q-25 25 -25 61t25 60q25 25 61 25t61 -25q25 -24 25 -60t-25 -61q-25 -24 -61 -24t-61 24z" />
    <glyph glyph-name="cedilla" unicode="&#xb8;" horiz-adv-x="400" 
d="M242 -149v6q0 16 -17 27t-46 11q-26 0 -51 -11q-10 -4 -16 4l-4 6q-5 8 -1 14l55 92h69l-18 -31q-8 -15 8 -16q47 -4 73.5 -28.5t26.5 -63.5v-12q0 -46 -38.5 -75t-99.5 -29q-40 0 -79 19q-15 8 -8 23l10 26q2 6 9.5 8.5t14.5 -0.5q24 -9 48 -9q31 0 47.5 11t16.5 28z
" />
    <glyph glyph-name="onesuperior" unicode="&#xb9;" horiz-adv-x="264" 
d="M109 856h73q7 0 12 -5t5 -12v-438q0 -7 -5 -12.5t-12 -5.5h-79q-7 0 -12 5.5t-5 12.5v339q0 12 -11 12h-7q-9 0 -14.5 9t-0.5 17l41 70q5 8 15 8z" />
    <glyph glyph-name="ordmasculine" unicode="&#xba;" horiz-adv-x="483" 
d="M40 490v35q0 80 58 132q58 54 144 54q84 0 143 -54q58 -52 58 -132v-35q0 -79 -58 -133q-59 -53 -143 -53q-85 0 -144 53q-58 54 -58 133zM165 525v-35q0 -36 21 -58t56 -22q34 0 55 22t21 58v35q0 36 -21 58.5t-55 22.5t-55.5 -22.5t-21.5 -58.5z" />
    <glyph glyph-name="guillemotright" unicode="&#xbb;" horiz-adv-x="461" 
d="M423 250q0 -6 -3 -10l-111 -155q-5 -8 -14 -8h-61q-6 0 -8 4.5t1 8.5l89 153q5 7 0 14l-89 153q-3 4 -1 8.5t8 4.5h61q9 0 14 -8l111 -155q3 -4 3 -10zM240 250q0 -6 -3 -10l-111 -155q-5 -8 -14 -8h-61q-6 0 -8 4.5t1 8.5l89 153q5 7 0 14l-89 153q-3 4 -1 8.5t8 4.5h61
q9 0 14 -8l111 -155q3 -4 3 -10z" />
    <glyph glyph-name="onequarter" unicode="&#xbc;" horiz-adv-x="739" 
d="M140 23l300 666q6 17 25 17h68q10 0 15 -7t2 -16l-300 -666q-6 -17 -25 -17h-68q-10 0 -15.5 7t-1.5 16zM94 706h73q7 0 12 -5t5 -12v-438q0 -7 -5 -12.5t-12 -5.5h-79q-7 0 -12 5.5t-5 12.5v339q0 12 -11 12h-7q-9 0 -14.5 9t-0.5 17l41 70q5 8 15 8zM394 178l172 287
q5 8 15 8h72q7 0 12.5 -5t5.5 -12v-253q0 -12 11 -12h15q7 0 12 -5t5 -12v-56q0 -17 -17 -17h-15q-11 0 -11 -12v-71q0 -18 -18 -18h-78q-7 0 -12 5.5t-5 12.5v71q0 12 -12 12h-140q-18 0 -18 17v40q0 11 6 20zM543 255l-29 -50q-3 -5 -0.5 -9.5t9.5 -4.5h23q12 0 12 12v48
q0 7 -5.5 8.5t-9.5 -4.5z" />
    <glyph glyph-name="onehalf" unicode="&#xbd;" horiz-adv-x="787" 
d="M140 23l300 666q6 17 25 17h68q10 0 15 -7t2 -16l-300 -666q-6 -17 -25 -17h-68q-10 0 -15 7t-2 16zM94 706h73q7 0 12 -5t5 -12v-438q0 -7 -5 -12.5t-12 -5.5h-79q-7 0 -12 5.5t-5 12.5v339q0 12 -11 12h-7q-9 0 -14.5 9t-0.5 17l41 70q5 8 15 8zM594 479q78 0 123 -40
t45 -109v-11q0 -48 -68 -128l-57 -67q-5 -5 -2.5 -12t10.5 -7h90q17 0 17 -18v-69q0 -18 -17 -18h-249q-7 0 -12.5 5t-5.5 13v49q0 9 8 20l130 158q38 46 38 69v9q0 24 -16 38.5t-44 14.5q-30 0 -57 -12q-18 -8 -24 9l-23 58q-5 14 8 21q52 27 106 27z" />
    <glyph glyph-name="threequarters" unicode="&#xbe;" horiz-adv-x="824" 
d="M236 23l300 666q6 17 25 17h68q10 0 15 -7t2 -16l-300 -666q-6 -17 -25 -17h-68q-10 0 -15.5 7t-1.5 16zM479 178l172 287q5 8 15 8h72q7 0 12.5 -5t5.5 -12v-253q0 -12 11 -12h15q7 0 12 -5t5 -12v-56q0 -17 -17 -17h-15q-11 0 -11 -12v-71q0 -8 -5.5 -13t-12.5 -5h-78
q-7 0 -12 5.5t-5 12.5v71q0 12 -12 12h-140q-18 0 -18 17v40q0 11 6 20zM628 255l-29 -50q-3 -5 -0.5 -9.5t9.5 -4.5h23q12 0 12 12v48q0 7 -5.5 8.5t-9.5 -4.5zM145 227q-51 0 -98 25q-13 7 -8 21l23 59q8 15 24 9q24 -10 52 -10t47 16.5t19 41.5v6q0 26 -18.5 43t-47.5 17
q-18 0 -38 -5q-11 -3 -19 8l-9 14q-7 10 2 20l76 91q5 5 1.5 12t-10.5 7h-71q-7 0 -12 5t-5 12v70q0 7 5 12t12 5h223q7 0 12.5 -5t5.5 -12v-54q0 -10 -7 -17l-79 -85q43 -12 70 -49t27 -87v-11q0 -68 -51 -114q-49 -45 -126 -45z" />
    <glyph glyph-name="questiondown" unicode="&#xbf;" horiz-adv-x="497" 
d="M263 -221q-109 0 -176 58t-67 152v4q0 66 26 104t84 71q69 38 69 83v3q0 7 5.5 11.5t12.5 4.5h115q17 0 17 -18v-3q0 -43 -15 -75q-12 -29 -32 -47q-15 -13 -51 -37q-41 -25 -55 -41.5t-14 -44.5v-4q0 -31 21.5 -48.5t59.5 -17.5q60 0 103 37q15 11 26 -3l71 -92
q10 -14 -3 -24q-91 -73 -197 -73zM334 476q25 -24 25 -60t-25 -61q-25 -24 -61 -24t-61 24q-25 25 -25 61t25 60q25 25 61 25t61 -25z" />
    <glyph glyph-name="Agrave" unicode="&#xc0;" horiz-adv-x="648" 
d="M9 21l285 671q6 14 21 14h24q15 0 21 -14l285 -671q3 -8 -2 -14.5t-13 -6.5h-130q-16 0 -22 14l-23 57q-7 15 -21 15h-214q-14 0 -21 -15l-23 -57q-6 -14 -22 -14h-130q-8 0 -13 6.5t-2 14.5zM320 371l-64 -156q-5 -11 7 -11h128q12 0 7 11l-64 156q-2 5 -7 5t-7 -5z
M212 878l76 42q16 9 30 -2l126 -106q7 -5 6 -14.5t-8 -13.5l-52 -29q-16 -8 -29 1l-150 92q-8 5 -8 15t9 15z" />
    <glyph glyph-name="Aacute" unicode="&#xc1;" horiz-adv-x="648" 
d="M9 21l285 671q6 14 21 14h24q15 0 21 -14l285 -671q3 -8 -2 -14.5t-13 -6.5h-130q-16 0 -22 14l-23 57q-7 15 -21 15h-214q-14 0 -21 -15l-23 -57q-6 -14 -22 -14h-130q-8 0 -13 6.5t-2 14.5zM320 371l-64 -156q-5 -11 7 -11h128q12 0 7 11l-64 156q-2 5 -7 5t-7 -5z
M209 812l126 106q14 11 30 2l76 -42q9 -5 9 -15t-8 -15l-150 -92q-13 -9 -29 -1l-52 29q-7 4 -8 13.5t6 14.5z" />
    <glyph glyph-name="Acircumflex" unicode="&#xc2;" horiz-adv-x="648" 
d="M9 21l285 671q6 14 21 14h24q15 0 21 -14l285 -671q3 -8 -2 -14.5t-13 -6.5h-130q-16 0 -22 14l-23 57q-7 15 -21 15h-214q-14 0 -21 -15l-23 -57q-6 -14 -22 -14h-130q-8 0 -13 6.5t-2 14.5zM320 371l-64 -156q-5 -11 7 -11h128q12 0 7 11l-64 156q-2 5 -7 5t-7 -5z
M336 915l143 -102q7 -5 6.5 -13.5t-7.5 -13.5l-43 -26q-9 -5 -18 0l-84 49q-6 2 -12 0l-84 -49q-9 -5 -18 0l-43 26q-7 5 -7.5 13.5t6.5 13.5l143 102q9 5 18 0z" />
    <glyph glyph-name="Atilde" unicode="&#xc3;" horiz-adv-x="648" 
d="M9 21l285 671q6 14 21 14h24q15 0 21 -14l285 -671q3 -8 -2 -14.5t-13 -6.5h-130q-16 0 -22 14l-23 57q-7 15 -21 15h-214q-14 0 -21 -15l-23 -57q-6 -14 -22 -14h-130q-8 0 -13 6.5t-2 14.5zM320 371l-64 -156q-5 -11 7 -11h128q12 0 7 11l-64 156q-2 5 -7 5t-7 -5z
M336 881q29 -15 47 -15q25 0 51 18q13 9 22 -5l29 -47q7 -11 -2 -20q-43 -46 -100 -46q-34 0 -71 19q-26 15 -47 15q-23 0 -47 -15q-12 -7 -21 6l-29 47q-7 10 2 19q40 43 95 43q36 0 71 -19z" />
    <glyph glyph-name="Adieresis" unicode="&#xc4;" horiz-adv-x="648" 
d="M9 21l285 671q6 14 21 14h24q15 0 21 -14l285 -671q3 -8 -2 -14.5t-13 -6.5h-130q-16 0 -22 14l-23 57q-7 15 -21 15h-214q-14 0 -21 -15l-23 -57q-6 -14 -22 -14h-130q-8 0 -13 6.5t-2 14.5zM320 371l-64 -156q-5 -11 7 -11h128q12 0 7 11l-64 156q-2 5 -7 5t-7 -5z
M183 791q-19 19 -19 46t19 46t46 19t46 -19t19 -46t-19 -46t-46 -19t-46 19zM378 791q-19 19 -19 46t19 46t46 19t46 -19t19 -46t-19 -46t-46 -19t-46 19z" />
    <glyph glyph-name="Aring" unicode="&#xc5;" horiz-adv-x="648" 
d="M9 21l285 671q6 14 21 14h24q15 0 21 -14l285 -671q3 -8 -2 -14.5t-13 -6.5h-130q-16 0 -22 14l-23 57q-7 15 -21 15h-214q-14 0 -21 -15l-23 -57q-6 -14 -22 -14h-130q-8 0 -13 6.5t-2 14.5zM320 371l-64 -156q-5 -11 7 -11h128q12 0 7 11l-64 156q-2 5 -7 5t-7 -5z
M259 902q28 26 68 26t68 -26q27 -26 27 -65q0 -41 -27 -66q-26 -25 -68 -25t-68 25q-27 25 -27 66q0 39 27 65zM287 837q0 -41 40 -41t40 41t-40 41t-40 -41z" />
    <glyph glyph-name="AE" unicode="&#xc6;" horiz-adv-x="828" 
d="M11 21l285 671q6 14 21 14h457q7 0 12.5 -5t5.5 -12v-110q0 -7 -5.5 -12t-12.5 -5h-346q-11 0 -6 -11l53 -124q5 -11 16 -11h201q18 0 18 -18v-96q0 -7 -5.5 -12t-12.5 -5h-146q-10 0 -6 -12l50 -118q6 -11 16 -11h168q7 0 12.5 -5t5.5 -12v-110q0 -7 -5.5 -12t-12.5 -5
h-272q-16 0 -22 14l-23 57q-7 15 -21 15h-214q-14 0 -21 -15l-23 -57q-6 -14 -22 -14h-130q-9 0 -14 6.5t-1 14.5zM322 371l-64 -156q-5 -11 7 -11h128q12 0 7 11l-64 156q-2 5 -7 5t-7 -5z" />
    <glyph glyph-name="Ccedilla" unicode="&#xc7;" horiz-adv-x="619" 
d="M407 -149v6q0 16 -17 27t-46 11q-26 0 -51 -11q-10 -4 -16 4l-4 6q-5 8 -1 14l51 85q-128 17 -206 105q-77 91 -77 225v58q0 148 94 241q94 94 240 94q116 0 203 -66q13 -10 3 -25l-71 -93q-13 -15 -26 -2q-44 38 -109 38q-81 0 -126.5 -50t-45.5 -137v-58q0 -85 46 -135
t126 -50q62 0 108 37q14 13 25 -1l73 -95q5 -5 4 -13t-7 -12q-79 -60 -187 -64l-12 -21q-8 -15 8 -16q47 -4 73.5 -28.5t26.5 -63.5v-12q0 -46 -38.5 -75t-99.5 -29q-40 0 -79 19q-15 8 -8 23l10 26q2 6 9.5 8.5t14.5 -0.5q24 -9 48 -9q31 0 47.5 11t16.5 28z" />
    <glyph glyph-name="Egrave" unicode="&#xc8;" horiz-adv-x="592" 
d="M65 17v672q0 7 5 12t12 5h452q7 0 12.5 -5t5.5 -12v-110q0 -7 -5.5 -12t-12.5 -5h-298q-11 0 -11 -11v-124q0 -11 11 -11h216q18 0 18 -18v-96q0 -7 -5.5 -12t-12.5 -5h-216q-11 0 -11 -12v-118q0 -11 11 -11h298q7 0 12.5 -5t5.5 -12v-110q0 -7 -5.5 -12t-12.5 -5h-452
q-7 0 -12 5t-5 12zM200 878l76 42q16 9 30 -2l126 -106q7 -5 6 -14.5t-8 -13.5l-52 -29q-16 -8 -29 1l-150 92q-8 5 -8 15t9 15z" />
    <glyph glyph-name="Eacute" unicode="&#xc9;" horiz-adv-x="592" 
d="M65 17v672q0 7 5 12t12 5h452q7 0 12.5 -5t5.5 -12v-110q0 -7 -5.5 -12t-12.5 -5h-298q-11 0 -11 -11v-124q0 -11 11 -11h216q18 0 18 -18v-96q0 -7 -5.5 -12t-12.5 -5h-216q-11 0 -11 -12v-118q0 -11 11 -11h298q7 0 12.5 -5t5.5 -12v-110q0 -7 -5.5 -12t-12.5 -5h-452
q-7 0 -12 5t-5 12zM190 812l126 106q14 11 30 2l76 -42q9 -5 9 -15t-8 -15l-150 -92q-13 -9 -29 -1l-52 29q-7 4 -8 13.5t6 14.5z" />
    <glyph glyph-name="Ecircumflex" unicode="&#xca;" horiz-adv-x="592" 
d="M65 17v672q0 7 5 12t12 5h452q7 0 12.5 -5t5.5 -12v-110q0 -7 -5.5 -12t-12.5 -5h-298q-11 0 -11 -11v-124q0 -11 11 -11h216q18 0 18 -18v-96q0 -7 -5.5 -12t-12.5 -5h-216q-11 0 -11 -12v-118q0 -11 11 -11h298q7 0 12.5 -5t5.5 -12v-110q0 -7 -5.5 -12t-12.5 -5h-452
q-7 0 -12 5t-5 12zM321 915l143 -102q7 -5 6.5 -13.5t-7.5 -13.5l-43 -26q-9 -5 -18 0l-84 49q-6 2 -12 0l-84 -49q-9 -5 -18 0l-43 26q-7 5 -7.5 13.5t6.5 13.5l143 102q9 5 18 0z" />
    <glyph glyph-name="Edieresis" unicode="&#xcb;" horiz-adv-x="592" 
d="M65 17v672q0 7 5 12t12 5h452q7 0 12.5 -5t5.5 -12v-110q0 -7 -5.5 -12t-12.5 -5h-298q-11 0 -11 -11v-124q0 -11 11 -11h216q18 0 18 -18v-96q0 -7 -5.5 -12t-12.5 -5h-216q-11 0 -11 -12v-118q0 -11 11 -11h298q7 0 12.5 -5t5.5 -12v-110q0 -7 -5.5 -12t-12.5 -5h-452
q-7 0 -12 5t-5 12zM171 791q-19 19 -19 46t19 46t46 19t46 -19t19 -46t-19 -46t-46 -19t-46 19zM366 791q-19 19 -19 46t19 46t46 19t46 -19t19 -46t-19 -46t-46 -19t-46 19z" />
    <glyph glyph-name="Igrave" unicode="&#xcc;" horiz-adv-x="290" 
d="M65 17v672q0 7 5 12t12 5h126q7 0 12 -5t5 -12v-672q0 -7 -5 -12t-12 -5h-126q-7 0 -12 5t-5 12zM30 878l76 42q16 9 30 -2l126 -106q7 -5 6 -14.5t-8 -13.5l-52 -29q-16 -8 -29 1l-150 92q-8 5 -8 15t9 15z" />
    <glyph glyph-name="Iacute" unicode="&#xcd;" horiz-adv-x="290" 
d="M66 17v672q0 7 5 12t12 5h126q7 0 12 -5t5 -12v-672q0 -7 -5 -12t-12 -5h-126q-7 0 -12 5t-5 12zM28 812l126 106q14 11 30 2l76 -42q9 -5 9 -15t-8 -15l-150 -92q-13 -9 -29 -1l-52 29q-7 4 -8 13.5t6 14.5z" />
    <glyph glyph-name="Icircumflex" unicode="&#xce;" horiz-adv-x="290" 
d="M67 17v672q0 7 5 12t12 5h126q7 0 12 -5t5 -12v-672q0 -7 -5 -12t-12 -5h-126q-7 0 -12 5t-5 12zM156 915l143 -102q7 -5 6.5 -13.5t-7.5 -13.5l-43 -26q-9 -4 -18 0l-84 49q-6 2 -12 0l-84 -49q-9 -4 -18 0l-43 26q-7 5 -7.5 13.5t6.5 13.5l143 102q9 7 18 0z" />
    <glyph glyph-name="Idieresis" unicode="&#xcf;" horiz-adv-x="290" 
d="M1 791q-19 19 -19 46t19 46t46 19t46 -19t19 -46t-19 -46t-46 -19t-46 19zM196 791q-19 19 -19 46t19 46t46 19t46 -19t19 -46t-19 -46t-46 -19t-46 19zM65 17v672q0 7 5 12t12 5h126q7 0 12 -5t5 -12v-672q0 -7 -5 -12t-12 -5h-126q-7 0 -12 5t-5 12z" />
    <glyph glyph-name="Eth" unicode="&#xd0;" horiz-adv-x="692" 
d="M82 706h236q151 0 242 -90q92 -89 92 -235v-58q0 -162 -105 -246q-97 -77 -229 -77h-236q-7 0 -12 5t-5 12v277q0 11 -11 11h-24q-7 0 -12.5 5t-5.5 12v54q0 18 18 18h24q11 0 11 11v284q0 7 5 12t12 5zM318 562h-82q-11 0 -11 -11v-146q0 -11 11 -11h25q7 0 12 -5.5
t5 -12.5v-54q0 -7 -5 -12t-12 -5h-25q-11 0 -11 -11v-139q0 -11 11 -11h82q79 0 125.5 48t46.5 131v58q0 84 -46 132.5t-126 48.5z" />
    <glyph glyph-name="Ntilde" unicode="&#xd1;" horiz-adv-x="719" 
d="M65 17v672q0 7 5.5 12t12.5 5h15q10 0 16 -6l367 -366q3 -3 8 -2t5 7v350q0 7 5 12t12 5h125q7 0 12.5 -5t5.5 -12v-672q0 -7 -5.5 -12t-12.5 -5h-17q-11 0 -19 8l-361 364q-4 4 -9 2.5t-5 -7.5v-350q0 -7 -5 -12t-12 -5h-125q-7 0 -12.5 5t-5.5 12zM375 881
q28 -15 47 -15q26 0 51 18q13 9 22 -5l29 -47q7 -11 -2 -20q-43 -46 -100 -46q-34 0 -71 19q-25 15 -47 15q-23 0 -47 -15q-12 -8 -21 6l-29 47q-7 10 2 19q40 43 95 43q36 0 71 -19z" />
    <glyph glyph-name="Ograve" unicode="&#xd2;" horiz-adv-x="748" 
d="M40 324v58q0 148 93 241t241 93t241 -93t93 -241v-58q0 -149 -93 -242q-94 -92 -241 -92t-241 92q-93 93 -93 242zM202 382v-58q0 -88 46 -137t126 -49t126 49t46 137v58q0 88 -46 137t-126 49t-126 -49t-46 -137zM259 878l76 42q16 9 30 -2l126 -106q7 -5 6 -14.5
t-8 -13.5l-52 -29q-16 -8 -29 1l-150 92q-8 5 -8 15t9 15z" />
    <glyph glyph-name="Oacute" unicode="&#xd3;" horiz-adv-x="748" 
d="M40 324v58q0 148 93 241t241 93t241 -93t93 -241v-58q0 -149 -93 -242q-94 -92 -241 -92t-241 92q-93 93 -93 242zM202 382v-58q0 -88 46 -137t126 -49t126 49t46 137v58q0 88 -46 137t-126 49t-126 -49t-46 -137zM256 812l126 106q14 11 30 2l76 -42q9 -5 9 -15t-8 -15
l-150 -92q-13 -9 -29 -1l-52 29q-7 4 -8 13.5t6 14.5z" />
    <glyph glyph-name="Ocircumflex" unicode="&#xd4;" horiz-adv-x="748" 
d="M40 324v58q0 148 93 241t241 93t241 -93t93 -241v-58q0 -149 -93 -242q-94 -92 -241 -92t-241 92q-93 93 -93 242zM202 382v-58q0 -88 46 -137t126 -49t126 49t46 137v58q0 88 -46 137t-126 49t-126 -49t-46 -137zM374 918q4 0 9 -3l143 -102q7 -5 6.5 -13.5t-7.5 -13.5
l-43 -26q-9 -4 -18 0l-84 49q-6 2 -12 0l-84 -49q-9 -4 -18 0l-43 26q-7 5 -7.5 13.5t6.5 13.5l143 102q5 3 9 3z" />
    <glyph glyph-name="Otilde" unicode="&#xd5;" horiz-adv-x="748" 
d="M383 881q29 -15 47 -15q26 0 51 18q13 9 22 -5l29 -47q8 -11 -2 -20q-43 -46 -100 -46q-34 0 -71 19q-25 15 -47 15q-23 0 -47 -15q-12 -7 -21 6l-29 47q-7 10 2 19q40 43 95 43q36 0 71 -19zM40 324v58q0 148 93 241t241 93t241 -93t93 -241v-58q0 -149 -93 -242
q-94 -92 -241 -92t-241 92q-93 93 -93 242zM202 382v-58q0 -88 46 -137t126 -49t126 49t46 137v58q0 88 -46 137t-126 49t-126 -49t-46 -137z" />
    <glyph glyph-name="Odieresis" unicode="&#xd6;" horiz-adv-x="748" 
d="M40 324v58q0 148 93 241t241 93t241 -93t93 -241v-58q0 -149 -93 -242q-94 -92 -241 -92t-241 92q-93 93 -93 242zM202 382v-58q0 -88 46 -137t126 -49t126 49t46 137v58q0 88 -46 137t-126 49t-126 -49t-46 -137zM230 791q-19 19 -19 46t19 46t46 19t46 -19t19 -46
t-19 -46t-46 -19t-46 19zM425 791q-19 19 -19 46t19 46t46 19t46 -19t19 -46t-19 -46t-46 -19t-46 19z" />
    <glyph glyph-name="multiply" unicode="&#xd7;" horiz-adv-x="486" 
d="M167 361l-125 126q-11 11 -1 25l55 55q14 11 25 -1l125 -126q8 -6 17 1l124 125q12 10 25 0l55 -55q11 -13 0 -24l-125 -125q-9 -8 -1 -16l126 -126q11 -10 0 -24l-55 -55q-13 -10 -25 0l-125 126q-7 7 -16 -1l-125 -125q-12 -12 -26 0l-54 54q-10 14 1 25l125 125
q8 8 0 16z" />
    <glyph glyph-name="Oslash" unicode="&#xd8;" horiz-adv-x="748" 
d="M40 324v58q0 148 93 241t241 93q52 0 98 -12l16 35q8 17 25 17h72q10 0 15.5 -7t1.5 -16l-33 -73q66 -43 102.5 -115.5t36.5 -162.5v-58q0 -149 -93 -242q-94 -92 -241 -92q-53 0 -101 13l-16 -36q-8 -17 -25 -17h-72q-10 0 -15.5 7t-1.5 16l33 73q-65 44 -100.5 116
t-35.5 162zM546 324v58q0 84 -42 133l-169 -374q18 -3 39 -3q80 0 126 49t46 137zM202 382v-58q0 -82 40 -131l167 372q-16 3 -35 3q-80 0 -126 -49t-46 -137z" />
    <glyph glyph-name="Ugrave" unicode="&#xd9;" horiz-adv-x="707" 
d="M60 279v410q0 7 5.5 12t12.5 5h125q7 0 12 -5t5 -12v-410q0 -66 35 -103.5t98 -37.5q64 0 99 37.5t35 103.5v410q0 7 5 12t12 5h126q7 0 12 -5t5 -12v-410q0 -130 -82 -209q-83 -80 -212 -80t-212 80q-81 80 -81 209zM239 878l76 42q16 9 30 -2l126 -106q7 -5 6 -14.5
t-8 -13.5l-52 -29q-16 -8 -29 1l-150 92q-8 5 -8 15t9 15z" />
    <glyph glyph-name="Uacute" unicode="&#xda;" horiz-adv-x="707" 
d="M60 279v410q0 7 5.5 12t12.5 5h125q7 0 12 -5t5 -12v-410q0 -66 35 -103.5t98 -37.5q64 0 99 37.5t35 103.5v410q0 7 5 12t12 5h126q7 0 12 -5t5 -12v-410q0 -130 -82 -209q-83 -80 -212 -80t-212 80q-81 80 -81 209zM236 812l126 106q14 11 30 2l76 -42q9 -5 9 -15
t-8 -15l-150 -92q-13 -9 -29 -1l-52 29q-7 4 -8 13.5t6 14.5z" />
    <glyph glyph-name="Ucircumflex" unicode="&#xdb;" horiz-adv-x="707" 
d="M60 279v410q0 7 5.5 12t12.5 5h125q7 0 12 -5t5 -12v-410q0 -66 35 -103.5t98 -37.5q64 0 99 37.5t35 103.5v410q0 7 5 12t12 5h126q7 0 12 -5t5 -12v-410q0 -130 -82 -209q-83 -80 -212 -80t-212 80q-81 80 -81 209zM362 915l143 -102q7 -5 6.5 -13.5t-7.5 -13.5
l-43 -26q-9 -4 -18 0l-84 49q-6 2 -12 0l-84 -49q-9 -4 -18 0l-43 26q-7 5 -7.5 13.5t6.5 13.5l143 102q9 7 18 0z" />
    <glyph glyph-name="Udieresis" unicode="&#xdc;" horiz-adv-x="707" 
d="M60 279v410q0 7 5.5 12t12.5 5h125q7 0 12 -5t5 -12v-410q0 -66 35 -103.5t98 -37.5q64 0 99 37.5t35 103.5v410q0 7 5 12t12 5h126q7 0 12 -5t5 -12v-410q0 -130 -82 -209q-83 -80 -212 -80t-212 80q-81 80 -81 209zM210 791q-19 19 -19 46t19 46t46 19t46 -19t19 -46
t-19 -46t-46 -19t-46 19zM405 791q-19 19 -19 46t19 46t46 19t46 -19t19 -46t-19 -46t-46 -19t-46 19z" />
    <glyph glyph-name="Yacute" unicode="&#xdd;" horiz-adv-x="688" 
d="M268 23v187q0 10 -5 20l-251 453q-5 7 -0.5 15t14.5 8h140q12 0 20 -12l155 -297q3 -4 7 -4h1q3 0 6 4l155 297q8 12 20 12h140q10 0 14.5 -8t-0.5 -15l-251 -453q-5 -10 -5 -20v-187q0 -10 -6.5 -16.5t-16.5 -6.5h-114q-10 0 -16.5 6.5t-6.5 16.5zM230 812l126 106
q14 11 30 2l76 -42q9 -5 9 -15t-8 -15l-150 -92q-13 -9 -29 -1l-52 29q-7 4 -8 13.5t6 14.5z" />
    <glyph glyph-name="Thorn" unicode="&#xde;" horiz-adv-x="619" 
d="M65 17v672q0 17 17 17h125q17 0 17 -17v-84q0 -12 12 -12h160q85 0 146 -67q62 -67 62 -157v-7q0 -97 -62 -164q-62 -66 -156 -66h-150q-12 0 -12 -11v-104q0 -17 -17 -17h-125q-17 0 -17 17zM336 449h-100q-12 0 -12 -12v-163q0 -12 12 -12h101q40 0 63.5 24.5
t23.5 65.5v7q0 42 -23.5 66t-64.5 24z" />
    <glyph glyph-name="germandbls" unicode="&#xdf;" horiz-adv-x="582" 
d="M48 17v485q0 82 64 137t162 55h19q101 0 162 -55q61 -54 61 -130v-8q0 -64 -53 -112q-4 -3 -4 -8t4 -7q42 -25 65.5 -66t23.5 -91v-7q0 -93 -64 -151q-65 -59 -156 -59h-56q-7 0 -12 5t-5 12v90q0 7 5 12t12 5h21q38 0 61 23.5t23 60.5v8q0 34 -19.5 55.5t-60.5 21.5h-25
q-7 0 -12 5t-5 12v79q0 7 5 12t12 5h9q31 0 50.5 19.5t19.5 51.5v7q0 32 -19 52.5t-49 20.5h-9q-31 0 -50.5 -21t-19.5 -54v-465q0 -7 -5 -12t-12 -5h-126q-7 0 -12 5t-5 12z" />
    <glyph glyph-name="agrave" unicode="&#xe0;" 
d="M30 221v51q0 106 58 168q58 63 139 63q67 0 125 -48q7 -7 11 2l12 26q6 12 19 12h102q7 0 12 -5t5 -12v-461q0 -7 -5 -12t-12 -5h-125q-7 0 -12.5 5t-5.5 12v15q0 11 -12 4q-58 -44 -117 -44q-86 0 -140 64t-54 165zM185 268v-42q0 -48 24 -75t67 -27q33 0 62 19
q15 9 15 28v151q0 18 -15 29q-27 18 -62 18q-43 0 -67 -26.5t-24 -74.5zM176 667l76 42q16 9 30 -2l126 -106q7 -5 6 -14.5t-8 -13.5l-52 -29q-16 -8 -29 1l-150 92q-8 5 -8 15t9 15z" />
    <glyph glyph-name="aacute" unicode="&#xe1;" 
d="M30 221v51q0 106 58 168q58 63 139 63q67 0 125 -48q7 -7 11 2l12 26q6 12 19 12h102q7 0 12 -5t5 -12v-461q0 -7 -5 -12t-12 -5h-125q-7 0 -12.5 5t-5.5 12v15q0 11 -12 4q-58 -44 -117 -44q-86 0 -140 64t-54 165zM185 268v-42q0 -48 24 -75t67 -27q33 0 62 19
q15 9 15 28v151q0 18 -15 29q-27 18 -62 18q-43 0 -67 -26.5t-24 -74.5zM183 601l126 106q14 11 30 2l76 -42q9 -5 9 -15t-8 -15l-150 -92q-13 -9 -29 -1l-52 29q-7 4 -8 13.5t6 14.5z" />
    <glyph glyph-name="acircumflex" unicode="&#xe2;" 
d="M30 221v51q0 106 58 168q58 63 139 63q67 0 125 -48q7 -7 11 2l12 26q6 12 19 12h102q7 0 12 -5t5 -12v-461q0 -7 -5 -12t-12 -5h-125q-7 0 -12.5 5t-5.5 12v15q0 11 -12 4q-58 -44 -117 -44q-86 0 -140 64t-54 165zM185 268v-42q0 -48 24 -75t67 -27q33 0 62 19
q15 9 15 28v151q0 18 -15 29q-27 18 -62 18q-43 0 -67 -26.5t-24 -74.5zM306 704l143 -102q7 -5 6.5 -13.5t-7.5 -13.5l-43 -26q-9 -5 -18 0l-84 49q-6 2 -12 0l-84 -49q-9 -5 -18 0l-43 26q-7 5 -7.5 13.5t6.5 13.5l143 102q9 7 18 0z" />
    <glyph glyph-name="atilde" unicode="&#xe3;" 
d="M30 221v51q0 106 58 168q58 63 139 63q67 0 125 -48q7 -7 11 2l12 26q6 12 19 12h102q7 0 12 -5t5 -12v-461q0 -7 -5 -12t-12 -5h-125q-7 0 -12.5 5t-5.5 12v15q0 11 -12 4q-58 -44 -117 -44q-86 0 -140 64t-54 165zM185 268v-42q0 -48 24 -75t67 -27q33 0 62 19
q15 9 15 28v151q0 18 -15 29q-27 18 -62 18q-43 0 -67 -26.5t-24 -74.5zM315 670q28 -15 47 -15q26 0 51 18q13 9 22 -5l29 -47q7 -11 -2 -20q-43 -46 -100 -46q-34 0 -71 19q-25 15 -47 15q-23 0 -47 -15q-12 -8 -21 6l-29 47q-7 10 2 19q40 43 95 43q36 0 71 -19z" />
    <glyph glyph-name="adieresis" unicode="&#xe4;" 
d="M30 221v51q0 106 58 168q58 63 139 63q67 0 125 -48q7 -7 11 2l12 26q6 12 19 12h102q7 0 12 -5t5 -12v-461q0 -7 -5 -12t-12 -5h-125q-7 0 -12.5 5t-5.5 12v15q0 11 -12 4q-58 -44 -117 -44q-86 0 -140 64t-54 165zM185 268v-42q0 -48 24 -75t67 -27q33 0 62 19
q15 9 15 28v151q0 18 -15 29q-27 18 -62 18q-43 0 -67 -26.5t-24 -74.5zM162 580q-19 19 -19 46t19 46t46 19t46 -19t19 -46t-19 -46t-46 -19t-46 19zM357 580q-19 19 -19 46t19 46t46 19t46 -19t19 -46t-19 -46t-46 -19t-46 19z" />
    <glyph glyph-name="aring" unicode="&#xe5;" 
d="M30 221v51q0 106 58 168q58 63 139 63q67 0 125 -48q7 -7 11 2l12 26q6 12 19 12h102q7 0 12 -5t5 -12v-461q0 -7 -5 -12t-12 -5h-125q-7 0 -12.5 5t-5.5 12v15q0 11 -12 4q-58 -44 -117 -44q-86 0 -140 64t-54 165zM185 268v-42q0 -48 24 -75t67 -27q33 0 62 19
q15 9 15 28v151q0 18 -15 29q-27 18 -62 18q-43 0 -67 -26.5t-24 -74.5zM245 691q28 26 68 26t68 -26q27 -25 27 -65t-27 -66q-26 -25 -68 -25t-68 25q-27 26 -27 66t27 65zM273 626q0 -41 40 -41t40 41t-40 41t-40 -41z" />
    <glyph glyph-name="ae" unicode="&#xe6;" horiz-adv-x="831" 
d="M32 148v4q0 73 53 109.5t144 36.5h80q12 0 12 12v13q0 22 -18 34.5t-47 12.5q-61 0 -104 -34q-14 -10 -24 3l-60 79q-10 13 2 24q36 29 89 46t107 17q87 0 143 -35q9 -6 19 0q58 37 135 37q103 0 171 -65q67 -64 67 -168v-58q0 -8 -5.5 -13t-12.5 -5h-289q-12 0 -10 -11
q21 -68 101 -68q38 0 71 30q12 11 22 1l89 -65q16 -13 2 -27q-73 -70 -184 -70q-47 0 -98 16q-8 3 -13 -1q-4 -3 -10 -3h-105q-11 0 -17 12l-11 23q-5 11 -12 3q-50 -46 -125 -46t-118.5 43t-43.5 113zM565 376q-69 0 -82 -66q-2 -12 11 -12h138q12 0 10 12q-14 66 -77 66z
M188 163v-3q0 -36 53 -36q40 0 65 19q15 11 15 28v15q0 12 -12 12h-55q-66 0 -66 -35z" />
    <glyph glyph-name="ccedilla" unicode="&#xe7;" horiz-adv-x="444" 
d="M316 -149v6q0 16 -17 27t-46 11q-26 0 -51 -11q-10 -4 -16 4l-4 6q-5 8 -1 14l51 85q-86 16 -145 81q-57 64 -57 146v55q0 94 74 163t179 69q75 0 137 -37q14 -8 6 -24l-50 -83q-8 -14 -22 -6q-33 16 -71 16q-41 0 -68.5 -29t-27.5 -70v-52q0 -41 27.5 -70.5t68.5 -29.5
q32 0 69 17q16 6 23 -7l48 -84q4 -6 2 -13.5t-8 -10.5q-53 -32 -119 -35l-11 -20q-8 -15 8 -16q47 -4 73.5 -28.5t26.5 -63.5v-12q0 -46 -38.5 -75t-99.5 -29q-40 0 -79 19q-15 8 -8 23l10 26q2 6 9.5 8.5t14.5 -0.5q24 -9 48 -9q31 0 47.5 11t16.5 28z" />
    <glyph glyph-name="egrave" unicode="&#xe8;" horiz-adv-x="537" 
d="M30 221v53q0 103 67 167q67 66 172 66q103 0 171 -65q67 -64 67 -168v-58q0 -8 -5.5 -13t-12.5 -5h-289q-12 0 -10 -11q21 -68 101 -68q38 0 71 30q12 11 22 1l89 -65q16 -13 2 -27q-73 -70 -184 -70q-110 0 -186 67q-75 67 -75 166zM271 376q-69 0 -82 -66
q-2 -12 11 -12h138q12 0 10 12q-14 66 -77 66zM172 667l76 42q16 9 30 -2l126 -106q7 -5 6 -14.5t-8 -13.5l-52 -29q-16 -8 -29 1l-150 92q-8 5 -8 15t9 15z" />
    <glyph glyph-name="eacute" unicode="&#xe9;" horiz-adv-x="537" 
d="M30 221v53q0 103 67 167q67 66 172 66q103 0 171 -65q67 -64 67 -168v-58q0 -8 -5.5 -13t-12.5 -5h-289q-12 0 -10 -11q21 -68 101 -68q38 0 71 30q12 11 22 1l89 -65q16 -13 2 -27q-73 -70 -184 -70q-110 0 -186 67q-75 67 -75 166zM271 376q-69 0 -82 -66
q-2 -12 11 -12h138q12 0 10 12q-14 66 -77 66zM160 601l126 106q14 11 30 2l76 -42q9 -5 9 -15t-8 -15l-150 -92q-13 -9 -29 -1l-52 29q-7 4 -8 13.5t6 14.5z" />
    <glyph glyph-name="ecircumflex" unicode="&#xea;" horiz-adv-x="537" 
d="M30 221v53q0 103 67 167q67 66 172 66q103 0 171 -65q67 -64 67 -168v-58q0 -8 -5.5 -13t-12.5 -5h-289q-12 0 -10 -11q21 -68 101 -68q38 0 71 30q12 11 22 1l89 -65q16 -13 2 -27q-73 -70 -184 -70q-110 0 -186 67q-75 67 -75 166zM271 376q-69 0 -82 -66
q-2 -12 11 -12h138q12 0 10 12q-14 66 -77 66zM290 704l143 -102q7 -5 6.5 -13.5t-7.5 -13.5l-43 -26q-9 -5 -18 0l-84 49q-6 2 -12 0l-84 -49q-9 -5 -18 0l-43 26q-7 5 -7.5 13.5t6.5 13.5l143 102q9 7 18 0z" />
    <glyph glyph-name="edieresis" unicode="&#xeb;" horiz-adv-x="537" 
d="M30 221v53q0 103 67 167q67 66 172 66q103 0 171 -65q67 -64 67 -168v-58q0 -8 -5.5 -13t-12.5 -5h-289q-12 0 -10 -11q21 -68 101 -68q38 0 71 30q12 11 22 1l89 -65q16 -13 2 -27q-73 -70 -184 -70q-110 0 -186 67q-75 67 -75 166zM271 376q-69 0 -82 -66
q-2 -12 11 -12h138q12 0 10 12q-14 66 -77 66zM134 580q-19 19 -19 46t19 46t46 19t46 -19t19 -46t-19 -46t-46 -19t-46 19zM329 580q-19 19 -19 46t19 46t46 19t46 -19t19 -46t-19 -46t-46 -19t-46 19z" />
    <glyph glyph-name="igrave" unicode="&#xec;" horiz-adv-x="256" 
d="M48 17v461q0 7 5 12t12 5h125q18 0 18 -17v-461q0 -7 -5.5 -12t-12.5 -5h-125q-7 0 -12 5t-5 12zM13 667l76 42q16 9 30 -2l126 -106q7 -5 6 -14.5t-8 -13.5l-52 -29q-16 -8 -29 1l-150 92q-8 5 -8 15t9 15z" />
    <glyph glyph-name="iacute" unicode="&#xed;" horiz-adv-x="256" 
d="M49 17v461q0 7 5 12t12 5h125q18 0 18 -17v-461q0 -7 -5.5 -12t-12.5 -5h-125q-7 0 -12 5t-5 12zM11 601l126 106q14 11 30 2l76 -42q9 -5 9 -15t-8 -15l-150 -92q-13 -9 -29 -1l-52 29q-7 4 -8 13.5t6 14.5z" />
    <glyph glyph-name="icircumflex" unicode="&#xee;" horiz-adv-x="256" 
d="M138 704l143 -102q7 -5 6.5 -13.5t-7.5 -13.5l-43 -26q-9 -5 -18 0l-84 49q-6 2 -12 0l-84 -49q-9 -5 -18 0l-43 26q-7 5 -7.5 13.5t6.5 13.5l143 102q9 5 18 0zM49 17v461q0 7 5 12t12 5h125q18 0 18 -17v-461q0 -7 -5.5 -12t-12.5 -5h-125q-7 0 -12 5t-5 12z" />
    <glyph glyph-name="idieresis" unicode="&#xef;" horiz-adv-x="256" 
d="M-16 580q-19 19 -19 46t19 46t46 19t46 -19t19 -46t-19 -46t-46 -19t-46 19zM179 580q-19 19 -19 46t19 46t46 19t46 -19t19 -46t-19 -46t-46 -19t-46 19zM48 17v461q0 7 5 12t12 5h125q18 0 18 -17v-461q0 -7 -5.5 -12t-12.5 -5h-125q-7 0 -12 5t-5 12z" />
    <glyph glyph-name="eth" unicode="&#xf0;" horiz-adv-x="564" 
d="M30 221v54q0 104 62 169q63 64 148 64q62 0 109 -30q3 -2 5.5 -0.5t1.5 5.5q-13 28 -38 58q-8 9 -18 3l-47 -22q-16 -7 -24 8l-23 49q-8 17 9 24l13 6q4 1 4 5t-4 6l-34 19q-7 4 -9.5 12t3.5 15l59 76q11 13 25 5q51 -27 94 -62q11 -8 21 -2l40 19q6 3 13 0.5t10 -9.5
l23 -49q8 -14 -8 -22l-17 -8q-11 -5 -3 -14q89 -127 89 -325v-54q0 -99 -73 -166q-71 -67 -179 -67q-107 0 -180 67q-72 67 -72 166zM186 275v-54q0 -45 26.5 -73t69.5 -28t69.5 28t26.5 73v54q0 45 -26.5 73t-69.5 28t-69.5 -28t-26.5 -73z" />
    <glyph glyph-name="ntilde" unicode="&#xf1;" horiz-adv-x="549" 
d="M48 17v461q0 17 18 17h104q12 0 16 -10l12 -27q5 -9 13 -2q52 47 123 47q80 0 125.5 -51.5t45.5 -142.5v-292q0 -7 -5.5 -12t-12.5 -5h-125q-7 0 -12 5t-5 12v284q0 63 -66 63q-31 0 -55 -15q-16 -10 -16 -29v-303q0 -7 -5 -12t-12 -5h-125q-7 0 -12.5 5t-5.5 12z
M294 670q28 -15 47 -15q26 0 51 18q13 9 22 -5l29 -47q7 -11 -2 -20q-43 -46 -100 -46q-34 0 -71 19q-25 15 -47 15q-23 0 -47 -15q-12 -8 -21 6l-29 47q-7 10 2 19q40 43 95 43q36 0 71 -19z" />
    <glyph glyph-name="ograve" unicode="&#xf2;" horiz-adv-x="564" 
d="M30 220v55q0 99 72 165q73 67 180 67q108 0 179 -67q73 -66 73 -165v-55q0 -99 -73 -166q-72 -66 -179 -66q-106 0 -180 66q-72 68 -72 166zM186 275v-55q0 -45 26.5 -73t69.5 -28t69.5 28t26.5 73v55q0 45 -26.5 73t-69.5 28t-69.5 -28t-26.5 -73zM167 667l76 42
q16 9 30 -2l126 -106q7 -5 6 -14.5t-8 -13.5l-52 -29q-16 -8 -29 1l-150 92q-8 5 -8 15t9 15z" />
    <glyph glyph-name="oacute" unicode="&#xf3;" horiz-adv-x="564" 
d="M30 220v55q0 99 72 165q73 67 180 67q108 0 179 -67q73 -66 73 -165v-55q0 -99 -73 -166q-72 -66 -179 -66q-106 0 -180 66q-72 68 -72 166zM186 275v-55q0 -45 26.5 -73t69.5 -28t69.5 28t26.5 73v55q0 45 -26.5 73t-69.5 28t-69.5 -28t-26.5 -73zM164 601l126 106
q14 11 30 2l76 -42q9 -5 9 -15t-8 -15l-150 -92q-13 -9 -29 -1l-52 29q-7 4 -8 13.5t6 14.5z" />
    <glyph glyph-name="ocircumflex" unicode="&#xf4;" horiz-adv-x="564" 
d="M30 220v55q0 99 72 165q73 67 180 67q108 0 179 -67q73 -66 73 -165v-55q0 -99 -73 -166q-72 -66 -179 -66q-106 0 -180 66q-72 68 -72 166zM186 275v-55q0 -45 26.5 -73t69.5 -28t69.5 28t26.5 73v55q0 45 -26.5 73t-69.5 28t-69.5 -28t-26.5 -73zM291 704l143 -102
q7 -5 6.5 -13.5t-7.5 -13.5l-43 -26q-9 -5 -18 0l-84 49q-6 2 -12 0l-84 -49q-9 -5 -18 0l-43 26q-7 5 -7.5 13.5t6.5 13.5l143 102q9 5 18 0z" />
    <glyph glyph-name="otilde" unicode="&#xf5;" horiz-adv-x="564" 
d="M291 670q29 -15 47 -15q26 0 51 18q13 9 22 -5l29 -47q7 -11 -2 -20q-43 -46 -100 -46q-34 0 -71 19q-25 15 -47 15q-23 0 -47 -15q-12 -8 -21 6l-29 47q-7 10 2 19q40 43 95 43q36 0 71 -19zM30 220v55q0 99 72 165q73 67 180 67q108 0 179 -67q73 -66 73 -165v-55
q0 -99 -73 -166q-72 -66 -179 -66q-106 0 -180 66q-72 68 -72 166zM186 275v-55q0 -45 26.5 -73t69.5 -28t69.5 28t26.5 73v55q0 45 -26.5 73t-69.5 28t-69.5 -28t-26.5 -73z" />
    <glyph glyph-name="odieresis" unicode="&#xf6;" horiz-adv-x="564" 
d="M30 220v55q0 99 72 165q73 67 180 67q108 0 179 -67q73 -66 73 -165v-55q0 -99 -73 -166q-72 -66 -179 -66q-106 0 -180 66q-72 68 -72 166zM186 275v-55q0 -45 26.5 -73t69.5 -28t69.5 28t26.5 73v55q0 45 -26.5 73t-69.5 28t-69.5 -28t-26.5 -73zM138 580
q-19 19 -19 46t19 46t46 19t46 -19t19 -46t-19 -46t-46 -19t-46 19zM333 580q-19 19 -19 46t19 46t46 19t46 -19t19 -46t-19 -46t-46 -19t-46 19z" />
    <glyph glyph-name="divide" unicode="&#xf7;" horiz-adv-x="573" 
d="M506 297h-438q-7 0 -12.5 5.5t-5.5 12.5v77q0 7 5.5 12t12.5 5h438q7 0 12 -5t5 -12v-78q0 -7 -5 -12t-12 -5zM236 457q-21 21 -21 51t21 51t51 21t51 -21t21 -51t-21 -51t-51 -21t-51 21zM236 146q-21 21 -21 51t21 51t51 21t51 -21t21 -51t-21 -51t-51 -21t-51 21z" />
    <glyph glyph-name="oslash" unicode="&#xf8;" horiz-adv-x="564" 
d="M30 220v55q0 99 72 165q73 67 180 67q30 0 59 -6l12 27q6 17 25 17h72q10 0 15 -7t2 -16l-29 -63q96 -69 96 -184v-55q0 -99 -73 -166q-72 -66 -179 -66q-22 0 -54 5l-11 -26q-6 -17 -25 -17h-72q-10 0 -15.5 7t-1.5 16l27 60q-47 31 -73.5 80t-26.5 107zM186 275v-55
q0 -23 8 -45l90 201h-2q-43 0 -69.5 -28t-26.5 -73zM378 220v55q0 21 -6 37l-87 -193q41 1 67 29t26 72z" />
    <glyph glyph-name="ugrave" unicode="&#xf9;" horiz-adv-x="545" 
d="M44 189v289q0 7 5 12t12 5h126q17 0 17 -17v-285q0 -63 65 -63q29 0 52 15q16 10 16 29v304q0 7 5 12t12 5h125q18 0 18 -17v-461q0 -7 -5.5 -12t-12.5 -5h-104q-12 0 -16 10l-13 27q-4 7 -11 1q-50 -47 -121 -47q-80 0 -125 52.5t-45 145.5zM160 667l76 42q16 9 30 -2
l126 -106q7 -5 6 -14.5t-8 -13.5l-52 -29q-16 -8 -29 1l-150 92q-8 5 -8 15t9 15z" />
    <glyph glyph-name="uacute" unicode="&#xfa;" horiz-adv-x="545" 
d="M44 189v289q0 7 5 12t12 5h126q17 0 17 -17v-285q0 -63 65 -63q29 0 52 15q16 10 16 29v304q0 7 5 12t12 5h125q18 0 18 -17v-461q0 -7 -5.5 -12t-12.5 -5h-104q-12 0 -16 10l-13 27q-4 7 -11 1q-50 -47 -121 -47q-80 0 -125 52.5t-45 145.5zM157 601l126 106q14 11 30 2
l76 -42q9 -5 9 -15t-8 -15l-150 -92q-13 -9 -29 -1l-52 29q-7 4 -8 13.5t6 14.5z" />
    <glyph glyph-name="ucircumflex" unicode="&#xfb;" horiz-adv-x="545" 
d="M44 189v289q0 7 5 12t12 5h126q17 0 17 -17v-285q0 -63 65 -63q29 0 52 15q16 10 16 29v304q0 7 5 12t12 5h125q18 0 18 -17v-461q0 -7 -5.5 -12t-12.5 -5h-104q-12 0 -16 10l-13 27q-4 7 -11 1q-50 -47 -121 -47q-80 0 -125 52.5t-45 145.5zM274 707q4 0 9 -3l143 -102
q7 -5 6.5 -13.5t-7.5 -13.5l-43 -26q-9 -5 -18 0l-84 49q-6 2 -12 0l-84 -49q-9 -5 -18 0l-43 26q-7 5 -7.5 13.5t6.5 13.5l143 102q5 3 9 3z" />
    <glyph glyph-name="udieresis" unicode="&#xfc;" horiz-adv-x="545" 
d="M44 189v289q0 7 5 12t12 5h126q17 0 17 -17v-285q0 -63 65 -63q29 0 52 15q16 10 16 29v304q0 7 5 12t12 5h125q18 0 18 -17v-461q0 -7 -5.5 -12t-12.5 -5h-104q-12 0 -16 10l-13 27q-4 7 -11 1q-50 -47 -121 -47q-80 0 -125 52.5t-45 145.5zM131 580q-19 19 -19 46
t19 46t46 19t46 -19t19 -46t-19 -46t-46 -19t-46 19zM326 580q-19 19 -19 46t19 46t46 19t46 -19t19 -46t-19 -46t-46 -19t-46 19z" />
    <glyph glyph-name="yacute" unicode="&#xfd;" horiz-adv-x="559" 
d="M209 43l-194 430q-3 7 1 14.5t13 7.5h122q15 0 21 -14l108 -264q2 -5 7 -5t7 5l104 264q6 14 21 14h117q8 0 12.5 -6.5t1.5 -14.5l-284 -672q-6 -14 -22 -14h-109q-8 0 -13 7t-2 15l89 214q4 10 0 19zM160 601l126 106q14 11 30 2l76 -42q9 -5 9 -15t-8 -15l-150 -92
q-13 -9 -29 -1l-52 29q-7 4 -8 13.5t6 14.5z" />
    <glyph glyph-name="thorn" unicode="&#xfe;" 
d="M48 -195v884q0 17 18 17h125q7 0 12 -5t5 -12v-216q0 -5 4 -7t8 1q50 36 107 36q79 0 141 -65q63 -64 63 -166v-51q0 -109 -60 -169q-58 -60 -142 -60q-59 0 -109 36q-4 2 -8 0t-4 -6v-217q0 -7 -5.5 -12t-12.5 -5h-125q-7 0 -12 5t-5 12zM285 369q-35 0 -62 -18
q-15 -11 -15 -29v-151q0 -19 15 -28q25 -19 62 -19q43 0 67 27t24 75v42q0 48 -24 74.5t-67 26.5z" />
    <glyph glyph-name="ydieresis" unicode="&#xff;" horiz-adv-x="559" 
d="M209 43l-194 430q-3 7 1 14.5t13 7.5h122q15 0 21 -14l108 -264q2 -5 7 -5t7 5l104 264q6 14 21 14h117q8 0 12.5 -6.5t1.5 -14.5l-284 -672q-6 -14 -22 -14h-109q-8 0 -13 7t-2 15l89 214q4 10 0 19zM134 580q-19 19 -19 46t19 46t46 19t46 -19t19 -46t-19 -46t-46 -19
t-46 19zM329 580q-19 19 -19 46t19 46t46 19t46 -19t19 -46t-19 -46t-46 -19t-46 19z" />
    <glyph glyph-name="Amacron" unicode="&#x100;" horiz-adv-x="648" 
d="M9 21l285 671q6 14 21 14h24q15 0 21 -14l285 -671q3 -8 -2 -14.5t-13 -6.5h-130q-16 0 -22 14l-23 57q-7 15 -21 15h-214q-14 0 -21 -15l-23 -57q-6 -14 -22 -14h-130q-8 0 -13 6.5t-2 14.5zM320 371l-64 -156q-5 -11 7 -11h128q12 0 7 11l-64 156q-2 5 -7 5t-7 -5z
M190 880h274q7 0 12 -5.5t5 -12.5v-64q0 -7 -5 -12t-12 -5h-274q-7 0 -12.5 5t-5.5 12v64q0 8 5.5 13t12.5 5z" />
    <glyph glyph-name="amacron" unicode="&#x101;" 
d="M30 221v51q0 106 58 168q58 63 139 63q67 0 125 -48q7 -7 11 2l12 26q6 12 19 12h102q7 0 12 -5t5 -12v-461q0 -7 -5 -12t-12 -5h-125q-7 0 -12.5 5t-5.5 12v15q0 11 -12 4q-58 -44 -117 -44q-86 0 -140 64t-54 165zM185 268v-42q0 -48 24 -75t67 -27q33 0 62 19
q15 9 15 28v151q0 18 -15 29q-27 18 -62 18q-43 0 -67 -26.5t-24 -74.5zM162 669h274q7 0 12 -5.5t5 -12.5v-64q0 -7 -5 -12t-12 -5h-274q-7 0 -12.5 5t-5.5 12v64q0 7 5 12.5t13 5.5z" />
    <glyph glyph-name="Abreve" unicode="&#x102;" horiz-adv-x="648" 
d="M9 21l285 671q6 14 21 14h24q15 0 21 -14l285 -671q3 -8 -2 -14.5t-13 -6.5h-130q-16 0 -22 14l-23 57q-7 15 -21 15h-214q-14 0 -21 -15l-23 -57q-6 -14 -22 -14h-130q-8 0 -13 6.5t-2 14.5zM320 371l-64 -156q-5 -11 7 -11h128q12 0 7 11l-64 156q-2 5 -7 5t-7 -5z
M408 898q8 14 21 5l49 -28q6 -2 7.5 -9.5t-2.5 -13.5q-11 -16 -29 -36q-16 -16 -53 -36q-34 -18 -74 -18q-55 0 -96 29q-38 28 -60 61q-4 6 -2.5 13.5t7.5 9.5l49 28q13 9 21 -5q31 -43 81 -43t81 43z" />
    <glyph glyph-name="abreve" unicode="&#x103;" 
d="M30 221v51q0 106 58 168q58 63 139 63q67 0 125 -48q7 -7 11 2l12 26q6 12 19 12h102q7 0 12 -5t5 -12v-461q0 -7 -5 -12t-12 -5h-125q-7 0 -12.5 5t-5.5 12v15q0 11 -12 4q-58 -44 -117 -44q-86 0 -140 64t-54 165zM185 268v-42q0 -48 24 -75t67 -27q33 0 62 19
q15 9 15 28v151q0 18 -15 29q-27 18 -62 18q-43 0 -67 -26.5t-24 -74.5zM383 687q8 14 21 5l49 -28q6 -2 7.5 -9.5t-2.5 -13.5q-11 -16 -29 -36q-16 -16 -53 -36q-35 -18 -74 -18q-55 0 -96 29q-38 28 -60 61q-4 6 -2.5 13.5t7.5 9.5l49 28q13 9 21 -5q31 -43 81 -43t81 43z
" />
    <glyph glyph-name="Aogonek" unicode="&#x104;" horiz-adv-x="648" 
d="M419 -87v9q0 56 57 97l-21 52q-7 15 -21 15h-214q-14 0 -21 -15l-23 -57q-6 -14 -22 -14h-130q-8 0 -13 6.5t-2 14.5l285 671q6 14 21 14h24q15 0 21 -14l285 -671q3 -8 -2 -14.5t-13 -6.5h-65q-68 -27 -68 -71v-4q0 -52 65 -52q23 0 49 10q14 6 22 -8l11 -25
q8 -17 -8 -24q-45 -19 -79 -19q-61 0 -99.5 29.5t-38.5 76.5zM320 371l-64 -156q-5 -11 7 -11h128q12 0 7 11l-64 156q-2 5 -7 5t-7 -5z" />
    <glyph glyph-name="aogonek" unicode="&#x105;" 
d="M295 -87v9q0 58 58 98v12q0 11 -12 4q-58 -44 -117 -44q-86 0 -140 64t-54 165v51q0 106 58 168q58 63 139 63q67 0 125 -48q7 -7 11 2l12 26q6 12 19 12h102q7 0 12 -5t5 -12v-461q0 -7 -5 -12t-12 -5h-55q-68 -27 -68 -71v-4q0 -52 65 -52q23 0 49 10q14 6 22 -8
l11 -25q8 -17 -8 -24q-45 -19 -79 -19q-61 0 -99.5 29.5t-38.5 76.5zM185 268v-42q0 -48 24 -75t67 -27q33 0 62 19q15 9 15 28v151q0 18 -15 29q-27 18 -62 18q-43 0 -67 -26.5t-24 -74.5z" />
    <glyph glyph-name="Cacute" unicode="&#x106;" horiz-adv-x="619" 
d="M40 323v58q0 148 94 241q94 94 240 94q116 0 203 -66q13 -10 3 -25l-71 -93q-13 -15 -26 -2q-44 38 -109 38q-81 0 -126.5 -50t-45.5 -137v-58q0 -85 46 -135t126 -50q62 0 108 37q14 13 25 -1l73 -95q5 -5 4 -13t-7 -12q-83 -64 -203 -64q-147 0 -241 92q-93 93 -93 241
zM257 812l126 106q14 11 30 2l76 -42q9 -5 9 -15t-8 -15l-150 -92q-13 -9 -29 -1l-52 29q-7 4 -8 13.5t6 14.5z" />
    <glyph glyph-name="cacute" unicode="&#x107;" horiz-adv-x="444" 
d="M30 220v55q0 94 74 163t179 69q75 0 137 -37q14 -8 6 -24l-50 -83q-8 -14 -22 -6q-33 16 -71 16q-41 0 -68.5 -29t-27.5 -70v-52q0 -41 27.5 -70.5t68.5 -29.5q32 0 69 17q16 6 23 -7l48 -84q4 -6 2 -13.5t-8 -10.5q-60 -36 -134 -36q-105 0 -179 69t-74 163zM150 601
l126 106q14 11 30 2l76 -42q9 -5 9 -15t-8 -15l-150 -92q-13 -9 -29 -1l-52 29q-7 4 -8 13.5t6 14.5z" />
    <glyph glyph-name="Ccircumflex" unicode="&#x108;" horiz-adv-x="619" 
d="M40 323v58q0 148 94 241q94 94 240 94q116 0 203 -66q13 -10 3 -25l-71 -93q-13 -15 -26 -2q-44 38 -109 38q-81 0 -126.5 -50t-45.5 -137v-58q0 -85 46 -135t126 -50q62 0 108 37q14 13 25 -1l73 -95q5 -5 4 -13t-7 -12q-83 -64 -203 -64q-147 0 -241 92q-93 93 -93 241
zM380 915l143 -102q7 -5 6.5 -13.5t-7.5 -13.5l-43 -26q-9 -4 -18 0l-84 49q-6 2 -12 0l-84 -49q-9 -4 -18 0l-43 26q-7 5 -7.5 13.5t6.5 13.5l143 102q9 7 18 0z" />
    <glyph glyph-name="ccircumflex" unicode="&#x109;" horiz-adv-x="445" 
d="M30 220v55q0 94 74 163t179 69q75 0 137 -37q14 -8 6 -24l-50 -83q-8 -14 -22 -6q-33 16 -71 16q-41 0 -68.5 -29t-27.5 -70v-52q0 -41 27.5 -70.5t68.5 -29.5q32 0 69 17q16 6 23 -7l48 -84q4 -6 2 -13.5t-8 -10.5q-60 -36 -134 -36q-105 0 -179 69t-74 163zM280 704
l143 -102q7 -5 6.5 -13.5t-7.5 -13.5l-43 -26q-9 -5 -18 0l-84 49q-6 2 -12 0l-84 -49q-9 -5 -18 0l-43 26q-7 5 -7.5 13.5t6.5 13.5l143 102q9 7 18 0z" />
    <glyph glyph-name="Cdotaccent" unicode="&#x10a;" horiz-adv-x="619" 
d="M40 323v58q0 148 94 241q94 94 240 94q116 0 203 -66q13 -10 3 -25l-71 -93q-13 -15 -26 -2q-44 38 -109 38q-81 0 -126.5 -50t-45.5 -137v-58q0 -85 46 -135t126 -50q62 0 108 37q14 13 25 -1l73 -95q5 -5 4 -13t-7 -12q-83 -64 -203 -64q-147 0 -241 92q-93 93 -93 241
zM321 786q-22 22 -22 52t22 51q22 22 52 22t52 -22q22 -21 22 -51t-22 -52q-22 -21 -52 -21t-52 21z" />
    <glyph glyph-name="cdotaccent" unicode="&#x10b;" horiz-adv-x="444" 
d="M30 220v55q0 94 74 163t179 69q75 0 137 -37q14 -8 6 -24l-50 -83q-8 -14 -22 -6q-33 16 -71 16q-41 0 -68.5 -29t-27.5 -70v-52q0 -41 27.5 -70.5t68.5 -29.5q32 0 69 17q16 6 23 -7l48 -84q4 -6 2 -13.5t-8 -10.5q-60 -36 -134 -36q-105 0 -179 69t-74 163zM228 575
q-22 22 -22 52t22 51q22 22 52 22t52 -22q22 -21 22 -51t-22 -52q-22 -21 -52 -21t-52 21z" />
    <glyph glyph-name="Ccaron" unicode="&#x10c;" horiz-adv-x="619" 
d="M40 323v58q0 148 94 241q94 94 240 94q116 0 203 -66q13 -10 3 -25l-71 -93q-13 -15 -26 -2q-44 38 -109 38q-81 0 -126.5 -50t-45.5 -137v-58q0 -85 46 -135t126 -50q62 0 108 37q14 13 25 -1l73 -95q5 -5 4 -13t-7 -12q-83 -64 -203 -64q-147 0 -241 92q-93 93 -93 241
zM382 856l84 49q9 4 18 0l43 -26q7 -5 7.5 -13.5t-6.5 -13.5l-143 -102q-9 -5 -18 0l-143 102q-7 5 -6.5 13.5t7.5 13.5l43 26q9 4 18 0l84 -49q6 -2 12 0z" />
    <glyph glyph-name="ccaron" unicode="&#x10d;" horiz-adv-x="444" 
d="M30 220v55q0 94 74 163t179 69q75 0 137 -37q14 -8 6 -24l-50 -83q-8 -14 -22 -6q-33 16 -71 16q-41 0 -68.5 -29t-27.5 -70v-52q0 -41 27.5 -70.5t68.5 -29.5q32 0 69 17q16 6 23 -7l48 -84q4 -6 2 -13.5t-8 -10.5q-60 -36 -134 -36q-105 0 -179 69t-74 163zM286 645
l84 49q9 4 18 0l43 -26q7 -5 7.5 -13.5t-6.5 -13.5l-143 -102q-9 -5 -18 0l-143 102q-7 5 -6.5 13.5t7.5 13.5l43 26q9 4 18 0l84 -49q6 -2 12 0z" />
    <glyph glyph-name="Dcaron" unicode="&#x10e;" horiz-adv-x="692" 
d="M82 706h236q151 0 242 -90q92 -89 92 -235v-58q0 -162 -105 -246q-97 -77 -229 -77h-236q-7 0 -12 5t-5 12v672q0 7 5 12t12 5zM318 562h-82q-11 0 -11 -11v-396q0 -11 11 -11h82q79 0 125.5 48t46.5 131v58q0 84 -46 132.5t-126 48.5zM335 856l84 49q9 5 18 0l43 -26
q7 -5 7.5 -13.5t-6.5 -13.5l-143 -102q-4 -3 -9 -3t-9 3l-143 102q-7 5 -6.5 13.5t7.5 13.5l43 26q9 5 18 0l84 -49q6 -2 12 0z" />
    <glyph glyph-name="dcaron" unicode="&#x10f;" 
d="M30 221v51q0 106 58 168q58 63 139 63q63 0 113 -39q4 -3 8.5 -1t4.5 7v219q0 7 5 12t12 5h126q7 0 12 -5t5 -12v-672q0 -7 -5 -12t-12 -5h-105q-12 0 -16 10l-13 28q-4 10 -12 2q-52 -48 -125 -48q-86 0 -141 64q-54 64 -54 165zM185 268v-42q0 -48 24 -75t67 -27
q33 0 62 19q15 9 15 28v151q0 18 -15 29q-27 18 -62 18q-43 0 -67 -26.5t-24 -74.5zM554 661q0 24 17.5 41.5t44.5 17.5q26 0 43 -17.5t17 -41.5q0 -37 -23.5 -76.5t-60.5 -68.5q-13 -9 -23 -5l-10 4q-12 7 -3 19q41 53 12 88q-14 20 -14 39z" />
    <glyph glyph-name="Dcroat" unicode="&#x110;" horiz-adv-x="692" 
d="M82 706h236q151 0 242 -90q92 -89 92 -235v-58q0 -162 -105 -246q-97 -77 -229 -77h-236q-7 0 -12 5t-5 12v277q0 11 -11 11h-24q-7 0 -12.5 5t-5.5 12v54q0 18 18 18h24q11 0 11 11v284q0 7 5 12t12 5zM318 562h-82q-11 0 -11 -11v-146q0 -11 11 -11h25q7 0 12 -5.5
t5 -12.5v-54q0 -7 -5 -12t-12 -5h-25q-11 0 -11 -11v-139q0 -11 11 -11h82q79 0 125.5 48t46.5 131v58q0 84 -46 132.5t-126 48.5z" />
    <glyph glyph-name="dslash" unicode="&#x111;" 
d="M30 221v51q0 106 58 168q58 63 139 63q63 0 113 -39q4 -3 8.5 -1t4.5 7v54q0 11 -11 11h-54q-7 0 -12.5 5t-5.5 12v54q0 18 18 18h54q11 0 11 11v54q0 7 5 12t12 5h126q7 0 12 -5t5 -12v-54q0 -11 11 -11h25q7 0 12 -5.5t5 -12.5v-54q0 -7 -5 -12t-12 -5h-25
q-11 0 -11 -11v-507q0 -7 -5 -12t-12 -5h-105q-12 0 -16 10l-13 28q-4 10 -12 2q-56 -48 -125 -48q-86 0 -141 64q-54 64 -54 165zM185 268v-42q0 -48 24 -75t67 -27q37 0 62 19q15 9 15 28v151q0 18 -15 29q-27 18 -62 18q-43 0 -67 -26.5t-24 -74.5z" />
    <glyph glyph-name="Emacron" unicode="&#x112;" horiz-adv-x="592" 
d="M65 17v672q0 7 5 12t12 5h452q7 0 12.5 -5t5.5 -12v-110q0 -7 -5.5 -12t-12.5 -5h-298q-11 0 -11 -11v-124q0 -11 11 -11h216q18 0 18 -18v-96q0 -7 -5.5 -12t-12.5 -5h-216q-11 0 -11 -12v-118q0 -11 11 -11h298q7 0 12.5 -5t5.5 -12v-110q0 -7 -5.5 -12t-12.5 -5h-452
q-7 0 -12 5t-5 12zM175 880h274q7 0 12 -5.5t5 -12.5v-64q0 -7 -5 -12t-12 -5h-274q-7 0 -12.5 5t-5.5 12v64q0 8 5.5 13t12.5 5z" />
    <glyph glyph-name="emacron" unicode="&#x113;" horiz-adv-x="537" 
d="M30 221v53q0 103 67 167q67 66 172 66q103 0 171 -65q67 -64 67 -168v-58q0 -8 -5.5 -13t-12.5 -5h-289q-12 0 -10 -11q21 -68 101 -68q38 0 71 30q12 11 22 1l89 -65q16 -13 2 -27q-73 -70 -184 -70q-110 0 -186 67q-75 67 -75 166zM271 376q-69 0 -82 -66
q-2 -12 11 -12h138q12 0 10 12q-14 66 -77 66zM133 669h274q7 0 12 -5.5t5 -12.5v-64q0 -7 -5 -12t-12 -5h-274q-7 0 -12.5 5t-5.5 12v64q0 7 5.5 12.5t12.5 5.5z" />
    <glyph glyph-name="Edotaccent" unicode="&#x116;" horiz-adv-x="592" 
d="M65 17v672q0 7 5 12t12 5h452q7 0 12.5 -5t5.5 -12v-110q0 -7 -5.5 -12t-12.5 -5h-298q-11 0 -11 -11v-124q0 -11 11 -11h216q18 0 18 -18v-96q0 -7 -5.5 -12t-12.5 -5h-216q-11 0 -11 -12v-118q0 -11 11 -11h298q7 0 12.5 -5t5.5 -12v-110q0 -7 -5.5 -12t-12.5 -5h-452
q-7 0 -12 5t-5 12zM266 786q-22 22 -22 52t22 51q22 22 52 22t52 -22q22 -21 22 -51t-22 -52q-22 -21 -52 -21t-52 21z" />
    <glyph glyph-name="edotaccent" unicode="&#x117;" horiz-adv-x="537" 
d="M30 221v53q0 103 67 167q67 66 172 66q103 0 171 -65q67 -64 67 -168v-58q0 -8 -5.5 -13t-12.5 -5h-289q-12 0 -10 -11q21 -68 101 -68q38 0 71 30q12 11 22 1l89 -65q16 -13 2 -27q-73 -70 -184 -70q-110 0 -186 67q-75 67 -75 166zM271 376q-69 0 -82 -66
q-2 -12 11 -12h138q12 0 10 12q-14 66 -77 66zM227 575q-22 22 -22 52t22 51q22 22 52 22t52 -22q22 -21 22 -51t-22 -52q-22 -21 -52 -21t-52 21z" />
    <glyph glyph-name="Eogonek" unicode="&#x118;" horiz-adv-x="592" 
d="M377 -87v9q0 44 34 78h-329q-7 0 -12 5t-5 12v672q0 7 5 12t12 5h452q7 0 12.5 -5t5.5 -12v-110q0 -7 -5.5 -12t-12.5 -5h-298q-11 0 -11 -11v-124q0 -11 11 -11h216q18 0 18 -18v-96q0 -7 -5.5 -12t-12.5 -5h-216q-11 0 -11 -12v-118q0 -11 11 -11h298q7 0 12.5 -5
t5.5 -12v-110q0 -7 -5.5 -12t-12.5 -5h-11q-68 -27 -68 -71v-4q0 -52 65 -52q23 0 49 10q14 6 22 -8l11 -25q8 -17 -8 -24q-45 -19 -79 -19q-61 0 -99.5 29.5t-38.5 76.5z" />
    <glyph glyph-name="eogonek" unicode="&#x119;" horiz-adv-x="537" 
d="M223 -87v9q0 41 25 69q-97 14 -157 77q-61 64 -61 153v53q0 103 67 167q67 66 172 66q103 0 171 -65q67 -64 67 -168v-58q0 -8 -5.5 -13t-12.5 -5h-289q-12 0 -10 -11q21 -68 101 -68q38 0 71 30q12 11 22 1l89 -65q16 -13 2 -27q-49 -47 -117 -62q-57 -27 -57 -67v-4
q0 -52 65 -52q23 0 49 10q14 6 22 -8l11 -25q8 -17 -8 -24q-45 -19 -79 -19q-61 0 -99.5 29.5t-38.5 76.5zM271 376q-69 0 -82 -66q-2 -12 11 -12h138q12 0 10 12q-14 66 -77 66z" />
    <glyph glyph-name="Ecaron" unicode="&#x11a;" horiz-adv-x="592" 
d="M65 17v672q0 7 5 12t12 5h452q7 0 12.5 -5t5.5 -12v-110q0 -7 -5.5 -12t-12.5 -5h-298q-11 0 -11 -11v-124q0 -11 11 -11h216q18 0 18 -18v-96q0 -7 -5.5 -12t-12.5 -5h-216q-11 0 -11 -12v-118q0 -11 11 -11h298q7 0 12.5 -5t5.5 -12v-110q0 -7 -5.5 -12t-12.5 -5h-452
q-7 0 -12 5t-5 12zM323 856l84 49q9 5 18 0l43 -26q7 -5 7.5 -13.5t-6.5 -13.5l-143 -102q-4 -3 -9 -3t-9 3l-143 102q-7 5 -6.5 13.5t7.5 13.5l43 26q9 5 18 0l84 -49q6 -2 12 0z" />
    <glyph glyph-name="ecaron" unicode="&#x11b;" horiz-adv-x="537" 
d="M30 221v53q0 103 67 167q67 66 172 66q103 0 171 -65q67 -64 67 -168v-58q0 -8 -5.5 -13t-12.5 -5h-289q-12 0 -10 -11q21 -68 101 -68q38 0 71 30q12 11 22 1l89 -65q16 -13 2 -27q-73 -70 -184 -70q-110 0 -186 67q-75 67 -75 166zM271 376q-69 0 -82 -66
q-2 -12 11 -12h138q12 0 10 12q-14 66 -77 66zM287 645l84 49q9 4 18 0l43 -26q7 -5 7.5 -13.5t-6.5 -13.5l-143 -102q-9 -7 -18 0l-143 102q-7 5 -6.5 13.5t7.5 13.5l43 26q9 4 18 0l84 -49q6 -2 12 0z" />
    <glyph glyph-name="Gcircumflex" unicode="&#x11c;" horiz-adv-x="707" 
d="M40 323v58q0 148 94 241q94 94 241 94q117 0 202 -66q16 -10 4 -24l-72 -94q-11 -14 -25 -2q-47 38 -109 38q-78 0 -125.5 -51.5t-47.5 -135.5v-58q0 -85 45.5 -135t123.5 -50q58 0 104 31q12 7 12 23v48q0 11 -11 11h-90q-7 0 -12.5 5t-5.5 12v84q0 17 18 17h244
q17 0 17 -17v-335q0 -7 -5 -12t-12 -5h-17q-12 0 -21 9l-44 45q-8 8 -17 0q-73 -64 -184 -64q-135 0 -221 92q-86 94 -86 241zM376 918q4 0 9 -3l143 -102q7 -5 6.5 -13.5t-7.5 -13.5l-43 -26q-9 -4 -18 0l-84 49q-6 2 -12 0l-84 -49q-9 -4 -18 0l-43 26q-7 5 -7.5 13.5
t6.5 13.5l143 102q5 3 9 3z" />
    <glyph glyph-name="gcircumflex" unicode="&#x11d;" 
d="M30 221v51q0 106 58 168q58 63 139 63q67 0 125 -48q7 -7 11 2l12 26q6 12 19 12h102q7 0 12 -5t5 -12v-492q0 -103 -73 -164q-73 -62 -188 -62q-83 0 -144 37q-14 7 -6 24l45 75q9 15 24 6q25 -13 70 -13q53 0 82.5 26.5t29.5 74.5v49q0 11 -12 4q-59 -51 -117 -51
q-86 0 -140 64t-54 165zM185 268v-42q0 -48 24 -75t67 -27q33 0 62 19q15 9 15 28v151q0 18 -15 29q-27 18 -62 18q-43 0 -67 -26.5t-24 -74.5zM310 704l143 -102q7 -5 6.5 -13.5t-7.5 -13.5l-43 -26q-9 -5 -18 0l-84 49q-6 2 -12 0l-84 -49q-9 -5 -18 0l-43 26
q-7 5 -7.5 13.5t6.5 13.5l143 102q9 7 18 0z" />
    <glyph glyph-name="Gbreve" unicode="&#x11e;" horiz-adv-x="707" 
d="M40 323v58q0 148 94 241q94 94 241 94q117 0 202 -66q16 -10 4 -24l-72 -94q-11 -14 -25 -2q-47 38 -109 38q-78 0 -125.5 -51.5t-47.5 -135.5v-58q0 -85 45.5 -135t123.5 -50q58 0 104 31q12 7 12 23v48q0 11 -11 11h-90q-7 0 -12.5 5t-5.5 12v84q0 17 18 17h244
q17 0 17 -17v-335q0 -7 -5 -12t-12 -5h-17q-12 0 -21 9l-44 45q-8 8 -17 0q-73 -64 -184 -64q-135 0 -221 92q-86 94 -86 241zM460 898q8 14 21 5l49 -28q6 -2 7.5 -9.5t-2.5 -13.5q-11 -16 -29 -36q-16 -16 -53 -36q-34 -18 -74 -18q-55 0 -96 29q-38 28 -60 61
q-4 6 -2.5 13.5t7.5 9.5l49 28q13 9 21 -5q31 -43 81 -43t81 43z" />
    <glyph glyph-name="gbreve" unicode="&#x11f;" 
d="M30 221v51q0 106 58 168q58 63 139 63q67 0 125 -48q7 -7 11 2l12 26q6 12 19 12h102q7 0 12 -5t5 -12v-492q0 -103 -73 -164q-73 -62 -188 -62q-83 0 -144 37q-14 7 -6 24l45 75q9 15 24 6q25 -13 70 -13q53 0 82.5 26.5t29.5 74.5v49q0 11 -12 4q-59 -51 -117 -51
q-86 0 -140 64t-54 165zM185 268v-42q0 -48 24 -75t67 -27q33 0 62 19q15 9 15 28v151q0 18 -15 29q-27 18 -62 18q-43 0 -67 -26.5t-24 -74.5zM380 687q8 14 21 5l49 -28q6 -2 7.5 -9.5t-2.5 -13.5q-11 -16 -29 -36q-16 -16 -53 -36q-34 -18 -74 -18q-55 0 -96 29
q-38 28 -60 61q-4 6 -2.5 13.5t7.5 9.5l49 28q13 9 21 -5q31 -43 81 -43t81 43z" />
    <glyph glyph-name="Gdotaccent" unicode="&#x120;" horiz-adv-x="707" 
d="M40 323v58q0 148 94 241q94 94 241 94q117 0 202 -66q16 -10 4 -24l-72 -94q-11 -14 -25 -2q-47 38 -109 38q-78 0 -125.5 -51.5t-47.5 -135.5v-58q0 -85 45.5 -135t123.5 -50q58 0 104 31q12 7 12 23v48q0 11 -11 11h-90q-7 0 -12.5 5t-5.5 12v84q0 17 18 17h244
q17 0 17 -17v-335q0 -7 -5 -12t-12 -5h-17q-12 0 -21 9l-44 45q-8 8 -17 0q-73 -64 -184 -64q-135 0 -221 92q-86 94 -86 241zM329 786q-22 22 -22 52t22 51q22 22 52 22t52 -22q22 -21 22 -51t-22 -52q-22 -21 -52 -21t-52 21z" />
    <glyph glyph-name="gdotaccent" unicode="&#x121;" 
d="M30 221v51q0 106 58 168q58 63 139 63q67 0 125 -48q7 -7 11 2l12 26q6 12 19 12h102q7 0 12 -5t5 -12v-492q0 -103 -73 -164q-73 -62 -188 -62q-83 0 -144 37q-14 7 -6 24l45 75q9 15 24 6q25 -13 70 -13q53 0 82.5 26.5t29.5 74.5v49q0 11 -12 4q-59 -51 -117 -51
q-86 0 -140 64t-54 165zM185 268v-42q0 -48 24 -75t67 -27q33 0 62 19q15 9 15 28v151q0 18 -15 29q-27 18 -62 18q-43 0 -67 -26.5t-24 -74.5zM244 575q-22 22 -22 52t22 51q22 22 52 22t52 -22q22 -21 22 -51t-22 -52q-22 -21 -52 -21t-52 21z" />
    <glyph glyph-name="uni0122" unicode="&#x122;" horiz-adv-x="707" 
d="M40 323v58q0 148 94 241q94 94 241 94q117 0 202 -66q16 -10 4 -24l-72 -94q-11 -14 -25 -2q-47 38 -109 38q-78 0 -125.5 -51.5t-47.5 -135.5v-58q0 -85 45.5 -135t123.5 -50q58 0 104 31q12 7 12 23v48q0 11 -11 11h-90q-7 0 -12.5 5t-5.5 12v84q0 17 18 17h244
q17 0 17 -17v-335q0 -7 -5 -12t-12 -5h-17q-12 0 -21 9l-44 45q-8 8 -17 0q-73 -64 -184 -64q-135 0 -221 92q-86 94 -86 241zM298 -119q0 24 17.5 41.5t44.5 17.5q26 0 43 -17.5t17 -41.5q0 -37 -23.5 -76.5t-60.5 -68.5q-13 -9 -23 -5l-10 4q-12 7 -3 19q41 53 12 88
q-14 20 -14 39z" />
    <glyph glyph-name="uni0123" unicode="&#x123;" 
d="M349 618q0 -24 -17.5 -41.5t-44.5 -17.5q-26 0 -43 17.5t-17 41.5q0 37 23.5 76.5t60.5 68.5q13 9 23 5l10 -4q12 -7 3 -19q-41 -53 -12 -88q14 -20 14 -39zM30 221v51q0 106 58 168q58 63 139 63q67 0 125 -48q7 -7 11 2l12 26q6 12 19 12h102q7 0 12 -5t5 -12v-492
q0 -103 -73 -164q-73 -62 -188 -62q-83 0 -144 37q-14 7 -6 24l45 75q9 15 24 6q25 -13 70 -13q53 0 82.5 26.5t29.5 74.5v49q0 11 -12 4q-59 -51 -117 -51q-86 0 -140 64t-54 165zM185 268v-42q0 -48 24 -75t67 -27q33 0 62 19q15 9 15 28v151q0 18 -15 29q-27 18 -62 18
q-43 0 -67 -26.5t-24 -74.5z" />
    <glyph glyph-name="Hcircumflex" unicode="&#x124;" horiz-adv-x="732" 
d="M65 17v672q0 7 5.5 12t12.5 5h125q7 0 12 -5t5 -12v-262q0 -11 12 -11h259q11 0 11 11v262q0 7 5.5 12t12.5 5h125q7 0 12 -5t5 -12v-672q0 -7 -5 -12t-12 -5h-125q-7 0 -12.5 5t-5.5 12v256q0 12 -11 12h-259q-12 0 -12 -12v-256q0 -7 -5 -12t-12 -5h-125q-7 0 -12.5 5
t-5.5 12zM375 915l143 -102q7 -5 6.5 -13.5t-7.5 -13.5l-43 -26q-9 -5 -18 0l-84 49q-6 2 -12 0l-84 -49q-9 -5 -18 0l-43 26q-7 5 -7.5 13.5t6.5 13.5l143 102q9 5 18 0z" />
    <glyph glyph-name="hcircumflex" unicode="&#x125;" horiz-adv-x="549" 
d="M50 17v672q0 17 18 17h125q17 0 17 -17v-219q0 -5 4.5 -7t8.5 2q43 38 111 38q80 0 126.5 -51.5t46.5 -142.5v-292q0 -7 -5 -12t-12 -5h-125q-7 0 -12.5 5t-5.5 12v284q0 63 -66 63q-31 0 -55 -15q-16 -10 -16 -29v-303q0 -7 -5 -12t-12 -5h-125q-7 0 -12.5 5t-5.5 12z
M132 918q4 0 9 -3l143 -102q7 -5 6.5 -13.5t-7.5 -13.5l-43 -26q-9 -4 -18 0l-84 49q-6 2 -12 0l-84 -49q-9 -4 -18 0l-43 26q-7 5 -7.5 13.5t6.5 13.5l143 102q5 3 9 3z" />
    <glyph glyph-name="Hbar" unicode="&#x126;" horiz-adv-x="732" 
d="M65 635v54q0 7 5.5 12t12.5 5h125q7 0 12 -5t5 -12v-54q0 -11 11 -11h260q11 0 11 11v54q0 7 5.5 12t12.5 5h125q7 0 12 -5t5 -12v-54q0 -11 11 -11h25q7 0 12 -5.5t5 -12.5v-54q0 -7 -5 -12t-12 -5h-25q-11 0 -11 -11v-507q0 -7 -5 -12t-12 -5h-125q-7 0 -12.5 5
t-5.5 12v256q0 12 -11 12h-259q-12 0 -12 -12v-256q0 -7 -5 -12t-12 -5h-125q-7 0 -12.5 5t-5.5 12v507q0 11 -11 11h-24q-7 0 -12.5 5t-5.5 12v54q0 18 18 18h24q11 0 11 11zM225 524v-97q0 -11 12 -11h259q11 0 11 11v97q0 11 -11 11h-260q-11 0 -11 -11z" />
    <glyph glyph-name="hbar" unicode="&#x127;" horiz-adv-x="549" 
d="M48 635v54q0 17 18 17h125q17 0 17 -17v-54q0 -11 11 -11h55q7 0 12 -5.5t5 -12.5v-54q0 -7 -5 -12t-12 -5h-55q-11 0 -11 -11v-54q0 -5 4.5 -7t8.5 2q47 38 111 38q80 0 126.5 -51.5t46.5 -142.5v-292q0 -7 -5 -12t-12 -5h-125q-7 0 -12.5 5t-5.5 12v284q0 63 -66 63
q-31 0 -55 -15q-16 -10 -16 -29v-303q0 -7 -5 -12t-12 -5h-125q-7 0 -12.5 5t-5.5 12v507q0 11 -11 11h-24q-7 0 -12.5 5t-5.5 12v54q0 8 5.5 13t12.5 5h24q11 0 11 11z" />
    <glyph glyph-name="Imacron" unicode="&#x12a;" horiz-adv-x="290" 
d="M65 17v672q0 7 5 12t12 5h126q7 0 12 -5t5 -12v-672q0 -7 -5 -12t-12 -5h-126q-7 0 -12 5t-5 12zM9 880h274q7 0 12 -5.5t5 -12.5v-64q0 -7 -5 -12t-12 -5h-274q-7 0 -12.5 5t-5.5 12v64q0 8 5.5 13t12.5 5z" />
    <glyph glyph-name="imacron" unicode="&#x12b;" horiz-adv-x="256" 
d="M-8 669h274q7 0 12 -5.5t5 -12.5v-64q0 -7 -5 -12t-12 -5h-274q-7 0 -12.5 5t-5.5 12v64q0 7 5 12.5t13 5.5zM48 17v461q0 7 5 12t12 5h125q18 0 18 -17v-461q0 -7 -5.5 -12t-12.5 -5h-125q-7 0 -12 5t-5 12z" />
    <glyph glyph-name="Iogonek" unicode="&#x12e;" horiz-adv-x="290" 
d="M7 -87v9q0 58 58 98v669q0 7 5 12t12 5h126q7 0 12 -5t5 -12v-672q0 -7 -5 -12t-12 -5h-55q-68 -27 -68 -71v-4q0 -52 65 -52q23 0 49 10q14 6 22 -8l11 -25q8 -17 -8 -24q-45 -19 -79 -19q-61 0 -99.5 29.5t-38.5 76.5z" />
    <glyph glyph-name="iogonek" unicode="&#x12f;" horiz-adv-x="256" 
d="M-10 -87v9q0 58 58 98v458q0 7 5 12t12 5h125q18 0 18 -17v-461q0 -7 -5.5 -12t-12.5 -5h-54q-68 -27 -68 -71v-4q0 -52 65 -52q23 0 49 10q14 6 22 -8l11 -25q8 -17 -8 -24q-45 -19 -79 -19q-61 0 -99.5 29.5t-38.5 76.5zM71 571q-23 23 -23 56t23 56q24 23 57 23
t56 -23q24 -23 24 -56t-24 -56q-23 -23 -56 -23t-57 23z" />
    <glyph glyph-name="Idot" unicode="&#x130;" horiz-adv-x="290" 
d="M65 17v672q0 7 5 12t12 5h126q7 0 12 -5t5 -12v-672q0 -7 -5 -12t-12 -5h-126q-7 0 -12 5t-5 12zM93 786q-22 22 -22 52t22 51q22 22 52 22t52 -22q22 -21 22 -51t-22 -52q-22 -21 -52 -21t-52 21z" />
    <glyph glyph-name="dotlessi" unicode="&#x131;" horiz-adv-x="256" 
d="M48 17v461q0 7 5 12t12 5h125q18 0 18 -17v-461q0 -7 -5.5 -12t-12.5 -5h-125q-7 0 -12 5t-5 12z" />
    <glyph glyph-name="Jcircumflex" unicode="&#x134;" horiz-adv-x="389" 
d="M184 185v504q0 7 5 12t12 5h126q7 0 12 -5t5 -12v-509q0 -75 -49 -130q-48 -55 -132 -55q-68 0 -128 25q-18 8 -7 25l49 86q7 12 20 8q17 -5 35 -5q23 0 37.5 15t14.5 36zM266 918q4 0 9 -3l143 -102q7 -5 6.5 -13.5t-7.5 -13.5l-43 -26q-9 -4 -18 0l-84 49q-6 2 -12 0
l-84 -49q-9 -4 -18 0l-43 26q-7 5 -7.5 13.5t6.5 13.5l143 102q5 3 9 3z" />
    <glyph glyph-name="jcircumflex" unicode="&#x135;" horiz-adv-x="258" 
d="M59 -47v525q0 7 5 12t12 5h126q7 0 12 -5t5 -12v-523q0 -78 -49 -131q-48 -54 -132 -54q-69 0 -127 24q-18 7 -9 25l45 80q8 12 20 8q22 -5 40 -5q24 0 38 14.5t14 36.5zM147 704l143 -102q7 -5 6.5 -13.5t-7.5 -13.5l-43 -26q-9 -5 -18 0l-84 49q-6 2 -12 0l-84 -49
q-9 -5 -18 0l-43 26q-7 5 -7.5 13.5t6.5 13.5l143 102q9 7 18 0z" />
    <glyph glyph-name="uni0136" unicode="&#x136;" horiz-adv-x="662" 
d="M65 17v672q0 7 5 12t12 5h125q7 0 12 -5t5 -12v-267q0 -11 11 -11h4q91 0 148 79q56 79 64 183l1 16q0 17 18 17h130q8 0 13 -5.5t4 -12.5l-1 -21q-7 -98 -49 -179t-111 -133q-9 -7 -4 -17l189 -312q5 -8 0 -17t-15 -9h-145q-11 0 -15 9l-153 271q-5 10 -18 8
q-21 -4 -56 -4h-4q-11 0 -11 -12v-255q0 -7 -5 -12t-12 -5h-125q-7 0 -12 5t-5 12zM273 -119q0 24 17.5 41.5t44.5 17.5q26 0 43 -17.5t17 -41.5q0 -37 -23.5 -76.5t-60.5 -68.5q-13 -9 -23 -5l-10 4q-12 7 -3 19q41 53 12 88q-14 20 -14 39z" />
    <glyph glyph-name="uni0137" unicode="&#x137;" horiz-adv-x="533" 
d="M48 17v672q0 17 17 17h125q18 0 18 -17v-370q0 -6 4 -9.5t10 -1.5q48 14 76 55t31 99l1 17q1 16 17 16h130q19 0 17 -18l-3 -23q-17 -123 -105 -198q-8 -6 -2 -14l137 -215q6 -9 1 -18t-16 -9h-140q-12 0 -16 10l-95 173q-4 9 -15 7l-22 -3q-10 0 -10 -11v-159
q0 -7 -5.5 -12t-12.5 -5h-125q-7 0 -12 5t-5 12zM214 -119q0 24 17.5 41.5t44.5 17.5q26 0 43 -17.5t17 -41.5q0 -37 -23.5 -76.5t-60.5 -68.5q-13 -9 -23 -5l-10 4q-12 7 -3 19q41 53 12 88q-14 20 -14 39z" />
    <glyph glyph-name="Lacute" unicode="&#x139;" horiz-adv-x="538" 
d="M65 17v672q0 7 5.5 12t12.5 5h125q7 0 12 -5t5 -12v-534q0 -11 12 -11h259q7 0 12 -5t5 -12v-110q0 -7 -5 -12t-12 -5h-413q-7 0 -12.5 5t-5.5 12zM163 812l126 106q14 11 30 2l76 -42q9 -5 9 -15t-8 -15l-150 -92q-13 -9 -29 -1l-52 29q-7 4 -8 13.5t6 14.5z" />
    <glyph glyph-name="lacute" unicode="&#x13a;" horiz-adv-x="256" 
d="M49 17v672q0 17 18 17h125q7 0 12 -5t5 -12v-672q0 -7 -5 -12t-12 -5h-125q-7 0 -12.5 5t-5.5 12zM11 812l126 106q14 11 30 2l76 -42q9 -5 9 -15t-8 -15l-150 -92q-13 -9 -29 -1l-52 29q-7 4 -8 13.5t6 14.5z" />
    <glyph glyph-name="uni013B" unicode="&#x13b;" horiz-adv-x="538" 
d="M219 -119q0 24 17.5 41.5t44.5 17.5q26 0 43 -17.5t17 -41.5q0 -37 -23.5 -76.5t-60.5 -68.5q-13 -9 -23 -5l-10 4q-12 7 -3 19q41 53 12 88q-14 20 -14 39zM65 17v672q0 7 5.5 12t12.5 5h125q7 0 12 -5t5 -12v-534q0 -11 12 -11h259q7 0 12 -5t5 -12v-110q0 -7 -5 -12
t-12 -5h-413q-7 0 -12.5 5t-5.5 12z" />
    <glyph glyph-name="uni013C" unicode="&#x13c;" horiz-adv-x="256" 
d="M67 -119q0 24 17.5 41.5t44.5 17.5q26 0 43 -17.5t17 -41.5q0 -37 -23.5 -76.5t-60.5 -68.5q-13 -9 -23 -5l-10 4q-12 7 -3 19q41 53 12 88q-14 20 -14 39zM48 17v672q0 17 18 17h125q7 0 12 -5t5 -12v-672q0 -7 -5 -12t-12 -5h-125q-7 0 -12.5 5t-5.5 12z" />
    <glyph glyph-name="Lcaron" unicode="&#x13d;" horiz-adv-x="538" 
d="M305 845q0 24 17.5 41.5t44.5 17.5q26 0 43 -17.5t17 -41.5q0 -37 -23.5 -76.5t-60.5 -68.5q-13 -9 -23 -5l-10 4q-12 7 -3 19q41 53 12 88q-14 20 -14 39zM65 17v672q0 7 5.5 12t12.5 5h125q7 0 12 -5t5 -12v-534q0 -11 12 -11h259q7 0 12 -5t5 -12v-110q0 -7 -5 -12
t-12 -5h-413q-7 0 -12.5 5t-5.5 12z" />
    <glyph glyph-name="lcaron" unicode="&#x13e;" horiz-adv-x="256" 
d="M248 661q0 24 17.5 41.5t44.5 17.5q26 0 43 -17.5t17 -41.5q0 -37 -23.5 -76.5t-60.5 -68.5q-13 -9 -23 -5l-10 4q-12 7 -3 19q41 53 12 88q-14 20 -14 39zM48 17v672q0 17 18 17h125q7 0 12 -5t5 -12v-672q0 -7 -5 -12t-12 -5h-125q-7 0 -12.5 5t-5.5 12z" />
    <glyph glyph-name="Lslash" unicode="&#x141;" horiz-adv-x="538" 
d="M72 369v320q0 7 5.5 12t12.5 5h125q7 0 12 -5t5 -12v-249q0 -5 4 -7.5t8 -0.5l11 5q6 3 13 0.5t10 -9.5l23 -49q8 -14 -8 -22l-46 -22q-15 -7 -15 -24v-156q0 -11 12 -11h259q7 0 12 -5t5 -12v-110q0 -7 -5 -12t-12 -5h-413q-7 0 -12.5 5t-5.5 12v223q0 5 -4 7.5t-8 0.5
l-10 -5q-6 -4 -13.5 -1t-10.5 9l-23 49q-7 16 9 24l45 21q15 7 15 24z" />
    <glyph glyph-name="lslash" unicode="&#x142;" horiz-adv-x="256" 
d="M55 369v320q0 17 18 17h125q7 0 12 -5t5 -12v-249q0 -5 4 -7.5t8 -0.5l11 5q6 3 13 0.5t10 -9.5l23 -49q8 -14 -8 -22l-46 -22q-15 -7 -15 -24v-294q0 -7 -5 -12t-12 -5h-125q-7 0 -12.5 5t-5.5 12v223q0 5 -4 7.5t-8 0.5l-10 -5q-6 -4 -13.5 -1t-10.5 9l-23 49
q-8 16 9 24l45 21q15 7 15 24z" />
    <glyph glyph-name="Nacute" unicode="&#x143;" horiz-adv-x="719" 
d="M65 17v672q0 7 5.5 12t12.5 5h15q10 0 16 -6l367 -366q3 -3 8 -2t5 7v350q0 7 5 12t12 5h125q7 0 12.5 -5t5.5 -12v-672q0 -7 -5.5 -12t-12.5 -5h-17q-11 0 -19 8l-361 364q-4 4 -9 2.5t-5 -7.5v-350q0 -7 -5 -12t-12 -5h-125q-7 0 -12.5 5t-5.5 12zM242 812l126 106
q14 11 30 2l76 -42q9 -5 9 -15t-8 -15l-150 -92q-13 -9 -29 -1l-52 29q-7 4 -8 13.5t6 14.5z" />
    <glyph glyph-name="nacute" unicode="&#x144;" horiz-adv-x="549" 
d="M48 17v461q0 17 18 17h104q12 0 16 -10l12 -27q5 -9 13 -2q52 47 123 47q80 0 125.5 -51.5t45.5 -142.5v-292q0 -7 -5.5 -12t-12.5 -5h-125q-7 0 -12 5t-5 12v284q0 63 -66 63q-31 0 -55 -15q-16 -10 -16 -29v-303q0 -7 -5 -12t-12 -5h-125q-7 0 -12.5 5t-5.5 12z
M177 601l126 106q14 11 30 2l76 -42q9 -5 9 -15t-8 -15l-150 -92q-13 -9 -29 -1l-52 29q-7 4 -8 13.5t6 14.5z" />
    <glyph glyph-name="uni0145" unicode="&#x145;" horiz-adv-x="719" 
d="M65 17v672q0 7 5.5 12t12.5 5h15q10 0 16 -6l367 -366q3 -3 8 -2t5 7v350q0 7 5 12t12 5h125q7 0 12.5 -5t5.5 -12v-672q0 -7 -5.5 -12t-12.5 -5h-17q-11 0 -19 8l-361 364q-4 4 -9 2.5t-5 -7.5v-350q0 -7 -5 -12t-12 -5h-125q-7 0 -12.5 5t-5.5 12zM305 -119
q0 24 17.5 41.5t44.5 17.5q26 0 43 -17.5t17 -41.5q0 -37 -23.5 -76.5t-60.5 -68.5q-13 -9 -23 -5l-10 4q-12 7 -3 19q41 53 12 88q-14 20 -14 39z" />
    <glyph glyph-name="uni0146" unicode="&#x146;" horiz-adv-x="549" 
d="M48 17v461q0 17 18 17h104q12 0 16 -10l12 -27q5 -9 13 -2q52 47 123 47q80 0 125.5 -51.5t45.5 -142.5v-292q0 -7 -5.5 -12t-12.5 -5h-125q-7 0 -12 5t-5 12v284q0 63 -66 63q-31 0 -55 -15q-16 -10 -16 -29v-303q0 -7 -5 -12t-12 -5h-125q-7 0 -12.5 5t-5.5 12z
M213 -119q0 24 17.5 41.5t44.5 17.5q26 0 43 -17.5t17 -41.5q0 -37 -23.5 -76.5t-60.5 -68.5q-13 -9 -23 -5l-10 4q-12 7 -3 19q41 53 12 88q-14 20 -14 39z" />
    <glyph glyph-name="Ncaron" unicode="&#x147;" horiz-adv-x="719" 
d="M65 17v672q0 7 5.5 12t12.5 5h15q10 0 16 -6l367 -366q3 -3 8 -2t5 7v350q0 7 5 12t12 5h125q7 0 12.5 -5t5.5 -12v-672q0 -7 -5.5 -12t-12.5 -5h-17q-11 0 -19 8l-361 364q-4 4 -9 2.5t-5 -7.5v-350q0 -7 -5 -12t-12 -5h-125q-7 0 -12.5 5t-5.5 12zM383 856l84 49
q9 5 18 0l43 -26q7 -5 7.5 -13.5t-6.5 -13.5l-143 -102q-9 -7 -18 0l-143 102q-7 5 -6.5 13.5t7.5 13.5l43 26q9 5 18 0l84 -49q6 -2 12 0z" />
    <glyph glyph-name="ncaron" unicode="&#x148;" horiz-adv-x="549" 
d="M48 17v461q0 17 18 17h104q12 0 16 -10l12 -27q5 -9 13 -2q52 47 123 47q80 0 125.5 -51.5t45.5 -142.5v-292q0 -7 -5.5 -12t-12.5 -5h-125q-7 0 -12 5t-5 12v284q0 63 -66 63q-31 0 -55 -15q-16 -10 -16 -29v-303q0 -7 -5 -12t-12 -5h-125q-7 0 -12.5 5t-5.5 12z
M294 645l84 49q9 4 18 0l43 -26q7 -5 7.5 -13.5t-6.5 -13.5l-143 -102q-9 -5 -18 0l-143 102q-7 5 -6.5 13.5t7.5 13.5l43 26q9 4 18 0l84 -49q6 -2 12 0z" />
    <glyph glyph-name="Omacron" unicode="&#x14c;" horiz-adv-x="748" 
d="M40 324v58q0 148 93 241t241 93t241 -93t93 -241v-58q0 -149 -93 -242q-94 -92 -241 -92t-241 92q-93 93 -93 242zM202 382v-58q0 -88 46 -137t126 -49t126 49t46 137v58q0 88 -46 137t-126 49t-126 -49t-46 -137zM237 880h274q7 0 12 -5.5t5 -12.5v-64q0 -7 -5 -12
t-12 -5h-274q-7 0 -12.5 5t-5.5 12v64q0 8 5.5 13t12.5 5z" />
    <glyph glyph-name="omacron" unicode="&#x14d;" horiz-adv-x="564" 
d="M30 220v55q0 99 72 165q73 67 180 67q108 0 179 -67q73 -66 73 -165v-55q0 -99 -73 -166q-72 -66 -179 -66q-106 0 -180 66q-72 68 -72 166zM186 275v-55q0 -45 26.5 -73t69.5 -28t69.5 28t26.5 73v55q0 45 -26.5 73t-69.5 28t-69.5 -28t-26.5 -73zM145 669h274
q7 0 12 -5.5t5 -12.5v-64q0 -7 -5 -12t-12 -5h-274q-7 0 -12.5 5t-5.5 12v64q0 7 5.5 12.5t12.5 5.5z" />
    <glyph glyph-name="Ohungarumlaut" unicode="&#x150;" horiz-adv-x="748" 
d="M40 324v58q0 148 93 241t241 93t241 -93t93 -241v-58q0 -149 -93 -242q-94 -92 -241 -92t-241 92q-93 93 -93 242zM202 382v-58q0 -88 46 -137t126 -49t126 49t46 137v58q0 88 -46 137t-126 49t-126 -49t-46 -137zM367 800l129 109q8 8 20 2l61 -33q9 -5 9 -15t-8 -15
l-155 -95q-10 -5 -18 -1l-36 20q-7 4 -8 13.5t6 14.5zM167 800l129 109q8 8 20 2l61 -33q9 -5 9 -15t-8 -15l-155 -95q-10 -5 -18 -1l-36 20q-7 4 -8 13.5t6 14.5z" />
    <glyph glyph-name="ohungarumlaut" unicode="&#x151;" horiz-adv-x="564" 
d="M30 220v55q0 99 72 165q73 67 180 67q108 0 179 -67q73 -66 73 -165v-55q0 -99 -73 -166q-72 -66 -179 -66q-106 0 -180 66q-72 68 -72 166zM186 275v-55q0 -45 26.5 -73t69.5 -28t69.5 28t26.5 73v55q0 45 -26.5 73t-69.5 28t-69.5 -28t-26.5 -73zM275 589l129 109
q8 8 20 2l61 -33q9 -5 9 -15t-8 -15l-155 -95q-10 -5 -18 -1l-36 20q-7 4 -8 13.5t6 14.5zM75 589l129 109q8 8 20 2l61 -33q9 -5 9 -15t-8 -15l-155 -95q-10 -5 -18 -1l-36 20q-7 4 -8 13.5t6 14.5z" />
    <glyph glyph-name="OE" unicode="&#x152;" horiz-adv-x="1073" 
d="M40 324v58q0 148 93 241t241 93q88 0 156 -42q6 -4 11 -1t5 9v7q0 7 5 12t12 5h452q7 0 12.5 -5t5.5 -12v-110q0 -7 -5.5 -12t-12.5 -5h-298q-11 0 -11 -11v-124q0 -11 11 -11h216q7 0 12.5 -5t5.5 -13v-96q0 -7 -5.5 -12t-12.5 -5h-216q-11 0 -11 -12v-118q0 -11 11 -11
h298q7 0 12.5 -5t5.5 -12v-110q0 -7 -5.5 -12t-12.5 -5h-452q-7 0 -12 5t-5 12v7q0 6 -5 9t-11 -1q-70 -42 -156 -42q-147 0 -241 92q-93 93 -93 242zM202 382v-58q0 -88 46 -137t126 -49t126 49t46 137v58q0 88 -46 137t-126 49t-126 -49t-46 -137z" />
    <glyph glyph-name="oe" unicode="&#x153;" horiz-adv-x="885" 
d="M30 220v55q0 99 72 165q73 67 180 67q93 0 160 -52q10 -6 19 0q64 52 156 52q103 0 171 -65q67 -64 67 -168v-58q0 -8 -5.5 -13t-12.5 -5h-289q-12 0 -10 -11q7 -33 34 -50.5t67 -17.5q38 0 71 30q12 11 22 1l89 -65q16 -13 2 -27q-73 -70 -184 -70q-99 0 -173 56
q-8 6 -17 0q-71 -56 -167 -56q-106 0 -180 66q-72 68 -72 166zM186 275v-55q0 -45 26.5 -73t69.5 -28t69.5 28t26.5 73v55q0 45 -26.5 73t-69.5 28t-69.5 -28t-26.5 -73zM619 376q-69 0 -82 -66q-2 -12 11 -12h138q12 0 10 12q-14 66 -77 66z" />
    <glyph glyph-name="Racute" unicode="&#x154;" horiz-adv-x="651" 
d="M65 17v672q0 7 5.5 12t12.5 5h310q85 0 146 -67q62 -67 62 -157v-7q0 -69 -35.5 -123.5t-94.5 -81.5q-11 -5 -8 -16q14 -51 52.5 -83.5t89.5 -36.5q16 -1 16 -18v-106q0 -7 -5 -12.5t-12 -5.5q-114 0 -194 67t-102 180q-2 12 -14 12h-57q-12 0 -12 -12v-222q0 -7 -5 -12
t-12 -5h-125q-18 0 -18 17zM225 550v-165q0 -12 12 -12h103q40 0 63.5 25t23.5 67v7q0 42 -23 66t-64 24h-103q-12 0 -12 -12zM208 812l126 106q14 11 30 2l76 -42q9 -5 9 -15t-8 -15l-150 -92q-13 -9 -29 -1l-52 29q-7 4 -8 13.5t6 14.5z" />
    <glyph glyph-name="racute" unicode="&#x155;" horiz-adv-x="413" 
d="M48 17v461q0 17 18 17h104q12 0 16 -10l11 -24q6 -9 13 -2q43 43 109 43q53 0 91 -28q12 -10 5 -23l-55 -89q-7 -13 -25 -5q-18 9 -41 9q-41 0 -71 -21q-15 -12 -15 -29v-299q0 -7 -5 -12t-12 -5h-125q-7 0 -12.5 5t-5.5 12zM129 601l126 106q14 11 30 2l76 -42
q9 -5 9 -15t-8 -15l-150 -92q-13 -9 -29 -1l-52 29q-7 4 -8 13.5t6 14.5z" />
    <glyph glyph-name="uni0156" unicode="&#x156;" horiz-adv-x="651" 
d="M65 17v672q0 7 5.5 12t12.5 5h310q85 0 146 -67q62 -67 62 -157v-7q0 -69 -35.5 -123.5t-94.5 -81.5q-11 -5 -8 -16q14 -51 52.5 -83.5t89.5 -36.5q16 -1 16 -18v-106q0 -7 -5 -12.5t-12 -5.5q-114 0 -194 67t-102 180q-2 12 -14 12h-57q-12 0 -12 -12v-222q0 -7 -5 -12
t-12 -5h-125q-18 0 -18 17zM225 550v-165q0 -12 12 -12h103q40 0 63.5 25t23.5 67v7q0 42 -23 66t-64 24h-103q-12 0 -12 -12zM270 -119q0 24 17.5 41.5t44.5 17.5q26 0 43 -17.5t17 -41.5q0 -37 -23.5 -76.5t-60.5 -68.5q-13 -9 -23 -5l-10 4q-12 7 -3 19q41 53 12 88
q-14 20 -14 39z" />
    <glyph glyph-name="uni0157" unicode="&#x157;" horiz-adv-x="413" 
d="M48 17v461q0 17 18 17h104q12 0 16 -10l11 -24q6 -9 13 -2q43 43 109 43q53 0 91 -28q12 -10 5 -23l-55 -89q-7 -13 -25 -5q-18 9 -41 9q-41 0 -71 -21q-15 -12 -15 -29v-299q0 -7 -5 -12t-12 -5h-125q-7 0 -12.5 5t-5.5 12zM164 -119q0 24 17.5 41.5t44.5 17.5
q26 0 43 -17.5t17 -41.5q0 -37 -23.5 -76.5t-60.5 -68.5q-13 -9 -23 -5l-10 4q-12 7 -3 19q41 53 12 88q-14 20 -14 39z" />
    <glyph glyph-name="Rcaron" unicode="&#x158;" horiz-adv-x="651" 
d="M65 17v672q0 7 5.5 12t12.5 5h310q85 0 146 -67q62 -67 62 -157v-7q0 -69 -35.5 -123.5t-94.5 -81.5q-11 -5 -8 -16q14 -51 52.5 -83.5t89.5 -36.5q16 -1 16 -18v-106q0 -7 -5 -12.5t-12 -5.5q-114 0 -194 67t-102 180q-2 12 -14 12h-57q-12 0 -12 -12v-222q0 -7 -5 -12
t-12 -5h-125q-18 0 -18 17zM225 550v-165q0 -12 12 -12h103q40 0 63.5 25t23.5 67v7q0 42 -23 66t-64 24h-103q-12 0 -12 -12zM331 856l84 49q9 5 18 0l43 -26q7 -5 7.5 -13.5t-6.5 -13.5l-143 -102q-4 -3 -9 -3t-9 3l-143 102q-7 5 -6.5 13.5t7.5 13.5l43 26q9 5 18 0
l84 -49q6 -2 12 0z" />
    <glyph glyph-name="rcaron" unicode="&#x159;" horiz-adv-x="413" 
d="M48 17v461q0 17 18 17h104q12 0 16 -10l11 -24q6 -9 13 -2q43 43 109 43q53 0 91 -28q12 -10 5 -23l-55 -89q-7 -13 -25 -5q-18 9 -41 9q-41 0 -71 -21q-15 -12 -15 -29v-299q0 -7 -5 -12t-12 -5h-125q-7 0 -12.5 5t-5.5 12zM239 645l84 49q9 4 18 0l43 -26
q7 -5 7.5 -13.5t-6.5 -13.5l-143 -102q-4 -3 -9 -3t-9 3l-143 102q-7 5 -6.5 13.5t7.5 13.5l43 26q9 4 18 0l84 -49q6 -2 12 0z" />
    <glyph glyph-name="Sacute" unicode="&#x15a;" horiz-adv-x="593" 
d="M307 716q106 0 195 -70q14 -10 3 -24l-74 -97q-14 -15 -26 -3q-45 39 -98 39q-85 0 -85 -59v-3q0 -30 29.5 -46.5t108.5 -31.5q199 -37 199 -200v-4q0 -105 -76 -166t-200 -61q-61 0 -125 22.5t-113 59.5q-6 4 -7 12t4 13l75 99q10 13 24 2q28 -24 67 -39.5t75 -15.5
q110 0 110 67v4q5 30 -35 53q-9 5 -29 11l-34 9l-44 10q-1 0 -2.5 0.5l-3 1t-3.5 0.5l-48 11q-15 4 -47 20q-31 16 -46 34q-42 50 -42 133v4q0 97 68 156q70 59 180 59zM180 812l126 106q14 11 30 2l76 -42q9 -5 9 -15t-8 -15l-150 -92q-13 -9 -29 -1l-52 29q-7 4 -8 13.5
t6 14.5z" />
    <glyph glyph-name="sacute" unicode="&#x15b;" horiz-adv-x="431" 
d="M232 506q81 0 148 -55q14 -11 3 -24l-59 -77q-11 -14 -26 -2q-33 24 -59 24q-17 0 -27 -8t-10 -20v-4q0 -17 15.5 -24.5t57.5 -14.5q62 -10 102 -35q50 -31 50 -107v-4q0 -74 -55 -120q-55 -47 -143 -47q-103 0 -183 63q-12 11 -2 24l60 79q10 14 24 3q46 -37 93 -37
q24 0 37 8.5t13 21.5v3q0 15 -14 23t-52 15q-64 10 -108 38q-52 33 -52 112v4q0 70 53 115q53 46 134 46zM118 601l126 106q14 11 30 2l76 -42q9 -5 9 -15t-8 -15l-150 -92q-13 -9 -29 -1l-52 29q-7 4 -8 13.5t6 14.5z" />
    <glyph glyph-name="Scircumflex" unicode="&#x15c;" horiz-adv-x="593" 
d="M307 716q106 0 195 -70q14 -10 3 -24l-74 -97q-14 -15 -26 -3q-45 39 -98 39q-85 0 -85 -59v-3q0 -30 29.5 -46.5t108.5 -31.5q199 -37 199 -200v-4q0 -105 -76 -166t-200 -61q-61 0 -125 22.5t-113 59.5q-6 4 -7 12t4 13l75 99q10 13 24 2q28 -24 67 -39.5t75 -15.5
q110 0 110 67v4q5 30 -35 53q-9 5 -29 11l-34 9l-44 10q-1 0 -2.5 0.5l-3 1t-3.5 0.5l-48 11q-15 4 -47 20q-31 16 -46 34q-42 50 -42 133v4q0 97 68 156q70 59 180 59zM315 915l143 -102q7 -5 6.5 -13.5t-7.5 -13.5l-43 -26q-9 -4 -18 0l-84 49q-6 2 -12 0l-84 -49
q-9 -4 -18 0l-43 26q-7 5 -7.5 13.5t6.5 13.5l143 102q9 7 18 0z" />
    <glyph glyph-name="scircumflex" unicode="&#x15d;" horiz-adv-x="431" 
d="M232 506q81 0 148 -55q14 -11 3 -24l-59 -77q-11 -14 -26 -2q-33 24 -59 24q-17 0 -27 -8t-10 -20v-4q0 -17 15.5 -24.5t57.5 -14.5q62 -10 102 -35q50 -31 50 -107v-4q0 -74 -55 -120q-55 -47 -143 -47q-103 0 -183 63q-12 11 -2 24l60 79q10 14 24 3q46 -37 93 -37
q24 0 37 8.5t13 21.5v3q0 15 -14 23t-52 15q-64 10 -108 38q-52 33 -52 112v4q0 70 53 115q53 46 134 46zM234 707q4 0 9 -3l143 -102q7 -5 6.5 -13.5t-7.5 -13.5l-43 -26q-9 -5 -18 0l-84 49q-6 2 -12 0l-84 -49q-9 -5 -18 0l-43 26q-7 5 -7.5 13.5t6.5 13.5l143 102
q5 3 9 3z" />
    <glyph glyph-name="Scedilla" unicode="&#x15e;" horiz-adv-x="593" 
d="M333 -149v6q0 16 -17 27t-46 11q-26 0 -51 -11q-10 -4 -16 4l-4 6q-5 8 -1 14l50 84q-118 14 -203 80q-6 4 -7 12t4 13l75 99q10 13 24 2q28 -24 67 -39.5t75 -15.5q110 0 110 67v4q5 30 -35 53q-9 5 -29 11l-34 9l-44 10q-1 0 -2.5 0.5l-3 1t-3.5 0.5l-48 11
q-15 4 -47 20q-31 16 -46 34q-42 50 -42 133v4q0 97 68 156q70 59 180 59q106 0 195 -70q14 -10 3 -24l-74 -97q-14 -15 -26 -3q-45 39 -98 39q-85 0 -85 -59v-3q0 -30 29.5 -46.5t108.5 -31.5q199 -37 199 -200v-4q0 -96 -66 -157q-67 -61 -176 -68l-13 -23q-8 -15 8 -16
q47 -4 73.5 -28.5t26.5 -63.5v-12q0 -46 -38.5 -75t-99.5 -29q-40 0 -79 19q-15 8 -8 23l10 26q2 6 9.5 8.5t14.5 -0.5q24 -9 48 -9q31 0 47.5 11t16.5 28z" />
    <glyph glyph-name="scedilla" unicode="&#x15f;" horiz-adv-x="431" 
d="M261 -149v6q0 16 -17 27t-46 11q-26 0 -51 -11q-10 -4 -16 4l-4 6q-5 8 -1 14l50 85q-74 12 -130 58q-12 11 -2 24l60 79q10 14 24 3q46 -37 93 -37q24 0 37 8.5t13 21.5v3q0 15 -14 23t-52 15q-64 10 -108 38q-52 33 -52 112v4q0 70 53 115q53 46 134 46t148 -55
q14 -11 3 -24l-59 -77q-11 -14 -26 -2q-33 24 -59 24q-17 0 -27 -8t-10 -20v-4q0 -17 15.5 -24.5t57.5 -14.5q62 -10 102 -35q50 -31 50 -107v-4q0 -70 -50.5 -116t-133.5 -50l-11 -20q-8 -15 8 -16q47 -4 73.5 -28.5t26.5 -63.5v-12q0 -46 -38.5 -75t-99.5 -29
q-40 0 -79 19q-15 8 -8 23l10 26q2 6 9.5 8.5t14.5 -0.5q24 -9 48 -9q31 0 47.5 11t16.5 28z" />
    <glyph glyph-name="Scaron" unicode="&#x160;" horiz-adv-x="593" 
d="M307 716q106 0 195 -70q14 -10 3 -24l-74 -97q-14 -15 -26 -3q-45 39 -98 39q-85 0 -85 -59v-3q0 -30 29.5 -46.5t108.5 -31.5q199 -37 199 -200v-4q0 -105 -76 -166t-200 -61q-61 0 -125 22.5t-113 59.5q-6 4 -7 12t4 13l75 99q10 13 24 2q28 -24 67 -39.5t75 -15.5
q110 0 110 67v4q5 30 -35 53q-9 5 -29 11l-34 9l-44 10q-1 0 -2.5 0.5l-3 1t-3.5 0.5l-48 11q-15 4 -47 20q-31 16 -46 34q-42 50 -42 133v4q0 97 68 156q70 59 180 59zM315 856l84 49q9 4 18 0l43 -26q7 -5 7.5 -13.5t-6.5 -13.5l-143 -102q-9 -5 -18 0l-143 102
q-7 5 -6.5 13.5t7.5 13.5l43 26q9 4 18 0l84 -49q6 -2 12 0z" />
    <glyph glyph-name="scaron" unicode="&#x161;" horiz-adv-x="431" 
d="M232 506q81 0 148 -55q14 -11 3 -24l-59 -77q-11 -14 -26 -2q-33 24 -59 24q-17 0 -27 -8t-10 -20v-4q0 -17 15.5 -24.5t57.5 -14.5q62 -10 102 -35q50 -31 50 -107v-4q0 -74 -55 -120q-55 -47 -143 -47q-103 0 -183 63q-12 11 -2 24l60 79q10 14 24 3q46 -37 93 -37
q24 0 37 8.5t13 21.5v3q0 15 -14 23t-52 15q-64 10 -108 38q-52 33 -52 112v4q0 70 53 115q53 46 134 46zM242 645l84 49q9 4 18 0l43 -26q7 -5 7.5 -13.5t-6.5 -13.5l-143 -102q-9 -5 -18 0l-143 102q-7 5 -6.5 13.5t7.5 13.5l43 26q9 4 18 0l84 -49q6 -2 12 0z" />
    <glyph glyph-name="uni0162" unicode="&#x162;" horiz-adv-x="566" 
d="M15 579v110q0 7 5 12t12 5h502q7 0 12 -5t5 -12v-110q0 -7 -5 -12t-12 -5h-160q-11 0 -11 -12v-533q0 -17 -18 -17h-125q-17 0 -17 17v533q0 12 -12 12h-159q-7 0 -12 5t-5 12zM218 -119q0 24 17.5 41.5t44.5 17.5q26 0 43 -17.5t17 -41.5q0 -37 -23.5 -76.5t-60.5 -68.5
q-13 -9 -23 -5l-10 4q-12 7 -3 19q41 53 12 88q-14 20 -14 39z" />
    <glyph glyph-name="uni0163" unicode="&#x163;" horiz-adv-x="388" 
d="M75 507v111q0 7 5 12.5t12 5.5h126q7 0 12 -5.5t5 -12.5v-111q0 -12 12 -12h103q17 0 17 -17v-64q0 -18 -17 -18h-103q-12 0 -12 -11v-229q0 -14 11.5 -23t27.5 -9q22 0 40 9q18 6 24 -7l47 -79q4 -7 1.5 -14.5t-9.5 -10.5q-67 -30 -134 -30q-168 0 -168 143v250
q0 11 -11 11h-47q-17 0 -17 18v64q0 17 17 17h47q11 0 11 12zM136 -119q0 24 17.5 41.5t44.5 17.5q26 0 43 -17.5t17 -41.5q0 -37 -23.5 -76.5t-60.5 -68.5q-13 -9 -23 -5l-10 4q-12 7 -3 19q41 53 12 88q-14 20 -14 39z" />
    <glyph glyph-name="Tcaron" unicode="&#x164;" horiz-adv-x="566" 
d="M15 579v110q0 7 5 12t12 5h502q7 0 12 -5t5 -12v-110q0 -7 -5 -12t-12 -5h-160q-11 0 -11 -12v-533q0 -17 -18 -17h-125q-17 0 -17 17v533q0 12 -12 12h-159q-7 0 -12 5t-5 12zM289 856l84 49q9 5 18 0l43 -26q7 -5 7.5 -13.5t-6.5 -13.5l-143 -102q-4 -3 -9 -3t-9 3
l-143 102q-7 5 -6.5 13.5t7.5 13.5l43 26q9 5 18 0l84 -49q6 -2 12 0z" />
    <glyph glyph-name="tcaron" unicode="&#x165;" horiz-adv-x="388" 
d="M75 507v111q0 7 5 12.5t12 5.5h126q7 0 12 -5.5t5 -12.5v-111q0 -12 12 -12h103q17 0 17 -17v-64q0 -18 -17 -18h-103q-12 0 -12 -11v-229q0 -14 11.5 -23t27.5 -9q22 0 40 9q18 6 24 -7l47 -79q4 -7 1.5 -14.5t-9.5 -10.5q-67 -30 -134 -30q-168 0 -168 143v250
q0 11 -11 11h-47q-17 0 -17 18v64q0 17 17 17h47q11 0 11 12zM318 661q0 24 17.5 41.5t44.5 17.5q26 0 43 -17.5t17 -41.5q0 -37 -23.5 -76.5t-60.5 -68.5q-13 -9 -23 -5l-10 4q-12 7 -3 19q41 53 12 88q-14 20 -14 39z" />
    <glyph glyph-name="Umacron" unicode="&#x16a;" horiz-adv-x="707" 
d="M60 279v410q0 7 5.5 12t12.5 5h125q7 0 12 -5t5 -12v-410q0 -66 35 -103.5t98 -37.5q64 0 99 37.5t35 103.5v410q0 7 5 12t12 5h126q7 0 12 -5t5 -12v-410q0 -130 -82 -209q-83 -80 -212 -80t-212 80q-81 80 -81 209zM217 880h274q7 0 12 -5.5t5 -12.5v-64q0 -7 -5 -12
t-12 -5h-274q-7 0 -12.5 5t-5.5 12v64q0 8 5.5 13t12.5 5z" />
    <glyph glyph-name="umacron" unicode="&#x16b;" horiz-adv-x="545" 
d="M44 189v289q0 7 5 12t12 5h126q17 0 17 -17v-285q0 -63 65 -63q29 0 52 15q16 10 16 29v304q0 7 5 12t12 5h125q18 0 18 -17v-461q0 -7 -5.5 -12t-12.5 -5h-104q-12 0 -16 10l-13 27q-4 7 -11 1q-50 -47 -121 -47q-80 0 -125 52.5t-45 145.5zM136 669h274q7 0 12 -5.5
t5 -12.5v-64q0 -7 -5 -12t-12 -5h-274q-7 0 -12.5 5t-5.5 12v64q0 7 5 12.5t13 5.5z" />
    <glyph glyph-name="Ubreve" unicode="&#x16c;" horiz-adv-x="707" 
d="M60 279v410q0 7 5.5 12t12.5 5h125q7 0 12 -5t5 -12v-410q0 -66 35 -103.5t98 -37.5q64 0 99 37.5t35 103.5v410q0 7 5 12t12 5h126q7 0 12 -5t5 -12v-410q0 -130 -82 -209q-83 -80 -212 -80t-212 80q-81 80 -81 209zM434 898q8 14 21 5l49 -28q6 -2 7.5 -9.5t-2.5 -13.5
q-11 -16 -29 -36q-16 -16 -53 -36q-34 -18 -74 -18q-55 0 -96 29q-38 28 -60 61q-4 6 -2.5 13.5t7.5 9.5l49 28q13 9 21 -5q31 -43 81 -43t81 43z" />
    <glyph glyph-name="ubreve" unicode="&#x16d;" horiz-adv-x="545" 
d="M44 189v289q0 7 5 12t12 5h126q17 0 17 -17v-285q0 -63 65 -63q29 0 52 15q16 10 16 29v304q0 7 5 12t12 5h125q18 0 18 -17v-461q0 -7 -5.5 -12t-12.5 -5h-104q-12 0 -16 10l-13 27q-4 7 -11 1q-50 -47 -121 -47q-80 0 -125 52.5t-45 145.5zM353 687q8 14 21 5l49 -28
q6 -2 7.5 -9.5t-2.5 -13.5q-11 -16 -29 -36q-16 -16 -53 -36q-35 -18 -74 -18q-55 0 -96 29q-38 28 -60 61q-4 6 -2.5 13.5t7.5 9.5l49 28q13 9 21 -5q31 -43 81 -43t81 43z" />
    <glyph glyph-name="Uring" unicode="&#x16e;" horiz-adv-x="707" 
d="M60 279v410q0 7 5.5 12t12.5 5h125q7 0 12 -5t5 -12v-410q0 -66 35 -103.5t98 -37.5q64 0 99 37.5t35 103.5v410q0 7 5 12t12 5h126q7 0 12 -5t5 -12v-410q0 -130 -82 -209q-83 -80 -212 -80t-212 80q-81 80 -81 209zM285 902q28 26 68 26t68 -26q27 -25 27 -65t-27 -66
q-26 -25 -68 -25t-68 25q-27 26 -27 66t27 65zM313 837q0 -41 40 -41t40 41t-40 41t-40 -41z" />
    <glyph glyph-name="uring" unicode="&#x16f;" horiz-adv-x="545" 
d="M44 189v289q0 7 5 12t12 5h126q17 0 17 -17v-285q0 -63 65 -63q29 0 52 15q16 10 16 29v304q0 7 5 12t12 5h125q18 0 18 -17v-461q0 -7 -5.5 -12t-12.5 -5h-104q-12 0 -16 10l-13 27q-4 7 -11 1q-50 -47 -121 -47q-80 0 -125 52.5t-45 145.5zM204 691q28 26 68 26t68 -26
q27 -25 27 -65t-27 -66q-26 -25 -68 -25t-68 25q-27 26 -27 66t27 65zM232 626q0 -41 40 -41t40 41t-40 41t-40 -41z" />
    <glyph glyph-name="Uhungarumlaut" unicode="&#x170;" horiz-adv-x="707" 
d="M60 279v410q0 7 5.5 12t12.5 5h125q7 0 12 -5t5 -12v-410q0 -66 35 -103.5t98 -37.5q64 0 99 37.5t35 103.5v410q0 7 5 12t12 5h126q7 0 12 -5t5 -12v-410q0 -130 -82 -209q-83 -80 -212 -80t-212 80q-81 80 -81 209zM347 800l129 109q8 8 20 2l61 -33q9 -5 9 -15t-8 -15
l-155 -95q-10 -5 -18 -1l-36 20q-7 4 -8 13.5t6 14.5zM147 800l129 109q8 8 20 2l61 -33q9 -5 9 -15t-8 -15l-155 -95q-10 -5 -18 -1l-36 20q-7 4 -8 13.5t6 14.5z" />
    <glyph glyph-name="uhungarumlaut" unicode="&#x171;" horiz-adv-x="545" 
d="M44 189v289q0 7 5 12t12 5h126q17 0 17 -17v-285q0 -63 65 -63q29 0 52 15q16 10 16 29v304q0 7 5 12t12 5h125q18 0 18 -17v-461q0 -7 -5.5 -12t-12.5 -5h-104q-12 0 -16 10l-13 27q-4 7 -11 1q-50 -47 -121 -47q-80 0 -125 52.5t-45 145.5zM276 589l129 109q8 8 20 2
l61 -33q9 -5 9 -15t-8 -15l-155 -95q-10 -5 -18 -1l-36 20q-7 4 -8 13.5t6 14.5zM76 589l129 109q8 8 20 2l61 -33q9 -5 9 -15t-8 -15l-155 -95q-10 -5 -18 -1l-36 20q-7 4 -8 13.5t6 14.5z" />
    <glyph glyph-name="Uogonek" unicode="&#x172;" horiz-adv-x="707" 
d="M290 -87v9q0 38 26 70q-115 10 -186 89q-70 77 -70 198v410q0 7 5.5 12t12.5 5h125q7 0 12 -5t5 -12v-410q0 -66 35 -103.5t98 -37.5q64 0 99 37.5t35 103.5v410q0 7 5 12t12 5h126q7 0 12 -5t5 -12v-410q0 -108 -58 -182q-58 -75 -154 -97q-67 -25 -67 -71v-4
q0 -52 65 -52q23 0 49 10q14 6 22 -8l11 -25q8 -17 -8 -24q-45 -19 -79 -19q-61 0 -99.5 29.5t-38.5 76.5z" />
    <glyph glyph-name="uogonek" unicode="&#x173;" horiz-adv-x="545" 
d="M302 -87v9q0 57 53 95l-9 20q-4 7 -11 1q-50 -47 -121 -47q-80 0 -125 52.5t-45 145.5v289q0 7 5 12t12 5h126q17 0 17 -17v-285q0 -63 65 -63q29 0 52 15q16 10 16 29v304q0 7 5 12t12 5h125q18 0 18 -17v-461q0 -7 -5.5 -12t-12.5 -5h-31q-68 -27 -68 -71v-4
q0 -52 65 -52q23 0 49 10q14 6 22 -8l11 -25q8 -17 -8 -24q-45 -19 -79 -19q-61 0 -99.5 29.5t-38.5 76.5z" />
    <glyph glyph-name="Ydieresis" unicode="&#x178;" horiz-adv-x="688" 
d="M268 23v187q0 10 -5 20l-251 453q-5 7 -0.5 15t14.5 8h140q12 0 20 -12l155 -297q3 -4 7 -4h1q3 0 6 4l155 297q8 12 20 12h140q10 0 14.5 -8t-0.5 -15l-251 -453q-5 -10 -5 -20v-187q0 -10 -6.5 -16.5t-16.5 -6.5h-114q-10 0 -16.5 6.5t-6.5 16.5zM204 791
q-19 19 -19 46t19 46t46 19t46 -19t19 -46t-19 -46t-46 -19t-46 19zM399 791q-19 19 -19 46t19 46t46 19t46 -19t19 -46t-19 -46t-46 -19t-46 19z" />
    <glyph glyph-name="Zacute" unicode="&#x179;" horiz-adv-x="599" 
d="M60 579v110q0 7 5 12t12 5h469q7 0 12.5 -5t5.5 -12v-7q0 -8 -4 -15l-287 -506q-2 -6 1 -11.5t9 -5.5h263q18 0 18 -18v-109q0 -17 -18 -17h-504q-7 0 -12 5t-5 12v12q0 11 5 19l281 497q3 5 0 11t-10 6h-224q-7 0 -12 5t-5 12zM202 812l126 106q14 11 30 2l76 -42
q9 -5 9 -15t-8 -15l-150 -92q-13 -9 -29 -1l-52 29q-7 4 -8 13.5t6 14.5z" />
    <glyph glyph-name="zacute" unicode="&#x17a;" horiz-adv-x="471" 
d="M45 398v80q0 7 5 12t12 5h376q7 0 12 -5t5 -12v-4q0 -9 -5 -17l-205 -325q-4 -5 -0.5 -11.5t10.5 -6.5h176q17 0 17 -17v-80q0 -7 -5 -12t-12 -5h-400q-7 0 -12 5t-5 12v4q0 9 5 17l207 325q4 6 1 12t-11 6h-154q-7 0 -12 5t-5 12zM142 601l126 106q14 11 30 2l76 -42
q9 -5 9 -15t-8 -15l-150 -92q-13 -9 -29 -1l-52 29q-7 4 -8 13.5t6 14.5z" />
    <glyph glyph-name="Zdotaccent" unicode="&#x17b;" horiz-adv-x="599" 
d="M60 579v110q0 7 5 12t12 5h469q7 0 12.5 -5t5.5 -12v-7q0 -8 -4 -15l-287 -506q-2 -6 1 -11.5t9 -5.5h263q18 0 18 -18v-109q0 -17 -18 -17h-504q-7 0 -12 5t-5 12v12q0 11 5 19l281 497q3 5 0 11t-10 6h-224q-7 0 -12 5t-5 12zM262 786q-22 22 -22 52t22 51q22 22 52 22
t52 -22q22 -21 22 -51t-22 -52q-22 -21 -52 -21t-52 21z" />
    <glyph glyph-name="zdotaccent" unicode="&#x17c;" horiz-adv-x="471" 
d="M45 398v80q0 7 5 12t12 5h376q7 0 12 -5t5 -12v-4q0 -9 -5 -17l-205 -325q-4 -5 -0.5 -11.5t10.5 -6.5h176q17 0 17 -17v-80q0 -7 -5 -12t-12 -5h-400q-7 0 -12 5t-5 12v4q0 9 5 17l207 325q4 6 1 12t-11 6h-154q-7 0 -12 5t-5 12zM201 575q-22 22 -22 52t22 51
q22 22 52 22t52 -22q22 -21 22 -51t-22 -52q-22 -21 -52 -21t-52 21z" />
    <glyph glyph-name="Zcaron" unicode="&#x17d;" horiz-adv-x="599" 
d="M60 579v110q0 7 5 12t12 5h469q7 0 12.5 -5t5.5 -12v-7q0 -8 -4 -15l-287 -506q-2 -6 1 -11.5t9 -5.5h263q18 0 18 -18v-109q0 -17 -18 -17h-504q-7 0 -12 5t-5 12v12q0 11 5 19l281 497q3 5 0 11t-10 6h-224q-7 0 -12 5t-5 12zM325 856l84 49q9 5 18 0l43 -26
q7 -5 7.5 -13.5t-6.5 -13.5l-143 -102q-4 -3 -9 -3t-9 3l-143 102q-7 5 -6.5 13.5t7.5 13.5l43 26q9 5 18 0l84 -49q6 -2 12 0z" />
    <glyph glyph-name="zcaron" unicode="&#x17e;" horiz-adv-x="471" 
d="M45 398v80q0 7 5 12t12 5h376q7 0 12 -5t5 -12v-4q0 -9 -5 -17l-205 -325q-4 -5 -0.5 -11.5t10.5 -6.5h176q17 0 17 -17v-80q0 -7 -5 -12t-12 -5h-400q-7 0 -12 5t-5 12v4q0 9 5 17l207 325q4 6 1 12t-11 6h-154q-7 0 -12 5t-5 12zM257 645l84 49q9 4 18 0l43 -26
q7 -5 7.5 -13.5t-6.5 -13.5l-143 -102q-4 -3 -9 -3t-9 3l-143 102q-7 5 -6.5 13.5t7.5 13.5l43 26q9 4 18 0l84 -49q6 -2 12 0z" />
    <glyph glyph-name="florin" unicode="&#x192;" horiz-adv-x="411" 
d="M140 507l11 64q25 144 193 144q56 0 119 -30q16 -8 6 -24l-51 -77q-3 -5 -10 -8t-12 0q-21 10 -41 10q-41 0 -47 -32l-8 -47q-2 -12 9 -12h89q15 0 17 -17l-1 -64q1 -7 -4.5 -12.5t-12.5 -5.5h-106q-11 0 -13 -11l-85 -481q-25 -144 -192 -144q-56 0 -119 30q-16 8 -6 24
l51 77q3 5 10 8t12 0q21 -10 41 -10q40 0 46 32l82 464q2 11 -10 11h-44q-16 0 -18 18l1 64q-1 7 4.5 12t13.5 5h61q12 0 14 12z" />
    <glyph glyph-name="circumflex" unicode="&#x2c6;" horiz-adv-x="400" 
d="M209 704l143 -102q7 -5 6.5 -13.5t-7.5 -13.5l-43 -26q-9 -5 -18 0l-84 49q-6 2 -12 0l-84 -49q-9 -5 -18 0l-43 26q-7 5 -7.5 13.5t6.5 13.5l143 102q9 5 18 0z" />
    <glyph glyph-name="caron" unicode="&#x2c7;" horiz-adv-x="200" 
d="M108 645l84 49q9 4 18 0l43 -26q7 -5 7.5 -13.5t-6.5 -13.5l-143 -102q-9 -5 -18 0l-143 102q-7 5 -6.5 13.5t7.5 13.5l43 26q9 4 18 0l84 -49q6 -2 12 0z" />
    <glyph glyph-name="breve" unicode="&#x2d8;" horiz-adv-x="400" 
d="M282 687q8 14 21 5l49 -28q6 -2 7.5 -9.5t-2.5 -13.5q-11 -16 -29 -36q-16 -16 -53 -36q-34 -18 -74 -18q-55 0 -96 29q-38 28 -60 61q-4 6 -2.5 13.5t7.5 9.5l49 28q13 9 21 -5q31 -43 81 -43t81 43z" />
    <glyph glyph-name="dotaccent" unicode="&#x2d9;" horiz-adv-x="400" 
d="M148 575q-22 22 -22 52t22 51q22 22 52 22t52 -22q22 -21 22 -51t-22 -52q-22 -21 -52 -21t-52 21z" />
    <glyph glyph-name="ring" unicode="&#x2da;" horiz-adv-x="400" 
d="M132 691q28 26 68 26t68 -26q27 -25 27 -65t-27 -66q-26 -25 -68 -25t-68 25q-27 26 -27 66t27 65zM160 626q0 -41 40 -41t40 41t-40 41t-40 -41z" />
    <glyph glyph-name="ogonek" unicode="&#x2db;" horiz-adv-x="400" 
d="M87 -87v9q0 44 35.5 79.5t99.5 55.5q9 3 15.5 -2t6.5 -13v-26q0 -11 -11 -16q-68 -27 -68 -71v-4q0 -52 65 -52q23 0 49 10q14 6 22 -8l11 -25q8 -17 -8 -24q-45 -19 -79 -19q-61 0 -99.5 29.5t-38.5 76.5z" />
    <glyph glyph-name="tilde" unicode="&#x2dc;" horiz-adv-x="400" 
d="M217 670q28 -15 47 -15q26 0 51 18q13 9 22 -5l29 -47q7 -11 -2 -20q-43 -46 -100 -46q-34 0 -71 19q-25 15 -47 15q-23 0 -47 -15q-12 -8 -21 6l-29 47q-7 10 2 19q40 43 95 43q36 0 71 -19z" />
    <glyph glyph-name="hungarumlaut" unicode="&#x2dd;" horiz-adv-x="400" 
d="M195 589l129 109q8 8 20 2l61 -33q9 -5 9 -15t-8 -15l-155 -95q-10 -5 -18 -1l-36 20q-7 4 -8 13.5t6 14.5zM-5 589l129 109q8 8 20 2l61 -33q9 -5 9 -15t-8 -15l-155 -95q-10 -5 -18 -1l-36 20q-7 4 -8 13.5t6 14.5z" />
    <glyph glyph-name="pi" unicode="&#x3c0;" horiz-adv-x="574" 
d="M37 495h500q7 0 12 -5t5 -12v-65q0 -7 -5 -12t-12 -5h-40q-11 0 -11 -12v-367q0 -17 -18 -17h-125q-17 0 -17 17v367q0 12 -12 12h-54q-11 0 -11 -12v-367q0 -17 -18 -17h-125q-18 0 -18 17v367q0 12 -11 12h-40q-7 0 -12 5t-5 12v65q0 7 5 12t12 5z" />
    <glyph glyph-name="endash" unicode="&#x2013;" horiz-adv-x="472" 
d="M57 307h357q7 0 12.5 -5t5.5 -12v-84q0 -7 -5.5 -12t-12.5 -5h-357q-7 0 -12 5t-5 12v84q0 7 5 12t12 5z" />
    <glyph glyph-name="emdash" unicode="&#x2014;" horiz-adv-x="802" 
d="M37 307h727q7 0 12.5 -5t5.5 -12v-84q0 -7 -5.5 -12t-12.5 -5h-727q-7 0 -12 5t-5 12v84q0 7 5 12t12 5z" />
    <glyph glyph-name="quoteleft" unicode="&#x2018;" horiz-adv-x="208" 
d="M186 551q0 -30 -21 -51.5t-52 -21.5q-32 0 -52.5 21t-20.5 52q0 44 28.5 92t72.5 82q13 10 28 6l11 -4q6 -2 7.5 -9.5t-3.5 -13.5q-29 -38 -29 -63q0 -26 15 -44q16 -19 16 -46z" />
    <glyph glyph-name="quoteright" unicode="&#x2019;" horiz-adv-x="208" 
d="M43 640q0 30 20.5 51t52.5 21q31 0 52 -21t21 -51q0 -44 -28.5 -92t-72.5 -82q-14 -14 -28 -6l-11 4q-6 2 -7.5 9.5t3.5 13.5q29 38 29 63q0 26 -15 44q-16 19 -16 46z" />
    <glyph glyph-name="quotesinglbase" unicode="&#x201a;" horiz-adv-x="208" 
d="M23 73q0 30 21 51t52 21q32 0 52.5 -21t20.5 -51q0 -44 -28.5 -92t-72.5 -82q-14 -14 -28 -6l-11 4q-6 2 -7.5 9.5t3.5 13.5q30 39 30 63q0 25 -16 44q-16 22 -16 46z" />
    <glyph glyph-name="quotedblleft" unicode="&#x201c;" horiz-adv-x="394" 
d="M186 551q0 -30 -21 -51.5t-52 -21.5q-32 0 -52.5 21t-20.5 52q0 44 28.5 92t72.5 82q13 10 28 6l11 -4q6 -2 7.5 -9.5t-3.5 -13.5q-29 -38 -29 -63q0 -26 15 -44q16 -22 16 -46zM372 551q0 -31 -20.5 -52t-52.5 -21q-31 0 -52 21.5t-21 51.5q0 44 28.5 92t72.5 82
q13 10 28 6l11 -4q6 -2 7.5 -9.5t-3.5 -13.5q-29 -38 -29 -63q0 -26 15 -44q16 -19 16 -46z" />
    <glyph glyph-name="quotedblright" unicode="&#x201d;" horiz-adv-x="394" 
d="M43 640q0 30 20.5 51t52.5 21q31 0 52 -21t21 -51q0 -44 -28.5 -92t-72.5 -82q-14 -14 -28 -6l-11 4q-6 2 -7.5 9.5t3.5 13.5q29 38 29 63q0 26 -15 44q-16 22 -16 46zM229 640q0 30 21 51t52 21q32 0 52.5 -21t20.5 -51q0 -44 -28.5 -92t-72.5 -82q-14 -14 -28 -6l-11 4
q-6 2 -7.5 9.5t3.5 13.5q29 38 29 63q0 26 -15 44q-16 19 -16 46z" />
    <glyph glyph-name="quotedblbase" unicode="&#x201e;" horiz-adv-x="395" 
d="M23 73q0 30 21 51t52 21q32 0 52.5 -21t20.5 -51q0 -44 -28.5 -92t-72.5 -82q-14 -14 -28 -6l-11 4q-6 2 -7.5 9.5t3.5 13.5q30 39 30 63q0 25 -16 44q-16 22 -16 46zM209 73q0 30 21 51t53 21q31 0 52 -21t21 -51q0 -44 -28.5 -91.5t-73.5 -82.5q-14 -14 -28 -6l-11 4
q-6 2 -7.5 9.5t3.5 13.5q30 39 30 63q0 25 -15 44q-17 23 -17 46z" />
    <glyph glyph-name="dagger" unicode="&#x2020;" horiz-adv-x="507" 
d="M174 551v107q0 7 5 12.5t12 5.5h125q7 0 12 -5.5t5 -12.5v-107q0 -12 11 -12h106q17 0 17 -17v-64q0 -18 -17 -18h-106q-11 0 -11 -11v-381q0 -7 -5 -12.5t-12 -5.5h-125q-7 0 -12 5.5t-5 12.5v381q0 11 -12 11h-105q-17 0 -17 18v64q0 17 17 17h105q12 0 12 12z" />
    <glyph glyph-name="daggerdbl" unicode="&#x2021;" horiz-adv-x="507" 
d="M174 551v107q0 7 5 12.5t12 5.5h125q7 0 12 -5.5t5 -12.5v-107q0 -12 11 -12h106q17 0 17 -17v-64q0 -18 -17 -18h-106q-11 0 -11 -11v-154q1 -9 12 -9h104q17 0 17 -18v-64q0 -17 -17 -17h-104q-12 0 -12 -12v-107q0 -7 -5 -12.5t-12 -5.5h-125q-7 0 -12 5.5t-5 12.5
v107q0 12 -11 12h-105q-17 0 -17 17v64q0 18 17 18h105q11 0 11 11v152q0 11 -12 11h-105q-17 0 -17 18v64q0 17 17 17h105q12 0 12 12z" />
    <glyph glyph-name="bullet" unicode="&#x2022;" horiz-adv-x="504" 
d="M130 235q-50 50 -50 121q0 70 50 120q52 50 122 50q71 0 121 -50q51 -50 51 -120q0 -72 -51 -121q-49 -49 -121 -49t-122 49z" />
    <glyph glyph-name="ellipsis" unicode="&#x2026;" horiz-adv-x="786" 
d="M70 19q-25 25 -25 61t25 60q25 25 61 25t61 -25q25 -24 25 -60t-25 -61q-25 -24 -61 -24t-61 24zM332 19q-25 25 -25 61t25 60q25 25 61 25t61 -25q25 -24 25 -60t-25 -61q-25 -24 -61 -24t-61 24zM594 19q-25 25 -25 61t25 60q25 25 61 25t61 -25q25 -24 25 -60t-25 -61
q-25 -24 -61 -24t-61 24z" />
    <glyph glyph-name="perthousand" unicode="&#x2030;" horiz-adv-x="1326" 
d="M162 29l440 657q14 20 39 20h98q12 0 17 -10t-1 -19l-440 -657q-14 -20 -39 -20h-98q-12 0 -17 10t1 19zM414 535v-3q0 -77 -54 -128q-53 -50 -133 -50q-79 0 -134 50q-53 51 -53 128v3q0 77 54 126q54 51 133 51t133 -51q54 -49 54 -126zM305 532v3q0 37 -21 57.5
t-57 20.5q-37 0 -57.5 -20.5t-20.5 -57.5v-3q0 -38 20.5 -58.5t57.5 -20.5t57.5 20.5t20.5 58.5zM876 175v-3q0 -77 -54 -128q-53 -50 -133 -50q-79 0 -134 50q-53 51 -53 128v3q0 77 54 126q54 51 133 51t133 -51q54 -49 54 -126zM767 172v3q0 37 -21 57.5t-57 20.5
q-37 0 -57.5 -20.5t-20.5 -57.5v-3q0 -38 20.5 -58.5t57.5 -20.5t57.5 20.5t20.5 58.5zM1286 175v-3q0 -77 -54 -128q-53 -50 -133 -50q-79 0 -134 50q-53 51 -53 128v3q0 77 54 126q54 51 133 51t133 -51q54 -49 54 -126zM1177 172v3q0 37 -21 57.5t-57 20.5
q-37 0 -57.5 -20.5t-20.5 -57.5v-3q0 -38 20.5 -58.5t57.5 -20.5t57.5 20.5t20.5 58.5z" />
    <glyph glyph-name="guilsinglleft" unicode="&#x2039;" horiz-adv-x="278" 
d="M40 250q0 6 3 10l111 155q5 8 14 8h61q6 0 8 -4.5t-1 -8.5l-89 -153q-5 -7 0 -14l89 -153q3 -4 1 -8.5t-8 -4.5h-61q-9 0 -14 8l-111 155q-3 4 -3 10z" />
    <glyph glyph-name="guilsinglright" unicode="&#x203a;" horiz-adv-x="278" 
d="M240 250q0 -6 -3 -10l-111 -155q-5 -8 -14 -8h-61q-6 0 -8 4.5t1 8.5l89 153q5 7 0 14l-89 153q-3 4 -1 8.5t8 4.5h61q9 0 14 -8l111 -155q3 -4 3 -10z" />
    <glyph glyph-name="fraction" unicode="&#x2044;" horiz-adv-x="442" 
d="M19 23l300 666q6 17 25 17h72q10 0 15 -7t2 -16l-300 -666q-6 -17 -25 -17h-72q-10 0 -15.5 7t-1.5 16z" />
    <glyph glyph-name="zerosuperior" unicode="&#x2070;" horiz-adv-x="382" 
d="M35 538v164q0 71 43.5 115.5t112.5 44.5t112.5 -44.5t43.5 -115.5v-164q0 -70 -44 -116q-43 -45 -112 -45t-113 45q-43 44 -43 116zM148 700v-159q0 -36 10 -49.5t33 -13.5t33 14.5t10 48.5v159q0 33 -10 47.5t-33 14.5q-43 0 -43 -62z" />
    <glyph glyph-name="foursuperior" unicode="&#x2074;" horiz-adv-x="376" 
d="M21 561l172 287q5 8 15 8h72q7 0 12.5 -5t5.5 -12v-253q0 -12 11 -12h15q7 0 12 -5t5 -12v-56q0 -17 -17 -17h-15q-11 0 -11 -12v-71q0 -7 -5 -12.5t-13 -5.5h-78q-7 0 -12 5.5t-5 12.5v71q0 12 -12 12h-140q-18 0 -18 17v40q0 11 6 20zM170 638l-29 -50q-3 -5 -0.5 -9.5
t9.5 -4.5h23q12 0 12 12v48q0 7 -5.5 8.5t-9.5 -4.5z" />
    <glyph glyph-name="fivesuperior" unicode="&#x2075;" horiz-adv-x="355" 
d="M59 607v232q0 7 5.5 12t12.5 5h213q7 0 12 -5t5 -12v-70q0 -7 -5 -12t-12 -5h-118q-11 0 -11 -12v-30q0 -11 11 -11h7q67 0 106.5 -41t39.5 -109v-12q0 -68 -52 -114q-50 -46 -125 -46q-52 0 -98 25q-13 7 -8 21l23 59q7 15 24 9q21 -10 51 -10q29 0 48 17t19 42v6
q3 40 -40.5 54.5t-81.5 -9.5q-9 -3 -17.5 2t-8.5 14z" />
    <glyph glyph-name="sixsuperior" unicode="&#x2076;" horiz-adv-x="383" 
d="M215 684q61 0 97 -39.5t36 -104.5v-11q0 -66 -46 -109t-114 -43t-110.5 43t-42.5 113v170q0 69 49 114q50 45 123 45q51 0 98 -24q13 -8 9 -21l-24 -59q-3 -7 -10.5 -10t-14.5 0q-23 10 -50 10q-29 0 -48 -16.5t-19 -41.5v-20q0 -12 11 -7q25 11 56 11zM192 591
q-47 0 -47 -54v-6q0 -53 43 -53q22 0 34 14t12 39v6q0 54 -42 54z" />
    <glyph glyph-name="sevensuperior" unicode="&#x2077;" horiz-adv-x="304" 
d="M10 769v70q0 7 5 12t12 5h249q7 0 12.5 -5t5.5 -12v-47q0 -12 -6 -26l-140 -371q-4 -12 -16 -12h-84q-9 0 -14.5 7.5t-1.5 16.5l134 329q7 16 -10 16h-129q-7 0 -12 5t-5 12z" />
    <glyph glyph-name="eightsuperior" unicode="&#x2078;" horiz-adv-x="373" 
d="M187 862q65 0 107 -39q43 -39 43 -99v-6q0 -43 -32 -81q-6 -6 0 -12q43 -40 43 -94v-12q0 -62 -46 -102q-47 -41 -115 -41q-69 0 -116 41q-46 40 -46 102v12q0 54 43 94q6 6 0 12q-32 35 -32 81v6q0 60 42.5 99t108.5 39zM187 762q-37 0 -37 -45v-6q0 -16 10 -28.5
t27 -12.5t26.5 12.5t9.5 28.5v6q0 45 -36 45zM187 586q-19 0 -30 -13.5t-11 -33.5v-14q0 -22 11 -35t30 -13q40 0 40 48v14q0 20 -11 33.5t-29 13.5z" />
    <glyph glyph-name="ninesuperior" unicode="&#x2079;" horiz-adv-x="383" 
d="M168 555q-61 0 -97 39.5t-36 104.5v11q0 65 46 108q47 44 114 44q68 0 110.5 -43t42.5 -113v-170q0 -69 -49 -114t-123 -45q-52 0 -98 24q-14 7 -9 21l24 59q3 7 10.5 10t14.5 0q23 -10 50 -10q29 0 48 16.5t19 41.5v20q0 12 -11 7q-25 -11 -56 -11zM191 648q47 0 47 54
v6q0 53 -43 53q-22 0 -34 -14t-12 -39v-6q0 -54 42 -54z" />
    <glyph glyph-name="zeroinferior" unicode="&#x2080;" horiz-adv-x="382" 
d="M35 5v164q0 71 43.5 115.5t112.5 44.5t112.5 -44.5t43.5 -115.5v-164q0 -70 -44 -116q-43 -45 -112 -45t-113 45q-43 44 -43 116zM148 167v-159q0 -36 10 -49.5t33 -13.5t33 14.5t10 48.5v159q0 33 -10 47.5t-33 14.5q-43 0 -43 -62z" />
    <glyph glyph-name="oneinferior" unicode="&#x2081;" horiz-adv-x="264" 
d="M109 323h73q7 0 12 -5t5 -12v-438q0 -7 -5 -12.5t-12 -5.5h-79q-7 0 -12 5.5t-5 12.5v339q0 12 -11 12h-7q-9 0 -14.5 9t-0.5 17l41 70q5 8 15 8z" />
    <glyph glyph-name="twoinferior" unicode="&#x2082;" horiz-adv-x="364" 
d="M161 329q78 0 123 -40t45 -109v-11q0 -48 -68 -128l-57 -67q-5 -5 -2.5 -12t10.5 -7h90q17 0 17 -18v-69q0 -18 -17 -18h-249q-7 0 -12.5 5t-5.5 13v49q0 9 8 20l130 158q38 46 38 69v9q0 24 -16 38.5t-44 14.5q-30 0 -57 -12q-18 -8 -24 9l-23 58q-5 14 8 21
q52 27 106 27z" />
    <glyph glyph-name="threeinferior" unicode="&#x2083;" horiz-adv-x="355" 
d="M148 -156q-51 0 -98 25q-13 7 -8 21l23 59q7 15 24 9q24 -10 52 -10t47 16.5t19 41.5v6q0 26 -18.5 43t-47.5 17q-13 0 -38 -5q-11 -3 -19 8l-9 14q-7 10 2 20l76 91q5 5 1.5 12t-10.5 7h-71q-7 0 -12 5t-5 12v70q0 7 5 12t12 5h223q7 0 12.5 -5t5.5 -12v-54
q0 -10 -7 -17l-79 -85q43 -12 70 -49t27 -87v-11q0 -68 -51 -113q-49 -46 -126 -46z" />
    <glyph glyph-name="fourinferior" unicode="&#x2084;" horiz-adv-x="376" 
d="M21 28l172 287q5 8 15 8h72q7 0 12.5 -5t5.5 -12v-253q0 -12 11 -12h15q7 0 12 -5t5 -12v-56q0 -17 -17 -17h-15q-11 0 -11 -12v-71q0 -18 -18 -18h-78q-7 0 -12 5.5t-5 12.5v71q0 12 -12 12h-140q-18 0 -18 17v40q0 11 6 20zM170 105l-29 -50q-3 -5 -0.5 -9.5t9.5 -4.5
h23q12 0 12 12v48q0 7 -5.5 8.5t-9.5 -4.5z" />
    <glyph glyph-name="fiveinferior" unicode="&#x2085;" horiz-adv-x="355" 
d="M59 74v232q0 7 5.5 12t12.5 5h213q7 0 12 -5t5 -12v-70q0 -7 -5 -12t-12 -5h-118q-11 0 -11 -12v-30q0 -11 11 -11h7q67 0 106.5 -41t39.5 -109v-12q0 -67 -52 -113q-52 -47 -125 -47q-52 0 -98 25q-13 7 -8 21l23 59q7 15 24 9q21 -10 51 -10q29 0 48 17t19 42v6
q3 40 -40.5 54.5t-81.5 -9.5q-9 -3 -17.5 2t-8.5 14z" />
    <glyph glyph-name="sixinferior" unicode="&#x2086;" horiz-adv-x="383" 
d="M215 151q61 0 97 -39.5t36 -104.5v-11q0 -65 -46 -108q-47 -44 -114 -44q-68 0 -110.5 43t-42.5 113v170q0 69 49 114q50 45 123 45q51 0 98 -24q13 -7 9 -21l-24 -59q-3 -7 -10.5 -10t-14.5 0q-23 10 -50 10q-29 0 -48 -16.5t-19 -41.5v-20q0 -12 11 -7q25 11 56 11z
M192 58q-47 0 -47 -54v-6q0 -53 43 -53q22 0 34 14t12 39v6q0 54 -42 54z" />
    <glyph glyph-name="seveninferior" unicode="&#x2087;" horiz-adv-x="304" 
d="M10 236v70q0 7 5 12t12 5h249q7 0 12.5 -5t5.5 -12v-47q0 -13 -6 -26l-140 -371q-4 -12 -16 -12h-84q-9 0 -14.5 7.5t-1.5 16.5l134 329q7 16 -10 16h-129q-7 0 -12 5t-5 12z" />
    <glyph glyph-name="eightinferior" unicode="&#x2088;" horiz-adv-x="373" 
d="M187 329q65 0 107 -39q43 -39 43 -99v-6q0 -43 -32 -81q-6 -6 0 -12q43 -40 43 -94v-12q0 -62 -46 -102q-47 -41 -115 -41q-69 0 -116 41q-46 40 -46 102v12q0 54 43 94q6 6 0 12q-32 35 -32 81v6q0 60 42.5 99t108.5 39zM187 229q-37 0 -37 -45v-6q0 -16 10 -28.5
t27 -12.5t26.5 12.5t9.5 28.5v6q0 45 -36 45zM187 53q-19 0 -30 -13.5t-11 -33.5v-14q0 -22 11 -35t30 -13q40 0 40 48v14q0 20 -11 33.5t-29 13.5z" />
    <glyph glyph-name="nineinferior" unicode="&#x2089;" horiz-adv-x="383" 
d="M168 22q-61 0 -97 39.5t-36 104.5v11q0 65 46 108q47 44 114 44q68 0 110.5 -43t42.5 -113v-170q0 -69 -49 -114t-123 -45q-52 0 -98 24q-14 8 -9 21l24 59q3 7 10.5 10t14.5 0q23 -10 50 -10q29 0 48 16.5t19 41.5v20q0 12 -11 7q-25 -11 -56 -11zM191 115q47 0 47 54v6
q0 53 -43 53q-22 0 -34 -14t-12 -39v-6q0 -54 42 -54z" />
    <glyph glyph-name="Euro" unicode="&#x20ac;" horiz-adv-x="614" 
d="M40 318v5v58v9h-25q-7 0 -12.5 5.5t-5.5 12.5v37q0 7 5.5 12t12.5 5h33q26 117 113 185q89 69 213 69q116 0 203 -66q13 -10 3 -25l-71 -93q-13 -15 -26 -2q-44 38 -109 38q-59 0 -100.5 -28t-58.5 -78h178q7 0 12 -5t5 -12v-38q0 -7 -5 -12t-12 -5h-191v-9v-58v-5h191
q7 0 12 -5t5 -12v-38q0 -7 -5 -12t-12 -5h-179q18 -52 59.5 -80t100.5 -28q62 0 108 37q14 13 25 -1l73 -95q5 -5 4 -13t-7 -12q-83 -64 -203 -64q-128 0 -216 69q-89 71 -111 187h-32q-7 0 -12.5 5.5t-5.5 12.5v37q0 7 5.5 12t12.5 5h25z" />
    <glyph glyph-name="trademark" unicode="&#x2122;" horiz-adv-x="829" 
d="M40 605v91q0 10 10 10h282q10 0 10 -10v-91q0 -10 -10 -10h-72q-6 0 -6 -7v-268q0 -10 -10 -10h-107q-9 0 -9 10v268q0 7 -7 7h-71q-10 0 -10 10zM357 320l47 378q2 8 10 8h42q7 0 8 -4l97 -152q2 -2 3 -2q2 0 4 2l96 152q3 4 10 4h41q7 0 9 -8l49 -378q1 -10 -10 -10
h-102q-7 0 -9 8l-18 148q0 3 -3 3.5t-5 -1.5l-54 -74q-3 -5 -8 -5t-8 5l-54 74q-6 6 -8 -2l-17 -148q-2 -8 -10 -8h-100q-4 0 -7.5 3t-2.5 7z" />
    <glyph glyph-name="Omega" unicode="&#x2126;" horiz-adv-x="738" 
d="M703 382v-38q0 -91 -88 -185q-4 -4 -1.5 -9.5t9.5 -5.5h43q18 0 18 -18v-109q0 -17 -18 -17h-244q-7 0 -12 5t-5 12v82q0 17 12 26q69 44 96.5 96t27.5 123v38q0 88 -46 137t-126 49t-126 -49t-46 -137v-38q0 -71 27.5 -123t96.5 -96q12 -9 12 -26v-82q0 -7 -5 -12
t-12 -5h-244q-18 0 -18 17v109q0 18 18 18h43q7 0 9.5 5.5t-1.5 9.5q-88 94 -88 185v38q0 148 93 241t241 93t241 -93t93 -241z" />
    <glyph glyph-name="partialdiff" unicode="&#x2202;" horiz-adv-x="564" 
d="M30 221v54q0 104 62 169q63 64 148 64q62 0 109 -30q3 -2 5.5 -0.5t1.5 5.5q-1 1 -7 12t-16.5 24.5t-27 32t-45.5 41.5t-66 46q-7 4 -9.5 12t3.5 15l59 76q11 13 25 5l43 -28l15 -10l25 -18q31 -22 42 -34l36 -38q8 -8 14.5 -16.5l10.5 -14t9.5 -16.5l7.5 -15t9 -19
t9 -20q36 -79 41 -243v-54q0 -99 -73 -166q-71 -67 -179 -67q-107 0 -180 67q-72 67 -72 166zM186 275v-54q0 -45 26.5 -73t69.5 -28t69.5 28t26.5 73v54q0 45 -26.5 73t-69.5 28t-69.5 -28t-26.5 -73z" />
    <glyph glyph-name="increment" unicode="&#x2206;" horiz-adv-x="742" 
d="M334 706h80q16 0 21 -14l278 -671q3 -7 -1.5 -14t-12.5 -7h-650q-8 0 -12.5 7t-1.5 14l278 671q5 14 21 14zM367 442l-111 -281q-2 -6 1 -11.5t9 -5.5h216q6 0 9 5.5t1 11.5l-111 281q-2 5 -7 5t-7 -5z" />
    <glyph glyph-name="product" unicode="&#x220f;" horiz-adv-x="724" 
d="M37 706h650q7 0 12 -5t5 -12v-110q0 -7 -5 -12t-12 -5h-60q-11 0 -11 -12v-533q0 -17 -18 -17h-125q-17 0 -17 17v533q0 12 -12 12h-164q-11 0 -11 -12v-533q0 -17 -18 -17h-125q-18 0 -18 17v533q0 12 -11 12h-60q-7 0 -12 5t-5 12v110q0 7 5 12t12 5z" />
    <glyph glyph-name="summation" unicode="&#x2211;" horiz-adv-x="620" 
d="M40 706h506q7 0 12 -5t5 -12v-110q0 -7 -5 -12t-12 -5h-281q-7 0 -10 -6t0 -11l130 -177q8 -11 0 -22l-132 -185q-2 -6 1 -11.5t9 -5.5h283q18 0 18 -18v-109q0 -17 -18 -17h-504q-7 0 -12 5t-5 12v62q0 13 8 24l190 244q9 11 0 22l-195 244q-6 9 -6 19v57q0 7 5.5 12
t12.5 5z" />
    <glyph glyph-name="minus" unicode="&#x2212;" horiz-adv-x="573" 
d="M506 297h-438q-7 0 -12.5 5.5t-5.5 12.5v77q0 7 5.5 12t12.5 5h438q7 0 12 -5t5 -12v-78q0 -7 -5 -12t-12 -5z" />
    <glyph glyph-name="radical" unicode="&#x221a;" horiz-adv-x="586" 
d="M10 308v78q0 7 5 12t12 5h190q17 0 23 -16l46 -126q2 -6 7 -6t7 6l146 429q4 16 23 16h100q8 0 13 -7t2 -14l-252 -670q-4 -15 -21 -15h-38q-13 0 -21 15l-102 260q-6 16 -23 16h-100q-7 0 -12 5t-5 12z" />
    <glyph glyph-name="infinity" unicode="&#x221e;" horiz-adv-x="810" 
d="M227 523q76 0 168 -86q10 -10 20 0q48 45 86.5 65.5t86.5 20.5q74 0 123 -49q49 -48 49 -123q0 -71 -51 -123q-51 -51 -126 -51q-77 0 -168 85q-10 10 -20 0q-46 -44 -85 -64.5t-88 -20.5q-74 0 -123 48q-49 49 -49 124q0 71 51 122q51 52 126 52zM227 412
q-26 0 -44 -18.5t-18 -44.5t17 -43.5t42 -17.5q34 0 93 53q9 9 0 18q-58 53 -90 53zM586 412q-35 0 -93 -53q-9 -9 0 -18q58 -53 90 -53q26 0 44 18.5t18 44.5t-17 43.5t-42 17.5z" />
    <glyph glyph-name="integral" unicode="&#x222b;" horiz-adv-x="331" 
d="M89 -19v760q0 144 168 144q41 0 85 -12q18 -4 13 -23l-25 -84q-4 -16 -21 -12q-18 2 -19 2q-41 0 -41 -32v-760q0 -144 -168 -144q-41 0 -85 12q-18 4 -13 23l25 84q4 17 21 12q18 -2 19 -2q41 0 41 32z" />
    <glyph glyph-name="approxequal" unicode="&#x2248;" horiz-adv-x="573" 
d="M182 518q52 0 114 -25q64 -24 115 -24q28 0 82 23q6 2 13 -0.5t9 -9.5l17 -58q3 -13 -7 -20q-67 -42 -129 -42q-50 0 -115 24q-62 25 -114 25q-28 0 -82 -23q-6 -2 -13 0.5t-9 9.5l-17 58q-3 13 7 20q67 42 129 42zM182 344q52 0 114 -25q64 -24 115 -24q28 0 82 23
q6 2 13 -0.5t9 -9.5l17 -58q3 -13 -7 -20q-67 -42 -129 -42q-50 0 -115 24q-62 25 -114 25q-28 0 -82 -23q-6 -2 -13 0.5t-9 9.5l-17 58q-3 13 7 20q67 42 129 42z" />
    <glyph glyph-name="notequal" unicode="&#x2260;" horiz-adv-x="573" 
d="M79 59l76 151h-87q-7 0 -12.5 5.5t-5.5 12.5v77q0 7 5.5 12t12.5 5h143l31 62h-174q-7 0 -12.5 5.5t-5.5 12.5v77q0 7 5.5 12t12.5 5h230l81 160q11 20 39 20h69q12 0 17 -9.5t-1 -19.5l-76 -151h79q7 0 12 -5t5 -12v-78q0 -7 -5 -12t-12 -5h-135l-31 -62h166q7 0 12 -5
t5 -12v-78q0 -7 -5 -12t-12 -5h-223l-80 -160q-14 -20 -39 -20h-69q-12 0 -17 9.5t1 19.5z" />
    <glyph glyph-name="lessequal" unicode="&#x2264;" horiz-adv-x="573" 
d="M65 497l437 168q7 3 14 -2t7 -13v-74q0 -19 -16 -23l-252 -92q-6 -1 -6 -7t6 -7l252 -91q16 -3 16 -22v-74q0 -8 -6.5 -13t-14.5 -3l-437 167q-15 5 -15 21v44q0 16 15 21zM505 97h-438q-7 0 -12 5t-5 12v78q0 7 5 12t12 5h438q7 0 12.5 -5t5.5 -12v-77q0 -7 -5.5 -12.5
t-12.5 -5.5z" />
    <glyph glyph-name="greaterequal" unicode="&#x2265;" horiz-adv-x="573" 
d="M71 665l437 -168q15 -5 15 -21v-44q0 -16 -15 -21l-437 -167q-8 -2 -14.5 3t-6.5 13v74q0 19 16 22l252 91q6 1 6 7t-6 7l-252 92q-16 4 -16 23v74q0 8 7 13t14 2zM506 97h-438q-7 0 -12.5 5.5t-5.5 12.5v77q0 7 5.5 12t12.5 5h438q7 0 12 -5t5 -12v-78q0 -7 -5 -12
t-12 -5z" />
    <glyph glyph-name="lozenge" unicode="&#x25ca;" horiz-adv-x="550" 
d="M18 359l179 332q9 15 21 15h124q12 0 21 -15l179 -332q5 -11 0 -20l-179 -324q-9 -15 -21 -15h-124q-12 0 -21 15l-179 324q-5 9 0 20zM273 547l-96 -191q-4 -7 0 -14l96 -183q7 -14 14 0l96 183q3 6 0 14l-96 191q-7 14 -14 0z" />
    <glyph glyph-name="commaaccent" unicode="&#xf6c3;" horiz-adv-x="400" 
d="M149 -119q0 24 17.5 41.5t44.5 17.5q26 0 43 -17.5t17 -41.5q0 -37 -23.5 -76.5t-60.5 -68.5q-13 -9 -23 -5l-10 4q-12 7 -3 19q41 53 12 88q-14 20 -14 39z" />
    <glyph glyph-name="NULL" horiz-adv-x="0" 
 />
    <glyph glyph-name="CR" horiz-adv-x="333" 
 />
    <glyph glyph-name="R.alt" horiz-adv-x="647" 
d="M65 17v672q0 7 5.5 12t12.5 5h310q85 0 146 -67q62 -67 62 -157v-7q0 -64 -30 -114.5t-82 -80.5q-10 -5 -5 -16l121 -239q4 -8 -1 -16.5t-15 -8.5h-136q-12 0 -16 10l-109 229q-4 12 -20 12h-71q-12 0 -12 -12v-222q0 -17 -17 -17h-125q-18 0 -18 17zM225 550v-165
q0 -12 12 -12h101q40 0 63.5 25t23.5 67v7q0 42 -23.5 66t-64.5 24h-100q-12 0 -12 -12z" />
    <glyph glyph-name="Racute.alt" horiz-adv-x="647" 
d="M65 17v672q0 7 5.5 12t12.5 5h310q85 0 146 -67q62 -67 62 -157v-7q0 -64 -30 -114.5t-82 -80.5q-10 -5 -5 -16l121 -239q4 -8 -1 -16.5t-15 -8.5h-136q-12 0 -16 10l-109 229q-4 12 -20 12h-71q-12 0 -12 -12v-222q0 -17 -17 -17h-125q-18 0 -18 17zM225 550v-165
q0 -12 12 -12h101q40 0 63.5 25t23.5 67v7q0 42 -23.5 66t-64.5 24h-100q-12 0 -12 -12zM209 812l126 106q14 11 30 2l76 -42q9 -5 9 -15t-8 -15l-150 -92q-13 -9 -29 -1l-52 29q-7 4 -8 13.5t6 14.5z" />
    <glyph glyph-name="Rcaron.alt" horiz-adv-x="647" 
d="M65 17v672q0 7 5.5 12t12.5 5h310q85 0 146 -67q62 -67 62 -157v-7q0 -64 -30 -114.5t-82 -80.5q-10 -5 -5 -16l121 -239q4 -8 -1 -16.5t-15 -8.5h-136q-12 0 -16 10l-109 229q-4 12 -20 12h-71q-12 0 -12 -12v-222q0 -17 -17 -17h-125q-18 0 -18 17zM225 550v-165
q0 -12 12 -12h101q40 0 63.5 25t23.5 67v7q0 42 -23.5 66t-64.5 24h-100q-12 0 -12 -12zM325 856l84 49q9 5 18 0l43 -26q7 -5 7.5 -13.5t-6.5 -13.5l-143 -102q-4 -3 -9 -3t-9 3l-143 102q-7 5 -6.5 13.5t7.5 13.5l43 26q9 5 18 0l84 -49q6 -2 12 0z" />
    <glyph glyph-name="Rcommaaccent.alt" horiz-adv-x="647" 
d="M65 17v672q0 7 5.5 12t12.5 5h310q85 0 146 -67q62 -67 62 -157v-7q0 -64 -30 -114.5t-82 -80.5q-10 -5 -5 -16l121 -239q4 -8 -1 -16.5t-15 -8.5h-136q-12 0 -16 10l-109 229q-4 12 -20 12h-71q-12 0 -12 -12v-222q0 -17 -17 -17h-125q-18 0 -18 17zM225 550v-165
q0 -12 12 -12h101q40 0 63.5 25t23.5 67v7q0 42 -23.5 66t-64.5 24h-100q-12 0 -12 -12zM264 -119q0 24 17.5 41.5t44.5 17.5q26 0 43 -17.5t17 -41.5q0 -37 -23.5 -76.5t-60.5 -68.5q-13 -9 -23 -5l-10 4q-12 7 -3 19q41 53 12 88q-14 20 -14 39z" />
    <glyph glyph-name="Y.alt" horiz-adv-x="685" 
d="M254 262l-227 421q-4 7 0.5 15t13.5 8h135q14 0 21 -13l143 -283q3 -6 10 -6t10 6l157 284q6 12 20 12h130q10 0 14.5 -7.5t0.5 -15.5l-369 -671q-6 -12 -20 -12h-131q-9 0 -13.5 8t-0.5 15l106 193q13 22 0 46z" />
    <glyph glyph-name="Yacute.alt" horiz-adv-x="685" 
d="M254 262l-227 421q-4 7 0.5 15t13.5 8h135q14 0 21 -13l143 -283q3 -6 10 -6t10 6l157 284q6 12 20 12h130q10 0 14.5 -7.5t0.5 -15.5l-369 -671q-6 -12 -20 -12h-131q-9 0 -13.5 8t-0.5 15l106 193q13 22 0 46zM233 812l126 106q14 11 30 2l76 -42q9 -5 9 -15t-8 -15
l-150 -92q-13 -9 -29 -1l-52 29q-7 4 -8 13.5t6 14.5z" />
    <glyph glyph-name="Ydieresis.alt" horiz-adv-x="685" 
d="M254 262l-227 421q-4 7 0.5 15t13.5 8h135q14 0 21 -13l143 -283q3 -6 10 -6t10 6l157 284q6 12 20 12h130q10 0 14.5 -7.5t0.5 -15.5l-369 -671q-6 -12 -20 -12h-131q-9 0 -13.5 8t-0.5 15l106 193q13 22 0 46zM206 791q-19 19 -19 46t19 46t46 19t46 -19t19 -46
t-19 -46t-46 -19t-46 19zM401 791q-19 19 -19 46t19 46t46 19t46 -19t19 -46t-19 -46t-46 -19t-46 19z" />
    <glyph glyph-name="a.alt" horiz-adv-x="525" 
d="M32 148v4q0 73 53 109.5t144 36.5h80q12 0 12 12v13q0 22 -18 34.5t-47 12.5q-61 0 -104 -34q-14 -10 -24 3l-60 79q-10 13 2 24q36 29 89 46t107 17q96 0 155 -43q60 -42 60 -123v-322q0 -7 -5 -12t-12 -5h-105q-11 0 -17 12l-11 23q-5 11 -12 3q-50 -46 -125 -46
t-118.5 43t-43.5 113zM188 163v-3q0 -36 53 -36q40 0 65 19q15 11 15 28v15q0 12 -12 12h-55q-66 0 -66 -35z" />
    <glyph glyph-name="aacute.alt" horiz-adv-x="525" 
d="M32 148v4q0 73 53 109.5t144 36.5h80q12 0 12 12v13q0 22 -18 34.5t-47 12.5q-61 0 -104 -34q-14 -10 -24 3l-60 79q-10 13 2 24q36 29 89 46t107 17q96 0 155 -43q60 -42 60 -123v-322q0 -7 -5 -12t-12 -5h-105q-11 0 -17 12l-11 23q-5 11 -12 3q-50 -46 -125 -46
t-118.5 43t-43.5 113zM188 163v-3q0 -36 53 -36q40 0 65 19q15 11 15 28v15q0 12 -12 12h-55q-66 0 -66 -35zM176 601l126 106q14 11 30 2l76 -42q9 -5 9 -15t-8 -15l-150 -92q-13 -9 -29 -1l-52 29q-7 4 -8 13.5t6 14.5z" />
    <glyph glyph-name="agrave.alt" horiz-adv-x="525" 
d="M32 148v4q0 73 53 109.5t144 36.5h80q12 0 12 12v13q0 22 -18 34.5t-47 12.5q-61 0 -104 -34q-14 -10 -24 3l-60 79q-10 13 2 24q36 29 89 46t107 17q96 0 155 -43q60 -42 60 -123v-322q0 -7 -5 -12t-12 -5h-105q-11 0 -17 12l-11 23q-5 11 -12 3q-50 -46 -125 -46
t-118.5 43t-43.5 113zM188 163v-3q0 -36 53 -36q40 0 65 19q15 11 15 28v15q0 12 -12 12h-55q-66 0 -66 -35zM186 667l76 42q16 9 30 -2l126 -106q7 -5 6 -14.5t-8 -13.5l-52 -29q-16 -8 -29 1l-150 92q-8 5 -8 15t9 15z" />
    <glyph glyph-name="acircumflex.alt" horiz-adv-x="525" 
d="M32 148v4q0 73 53 109.5t144 36.5h80q12 0 12 12v13q0 22 -18 34.5t-47 12.5q-61 0 -104 -34q-14 -10 -24 3l-60 79q-10 13 2 24q36 29 89 46t107 17q96 0 155 -43q60 -42 60 -123v-322q0 -7 -5 -12t-12 -5h-105q-11 0 -17 12l-11 23q-5 11 -12 3q-50 -46 -125 -46
t-118.5 43t-43.5 113zM188 163v-3q0 -36 53 -36q40 0 65 19q15 11 15 28v15q0 12 -12 12h-55q-66 0 -66 -35zM291 704l143 -102q7 -5 6.5 -13.5t-7.5 -13.5l-43 -26q-9 -5 -18 0l-84 49q-6 2 -12 0l-84 -49q-9 -5 -18 0l-43 26q-7 5 -7.5 13.5t6.5 13.5l143 102q9 5 18 0z
" />
    <glyph glyph-name="atilde.alt" horiz-adv-x="525" 
d="M32 148v4q0 73 53 109.5t144 36.5h80q12 0 12 12v13q0 22 -18 34.5t-47 12.5q-61 0 -104 -34q-14 -10 -24 3l-60 79q-10 13 2 24q36 29 89 46t107 17q96 0 155 -43q60 -42 60 -123v-322q0 -7 -5 -12t-12 -5h-105q-11 0 -17 12l-11 23q-5 11 -12 3q-50 -46 -125 -46
t-118.5 43t-43.5 113zM188 163v-3q0 -36 53 -36q40 0 65 19q15 11 15 28v15q0 12 -12 12h-55q-66 0 -66 -35zM300 670q29 -15 47 -15q25 0 51 18q13 9 22 -5l29 -47q7 -11 -2 -20q-43 -46 -100 -46q-34 0 -71 19q-25 15 -47 15q-23 0 -47 -15q-12 -8 -21 6l-29 47
q-7 10 2 19q40 43 95 43q36 0 71 -19z" />
    <glyph glyph-name="adieresis.alt" horiz-adv-x="525" 
d="M32 148v4q0 73 53 109.5t144 36.5h80q12 0 12 12v13q0 22 -18 34.5t-47 12.5q-61 0 -104 -34q-14 -10 -24 3l-60 79q-10 13 2 24q36 29 89 46t107 17q96 0 155 -43q60 -42 60 -123v-322q0 -7 -5 -12t-12 -5h-105q-11 0 -17 12l-11 23q-5 11 -12 3q-50 -46 -125 -46
t-118.5 43t-43.5 113zM188 163v-3q0 -36 53 -36q40 0 65 19q15 11 15 28v15q0 12 -12 12h-55q-66 0 -66 -35zM144 580q-19 19 -19 46t19 46t46 19t46 -19t19 -46t-19 -46t-46 -19t-46 19zM339 580q-19 19 -19 46t19 46t46 19t46 -19t19 -46t-19 -46t-46 -19t-46 19z" />
    <glyph glyph-name="amacron.alt" horiz-adv-x="525" 
d="M32 148v4q0 73 53 109.5t144 36.5h80q12 0 12 12v13q0 22 -18 34.5t-47 12.5q-61 0 -104 -34q-14 -10 -24 3l-60 79q-10 13 2 24q36 29 89 46t107 17q96 0 155 -43q60 -42 60 -123v-322q0 -7 -5 -12t-12 -5h-105q-11 0 -17 12l-11 23q-5 11 -12 3q-50 -46 -125 -46
t-118.5 43t-43.5 113zM188 163v-3q0 -36 53 -36q40 0 65 19q15 11 15 28v15q0 12 -12 12h-55q-66 0 -66 -35zM154 669h274q7 0 12 -5.5t5 -12.5v-64q0 -7 -5 -12t-12 -5h-274q-7 0 -12.5 5t-5.5 12v64q0 7 5 12.5t13 5.5z" />
    <glyph glyph-name="aring.alt" horiz-adv-x="525" 
d="M32 148v4q0 73 53 109.5t144 36.5h80q12 0 12 12v13q0 22 -18 34.5t-47 12.5q-61 0 -104 -34q-14 -10 -24 3l-60 79q-10 13 2 24q36 29 89 46t107 17q96 0 155 -43q60 -42 60 -123v-322q0 -7 -5 -12t-12 -5h-105q-11 0 -17 12l-11 23q-5 11 -12 3q-50 -46 -125 -46
t-118.5 43t-43.5 113zM188 163v-3q0 -36 53 -36q40 0 65 19q15 11 15 28v15q0 12 -12 12h-55q-66 0 -66 -35zM219 691q28 26 68 26t68 -26q27 -25 27 -65t-27 -66q-26 -25 -68 -25t-68 25q-27 26 -27 66t27 65zM247 626q0 -41 40 -41t40 41t-40 41t-40 -41z" />
    <glyph glyph-name="aogonek.alt" horiz-adv-x="525" 
d="M263 -87v9q0 63 71 107l-3 6q-5 11 -12 3q-50 -46 -125 -46t-118.5 43t-43.5 113v4q0 73 53 109.5t144 36.5h80q12 0 12 12v13q0 22 -18 34.5t-47 12.5q-61 0 -104 -34q-14 -10 -24 3l-60 79q-10 13 2 24q36 29 89 46t107 17q96 0 155 -43q60 -42 60 -123v-322
q0 -7 -5 -12t-12 -5h-55q-68 -27 -68 -71v-4q0 -52 65 -52q23 0 49 10q14 6 22 -8l11 -25q8 -17 -8 -24q-45 -19 -79 -19q-61 0 -99.5 29.5t-38.5 76.5zM188 163v-3q0 -36 53 -36q40 0 65 19q15 11 15 28v15q0 12 -12 12h-55q-66 0 -66 -35z" />
    <glyph glyph-name="abreve.alt" horiz-adv-x="525" 
d="M32 148v4q0 73 53 109.5t144 36.5h80q12 0 12 12v13q0 22 -18 34.5t-47 12.5q-61 0 -104 -34q-14 -10 -24 3l-60 79q-10 13 2 24q36 29 89 46t107 17q96 0 155 -43q60 -42 60 -123v-322q0 -7 -5 -12t-12 -5h-105q-11 0 -17 12l-11 23q-5 11 -12 3q-50 -46 -125 -46
t-118.5 43t-43.5 113zM188 163v-3q0 -36 53 -36q40 0 65 19q15 11 15 28v15q0 12 -12 12h-55q-66 0 -66 -35zM371 687q8 14 21 5l49 -28q6 -2 7.5 -9.5t-2.5 -13.5q-11 -16 -29 -36q-16 -16 -53 -36q-35 -18 -74 -18q-55 0 -96 29q-38 28 -60 61q-4 6 -2.5 13.5t7.5 9.5
l49 28q13 9 21 -5q31 -43 81 -43t81 43z" />
    <glyph glyph-name="g.alt" horiz-adv-x="555" 
d="M289 40l-21 -34q-5 -8 5 -8h4q107 0 171 -48q65 -48 65 -131v-18q0 -94 -76 -152q-76 -59 -200 -59q-85 0 -174 46q-15 8 -8 22l35 83q2 6 9 8.5t14 -0.5q57 -26 114 -26q59 0 94 22.5t35 56.5v10q0 37 -33.5 57t-93.5 20q-58 0 -109 -24q-14 -6 -21 6l-16 24q-5 11 0 18
l87 142q7 11 -4 16q-62 25 -99 76t-37 118v21q0 97 72 157q74 60 171 60q72 0 133 -34q9 -5 14 5l5 9q7 12 24 12h86q10 0 14.5 -8.5t-0.5 -17.5l-47 -77q-9 -12 -3 -23q17 -40 17 -83v-21q0 -87 -60 -146q-59 -56 -148 -67q-13 -1 -19 -12zM183 282v-13q-3 -57 49 -78
q48 -20 92 4q42 24 39 74v13q3 57 -49 78q-48 20 -92 -4q-42 -24 -39 -74z" />
    <glyph glyph-name="gcircumflex.alt" horiz-adv-x="555" 
d="M289 40l-21 -34q-5 -8 5 -8h4q107 0 171 -48q65 -48 65 -131v-18q0 -94 -76 -152q-76 -59 -200 -59q-85 0 -174 46q-15 8 -8 22l35 83q2 6 9 8.5t14 -0.5q57 -26 114 -26q59 0 94 22.5t35 56.5v10q0 37 -33.5 57t-93.5 20q-58 0 -109 -24q-14 -6 -21 6l-16 24q-5 11 0 18
l87 142q7 11 -4 16q-62 25 -99 76t-37 118v21q0 97 72 157q74 60 171 60q72 0 133 -34q9 -5 14 5l5 9q7 12 24 12h86q10 0 14.5 -8.5t-0.5 -17.5l-47 -77q-9 -12 -3 -23q17 -40 17 -83v-21q0 -87 -60 -146q-59 -56 -148 -67q-13 -1 -19 -12zM183 282v-13q-3 -57 49 -78
q48 -20 92 4q42 24 39 74v13q3 57 -49 78q-48 20 -92 -4q-42 -24 -39 -74zM278 707q4 0 9 -3l143 -102q7 -5 6.5 -13.5t-7.5 -13.5l-43 -26q-9 -5 -18 0l-84 49q-6 2 -12 0l-84 -49q-9 -5 -18 0l-43 26q-7 5 -7.5 13.5t6.5 13.5l143 102q5 3 9 3z" />
    <glyph glyph-name="gbreve.alt" horiz-adv-x="555" 
d="M289 40l-21 -34q-5 -8 5 -8h4q107 0 171 -48q65 -48 65 -131v-18q0 -94 -76 -152q-76 -59 -200 -59q-85 0 -174 46q-15 8 -8 22l35 83q2 6 9 8.5t14 -0.5q57 -26 114 -26q59 0 94 22.5t35 56.5v10q0 37 -33.5 57t-93.5 20q-58 0 -109 -24q-14 -6 -21 6l-16 24q-5 11 0 18
l87 142q7 11 -4 16q-62 25 -99 76t-37 118v21q0 97 72 157q74 60 171 60q72 0 133 -34q9 -5 14 5l5 9q7 12 24 12h86q10 0 14.5 -8.5t-0.5 -17.5l-47 -77q-9 -12 -3 -23q17 -40 17 -83v-21q0 -87 -60 -146q-59 -56 -148 -67q-13 -1 -19 -12zM183 282v-13q-3 -57 49 -78
q48 -20 92 4q42 24 39 74v13q3 57 -49 78q-48 20 -92 -4q-42 -24 -39 -74zM358 687q8 14 21 5l49 -28q6 -2 7.5 -9.5t-2.5 -13.5q-11 -16 -29 -36q-16 -16 -53 -36q-35 -18 -74 -18q-55 0 -96 29q-38 28 -60 61q-4 6 -2.5 13.5t7.5 9.5l49 28q13 9 21 -5q31 -43 81 -43
t81 43z" />
    <glyph glyph-name="gdotaccent.alt" horiz-adv-x="555" 
d="M289 40l-21 -34q-5 -8 5 -8h4q107 0 171 -48q65 -48 65 -131v-18q0 -94 -76 -152q-76 -59 -200 -59q-85 0 -174 46q-15 8 -8 22l35 83q2 6 9 8.5t14 -0.5q57 -26 114 -26q59 0 94 22.5t35 56.5v10q0 37 -33.5 57t-93.5 20q-58 0 -109 -24q-14 -6 -21 6l-16 24q-5 11 0 18
l87 142q7 11 -4 16q-62 25 -99 76t-37 118v21q0 97 72 157q74 60 171 60q72 0 133 -34q9 -5 14 5l5 9q7 12 24 12h86q10 0 14.5 -8.5t-0.5 -17.5l-47 -77q-9 -12 -3 -23q17 -40 17 -83v-21q0 -87 -60 -146q-59 -56 -148 -67q-13 -1 -19 -12zM183 282v-13q-3 -57 49 -78
q48 -20 92 4q42 24 39 74v13q3 57 -49 78q-48 20 -92 -4q-42 -24 -39 -74zM225 575q-22 22 -22 52t22 51q22 22 52 22t52 -22q22 -21 22 -51t-22 -52q-22 -21 -52 -21t-52 21z" />
    <glyph glyph-name="gcommaaccent.alt" horiz-adv-x="555" 
d="M346 618q0 -24 -17.5 -41.5t-44.5 -17.5q-26 0 -43 17.5t-17 41.5q0 37 23.5 76.5t60.5 68.5q13 9 23 5l10 -4q12 -7 3 -19q-41 -53 -12 -88q14 -20 14 -39zM289 40l-21 -34q-5 -8 5 -8h4q107 0 171 -48q65 -48 65 -131v-18q0 -94 -76 -152q-76 -59 -200 -59
q-85 0 -174 46q-15 8 -8 22l35 83q2 6 9 8.5t14 -0.5q57 -26 114 -26q59 0 94 22.5t35 56.5v10q0 37 -33.5 57t-93.5 20q-58 0 -109 -24q-14 -6 -21 6l-16 24q-5 11 0 18l87 142q7 11 -4 16q-62 25 -99 76t-37 118v21q0 97 72 157q74 60 171 60q72 0 133 -34q9 -5 14 5l5 9
q7 12 24 12h86q10 0 14.5 -8.5t-0.5 -17.5l-47 -77q-9 -12 -3 -23q17 -40 17 -83v-21q0 -87 -60 -146q-59 -56 -148 -67q-13 -1 -19 -12zM183 282v-13q-3 -57 49 -78q48 -20 92 4q42 24 39 74v13q3 57 -49 78q-48 20 -92 -4q-42 -24 -39 -74z" />
    <glyph glyph-name="g.salt" horiz-adv-x="554" 
d="M187 282v-13q-3 -57 49 -79q48 -19 92 6q41 24 38 73v13q3 57 -50 79q-48 19 -91 -6q-41 -23 -38 -73zM342 495h164q18 0 18 -16v-6q0 -10 -7 -20l-29 -44q-4 -7 0 -14q31 -47 31 -109v-21q0 -97 -73 -157q-72 -60 -170 -60q-30 0 -58 6q-10 2 -15 -6q-6 -12 -6 -25v-1
q0 -10 5 -22q4 -9 16 -7q30 5 58 5q93 0 166 -49q74 -50 81 -143q1 -8 -4.5 -13t-12.5 -5h-122q-16 0 -17 15q-9 62 -91 62q-81 0 -90 -62q-2 -15 -17 -15h-122q-7 0 -12 5.5t-5 12.5q8 79 62 127q9 9 1 18q-23 31 -23 69v3q0 41 25 75q8 11 -1 20q-61 58 -61 147v21
q0 97 72 157q73 60 171 60q29 0 66 -8z" />
    <glyph glyph-name="gcircumflex.salt" horiz-adv-x="554" 
d="M187 282v-13q-3 -57 49 -79q48 -19 92 6q41 24 38 73v13q3 57 -50 79q-48 19 -91 -6q-41 -23 -38 -73zM342 495h164q18 0 18 -16v-6q0 -10 -7 -20l-29 -44q-4 -7 0 -14q31 -47 31 -109v-21q0 -97 -73 -157q-72 -60 -170 -60q-30 0 -58 6q-10 2 -15 -6q-6 -12 -6 -25v-1
q0 -10 5 -22q4 -9 16 -7q30 5 58 5q93 0 166 -49q74 -50 81 -143q1 -8 -4.5 -13t-12.5 -5h-122q-16 0 -17 15q-9 62 -91 62q-81 0 -90 -62q-2 -15 -17 -15h-122q-7 0 -12 5.5t-5 12.5q8 79 62 127q9 9 1 18q-23 31 -23 69v3q0 41 25 75q8 11 -1 20q-61 58 -61 147v21
q0 97 72 157q73 60 171 60q29 0 66 -8zM278 707q4 0 9 -3l143 -102q7 -5 6.5 -13.5t-7.5 -13.5l-43 -26q-9 -5 -18 0l-84 49q-6 2 -12 0l-84 -49q-9 -5 -18 0l-43 26q-7 5 -7.5 13.5t6.5 13.5l143 102q5 3 9 3z" />
    <glyph glyph-name="gbreve.salt" horiz-adv-x="554" 
d="M187 282v-13q-3 -57 49 -79q48 -19 92 6q41 24 38 73v13q3 57 -50 79q-48 19 -91 -6q-41 -23 -38 -73zM342 495h164q18 0 18 -16v-6q0 -10 -7 -20l-29 -44q-4 -7 0 -14q31 -47 31 -109v-21q0 -97 -73 -157q-72 -60 -170 -60q-30 0 -58 6q-10 2 -15 -6q-6 -12 -6 -25v-1
q0 -10 5 -22q4 -9 16 -7q30 5 58 5q93 0 166 -49q74 -50 81 -143q1 -8 -4.5 -13t-12.5 -5h-122q-16 0 -17 15q-9 62 -91 62q-81 0 -90 -62q-2 -15 -17 -15h-122q-7 0 -12 5.5t-5 12.5q8 79 62 127q9 9 1 18q-23 31 -23 69v3q0 41 25 75q8 11 -1 20q-61 58 -61 147v21
q0 97 72 157q73 60 171 60q29 0 66 -8zM358 687q8 14 21 5l49 -28q6 -2 7.5 -9.5t-2.5 -13.5q-11 -16 -29 -36q-16 -16 -53 -36q-35 -18 -74 -18q-55 0 -96 29q-38 28 -60 61q-4 6 -2.5 13.5t7.5 9.5l49 28q13 9 21 -5q31 -43 81 -43t81 43z" />
    <glyph glyph-name="gdotaccent.salt" horiz-adv-x="554" 
d="M187 282v-13q-3 -57 49 -79q48 -19 92 6q41 24 38 73v13q3 57 -50 79q-48 19 -91 -6q-41 -23 -38 -73zM342 495h164q18 0 18 -16v-6q0 -10 -7 -20l-29 -44q-4 -7 0 -14q31 -47 31 -109v-21q0 -97 -73 -157q-72 -60 -170 -60q-30 0 -58 6q-10 2 -15 -6q-6 -12 -6 -25v-1
q0 -10 5 -22q4 -9 16 -7q30 5 58 5q93 0 166 -49q74 -50 81 -143q1 -8 -4.5 -13t-12.5 -5h-122q-16 0 -17 15q-9 62 -91 62q-81 0 -90 -62q-2 -15 -17 -15h-122q-7 0 -12 5.5t-5 12.5q8 79 62 127q9 9 1 18q-23 31 -23 69v3q0 41 25 75q8 11 -1 20q-61 58 -61 147v21
q0 97 72 157q73 60 171 60q29 0 66 -8zM225 575q-22 22 -22 52t22 51q22 22 52 22t52 -22q22 -21 22 -51t-22 -52q-22 -21 -52 -21t-52 21z" />
    <glyph glyph-name="gcommaaccent.salt" horiz-adv-x="554" 
d="M346 618q0 -24 -17.5 -41.5t-44.5 -17.5q-26 0 -43 17.5t-17 41.5q0 37 23.5 76.5t60.5 68.5q13 9 23 5l10 -4q12 -7 3 -19q-41 -53 -12 -88q14 -20 14 -39zM187 282v-13q-3 -57 49 -79q48 -19 92 6q41 24 38 73v13q3 57 -50 79q-48 19 -91 -6q-41 -23 -38 -73zM342 495
h164q18 0 18 -16v-6q0 -10 -7 -20l-29 -44q-4 -7 0 -14q31 -47 31 -109v-21q0 -97 -73 -157q-72 -60 -170 -60q-30 0 -58 6q-10 2 -15 -6q-6 -12 -6 -25v-1q0 -10 5 -22q4 -9 16 -7q30 5 58 5q93 0 166 -49q74 -50 81 -143q1 -8 -4.5 -13t-12.5 -5h-122q-16 0 -17 15
q-9 62 -91 62q-81 0 -90 -62q-2 -15 -17 -15h-122q-7 0 -12 5.5t-5 12.5q8 79 62 127q9 9 1 18q-23 31 -23 69v3q0 41 25 75q8 11 -1 20q-61 58 -61 147v21q0 97 72 157q73 60 171 60q29 0 66 -8z" />
    <glyph glyph-name="zero.salt" horiz-adv-x="559" 
d="M48 227v407q0 110 64 173q64 64 168 64t168 -64q64 -63 64 -173v-407q0 -109 -64 -173q-64 -63 -168 -63t-168 63q-64 64 -64 173zM208 632v-401q0 -54 16 -80t56 -26t56 26t16 80v401q0 42 -11 70q-12 35 -61 35q-32 0 -49 -18q-16 -16 -19.5 -33.5t-3.5 -53.5z" />
    <glyph glyph-name="one.salt" horiz-adv-x="293" 
d="M67 17v694q0 12 -11 12h-21q-12 0 -12 12v115q0 4 3.5 8t8.5 4h175q17 0 17 -17v-828q0 -7 -5 -12t-12 -5h-126q-7 0 -12 5t-5 12z" />
    <glyph glyph-name="two.salt" horiz-adv-x="510" 
d="M228 871q115 0 180.5 -58t65.5 -161v-17q0 -74 -73 -198l-166 -284q-3 -5 -0.5 -9.5t8.5 -4.5h199q7 0 12 -5t5 -12v-105q0 -7 -5 -12t-12 -5h-383q-17 0 -17 17v77q0 12 6 22l217 381q48 83 48 130v13q0 41 -28.5 66.5t-75.5 25.5q-50 0 -92 -19q-6 -3 -13 0t-10 10
l-34 85q-7 14 8 22q77 41 160 41z" />
    <glyph glyph-name="three.salt" horiz-adv-x="504" 
d="M97 862h342q17 0 17 -18v-84q0 -21 -10 -37l-134 -232q-4 -10 5 -13q74 -17 115.5 -73t41.5 -136v-44q0 -101 -74 -169q-74 -66 -186 -66q-76 0 -147 36q-15 7 -9 23l35 88q7 17 24 9q36 -17 83 -17q49 0 81 28.5t32 71.5v36q0 45 -32 74t-81 29q-35 0 -60 -7
q-11 -4 -18 6l-2 3l-12 19q-6 8 -1 19l168 297q4 6 0 11.5t-10 5.5h-168q-7 0 -12 5t-5 12v105q0 7 5 12.5t12 5.5z" />
    <glyph glyph-name="four.salt" horiz-adv-x="527" 
d="M28 308l261 544q4 10 16 10h123q7 0 12 -5.5t5 -12.5v-521q0 -12 11 -12h31q7 0 12 -5t5 -12v-84q0 -7 -5 -12t-12 -5h-31q-11 0 -11 -12v-164q0 -7 -5 -12t-12 -5h-126q-7 0 -12 5t-5 12v164q0 12 -12 12h-232q-7 0 -12 5t-5 12v80q0 11 4 18zM270 512l-87 -190
q-2 -11 7 -11h83q12 0 12 12v186q0 6 -6 7.5t-9 -4.5z" />
    <glyph glyph-name="five.salt" horiz-adv-x="477" 
d="M59 358v487q0 17 18 17h330q18 0 18 -17v-105q0 -7 -5.5 -12t-12.5 -5h-184q-12 0 -12 -12v-212q0 -12 13 -12h15q98 0 156 -58t58 -158v-45q0 -99 -76 -168q-77 -68 -186 -68q-75 0 -145 36q-14 8 -8 22l35 89q2 7 9.5 10t14.5 -1q39 -17 82 -17q49 0 81 29t32 73v36
q0 45 -31 73t-82 28q-54 0 -94 -25q-8 -5 -17 0t-9 15z" />
    <glyph glyph-name="six.salt" horiz-adv-x="547" 
d="M316 492q92 0 145.5 -57.5t53.5 -154.5v-67q0 -95 -69 -159q-67 -64 -171 -64q-102 0 -166 62q-63 62 -63 161v423q0 102 73 168q73 67 185 67q72 0 145 -35q15 -7 9 -22l-35 -88q-2 -6 -9 -9.5t-14 -0.5q-39 16 -84 16q-48 0 -79 -28.5t-31 -71.5v-159q0 -13 13 -6
q40 25 97 25zM280 369q-37 0 -58 -25t-21 -68v-59q0 -43 19.5 -68t54.5 -25q36 0 57 25.5t21 67.5v59q0 43 -19 68t-54 25z" />
    <glyph glyph-name="seven.salt" horiz-adv-x="440" 
d="M37 862h382q17 0 17 -18v-72q0 -14 -5 -31l-207 -729q-3 -12 -16 -12h-145q-9 0 -14 6.5t-3 15.5l211 687q2 5 -1 9t-8 4h-211q-7 0 -12 5t-5 12v105q0 7 5 12.5t12 5.5z" />
    <glyph glyph-name="eight.salt" horiz-adv-x="560" 
d="M501 669v-47q0 -77 -55 -129q-8 -8 0 -14q72 -58 72 -146v-135q0 -86 -66 -148q-67 -62 -172 -62t-172 62q-66 62 -66 148v135q0 88 73 146q8 6 0 14q-56 53 -56 129v47q0 85 61 143q62 59 160 59t160 -59q61 -58 61 -143zM213 657v-46q0 -31 18.5 -52.5t48.5 -21.5
q29 0 47.5 21.5t18.5 52.5v46q0 37 -17.5 58.5t-48.5 21.5t-49 -21.5t-18 -58.5zM207 347v-139q0 -39 20 -62.5t53 -23.5t52.5 23.5t19.5 62.5v139q0 34 -20 57t-52 23t-52.5 -23t-20.5 -57z" />
    <glyph glyph-name="nine.salt" horiz-adv-x="547" 
d="M231 380q-92 0 -145.5 57.5t-53.5 154.5v56q0 94 68 159q68 64 172 64q102 0 166 -62q63 -61 63 -161v-423q0 -102 -73 -169q-74 -66 -185 -66q-72 0 -145 35q-15 7 -9 22l35 88q2 6 9 9.5t14 0.5q39 -16 84 -16q48 0 79 28.5t31 71.5v170q0 6 -4.5 7.5t-8.5 -1.5
q-40 -25 -97 -25zM267 503q37 0 58 25t21 68v48q0 43 -19.5 68t-54.5 25q-36 0 -57 -25.5t-21 -67.5v-48q0 -43 19 -68t54 -25z" />
    <glyph glyph-name="comma.alt" horiz-adv-x="262" 
d="M45 -112v198q0 36 25 60.5t61 24.5t61 -24.5t25 -60.5q0 -30 -19 -55l-111 -151q-7 -9 -18 -9h-7q-17 0 -17 17z" />
    <glyph glyph-name="semicolon.alt" horiz-adv-x="262" 
d="M70 323q-25 25 -25 61t25 60q25 25 61 25t61 -25q25 -24 25 -60t-25 -61q-25 -24 -61 -24t-61 24zM45 -86v198q1 37 25.5 61t60.5 24t61 -24.5t25 -60.5q0 -30 -19 -55l-111 -151q-7 -9 -18 -9h-7q-17 0 -17 17z" />
    <glyph glyph-name="g.salt_j" horiz-adv-x="812" 
d="M342 495h164q18 0 18 -16v-6q0 -10 -7 -20l-29 -44q-4 -7 0 -14q31 -47 31 -109v-21q0 -97 -73 -157q-72 -60 -170 -60q-30 0 -58 6q-10 2 -15 -6q-6 -12 -6 -25v-1q0 -10 5 -22q4 -9 16 -7q30 5 58 5q121 0 192 -71q10 -10 42 -10q94 0 94 78v483q0 7 5 12t12 5h126
q7 0 12 -5t5 -12v-482q0 -83 -49 -136q-48 -54 -132 -54q-20 0 -47 4q-13 2 -14 -10q-3 -12 -16 -12h-122q-16 0 -17 15q-9 62 -91 62q-81 0 -90 -62q-2 -15 -17 -15h-122q-7 0 -12 5.5t-5 12.5q8 79 62 127q9 9 1 18q-23 31 -23 69v3q0 41 25 75q8 11 -1 20q-61 58 -61 147
v21q0 97 72 157q73 60 171 60q29 0 66 -8zM187 282v-13q-3 -57 49 -79q48 -19 92 6q41 24 38 73v13q3 57 -50 79q-48 19 -91 -6q-41 -23 -38 -73zM627 571q-23 23 -23 56t23 56q24 23 57 23t56 -23q24 -23 24 -56t-24 -56q-23 -23 -56 -23t-57 23z" />
    <glyph glyph-name="g.alt_j" horiz-adv-x="813" 
d="M289 40l-21 -34q-5 -8 5 -8h4q79 0 136 -27t83 -77q8 -12 33 -12q34 0 55 20t21 51v525q0 7 5 12t12 5h126q7 0 12 -5t5 -12v-523q0 -78 -55 -134q-56 -57 -143 -57q-23 0 -44 3q-13 1 -15 -9q-17 -76 -90 -122t-181 -46q-85 0 -174 46q-15 8 -8 22l35 83q2 6 9 8.5
t14 -0.5q57 -26 114 -26q59 0 94 22.5t35 56.5v10q0 37 -33.5 57t-93.5 20q-58 0 -109 -24q-14 -6 -21 6l-16 24q-5 11 0 18l87 142q7 11 -4 16q-62 25 -99 76t-37 118v21q0 97 72 157q74 60 171 60q72 0 133 -34q9 -5 14 5l5 9q7 12 24 12h86q10 0 14.5 -8.5t-0.5 -17.5
l-47 -77q-9 -12 -3 -23q17 -40 17 -83v-21q0 -87 -60 -146q-59 -56 -148 -67q-13 -1 -19 -12zM183 282v-13q-3 -57 49 -78q48 -20 92 4q42 24 39 74v13q3 57 -49 78q-48 20 -92 -4q-42 -24 -39 -74zM628 571q-23 23 -23 56t23 56q24 23 57 23t56 -23q24 -23 24 -56t-24 -56
q-23 -23 -56 -23t-57 23z" />
    <glyph glyph-name="zero.onum" horiz-adv-x="550" 
d="M43 227v106q0 110 64 173q64 64 168 64t168 -64q64 -63 64 -173v-106q0 -109 -64 -173t-168 -64t-168 64t-64 173zM203 331v-100q0 -55 16 -81t56 -26t56 26t16 81v100q0 42 -11 70q-12 35 -61 35q-32 0 -49 -18q-16 -16 -19.5 -33t-3.5 -54z" />
    <glyph glyph-name="one.onum" horiz-adv-x="307" 
d="M82 17v392q0 12 -11 12h-26q-9 0 -14.5 8.5t-0.5 17.5l63 105q5 8 15 8h117q17 0 17 -17v-526q0 -7 -5 -12t-12 -5h-126q-7 0 -12 5t-5 12z" />
    <glyph glyph-name="two.onum" horiz-adv-x="487" 
d="M203 570q118 0 184.5 -48.5t66.5 -137.5v-17q0 -101 -93 -156l-108 -65q-7 -4 -5.5 -10.5t9.5 -6.5h172q7 0 12 -5t5 -12v-95q0 -7 -5 -12t-12 -5h-392q-7 0 -12 5t-5 12v104q0 19 18 30l177 106q75 43 75 95v12q0 29 -27 48t-76 19q-52 0 -91 -18q-18 -7 -24 9l-34 86
q-7 15 8 23q74 39 157 39z" />
    <glyph glyph-name="three.onum" horiz-adv-x="451" 
d="M300 293q63 -19 98.5 -70.5t35.5 -124.5v-17q0 -102 -75 -169q-76 -68 -187 -68q-71 0 -143 35q-17 8 -9 25l34 87q8 17 26 8q35 -16 80 -16q48 0 80.5 29.5t32.5 72.5v9q0 45 -31.5 73t-81.5 28q-35 0 -59 -7q-13 -3 -20 7l-12 20q-6 11 1 20l134 177q5 4 2 11.5
t-10 7.5h-138q-7 0 -12.5 5t-5.5 12v95q0 17 18 17h341q7 0 12 -5t5 -12v-73q0 -14 -12 -27l-110 -132q-4 -4 -2 -10.5t8 -7.5z" />
    <glyph glyph-name="four.onum" horiz-adv-x="524" 
d="M29 157l282 391q7 12 23 12h94q17 0 17 -17v-375q0 -11 12 -11h37q8 0 13 -5.5t5 -12.5v-83q0 -18 -18 -18h-37q-12 0 -12 -11v-156q0 -7 -5 -12t-12 -5h-126q-7 0 -12 5t-5 12v156q0 11 -12 11h-232q-17 0 -17 18v82q0 11 5 19zM271 283l-83 -113q-3 -4 -1 -8.5t7 -4.5
h79q12 0 12 11v112q0 5 -5.5 6.5t-8.5 -3.5z" />
    <glyph glyph-name="five.onum" horiz-adv-x="471" 
d="M59 185v358q0 17 18 17h330q18 0 18 -17v-95q0 -7 -5.5 -12t-12.5 -5h-184q-12 0 -12 -12v-93q0 -12 13 -12h15q98 0 156 -58t58 -158v-18q0 -100 -76 -167q-77 -69 -186 -69q-73 0 -144 36q-15 7 -9 22l35 89q6 17 24 9q39 -17 82 -17q49 0 81 29t32 73v9q0 45 -31 73
t-82 28q-54 0 -94 -25q-8 -5 -17 0t-9 15z" />
    <glyph glyph-name="six.onum" horiz-adv-x="541" 
d="M316 442q92 0 145.5 -57.5t53.5 -154.5v-17q0 -95 -69 -159q-67 -64 -171 -64q-102 0 -166 62q-63 62 -63 161v268q0 102 73 168q73 67 185 67q72 0 145 -35q15 -7 9 -22l-35 -88q-2 -6 -9 -9.5t-14 -0.5q-39 16 -84 16q-48 0 -79 -28.5t-31 -71.5v-54q0 -13 13 -6
q40 25 97 25zM280 319q-37 0 -58 -25t-21 -68v-9q0 -43 19.5 -68t54.5 -25q36 0 57 25.5t21 67.5v9q0 43 -19 68t-54 25z" />
    <glyph glyph-name="seven.onum" horiz-adv-x="450" 
d="M38 560h381q7 0 12 -5t5 -12v-67q0 -23 -7 -38l-205 -570q-4 -15 -21 -15h-144q-7 0 -11 6t-1 13l213 543q2 6 -1 11t-10 5h-211q-7 0 -12.5 5t-5.5 12v95q0 17 18 17z" />
    <glyph glyph-name="eight.onum" horiz-adv-x="560" 
d="M501 514v-9q0 -77 -55 -129q-8 -8 0 -14q72 -59 72 -146v-18q0 -86 -66 -148q-67 -62 -172 -62t-172 62q-66 62 -66 148v18q0 88 73 146q8 6 0 14q-56 53 -56 129v9q0 85 61 143q62 59 160 59t160 -59q61 -58 61 -143zM213 502v-8q0 -31 18.5 -52.5t48.5 -21.5
q29 0 47.5 21.5t18.5 52.5v8q0 37 -17.5 58.5t-48.5 21.5t-49 -21.5t-18 -58.5zM207 230v-22q0 -39 20 -62.5t53 -23.5t52.5 23.5t19.5 62.5v22q0 35 -20 58t-52 23t-52.5 -23.5t-20.5 -57.5z" />
    <glyph glyph-name="nine.onum" horiz-adv-x="541" 
d="M225 118q-92 0 -145.5 57.5t-53.5 154.5v17q0 94 68 159q68 64 172 64q102 0 166 -62q63 -61 63 -161v-268q0 -102 -73 -168q-73 -67 -185 -67q-72 0 -145 35q-15 7 -9 22l35 88q2 6 9 9.5t14 0.5q39 -16 84 -16q48 0 79 28.5t31 71.5v54q0 6 -4.5 7.5t-8.5 -1.5
q-40 -25 -97 -25zM261 241q37 0 58 25t21 68v9q0 43 -19.5 68t-54.5 25q-36 0 -57 -25.5t-21 -67.5v-9q0 -43 19 -68t54 -25z" />
    <glyph glyph-name="zero.tnum" horiz-adv-x="520" 
d="M28 227v106q0 110 64 173q64 64 168 64t168 -64q64 -63 64 -173v-106q0 -109 -64 -173t-168 -64t-168 64t-64 173zM188 331v-100q0 -55 16 -81t56 -26t56 26t16 81v100q0 42 -11 70q-12 35 -61 35q-32 0 -49 -18q-16 -16 -19.5 -33t-3.5 -54z" />
    <glyph glyph-name="one.tnum" horiz-adv-x="520" 
d="M146 560h177q17 0 17 -17v-397q0 -12 12 -12h119q7 0 12 -5t5 -12v-100q0 -7 -5 -12t-12 -5h-422q-7 0 -12 5t-5 12v100q0 7 5 12t12 5h120q11 0 11 12v273q0 12 -11 12h-82q-9 0 -14.5 8.5t-0.5 17.5l59 95q5 8 15 8z" />
    <glyph glyph-name="two.tnum" horiz-adv-x="520" 
d="M235 570q118 0 184.5 -48.5t66.5 -137.5v-17q0 -101 -93 -156l-108 -65q-7 -4 -5.5 -10.5t9.5 -6.5h172q7 0 12 -5t5 -12v-95q0 -7 -5 -12t-12 -5h-392q-7 0 -12 5t-5 12v104q0 19 18 30l177 106q75 43 75 95v12q0 29 -27 48t-76 19q-52 0 -91 -18q-18 -7 -24 9l-34 86
q-7 15 8 23q74 39 157 39z" />
    <glyph glyph-name="three.tnum" horiz-adv-x="520" 
d="M340 293q63 -19 98.5 -70.5t35.5 -124.5v-17q0 -102 -75 -169q-76 -68 -187 -68q-71 0 -143 35q-17 8 -9 25l34 87q8 17 26 8q35 -16 80 -16q48 0 80.5 29.5t32.5 72.5v9q0 45 -31.5 73t-81.5 28q-35 0 -59 -7q-13 -3 -20 7l-12 20q-6 11 1 20l134 177q5 4 2 11.5
t-10 7.5h-138q-7 0 -12.5 5t-5.5 12v95q0 17 18 17h341q7 0 12 -5t5 -12v-73q0 -14 -12 -27l-110 -132q-4 -4 -2 -10.5t8 -7.5z" />
    <glyph glyph-name="four.tnum" horiz-adv-x="520" 
d="M29 157l282 391q7 12 23 12h94q17 0 17 -17v-375q0 -11 12 -11h37q8 0 13 -5.5t5 -12.5v-83q0 -18 -18 -18h-37q-12 0 -12 -11v-156q0 -7 -5 -12t-12 -5h-126q-7 0 -12 5t-5 12v156q0 11 -12 11h-232q-17 0 -17 18v82q0 11 5 19zM271 283l-83 -113q-3 -4 -1 -8.5t7 -4.5
h79q12 0 12 11v112q0 5 -5.5 6.5t-8.5 -3.5z" />
    <glyph glyph-name="five.tnum" horiz-adv-x="520" 
d="M84 185v358q0 17 18 17h330q18 0 18 -17v-95q0 -7 -5.5 -12t-12.5 -5h-184q-12 0 -12 -12v-93q0 -12 13 -12h15q98 0 156 -58t58 -158v-18q0 -100 -76 -167q-76 -69 -186 -69q-74 0 -144 36q-15 7 -9 22l35 89q6 17 24 9q39 -17 82 -17q49 0 81 29t32 73v9q0 45 -31 73
t-82 28q-54 0 -94 -25q-8 -5 -17 0t-9 15z" />
    <glyph glyph-name="six.tnum" horiz-adv-x="520" 
d="M301 442q92 0 145.5 -57.5t53.5 -154.5v-17q0 -95 -69 -159q-67 -64 -171 -64q-102 0 -166 62q-63 62 -63 161v268q0 102 73 168q73 67 185 67q72 0 145 -35q15 -7 9 -22l-35 -88q-2 -6 -9 -9.5t-14 -0.5q-39 16 -84 16q-48 0 -79 -28.5t-31 -71.5v-54q0 -6 4.5 -7.5
t8.5 1.5q40 25 97 25zM265 319q-37 0 -58 -25t-21 -68v-9q0 -43 19.5 -68t54.5 -25q36 0 57 25.5t21 67.5v9q0 43 -19 68t-54 25z" />
    <glyph glyph-name="seven.tnum" horiz-adv-x="520" 
d="M78 560h381q7 0 12 -5t5 -12v-67q0 -23 -7 -38l-205 -570q-4 -15 -21 -15h-144q-7 0 -11 6t-1 13l213 543q2 6 -1 11t-10 5h-211q-7 0 -12.5 5t-5.5 12v95q0 17 18 17z" />
    <glyph glyph-name="eight.tnum" horiz-adv-x="520" 
d="M481 514v-9q0 -77 -55 -129q-8 -8 0 -14q72 -59 72 -146v-18q0 -86 -66 -148q-67 -62 -172 -62t-172 62q-66 62 -66 148v18q0 88 73 146q8 6 0 14q-56 53 -56 129v9q0 85 61 143q62 59 160 59t160 -59q61 -58 61 -143zM193 502v-8q0 -31 18.5 -52.5t48.5 -21.5
q29 0 47.5 21.5t18.5 52.5v8q0 37 -17.5 58.5t-48.5 21.5t-49 -21.5t-18 -58.5zM187 230v-22q0 -39 20 -62.5t53 -23.5t52.5 23.5t19.5 62.5v22q0 35 -20 58t-52 23t-52.5 -23.5t-20.5 -57.5z" />
    <glyph glyph-name="nine.tnum" horiz-adv-x="520" 
d="M219 118q-92 0 -145.5 57.5t-53.5 154.5v17q0 94 68 159q68 64 172 64q102 0 166 -62q63 -61 63 -161v-268q0 -102 -73 -168q-73 -67 -185 -67q-72 0 -145 35q-15 7 -9 22l35 88q2 6 9 9.5t14 0.5q39 -16 84 -16q48 0 79 28.5t31 71.5v54q0 6 -4.5 7.5t-8.5 -1.5
q-40 -25 -97 -25zM255 241q37 0 58 25t21 68v9q0 43 -19.5 68t-54.5 25q-36 0 -57 -25.5t-21 -67.5v-9q0 -43 19 -68t54 -25z" />
    <glyph glyph-name="zero.lnum" horiz-adv-x="520" 
d="M28 227v252q0 110 64 173q64 64 168 64t168 -64q64 -63 64 -173v-252q0 -109 -64 -173t-168 -64t-168 64t-64 173zM188 477v-246q0 -55 16 -81t56 -26t56 26t16 81v246q0 42 -11 70q-12 35 -61 35q-32 0 -49 -18q-16 -16 -19.5 -33t-3.5 -54z" />
    <glyph glyph-name="one.lnum" horiz-adv-x="520" 
d="M133 706h187q17 0 17 -17v-533q0 -12 12 -12h119q7 0 12 -5t5 -12v-110q0 -7 -5 -12t-12 -5h-422q-7 0 -12 5t-5 12v110q0 7 5 12t12 5h120q11 0 11 12v399q0 12 -11 12h-96q-9 0 -14.5 8.5t-0.5 17.5l63 105q5 8 15 8z" />
    <glyph glyph-name="two.lnum" horiz-adv-x="520" 
d="M235 716q115 0 181.5 -59t66.5 -160v-17q0 -76 -101 -195l-115 -133q-3 -3 -1 -8t7 -5h178q7 0 12 -5t5 -12v-105q0 -7 -5 -12t-12 -5h-382q-7 0 -12 5t-5 12v74q0 13 8 24l202 244q60 73 60 114v12q0 41 -28.5 66.5t-74.5 25.5q-52 0 -91 -18q-18 -7 -24 9l-34 86
q-7 15 8 23q74 39 157 39z" />
    <glyph glyph-name="three.lnum" horiz-adv-x="520" 
d="M339 439q64 -19 99 -71t35 -126v-17q0 -101 -75 -168q-74 -67 -187 -67q-74 0 -145 36q-14 8 -8 22l35 89q6 15 26 8q33 -16 80 -16q49 0 81 28.5t32 71.5v9q0 45 -32 74t-81 29q-35 0 -59 -7q-13 -3 -20 7l-12 20q-6 11 1 20l129 167q4 5 1.5 12t-9.5 7h-133
q-7 0 -12.5 5t-5.5 12v105q0 17 18 17h341q7 0 12 -5t5 -12v-73q0 -14 -12 -27l-110 -132q-4 -4 -2 -10.5t8 -7.5z" />
    <glyph glyph-name="four.lnum" horiz-adv-x="520" 
d="M29 270l256 424q7 12 23 12h120q17 0 17 -17v-405q0 -11 12 -11h37q8 0 13 -5.5t5 -12.5v-83q0 -18 -18 -18h-37q-12 0 -12 -11v-126q0 -7 -5 -12t-12 -5h-126q-7 0 -12 5t-5 12v126q0 11 -12 11h-232q-17 0 -17 18v79q0 11 5 19zM271 429l-84 -145q-2 -4 0 -7.5t7 -3.5
h79q12 0 12 11v142q0 5 -5.5 6.5t-8.5 -3.5z" />
    <glyph glyph-name="five.lnum" horiz-adv-x="520" 
d="M84 331v358q0 17 18 17h330q18 0 18 -17v-105q0 -7 -5.5 -12t-12.5 -5h-184q-12 0 -12 -12v-83q0 -12 13 -12h15q98 0 156 -58t58 -158v-18q0 -99 -76 -168q-77 -68 -186 -68q-74 0 -145 36q-14 8 -8 22l35 89q2 7 9.5 10t14.5 -1q39 -17 82 -17q49 0 81 29t32 73v9
q0 45 -31 73t-82 28q-54 0 -94 -25q-8 -5 -17 0t-9 15z" />
    <glyph glyph-name="six.lnum" horiz-adv-x="520" 
d="M301 442q92 0 145.5 -57.5t53.5 -154.5v-17q0 -95 -69 -159q-67 -64 -171 -64q-102 0 -166 62q-63 62 -63 161v268q0 102 73 168q73 67 185 67q72 0 145 -35q15 -7 9 -22l-35 -88q-2 -6 -9 -9.5t-14 -0.5q-39 16 -84 16q-48 0 -79 -28.5t-31 -71.5v-54q0 -6 4.5 -7.5
t8.5 1.5q40 25 97 25zM265 319q-37 0 -58 -25t-21 -68v-9q0 -43 19.5 -68t54.5 -25q36 0 57 25.5t21 67.5v9q0 43 -19 68t-54 25z" />
    <glyph glyph-name="seven.lnum" horiz-adv-x="520" 
d="M73 706h381q7 0 12 -5t5 -12v-67q0 -23 -7 -38l-205 -569q-5 -15 -21 -15h-144q-7 0 -11 6t-1 13l208 532q2 6 -1 11t-10 5h-206q-7 0 -12.5 5t-5.5 12v105q0 17 18 17z" />
    <glyph glyph-name="eight.lnum" horiz-adv-x="520" 
d="M481 514v-9q0 -77 -55 -129q-8 -8 0 -14q72 -59 72 -146v-18q0 -86 -66 -148q-67 -62 -172 -62t-172 62q-66 62 -66 148v18q0 88 73 146q8 6 0 14q-56 53 -56 129v9q0 85 61 143q62 59 160 59t160 -59q61 -58 61 -143zM193 502v-8q0 -31 18.5 -52.5t48.5 -21.5
q29 0 47.5 21.5t18.5 52.5v8q0 37 -17.5 58.5t-48.5 21.5t-49 -21.5t-18 -58.5zM187 230v-22q0 -39 20 -62.5t53 -23.5t52.5 23.5t19.5 62.5v22q0 35 -20 58t-52 23t-52.5 -23.5t-20.5 -57.5z" />
    <glyph glyph-name="nine.lnum" horiz-adv-x="520" 
d="M219 264q-92 0 -145.5 57.5t-53.5 154.5v17q0 94 68 159q68 64 172 64q102 0 166 -62q63 -62 63 -161v-268q0 -102 -73 -169q-74 -66 -185 -66q-72 0 -145 35q-15 7 -9 22l35 88q2 6 9 9.5t14 0.5q39 -16 84 -16q48 0 79 28.5t31 71.5v54q0 6 -4.5 7.5t-8.5 -1.5
q-40 -25 -97 -25zM255 387q37 0 58 25t21 68v9q0 43 -19.5 68t-54.5 25q-36 0 -57 -25.5t-21 -67.5v-9q0 -43 19 -68t54 -25z" />
    </font>
</defs>
</svg>
